<?xml version="1.0" standalone="no"?>
<!DOCTYPE svg PUBLIC "-//W3C//DTD SVG 20010904//EN"
 "http://www.w3.org/TR/2001/REC-SVG-20010904/DTD/svg10.dtd">
<svg version="1.0" xmlns="http://www.w3.org/2000/svg"
 width="872.000000pt" height="872.000000pt" viewBox="0 0 872.000000 872.000000"
 preserveAspectRatio="xMidYMid meet">
<metadata>
Created by potrace 1.14, written by Peter Selinger 2001-2017
</metadata>
<g transform="translate(0.000000,872.000000) scale(0.100000,-0.100000)"
fill="#000000" stroke="none">
<path d="M3458 7875 c-3 -3 -21 -8 -40 -10 -20 -3 -47 -9 -62 -15 -14 -5 -26
-8 -26 -5 0 4 -65 -17 -100 -32 -8 -3 -17 -7 -20 -8 -3 0 -26 -11 -52 -23 -26
-12 -51 -22 -57 -22 -5 0 -11 -4 -13 -8 -1 -5 -28 -25 -58 -44 -64 -41 -83
-57 -167 -140 -35 -34 -65 -70 -69 -80 -3 -10 -9 -18 -13 -18 -4 0 -23 -21
-41 -47 -19 -27 -39 -52 -45 -58 -6 -5 -35 -41 -64 -79 -29 -37 -59 -75 -67
-85 -11 -14 -377 -476 -440 -556 -46 -59 -355 -450 -368 -466 -7 -8 -46 -58
-86 -110 -41 -52 -77 -96 -80 -99 -3 -3 -28 -34 -55 -70 -27 -36 -55 -71 -62
-78 -7 -8 -26 -30 -41 -50 -38 -52 -112 -144 -128 -160 -8 -7 -14 -16 -14 -20
0 -4 -13 -21 -28 -39 -50 -57 -97 -116 -106 -132 -6 -9 -20 -27 -33 -41 -13
-14 -42 -51 -66 -82 -23 -32 -45 -58 -49 -58 -5 0 -8 -4 -8 -10 0 -9 -19 -34
-67 -88 -13 -14 -23 -28 -23 -31 0 -3 -10 -17 -23 -31 -27 -30 -174 -215 -202
-255 -11 -15 -28 -35 -37 -44 -10 -8 -18 -19 -18 -23 0 -4 -12 -20 -26 -35
-14 -15 -50 -59 -79 -98 -29 -38 -61 -80 -71 -92 -11 -12 -28 -33 -38 -48 -11
-14 -27 -35 -35 -45 -9 -10 -24 -27 -33 -38 -16 -20 -15 -20 895 -21 502 0
919 0 928 0 16 -1 17 -101 17 -1284 0 -706 3 -1304 7 -1328 12 -70 14 -81 26
-134 7 -27 22 -74 35 -102 13 -29 21 -53 19 -53 -9 0 81 -148 120 -200 119
-155 294 -282 471 -340 38 -13 70 -23 71 -22 2 0 17 -4 35 -9 18 -6 56 -13 83
-16 66 -9 2157 -9 2215 -1 149 21 307 81 431 163 60 41 188 158 235 217 5 7
32 42 60 77 27 36 56 72 64 82 8 9 25 29 37 45 12 16 31 40 42 54 11 14 24 30
29 35 4 6 75 96 157 200 82 105 160 204 174 221 15 16 37 45 51 63 14 19 32
42 40 51 8 10 29 35 45 56 17 21 52 65 78 98 26 34 53 68 60 76 7 8 28 35 47
60 19 25 40 52 47 60 7 8 53 67 103 130 50 63 100 125 111 138 10 12 19 25 19
28 0 4 8 14 18 23 10 9 29 32 42 51 13 19 32 42 42 51 10 9 18 21 18 27 0 6 4
12 8 14 5 2 33 35 63 73 29 39 58 75 64 81 5 6 37 46 70 89 33 43 67 85 75 94
8 9 28 35 45 56 16 22 34 45 40 52 5 7 15 18 20 25 58 73 159 200 245 309 58
74 168 213 245 310 77 97 151 191 165 209 14 18 32 41 40 50 35 42 47 57 68
88 l23 32 -23 0 c-13 1 -428 2 -923 3 l-900 2 -1 1258 c-1 691 -5 1290 -8
1330 -16 165 -69 310 -172 467 -55 85 -217 250 -245 250 -5 0 -9 5 -9 10 0 6
-7 10 -15 10 -8 0 -15 4 -15 8 0 4 -12 13 -27 19 -16 6 -44 20 -63 31 -63 36
-157 70 -240 88 -19 4 -42 10 -50 13 -20 7 -2235 12 -2242 6z m1227 -2162 c-1
-720 1 -1313 3 -1320 3 -9 167 -12 685 -12 375 0 703 0 729 0 l47 -1 -22 -23
c-22 -22 -36 -40 -137 -167 -28 -36 -56 -72 -63 -80 -7 -8 -36 -47 -66 -85
-30 -39 -60 -77 -68 -85 -7 -8 -34 -42 -60 -75 -61 -77 -66 -83 -78 -98 -6 -7
-33 -41 -60 -77 -28 -36 -52 -67 -55 -70 -3 -3 -33 -41 -68 -85 -34 -44 -68
-87 -75 -95 -7 -8 -27 -33 -43 -55 -16 -21 -39 -51 -51 -65 -18 -20 -160 -199
-337 -425 -13 -16 -95 -120 -183 -230 -87 -110 -174 -220 -193 -245 -19 -25
-37 -47 -40 -50 -3 -3 -21 -25 -40 -50 -19 -25 -38 -46 -42 -48 -5 -2 -8 -10
-8 -17 0 -7 -4 -15 -9 -17 -5 -1 -48 -52 -95 -113 -48 -60 -96 -123 -109 -139
-12 -15 -27 -33 -32 -40 -6 -6 -35 -42 -65 -81 -30 -38 -63 -79 -72 -89 -10
-11 -18 -24 -18 -28 0 -5 -3 -7 -8 -4 -4 2 -7 596 -7 1320 l0 1316 -30 0 c-16
1 -344 1 -727 1 -384 0 -698 2 -698 4 0 2 6 10 13 17 6 7 28 34 47 58 19 25
38 47 42 48 4 2 8 10 8 17 0 7 3 15 8 17 4 2 35 39 70 83 35 44 71 89 80 100
10 11 33 40 52 65 19 25 39 50 45 56 5 6 19 23 30 38 11 15 28 37 38 49 10 12
28 35 40 50 12 16 30 39 39 50 10 12 37 47 60 77 23 30 45 57 48 60 3 3 50 61
104 130 54 69 105 134 115 145 9 11 48 61 86 110 38 50 72 92 75 95 3 3 39 48
80 100 40 52 76 97 79 100 4 3 19 23 36 45 16 22 32 42 35 45 3 3 28 34 55 70
27 36 56 73 64 82 9 9 21 23 26 30 81 104 162 204 167 206 5 2 8 8 8 14 0 6 8
18 18 27 10 9 29 32 42 51 13 19 29 40 35 46 12 14 38 46 107 134 68 87 110
140 126 155 6 8 12 16 12 19 0 3 8 14 18 25 9 10 31 35 47 56 17 21 35 43 41
49 6 6 15 18 20 27 15 26 67 89 74 89 3 0 5 -588 5 -1307z"/>
</g>
</svg>
