<?xml version="1.0" standalone="no"?>
<!DOCTYPE svg PUBLIC "-//W3C//DTD SVG 1.1//EN" "http://www.w3.org/Graphics/SVG/1.1/DTD/svg11.dtd" >
<svg xmlns="http://www.w3.org/2000/svg" xmlns:xlink="http://www.w3.org/1999/xlink" version="1.1">
<metadata>
Created by FontForge 20170731 at Tue Jan 28 00:27:12 2020
 By Aleksey,,,
Copyright 2020 The Spartan Project Authors (https://github.com/bghryct/Spartan-MB)
</metadata>
<defs>
<font id="Spartan-Black" horiz-adv-x="1464" >
  <font-face 
    font-family="Spartan Black"
    font-weight="900"
    font-stretch="normal"
    units-per-em="2000"
    panose-1="0 0 0 0 0 0 0 0 0 0"
    ascent="1600"
    descent="-400"
    x-height="1024"
    cap-height="1650"
    bbox="-500 -590 3450 2398"
    underline-thickness="100"
    underline-position="-300"
    unicode-range="U+000D-FB02"
  />
<missing-glyph horiz-adv-x="728" 
d="M66 0v1333h530v-1333h-530zM132 66h398v1201h-398v-1201z" />
    <glyph glyph-name="fi" unicode="fi" horiz-adv-x="1492" 
d="M218 0h416v708h336v-708h416v1024h-752v164q0 102 31 150t121 48q71 0 145 -34.5t125 -71.5l138 296q-51 40 -131 80t-182.5 67t-222.5 27q-140 0 -238.5 -71t-150 -195t-51.5 -282v-178h-160v-316h160v-708z" />
    <glyph glyph-name="fl" unicode="fl" horiz-adv-x="1493" 
d="M179 0h416v708h228v316h-228v164q0 102 16 148t80 46q33 0 62 -9.5t46 -18.5l60 342q-33 18 -96 36t-146 18q-140 0 -238 -71t-149 -195t-51 -282v-178h-160v-316h160v-708zM921 0h416v1720h-416v-1720z" />
    <glyph glyph-name="f_f" unicode="ff" horiz-adv-x="1679" 
d="M179 0h416v708h358v-708h416v708h228v316h-228v164q0 102 16 148t80 46q32 0 59 -8t43 -16l144 290q-45 35 -127.5 68.5t-192.5 33.5q-140 0 -238 -71t-149 -195t-51 -282v-178h-358v164q0 102 16 148t80 46q34 0 62.5 -10t43.5 -18l144 292q-46 36 -130 70t-194 34
q-140 0 -238 -71t-149 -195t-51 -282v-178h-160v-316h160v-708z" />
    <glyph glyph-name="f_f_i" unicode="ffi" horiz-adv-x="2268" 
d="M218 0h416v708h360v-708h416v708h336v-708h416v1024h-752v164q0 102 31 150t121 48q71 0 145 -34.5t125 -71.5l138 296q-51 40 -131 80t-182.5 67t-222.5 27q-140 0 -238.5 -71t-150 -195t-51.5 -282v-178h-360v164q0 102 16 148t80 46q34 0 62.5 -10t43.5 -18l144 292
q-46 36 -130 70t-194 34q-140 0 -238 -71t-149 -195t-51 -282v-178h-160v-316h160v-708z" />
    <glyph glyph-name="f_f_l" unicode="ffl" horiz-adv-x="2267" 
d="M179 0h416v708h358v-708h416v708h228v316h-228v164q0 102 16 148t80 46q33 0 62 -9.5t46 -18.5l60 342q-33 18 -96 36t-146 18q-140 0 -238 -71t-149 -195t-51 -282v-178h-358v164q0 102 16 148t80 46q34 0 62.5 -10t43.5 -18l144 292q-46 36 -130 70t-194 34
q-140 0 -238 -71t-149 -195t-51 -282v-178h-160v-316h160v-708zM1695 0h416v1720h-416v-1720z" />
    <glyph glyph-name=".notdef" horiz-adv-x="728" 
d="M66 0v1333h530v-1333h-530zM132 66h398v1201h-398v-1201z" />
    <glyph glyph-name=".null" horiz-adv-x="0" 
 />
    <glyph glyph-name="nonmarkingreturn" horiz-adv-x="666" 
 />
    <glyph glyph-name="NULL" horiz-adv-x="0" 
 />
    <glyph glyph-name="NULL" horiz-adv-x="0" 
 />
    <glyph glyph-name="CR" unicode="&#xd;" horiz-adv-x="556" 
 />
    <glyph glyph-name="space" unicode=" " horiz-adv-x="556" 
 />
    <glyph glyph-name="exclam" unicode="!" horiz-adv-x="806" 
d="M253 580h300l58 1140h-416zM401 -32q74 0 134.5 35.5t96 96t35.5 134.5t-35.5 134.5t-96 96t-134.5 35.5t-134.5 -35.5t-96 -96t-35.5 -134.5t35.5 -134.5t96 -96t134.5 -35.5z" />
    <glyph glyph-name="quotedbl" unicode="&#x22;" horiz-adv-x="1202" 
d="M733 866h244l74 820h-392zM225 866h244l74 820h-392z" />
    <glyph glyph-name="numbersign" unicode="#" horiz-adv-x="1645" 
d="M276 0h282l50 442h326l-50 -442h282l50 442h308v284h-272l30 256h242v284h-210l54 440h-284l-52 -440h-326l54 440h-284l-52 -440h-302v-284h268l-30 -256h-238v-284h204zM644 726l30 256h326l-32 -256h-324z" />
    <glyph glyph-name="dollar" unicode="$" horiz-adv-x="1406" 
d="M609 -276h250v260q212 36 336 172.5t124 339.5q0 122 -51 216t-164.5 173t-300.5 155q-69 28 -127.5 60.5t-58.5 88.5q0 44 41 67.5t114 23.5q78 0 167 -26t168 -70l174 354q-82 50 -196.5 87t-225.5 49v252h-250v-262q-137 -33 -231.5 -112t-143.5 -181t-49 -206
q0 -139 83 -244.5t227 -174.5q168 -80 254 -134.5t86 -129.5q0 -49 -38.5 -77.5t-115.5 -28.5q-93 0 -209.5 42t-222.5 114l-218 -374q101 -79 257 -130t321 -58v-246z" />
    <glyph glyph-name="percent" unicode="%" horiz-adv-x="1953" 
d="M489 892q129 0 232.5 50t163.5 139t60 205t-60 205t-163.5 139t-232.5 50t-232 -50t-163.5 -139t-60.5 -205t60.5 -205t163.5 -139t232 -50zM363 0h274l960 1650h-274zM489 1136q-61 0 -107.5 42t-46.5 108t46.5 108t107.5 42q62 0 108 -42t46 -108t-46 -108t-108 -42z
M1463 -30q129 0 232.5 50t163.5 139t60 205t-60 205t-163.5 139t-232.5 50t-232 -50t-163.5 -139t-60.5 -205t60.5 -205t163.5 -139t232 -50zM1463 214q-61 0 -107.5 42t-46.5 108t46.5 108t107.5 42q62 0 108 -42t46 -108t-46 -108t-108 -42z" />
    <glyph glyph-name="ampersand" unicode="&#x26;" horiz-adv-x="1856" 
d="M621 -32q161 0 298 48.5t251 133.5l148 -150h556l-372 384q46 34 111 91t133 123l-270 268q-51 -51 -121 -107.5t-129 -94.5l-162 162q155 86 237.5 195t82.5 228q0 71 -31.5 147t-97 141t-167.5 105t-243 40q-149 0 -272.5 -50t-197 -148t-73.5 -243q0 -88 34 -172
t116 -197q-206 -79 -305 -189.5t-99 -262.5q0 -132 69.5 -234t198 -160t305.5 -58zM846 1064q-42 43 -68 92t-26 98q0 53 31 86.5t85 33.5q58 0 94 -36t36 -86q0 -92 -152 -188zM685 388q-61 0 -98 26.5t-37 75.5q0 50 36 93.5t88 54.5l206 -190q-44 -28 -95 -44t-100 -16z
" />
    <glyph glyph-name="quotesingle" unicode="'" horiz-adv-x="694" 
d="M225 866h244l74 820h-392z" />
    <glyph glyph-name="parenleft" unicode="(" horiz-adv-x="727" 
d="M425 -520l268 114q-59 87 -113 237.5t-88.5 350t-34.5 433.5q0 260 40 467t95.5 349t100.5 205l-268 114q-55 -74 -115.5 -187.5t-112.5 -260.5t-84.5 -320.5t-32.5 -367.5q0 -193 32 -366t84 -319t112.5 -260t116.5 -189z" />
    <glyph glyph-name="parenright" unicode=")" horiz-adv-x="726" 
d="M302 -520q170 235 256 531.5t86 602.5q0 313 -88 610t-254 526l-268 -114q72 -107 124.5 -267.5t81 -354t28.5 -400.5q0 -206 -28.5 -399.5t-81 -353.5t-124.5 -267z" />
    <glyph glyph-name="asterisk" unicode="*" horiz-adv-x="1042" 
d="M369 952l150 194l150 -194l156 106l-140 212l242 88l-60 188l-244 -76v250h-208v-250l-244 76l-60 -188l242 -88l-140 -212z" />
    <glyph glyph-name="plus" unicode="+" horiz-adv-x="1280" 
d="M460 316h360v334h334v360h-334v334h-360v-334h-334v-360h334v-334z" />
    <glyph glyph-name="comma" unicode="," horiz-adv-x="777" 
d="M277 -414q186 153 287 319t101 317q0 128 -70.5 203t-191.5 75q-118 0 -193 -72t-75 -188q0 -92 51.5 -157.5t144.5 -90.5q-9 -47 -38.5 -109t-66.5 -117t-69 -82z" />
    <glyph glyph-name="hyphen" unicode="-" horiz-adv-x="958" 
d="M157 400h644v358h-644v-358z" />
    <glyph glyph-name="period" unicode="." horiz-adv-x="851" 
d="M424 -32q74 0 134.5 35.5t96 96t35.5 134.5t-35.5 134.5t-96 96t-134.5 35.5t-134.5 -35.5t-96 -96t-35.5 -134.5t35.5 -134.5t96 -96t134.5 -35.5z" />
    <glyph glyph-name="slash" unicode="/" horiz-adv-x="996" 
d="M-93 -240h358l824 1960h-358z" />
    <glyph glyph-name="zero" unicode="0" horiz-adv-x="1506" 
d="M753 -32q203 0 356.5 108t239.5 301t86 447t-86 447t-239.5 301t-356.5 108q-202 0 -356 -108t-240 -301t-86 -447t86 -447t240 -301t356 -108zM753 354q-104 0 -161 123t-57 347t57 347t161 123t161 -123t57 -347t-57 -347t-161 -123z" />
    <glyph glyph-name="one" unicode="1" horiz-adv-x="924" 
d="M296 0h440v1650h-746v-432h306v-1218z" />
    <glyph glyph-name="two" unicode="2" horiz-adv-x="1448" 
d="M25 0h1320v386h-540q510 337 510 734q0 163 -80 290t-222.5 199.5t-330.5 72.5q-235 0 -400.5 -120t-252.5 -352l364 -182q65 144 125 205t136 61q83 0 135 -56.5t52 -132.5q0 -91 -85.5 -213t-265.5 -285t-465 -377v-230z" />
    <glyph glyph-name="three" unicode="3" horiz-adv-x="1355" 
d="M635 -32q185 0 329.5 73t227.5 200t83 289q0 230 -188 368q114 118 114 288q0 144 -72.5 255.5t-200.5 175t-293 63.5q-135 0 -250 -43t-197.5 -122t-122.5 -187l344 -172q20 79 80.5 125.5t137.5 46.5t126.5 -43.5t49.5 -106.5q0 -64 -47.5 -116t-110.5 -52h-90v-284
q34 14 79 14q86 0 144.5 -58.5t58.5 -150.5q0 -86 -54.5 -136.5t-146.5 -50.5q-106 0 -167 64t-74 164l-406 -204q49 -123 144.5 -212.5t224 -138.5t277.5 -49z" />
    <glyph glyph-name="four" unicode="4" horiz-adv-x="1463" 
d="M796 0h412v292h192v386h-192v972h-436l-796 -1234v-124h820v-292zM580 678l216 386v-386h-216z" />
    <glyph glyph-name="five" unicode="5" horiz-adv-x="1315" 
d="M608 -30q181 0 322 73t222 205.5t81 308.5q0 275 -189 419q-152 116 -407 116l26 172h464v386h-842l-144 -916q57 16 121.5 25t134.5 9q188 0 291 -63t103 -179q0 -79 -50 -133.5t-146 -54.5q-85 0 -146.5 44t-77.5 114l-348 -168q43 -118 131.5 -197.5t206 -120
t247.5 -40.5z" />
    <glyph glyph-name="six" unicode="6" horiz-adv-x="1373" 
d="M719 -32q187 0 326.5 72t217 201.5t77.5 303.5q0 166 -65 293t-180.5 199.5t-265.5 72.5q-66 0 -99 -14l468 554h-532l-332 -406q-139 -169 -216.5 -346.5t-77.5 -326.5q0 -176 87 -312t240.5 -213.5t351.5 -77.5zM696 332q-86 0 -142 56t-56 143q0 88 56.5 145.5
t141.5 57.5q86 0 144 -58t58 -145q0 -86 -57.5 -142.5t-144.5 -56.5z" />
    <glyph glyph-name="seven" unicode="7" horiz-adv-x="1352" 
d="M6 0h520l872 1524v126h-1332v-386h680z" />
    <glyph glyph-name="eight" unicode="8" horiz-adv-x="1437" 
d="M718 -32q178 0 324 63.5t233 176t87 258.5q0 139 -77.5 254.5t-204.5 173.5q95 56 152.5 150.5t57.5 203.5q0 108 -52.5 189t-137.5 135t-186 81t-197 27q-154 0 -284 -56t-208.5 -153.5t-78.5 -224.5q0 -103 55 -198t155 -154q-124 -57 -203 -172t-79 -255
q0 -147 87 -259.5t233.5 -176t323.5 -63.5zM718 1052q-64 0 -106 42t-42 106q0 63 42.5 105.5t105.5 42.5t105.5 -42.5t42.5 -105.5q0 -64 -42 -106t-106 -42zM718 348q-74 0 -118 48t-44 121q0 77 46 124t116 47q71 0 116.5 -48t45.5 -123q0 -73 -43.5 -121t-118.5 -48z
" />
    <glyph glyph-name="nine" unicode="9" horiz-adv-x="1373" 
d="M171 0h532l332 406q69 85 124 158.5t93.5 149t58 165.5t18.5 207q-1 162 -84.5 297.5t-235 217t-358.5 81.5q-202 0 -340.5 -77.5t-210 -207t-71.5 -286.5q0 -128 44.5 -233t119 -180.5t166 -116.5t186.5 -41q61 0 94 14zM673 916q-86 0 -144 58t-58 145q0 86 57.5 142.5
t144.5 56.5q86 0 142 -56t56 -143q0 -88 -56 -145.5t-142 -57.5z" />
    <glyph glyph-name="colon" unicode=":" horiz-adv-x="818" 
d="M404 638q74 0 134.5 35.5t96 96t35.5 134.5t-35.5 134.5t-96 96t-134.5 35.5t-134.5 -35.5t-96 -96t-35.5 -134.5t35.5 -134.5t96 -96t134.5 -35.5zM404 -32q74 0 134.5 35.5t96 96t35.5 134.5t-35.5 134.5t-96 96t-134.5 35.5t-134.5 -35.5t-96 -96t-35.5 -134.5
t35.5 -134.5t96 -96t134.5 -35.5z" />
    <glyph glyph-name="semicolon" unicode=";" horiz-adv-x="789" 
d="M404 638q74 0 134.5 35.5t96 96t35.5 134.5t-35.5 134.5t-96 96t-134.5 35.5t-134.5 -35.5t-96 -96t-35.5 -134.5t35.5 -134.5t96 -96t134.5 -35.5zM277 -414q186 153 287 319t101 317q0 128 -70.5 203t-191.5 75q-118 0 -193 -72t-75 -188q0 -92 51.5 -157.5
t144.5 -90.5q-9 -47 -38.5 -109t-66.5 -117t-69 -82z" />
    <glyph glyph-name="less" unicode="&#x3c;" horiz-adv-x="1366" 
d="M1179 270v330l-650 232l650 232v330l-1092 -424v-276z" />
    <glyph glyph-name="equal" unicode="=" horiz-adv-x="1498" 
d="M235 904h1028v360h-1028v-360zM235 398h1028v360h-1028v-360z" />
    <glyph glyph-name="greater" unicode="&#x3e;" horiz-adv-x="1366" 
d="M187 270l1092 424v276l-1092 424v-330l650 -232l-650 -232v-330z" />
    <glyph glyph-name="question" unicode="?" horiz-adv-x="1138" 
d="M350 574h386v128q96 28 180.5 97.5t137 168.5t52.5 213q0 133 -73 246.5t-201 183t-294 69.5q-135 0 -249 -49.5t-193.5 -139t-111.5 -211.5l340 -76q23 58 75.5 84t126.5 26q95 0 142.5 -36.5t47.5 -97.5q0 -132 -216 -132q-45 0 -86 5.5t-64 12.5v-492zM542 -32
q74 0 134.5 35.5t96 96t35.5 134.5t-35.5 134.5t-96 96t-134.5 35.5t-134.5 -35.5t-96 -96t-35.5 -134.5t35.5 -134.5t96 -96t134.5 -35.5z" />
    <glyph glyph-name="at" unicode="@" horiz-adv-x="1929" 
d="M1007 -551q157 0 274 39.5t195.5 97t118.5 111.5l-268 180q-37 -31 -118 -64.5t-200 -33.5t-224 40t-185 112t-125.5 168.5t-45.5 210.5q0 100 37 198.5t110 179.5t180.5 130t248.5 49q100 0 204 -28.5t192 -89t142 -154.5t54 -226q0 -70 -15.5 -104.5t-40.5 -45.5
t-54 -11q-52 0 -74 19t-26.5 43t-4.5 38v318h-253v-33q-81 52 -190 52q-99 0 -173.5 -47t-116 -126t-41.5 -175q0 -98 42.5 -177t115.5 -125t166 -46q75 0 127 28.5t88 65.5q59 -40 130 -58t156 -18q72 0 147.5 16.5t139 60.5t102.5 126.5t39 214.5q0 165 -64.5 306.5
t-181 246.5t-273 164t-340.5 59q-186 0 -351 -61t-291 -174.5t-197.5 -269.5t-71.5 -347q0 -192 72.5 -350t200 -272t293 -176t350.5 -62zM1012 195q-49 0 -79 28t-30 74q0 50 33.5 80.5t77.5 30.5t78.5 -30t34.5 -79q0 -46 -32.5 -75t-82.5 -29z" />
    <glyph glyph-name="A" unicode="A" horiz-adv-x="1670" 
d="M-41 0h474l99 274h606l99 -274h474l-672 1650h-408zM682 660l153 392l153 -392h-306z" />
    <glyph glyph-name="B" unicode="B" horiz-adv-x="1342" 
d="M98 0h666q166 0 288.5 57.5t190 164.5t67.5 256q0 167 -87.5 270t-254.5 132q196 110 196 356q0 210 -136 312t-372 102h-558v-1650zM538 1032v280h10q98 0 144 -33t46 -103q0 -144 -190 -144h-10zM538 338v316h68q240 0 240 -162q0 -79 -58 -116.5t-182 -37.5h-68z" />
    <glyph glyph-name="C" unicode="C" horiz-adv-x="1476" 
d="M953 -32q155 0 292.5 43t226.5 103l-186 376q-54 -41 -136.5 -65.5t-169.5 -24.5q-133 0 -241.5 55.5t-172.5 151.5t-64 217t64 217t172.5 151.5t241.5 55.5q87 0 169.5 -24.5t136.5 -65.5l186 376q-94 63 -232.5 104.5t-288.5 41.5q-186 0 -353 -66.5t-295.5 -184.5
t-202.5 -273.5t-74 -332.5t73.5 -331.5t202.5 -272.5t296.5 -184.5t354.5 -66.5z" />
    <glyph glyph-name="D" unicode="D" horiz-adv-x="1594" 
d="M196 0h508q176 0 327.5 62.5t265 174.5t176.5 262t63 324t-63.5 324.5t-177 263.5t-264.5 176t-327 63h-508v-1650zM636 394v862h16q120 0 212 -55.5t144 -152.5t52 -224q0 -126 -52 -223t-144 -152t-212 -55h-16z" />
    <glyph glyph-name="E" unicode="E" horiz-adv-x="1340" 
d="M196 0h976v386h-536v248h512v386h-512v244h536v386h-976v-1650z" />
    <glyph glyph-name="F" unicode="F" horiz-adv-x="1260" 
d="M196 0h440v634h504v386h-504v244h548v386h-988v-1650z" />
    <glyph glyph-name="G" unicode="G" horiz-adv-x="1697" 
d="M869 -32q154 0 291.5 52.5t243.5 145t166.5 212.5t60.5 254v320h-762v-338h314v-2q0 -63 -38.5 -117t-104 -87.5t-146.5 -33.5q-100 0 -180 56t-126.5 161.5t-46.5 254.5q0 204 94 322.5t276 118.5q91 0 202 -31.5t193 -93.5l202 342q-88 61 -192.5 100t-211 57.5
t-201.5 18.5q-188 0 -342 -65.5t-265 -182t-171 -272t-60 -334.5q0 -184 61.5 -340.5t171.5 -272.5t256 -180.5t315 -64.5z" />
    <glyph glyph-name="H" unicode="H" horiz-adv-x="1696" 
d="M196 0h440v634h424v-634h440v1650h-440v-630h-424v630h-440v-1650z" />
    <glyph glyph-name="I" unicode="I" horiz-adv-x="832" 
d="M196 0h440v1650h-440v-1650z" />
    <glyph glyph-name="J" unicode="J" horiz-adv-x="1045" 
d="M375 -32q230 0 361.5 129.5t131.5 366.5v1186h-440v-1076q0 -84 -35.5 -134t-94.5 -50q-74 0 -190 100l-140 -364q171 -158 407 -158z" />
    <glyph glyph-name="K" unicode="K" horiz-adv-x="1740" 
d="M196 0h440v662l552 -662h606l-750 872l640 778h-534l-514 -642v642h-440v-1650z" />
    <glyph glyph-name="L" unicode="L" horiz-adv-x="1157" 
d="M196 0h972v386h-532v1264h-440v-1650z" />
    <glyph glyph-name="M" unicode="M" horiz-adv-x="2122" 
d="M131 0h440l48 866l312 -866h260l312 866l48 -866h440l-130 1650h-468l-332 -856l-332 856h-468z" />
    <glyph glyph-name="N" unicode="N" horiz-adv-x="1864" 
d="M196 0h440v920l592 -920h440v1650h-440v-920l-592 920h-440v-1650z" />
    <glyph glyph-name="O" unicode="O" horiz-adv-x="1788" 
d="M894 -32q173 0 324 66t265 183.5t178.5 273t64.5 333.5t-64.5 333.5t-178.5 273t-265 183.5t-324 66t-324 -66t-265 -183.5t-178.5 -273t-64.5 -333.5t64.5 -333.5t178.5 -273t265 -183.5t324 -66zM894 392q-163 0 -260.5 118t-97.5 314t97.5 314t260.5 118t260.5 -118
t97.5 -314t-97.5 -314t-260.5 -118z" />
    <glyph glyph-name="P" unicode="P" horiz-adv-x="1448" 
d="M196 0h440v588h212q160 0 290 62t207 182.5t77 297.5q0 178 -77 293t-207 171t-290 56h-652v-1650zM636 936v364h68q59 0 117.5 -13.5t97.5 -53t39 -117.5q0 -77 -39 -115.5t-97.5 -51.5t-117.5 -13h-68z" />
    <glyph glyph-name="Q" unicode="Q" horiz-adv-x="1871" 
d="M1636 -54l194 392q-105 27 -210 66q106 194 106 420q0 178 -64.5 333.5t-178.5 273t-265 183.5t-324 66t-324 -66t-265 -183.5t-178.5 -273t-64.5 -333.5t64.5 -333.5t178.5 -273t265 -183.5t324 -66q240 0 440 128q150 -92 302 -150zM894 392q-163 0 -260.5 118
t-97.5 314t97.5 314t260.5 118t260.5 -118t97.5 -314q0 -109 -36 -204q-141 97 -262 228l-186 -234q39 -57 86 -111.5t100 -106.5q-13 -1 -29 -2.5t-31 -1.5z" />
    <glyph glyph-name="R" unicode="R" horiz-adv-x="1584" 
d="M196 0h440v572h1l443 -572h558l-534 626q154 65 236 195t82 307q0 166 -71 282.5t-200 178t-303 61.5h-652v-1650zM636 936v364h68q254 0 254 -184q0 -180 -254 -180h-68z" />
    <glyph glyph-name="S" unicode="S" horiz-adv-x="1361" 
d="M637 -32q200 0 346 63t225.5 182t79.5 285q0 139 -57 231.5t-171.5 164t-287.5 146.5q-105 46 -145.5 69.5t-40.5 68.5q0 50 42 76t115 26q76 0 165 -26t168 -70l174 354q-67 42 -156 74t-183.5 50t-178.5 18q-131 0 -237.5 -43t-182.5 -116t-117 -164.5t-41 -189.5
q0 -141 84 -247t226 -174q125 -59 199.5 -97.5t107.5 -74t33 -85.5q0 -113 -154 -113q-72 0 -149.5 22.5t-150.5 58t-132 75.5l-218 -374q56 -45 151.5 -89t219.5 -72.5t266 -28.5z" />
    <glyph glyph-name="T" unicode="T" horiz-adv-x="1138" 
d="M349 0h440v1264h360v386h-1160v-386h360v-1264z" />
    <glyph glyph-name="U" unicode="U" horiz-adv-x="1663" 
d="M831 -32q329 0 497.5 155.5t168.5 458.5v1068h-440v-936q0 -178 -49 -246t-177 -68t-177 68t-49 246v936h-440v-1068q0 -303 169 -458.5t497 -155.5z" />
    <glyph glyph-name="V" unicode="V" horiz-adv-x="1642" 
d="M649 0h344l692 1650h-496l-368 -988l-368 988h-496z" />
    <glyph glyph-name="W" unicode="W" horiz-adv-x="2300" 
d="M456 0h488l206 804l206 -804h488l466 1650h-490l-244 -1040l-262 1040h-328l-262 -1040l-244 1040h-490z" />
    <glyph glyph-name="X" unicode="X" horiz-adv-x="1680" 
d="M-52 0h544l348 506l348 -506h544l-622 888l518 762h-524l-264 -398l-264 398h-524l518 -762z" />
    <glyph glyph-name="Y" unicode="Y" horiz-adv-x="1540" 
d="M550 0h440v748l620 902h-530l-310 -458l-310 458h-530l620 -902v-748z" />
    <glyph glyph-name="Z" unicode="Z" horiz-adv-x="1516" 
d="M-8 0h1456v384h-690l742 1266h-1390v-384h624z" />
    <glyph glyph-name="bracketleft" unicode="[" horiz-adv-x="893" 
d="M188 -520h708v270h-352v1700h352v270h-708v-2240z" />
    <glyph glyph-name="backslash" unicode="\" horiz-adv-x="996" 
d="M731 0h358l-824 1720h-358z" />
    <glyph glyph-name="bracketright" unicode="]" horiz-adv-x="893" 
d="M-3 -520h708v2240h-708v-270h352v-1700h-352v-270z" />
    <glyph glyph-name="asciicircum" unicode="^" horiz-adv-x="1128" 
d="M42 1210h376l146 174l146 -174h376l-414 472h-216z" />
    <glyph glyph-name="underscore" unicode="_" horiz-adv-x="1340" 
d="M157 -202h1026v196h-1026v-196z" />
    <glyph glyph-name="grave" unicode="`" horiz-adv-x="652" 
d="M436 1075l167 140l-335 483l-268 -205z" />
    <glyph glyph-name="a" unicode="a" 
d="M579 -32q167 0 312 112v-80h416v1024h-416v-66q-130 98 -312 98q-149 0 -263 -72t-178.5 -194.5t-64.5 -275.5q0 -158 68 -281.5t183 -194t255 -70.5zM707 320q-84 0 -139 54.5t-55 137.5t55.5 137.5t138.5 54.5t137.5 -54.5t54.5 -137.5t-54 -137.5t-138 -54.5z" />
    <glyph glyph-name="b" unicode="b" horiz-adv-x="1465" 
d="M890 -32q136 0 250 69t182.5 192t68.5 283q0 155 -66 278t-181.5 194.5t-264.5 71.5q-88 0 -167 -25.5t-139 -72.5v762h-416v-1720h416v80q145 -112 317 -112zM760 320q-85 0 -140 54t-55 136q0 83 56 138.5t138 55.5t137 -55.5t55 -139.5q0 -82 -53 -135.5t-138 -53.5z
" />
    <glyph glyph-name="c" unicode="c" horiz-adv-x="1010" 
d="M639 -32q99 0 188.5 27.5t141.5 64.5l-136 280q-19 -13 -52.5 -23.5t-73.5 -10.5q-98 0 -155 62t-57 144q0 44 21.5 92t68 81t120.5 33q78 0 128 -34l136 280q-50 38 -142 65t-190 27q-125 0 -231.5 -45.5t-185 -123t-122 -175t-43.5 -201.5q0 -111 46.5 -209.5
t127.5 -173.5t186.5 -117.5t223.5 -42.5z" />
    <glyph glyph-name="d" unicode="d" 
d="M574 -32q172 0 317 112v-80h416v1720h-416v-762q-60 47 -139 72.5t-167 25.5q-149 0 -264.5 -71.5t-181.5 -194.5t-66 -278q0 -160 68.5 -283t182.5 -192t250 -69zM704 320q-85 0 -138 53.5t-53 135.5q0 84 55.5 139.5t137.5 55.5t137.5 -55.5t55.5 -138.5
q0 -82 -54.5 -136t-140.5 -54z" />
    <glyph glyph-name="e" unicode="e" horiz-adv-x="1264" 
d="M658 -32q168 0 304.5 72.5t208.5 199.5l-298 148q-54 -52 -94.5 -72t-96.5 -20q-91 0 -142 42t-51 116h694q3 39 3.5 50.5t0.5 24.5q0 157 -68 275.5t-188.5 185t-280.5 66.5q-167 0 -301 -71.5t-212 -194t-78 -276.5q0 -155 79 -278.5t214.5 -195.5t305.5 -72zM501 650
q2 120 138 120q123 0 142 -120h-280z" />
    <glyph glyph-name="f" unicode="f" horiz-adv-x="887" 
d="M218 0h416v708h228v316h-228v164q0 55 4 99t24.5 69.5t69.5 25.5q52 0 100 -24l144 290q-60 47 -146 74.5t-172 27.5q-136 0 -234.5 -68.5t-152 -192t-53.5 -287.5v-178h-160v-316h160v-708z" />
    <glyph glyph-name="g" unicode="g" 
d="M679 -550q223 0 361.5 73t202.5 192t64 257v1052h-416v-66q-60 47 -139 72.5t-167 25.5q-149 0 -264.5 -71.5t-181.5 -194.5t-66 -278q0 -160 68.5 -283t182.5 -192t250 -69q172 0 317 112v-72q0 -82 -57.5 -140t-156.5 -58q-67 0 -130.5 28t-101.5 76l-336 -166
q63 -147 208.5 -222.5t361.5 -75.5zM704 320q-85 0 -138 53.5t-53 135.5q0 84 55.5 139.5t137.5 55.5t137.5 -55.5t55.5 -138.5q0 -82 -54.5 -136t-140.5 -54z" />
    <glyph glyph-name="h" unicode="h" horiz-adv-x="1461" 
d="M157 0h416v564q0 77 46 123.5t122 46.5t122 -46.5t46 -123.5v-564h416v654q0 115 -54 205.5t-146.5 143.5t-209.5 53q-92 0 -181.5 -33.5t-160.5 -94.5v792h-416v-1720z" />
    <glyph glyph-name="i" unicode="i" horiz-adv-x="730" 
d="M365 1243q66 0 120.5 32.5t87 87.5t32.5 121t-32.5 120.5t-87 87t-120.5 32.5t-121 -32.5t-87.5 -87t-32.5 -120.5t32.5 -121t87.5 -87.5t121 -32.5zM157 0h416v1024h-416v-1024z" />
    <glyph glyph-name="j" unicode="j" horiz-adv-x="730" 
d="M365 1243q66 0 120.5 32.5t87 87.5t32.5 121t-32.5 120.5t-87 87t-120.5 32.5t-121 -32.5t-87.5 -87t-32.5 -120.5t32.5 -121t87.5 -87.5t121 -32.5zM168 -550q188 0 296.5 113t108.5 299v1162h-416v-1080q0 -120 -77 -120q-36 0 -85 28l-128 -334q52 -31 139 -49.5
t162 -18.5z" />
    <glyph glyph-name="k" unicode="k" horiz-adv-x="1426" 
d="M157 0h416v350l384 -350h534l-546 508l524 516h-538l-358 -344v1040h-416v-1720z" />
    <glyph glyph-name="l" unicode="l" horiz-adv-x="730" 
d="M157 0h416v1720h-416v-1720z" />
    <glyph glyph-name="m" unicode="m" horiz-adv-x="2098" 
d="M157 0h416v574q0 72 36.5 112t100.5 40q68 0 103.5 -42.5t35.5 -111.5v-572h416v588q0 65 36.5 101.5t100.5 36.5q65 0 102 -41t37 -113v-572h416v684q0 110 -50 194t-137 131t-199 47q-100 0 -182.5 -42.5t-167.5 -137.5q-45 81 -141 130.5t-208 49.5q-76 0 -144 -29
t-155 -99v96h-416v-1024z" />
    <glyph glyph-name="n" unicode="n" horiz-adv-x="1461" 
d="M157 0h416v564q0 77 46 123.5t122 46.5t122 -46.5t46 -123.5v-564h416v654q0 115 -54 205.5t-146.5 143.5t-209.5 53q-92 0 -181.5 -33.5t-160.5 -94.5v96h-416v-1024z" />
    <glyph glyph-name="o" unicode="o" horiz-adv-x="1366" 
d="M683 -32q176 0 317.5 69.5t224 192t82.5 282.5t-82.5 282.5t-224 192t-317.5 69.5t-317.5 -69.5t-224 -192t-82.5 -282.5t82.5 -282.5t224 -192t317.5 -69.5zM683 320q-76 0 -132 53.5t-56 138.5q0 86 56 139t132 53q77 0 132.5 -53t55.5 -139q0 -85 -55.5 -138.5
t-132.5 -53.5z" />
    <glyph glyph-name="p" unicode="p" horiz-adv-x="1465" 
d="M157 -520h416v600q144 -112 317 -112q142 0 255.5 72t179.5 195t66 277q0 156 -66.5 279t-182 194t-262.5 71q-179 0 -307 -98v66h-416v-1544zM760 320q-85 0 -140 54t-55 137t56 138t138 55t137 -55.5t55 -138.5t-53.5 -136.5t-137.5 -53.5z" />
    <glyph glyph-name="q" unicode="q" 
d="M891 -520h416v1544h-416v-66q-129 98 -306 98q-147 0 -263 -71t-182.5 -194t-66.5 -279q0 -154 66 -277t179.5 -195t255.5 -72q173 0 317 112v-600zM705 320q-85 0 -138.5 53.5t-53.5 138.5q0 82 55.5 137t137.5 55q83 0 138 -55t55 -138t-55 -137t-139 -54z" />
    <glyph glyph-name="r" unicode="r" horiz-adv-x="1078" 
d="M157 0h416v502q0 51 29 95t76.5 71.5t100.5 27.5q42 0 92.5 -17t87.5 -45l174 350q-43 32 -109 52t-125 20q-91 0 -176.5 -46.5t-149.5 -129.5v144h-416v-1024z" />
    <glyph glyph-name="s" unicode="s" horiz-adv-x="1046" 
d="M464 -32q242 0 370 91.5t128 266.5q0 91 -32.5 147t-87 90t-122.5 57q-37 13 -87 31t-87.5 40t-37.5 46q0 17 21.5 29t60.5 12q79 0 232 -58l130 274q-118 32 -206.5 46t-159.5 14q-140 0 -247 -45t-167 -125t-60 -185q0 -79 33 -130t86.5 -84t114.5 -60
q97 -42 137.5 -59.5t40.5 -54.5q0 -39 -59 -39q-109 0 -259 94l-164 -288q155 -110 422 -110z" />
    <glyph glyph-name="t" unicode="t" horiz-adv-x="940" 
d="M577 -32q73 0 150 18.5t141 51.5l-104 334q-43 -32 -83 -32q-65 0 -65 80v288h204v316h-204v384h-416v-384h-160v-316h160v-320q0 -198 99.5 -309t277.5 -111z" />
    <glyph glyph-name="u" unicode="u" horiz-adv-x="1441" 
d="M720 -32q313 0 452.5 115t139.5 371v570h-416v-466q0 -141 -39 -197.5t-137 -56.5q-97 0 -136.5 56.5t-39.5 197.5v466h-416v-570q0 -256 139.5 -371t452.5 -115z" />
    <glyph glyph-name="v" unicode="v" horiz-adv-x="1280" 
d="M500 0h280l566 1024h-492l-214 -484l-214 484h-492z" />
    <glyph glyph-name="w" unicode="w" horiz-adv-x="1984" 
d="M500 0h280l212 452l212 -452h280l566 1024h-476l-216 -480l-224 480h-284l-224 -480l-216 480h-476z" />
    <glyph glyph-name="x" unicode="x" horiz-adv-x="1266" 
d="M-57 0h500l190 248l190 -248h500l-440 540l376 484h-484l-142 -194l-142 194h-484l376 -484z" />
    <glyph glyph-name="y" unicode="y" horiz-adv-x="1281" 
d="M31 -520h478l836 1544h-478l-208 -432l-252 432h-478l486 -826z" />
    <glyph glyph-name="z" unicode="z" horiz-adv-x="1180" 
d="M16 0h1080v312h-392l436 712h-1038v-312h350z" />
    <glyph glyph-name="braceleft" unicode="{" horiz-adv-x="798" 
d="M515 -520h226v296h-90q-36 0 -67 30t-31 72v480q0 95 -41.5 153.5t-100.5 88.5q59 30 100.5 87.5t41.5 154.5v480q0 42 31 72t67 30h90v296h-226q-96 0 -158 -32.5t-97 -86t-49 -117.5t-14 -126v-512q0 -73 -42.5 -105.5t-113.5 -32.5v-216q71 0 113.5 -32t42.5 -106
v-512q0 -62 14 -126t49 -117.5t97 -86t158 -32.5z" />
    <glyph glyph-name="bar" unicode="|" horiz-adv-x="826" 
d="M235 0h356v1720h-356v-1720z" />
    <glyph glyph-name="braceright" unicode="}" horiz-adv-x="798" 
d="M57 -520h226q96 0 158 32.5t97 86t49 117.5t14 126v512q0 74 43 106t113 32v216q-70 0 -113 32.5t-43 105.5v512q0 62 -14 126t-49 117.5t-97 86t-158 32.5h-226v-296h90q36 0 67 -30t31 -72v-480q0 -97 42 -154.5t100 -87.5q-58 -30 -100 -88.5t-42 -153.5v-480
q0 -42 -31 -72t-67 -30h-90v-296z" />
    <glyph glyph-name="asciitilde" unicode="~" horiz-adv-x="1449" 
d="M932 576q77 0 152 42.5t136.5 109.5t97.5 142l-216 188q-23 -70 -65 -112t-86 -42q-37 0 -86.5 26.5t-108 60.5t-120.5 60.5t-123 26.5q-72 0 -148 -41t-139.5 -107.5t-99.5 -145.5l214 -190q23 72 65.5 114t85.5 42q38 0 88 -26.5t108.5 -60.5t121 -60.5t123.5 -26.5z
" />
    <glyph glyph-name="uni00A0" unicode="&#xa0;" horiz-adv-x="556" 
 />
    <glyph glyph-name="exclamdown" unicode="&#xa1;" horiz-adv-x="811" 
d="M403 698q74 0 134.5 35.5t96 96t35.5 134.5t-35.5 134.5t-96 96t-134.5 35.5t-134.5 -35.5t-96 -96t-35.5 -134.5t35.5 -134.5t96 -96t134.5 -35.5zM197 -522h416l-58 1140h-300z" />
    <glyph glyph-name="cent" unicode="&#xa2;" horiz-adv-x="1109" 
d="M516 -258h250v234q64 11 125 33t103 51l-136 280q-24 -15 -64 -24.5t-76 -9.5q-88 0 -143 57t-55 154q0 92 51.5 146.5t144.5 54.5q39 0 78.5 -9.5t63.5 -24.5l136 280q-52 37 -130 61t-162 29v218h-250v-254q-111 -42 -195 -120t-130.5 -177.5t-46.5 -208.5
q0 -120 56.5 -228.5t155.5 -187t224 -110.5v-244z" />
    <glyph glyph-name="sterling" unicode="&#xa3;" horiz-adv-x="1514" 
d="M1095 -30q151 0 250 78t126 216l-320 158q-10 -66 -36.5 -91t-84.5 -25q-29 0 -74.5 6t-92 15.5t-80.5 20.5q34 62 34 125q0 47 -14 91h264v226h-318q-48 119 -69 217.5t-21 156.5q0 81 36.5 116.5t106.5 35.5q83 0 129.5 -45.5t75.5 -139.5l356 181q-29 103 -101 186.5
t-185 133.5t-266 50q-171 0 -298 -65t-197.5 -185.5t-70.5 -286.5q0 -193 92 -355h-184v-226h282q23 -39 23 -88q0 -60 -23 -90q-88 0 -156.5 -50.5t-106 -137.5t-33.5 -198h358q0 39 17.5 55.5t59.5 16.5q63 0 148 -25.5t181 -51t192 -25.5z" />
    <glyph glyph-name="currency" unicode="&#xa4;" horiz-adv-x="1240" 
d="M215 54l141 142q116 -76 265 -76q148 0 265 75l141 -141l138 140l-141 141q35 56 54 123t19 142t-19 142t-54 123l141 141l-138 140l-141 -141q-117 75 -265 75q-149 0 -265 -76l-141 142l-140 -140l143 -142q-34 -55 -53.5 -122t-19.5 -142t19.5 -141.5t53.5 -122.5
l-143 -142zM621 470q-60 0 -97 34.5t-37 95.5q0 62 37 96t97 34t97 -34t37 -96q0 -61 -37 -95.5t-97 -34.5z" />
    <glyph glyph-name="yen" unicode="&#xa5;" horiz-adv-x="1767" 
d="M664 0h440v192h432v310h-432v86h432v310h-330l518 752h-530l-310 -458l-310 458h-530l516 -752h-330v-310h434v-86h-434v-310h434v-192z" />
    <glyph glyph-name="brokenbar" unicode="&#xa6;" horiz-adv-x="826" 
d="M235 1056h356v664h-356v-664zM235 0h356v664h-356v-664z" />
    <glyph glyph-name="section" unicode="&#xa7;" horiz-adv-x="1427" 
d="M673 -550q153 0 279.5 46t202 140.5t75.5 237.5q0 118 -52.5 203t-143.5 147q290 122 304 370q7 116 -45.5 208t-140.5 162t-190 120q-39 20 -88.5 43t-95.5 49t-76 54t-30 56q0 21 20 35.5t60 14.5q68 0 95 -37.5t27 -76.5l376 76q-12 66 -43.5 133t-90 123.5t-152 91
t-230.5 34.5q-178 0 -293.5 -59t-171 -157t-55.5 -214q0 -115 53 -203t155 -151q-151 -63 -228.5 -156.5t-85.5 -213.5q-8 -124 49 -218.5t150 -164.5t191 -121q72 -37 133.5 -65.5t99 -54t37.5 -52.5q0 -15 -18.5 -35.5t-80.5 -20.5q-80 0 -116 37.5t-51 82.5l-376 -78
q14 -67 49 -135t98 -125t161 -91.5t239 -34.5zM768 381q-19 5 -65 26t-92 52q-53 37 -77 72.5t-24 67.5q0 39 27.5 64t68.5 40t82 25q42 -18 62 -30q101 -56 142.5 -97.5t41.5 -81.5q0 -38 -28 -65.5t-66.5 -45t-71.5 -27.5z" />
    <glyph glyph-name="dieresis" unicode="&#xa8;" horiz-adv-x="896" 
d="M684 1186q89 0 150.5 62t61.5 150q0 89 -61.5 150.5t-150.5 61.5q-88 0 -150 -61.5t-62 -150.5q0 -88 62 -150t150 -62zM212 1186q89 0 150.5 62t61.5 150q0 89 -61.5 150.5t-150.5 61.5q-88 0 -150 -61.5t-62 -150.5q0 -88 62 -150t150 -62z" />
    <glyph glyph-name="copyright" unicode="&#xa9;" horiz-adv-x="1900" 
d="M951 -30q176 0 331.5 67t274 185t185.5 272.5t67 330.5t-67 331t-185.5 273t-274.5 184.5t-333 66.5q-178 0 -333.5 -67t-273.5 -185t-184.5 -272t-66.5 -329q0 -177 67.5 -332t186.5 -273t274.5 -185t331.5 -67zM951 234q-122 0 -230.5 46.5t-191 128.5t-129.5 189
t-47 228q0 122 46.5 229t129 188.5t190.5 128t230 46.5q123 0 231.5 -46.5t191.5 -128t130 -189t47 -229.5q0 -121 -47 -228t-129.5 -188.5t-191 -128t-230.5 -46.5zM998 440q106 0 240 56l-97 206q-8 -6 -33.5 -11t-49.5 -5q-68 0 -108.5 42t-40.5 101q0 62 43 104.5
t105 42.5q50 0 86 -18l96 206q-38 26 -103 43t-130 17q-117 0 -213.5 -56t-154 -146t-57.5 -194q0 -105 58.5 -193.5t154 -141.5t204.5 -53z" />
    <glyph glyph-name="ordfeminine" unicode="&#xaa;" horiz-adv-x="1094" 
d="M445 1008q61 0 110.5 21t85.5 49v-50h258v632h-258v-40q-78 60 -187 60q-96 0 -167.5 -45.5t-110.5 -121.5t-39 -168q0 -95 41 -171.5t111 -121t156 -44.5zM526 1226q-54 0 -86.5 33.5t-32.5 83.5q0 53 35.5 86t84.5 33q50 0 85 -32.5t35 -85.5q0 -51 -34 -84.5
t-87 -33.5z" />
    <glyph glyph-name="guillemotleft" unicode="&#xab;" horiz-adv-x="1302" 
d="M1013 58l214 168l-260 332l260 332l-214 168l-390 -500zM435 58l214 168l-260 332l260 332l-214 168l-390 -500z" />
    <glyph glyph-name="logicalnot" unicode="&#xac;" horiz-adv-x="1280" 
d="M794 316h360v694h-1028v-360h668v-334z" />
    <glyph glyph-name="uni00AD" unicode="&#xad;" horiz-adv-x="958" 
d="M157 400h644v358h-644v-358z" />
    <glyph glyph-name="registered" unicode="&#xae;" horiz-adv-x="1191" 
d="M595 784q122 0 223.5 59t163 160.5t61.5 226.5t-61 227t-162.5 162.5t-224.5 60.5q-125 0 -226.5 -61.5t-161.5 -164t-60 -224.5q0 -123 61 -224t162.5 -161.5t224.5 -60.5zM596 922q-85 0 -155 41.5t-112 111.5t-42 155q0 84 41 155t110.5 114t156.5 43q85 0 155 -41.5
t112.5 -112t42.5 -158.5t-43 -158t-113 -110t-153 -40zM457 1044h112v130h1l99 -130h140l-120 142q29 15 48.5 44t19.5 72q0 65 -39 93.5t-95 28.5h-166v-380zM569 1264v72h18q13 0 32.5 -4.5t19.5 -33.5q0 -25 -17.5 -29.5t-34.5 -4.5h-18z" />
    <glyph glyph-name="macron" unicode="&#xaf;" horiz-adv-x="816" 
d="M0 1248h816v280h-816v-280z" />
    <glyph glyph-name="degree" unicode="&#xb0;" horiz-adv-x="862" 
d="M431 1338q101 0 169.5 57.5t68.5 148.5q0 92 -68.5 149t-169.5 57q-100 0 -169 -57t-69 -149q0 -91 69 -148.5t169 -57.5zM431 1468q-30 0 -51 21.5t-21 54.5t21 54.5t51 21.5t51 -21.5t21 -54.5t-21 -54.5t-51 -21.5z" />
    <glyph glyph-name="plusminus" unicode="&#xb1;" horiz-adv-x="1396" 
d="M518 436h360v274h334v358h-334v274h-360v-274h-334v-358h334v-274zM184 0h1028v360h-1028v-360z" />
    <glyph glyph-name="uni00B2" unicode="&#xb2;" horiz-adv-x="658" 
d="M47 1026h524v166h-188q176 114 176 266q0 96 -69.5 160t-184.5 64q-174 0 -259 -181l156 -81q31 59 53 81.5t48 22.5q53 0 53 -57q0 -114 -309 -342v-99z" />
    <glyph glyph-name="uni00B3" unicode="&#xb3;" horiz-adv-x="611" 
d="M298 1026q105 0 181.5 47.5t76.5 150.5q0 105 -86 161q29 35 42 71t13 70q0 80 -62.5 117t-163.5 37q-99 0 -154 -33.5t-87 -97.5l146 -74q8 26 29 42t48 16q24 0 40.5 -12.5t16.5 -31.5q0 -23 -22.5 -40.5t-46.5 -17.5h-36v-119q14 5 29 5q40 0 65.5 -20t25.5 -55
q0 -28 -18 -43t-47 -15q-76 0 -87 80l-172 -88q74 -150 269 -150z" />
    <glyph glyph-name="acute" unicode="&#xb4;" horiz-adv-x="652" 
d="M167 1075l436 418l-268 205l-335 -483z" />
    <glyph glyph-name="mu" unicode="&#xb5;" horiz-adv-x="1616" 
d="M185 -320h480v290q12 -1 24.5 -1.5t21.5 -0.5q76 0 154.5 34.5t137.5 93.5v-96h416v1024h-416v-556q0 -71 -55 -124.5t-129 -53.5q-67 0 -109.5 45.5t-42.5 116.5v572h-416v-612q0 -173 -16.5 -300t-33 -229.5t-16.5 -202.5z" />
    <glyph glyph-name="paragraph" unicode="&#xb6;" horiz-adv-x="1623" 
d="M780 0h236v1410h136v-1410h236v1650h-800q-161 0 -279 -71t-182.5 -189t-64.5 -260q0 -141 64.5 -264.5t182.5 -200.5t279 -77h192v-588z" />
    <glyph glyph-name="periodcentered" unicode="&#xb7;" horiz-adv-x="851" 
d="M424 274q74 0 134.5 35.5t96 96t35.5 134.5t-35.5 134.5t-96 96t-134.5 35.5t-134.5 -35.5t-96 -96t-35.5 -134.5t35.5 -134.5t96 -96t134.5 -35.5z" />
    <glyph glyph-name="cedilla" unicode="&#xb8;" horiz-adv-x="597" 
d="M314 -551q124 0 203.5 68.5t79.5 174.5q0 105 -88 160q-68 42 -149 42l37 113h-164l-75 -228l23 -19q8 5 30.5 8t47.5 3q53 0 85.5 -18.5t32.5 -50.5q0 -26 -20 -42.5t-53 -16.5q-79 0 -150 83l-154 -117q141 -160 314 -160z" />
    <glyph glyph-name="uni00B9" unicode="&#xb9;" horiz-adv-x="458" 
d="M161 1026h184v624h-309v-181h125v-443z" />
    <glyph glyph-name="ordmasculine" unicode="&#xba;" horiz-adv-x="934" 
d="M466 1004q107 0 192.5 43.5t135.5 119.5t50 175t-50 175.5t-135.5 119.5t-192.5 43t-192.5 -43t-135.5 -119.5t-50 -175.5t50 -175t135.5 -119.5t192.5 -43.5zM466 1220q-45 0 -75.5 34t-30.5 88t30.5 88t75.5 34t75.5 -34t30.5 -88t-30.5 -88t-75.5 -34z" />
    <glyph glyph-name="guillemotright" unicode="&#xbb;" horiz-adv-x="1298" 
d="M285 58l390 500l-390 500l-214 -168l260 -332l-260 -332zM863 58l390 500l-390 500l-214 -168l260 -332l-260 -332z" />
    <glyph glyph-name="onequarter" unicode="&#xbc;" horiz-adv-x="2535" 
d="M337 600h336v1050h-535v-328h199v-722zM424 0h274l960 1650h-274zM1837 0h313v181h136v293h-136v576h-331l-561 -780v-89h579v-181zM1718 474l119 186v-186h-119z" />
    <glyph glyph-name="onehalf" unicode="&#xbd;" horiz-adv-x="2606" 
d="M337 600h336v1050h-535v-328h199v-722zM424 0h274l960 1650h-274zM1373 0h959v292h-369q167 68 257 182t90 243q0 102 -56 184.5t-159.5 131t-248.5 48.5q-166 0 -285.5 -72.5t-185.5 -222.5l276 -142q50 86 89.5 115t87.5 29q55 0 88.5 -25.5t33.5 -63.5
q0 -76 -144.5 -211.5t-432.5 -311.5v-176z" />
    <glyph glyph-name="threequarters" unicode="&#xbe;" horiz-adv-x="2966" 
d="M646 579q127 0 228 49.5t159.5 135t58.5 194.5q0 64 -25 120t-88 108q32 42 44.5 81.5t12.5 82.5q0 98 -50.5 172.5t-139.5 116t-205 41.5q-136 0 -242.5 -57.5t-152.5 -159.5l260 -133q16 41 52 62.5t79 21.5t70 -19.5t27 -47.5t-24.5 -53t-55.5 -25h-65v-213
q24 10 55 10q50 0 83 -29.5t33 -76.5q0 -45 -31 -70.5t-83 -25.5q-61 0 -96 35.5t-45 90.5l-308 -158q57 -117 178 -185t271 -68zM855 0h274l960 1650h-274zM2268 0h313v181h136v293h-136v576h-331l-561 -780v-89h579v-181zM2149 474l119 186v-186h-119z" />
    <glyph glyph-name="questiondown" unicode="&#xbf;" horiz-adv-x="1137" 
d="M595 630q74 0 134.5 35.5t96 96t35.5 134.5t-35.5 134.5t-96 96t-134.5 35.5t-134.5 -35.5t-96 -96t-35.5 -134.5t35.5 -134.5t96 -96t134.5 -35.5zM599 -550q136 0 249.5 49.5t193 139.5t111.5 211l-340 76q-23 -58 -75.5 -84t-126.5 -26q-94 0 -142 36.5t-48 97.5
q0 132 216 132q45 0 86 -5t64 -13v492h-386v-128q-96 -28 -180.5 -97.5t-137 -168t-52.5 -213.5q0 -132 73 -246t201.5 -183.5t293.5 -69.5z" />
    <glyph glyph-name="Agrave" unicode="&#xc0;" horiz-adv-x="1670" 
d="M-41 0h474l99 274h606l99 -274h474l-672 1650h-408zM682 660l153 392l153 -392h-306zM945 1701l167 140l-335 483l-268 -205z" />
    <glyph glyph-name="Aacute" unicode="&#xc1;" horiz-adv-x="1670" 
d="M-41 0h474l99 274h606l99 -274h474l-672 1650h-408zM682 660l153 392l153 -392h-306zM760 1701l436 418l-268 205l-335 -483z" />
    <glyph glyph-name="Acircumflex" unicode="&#xc2;" horiz-adv-x="1670" 
d="M-41 0h474l99 274h606l99 -274h474l-672 1650h-408zM682 660l153 392l153 -392h-306zM529 1756l306 224l306 -224l156 210l-462 340l-462 -340z" />
    <glyph glyph-name="Atilde" unicode="&#xc3;" horiz-adv-x="1670" 
d="M-41 0h474l99 274h606l99 -274h474l-672 1650h-408zM682 660l153 392l153 -392h-306zM1042 1735q55 0 124 37t132 99.5t98 140.5l-203 179q-13 -53 -53 -100t-80 -47q-29 0 -78.5 25t-111 57t-126 57t-124.5 25q-103 0 -197 -79.5t-150 -197.5l204 -179q15 53 50 100
t99 47q47 0 100 -25t107.5 -57t107.5 -57t101 -25z" />
    <glyph glyph-name="Adieresis" unicode="&#xc4;" horiz-adv-x="1670" 
d="M-41 0h474l99 274h606l99 -274h474l-672 1650h-408zM682 660l153 392l153 -392h-306zM1071 1812q89 0 150.5 62t61.5 150q0 89 -61.5 150.5t-150.5 61.5q-88 0 -150 -61.5t-62 -150.5q0 -88 62 -150t150 -62zM599 1812q89 0 150.5 62t61.5 150q0 89 -61.5 150.5
t-150.5 61.5q-88 0 -150 -61.5t-62 -150.5q0 -88 62 -150t150 -62z" />
    <glyph glyph-name="Aring" unicode="&#xc5;" horiz-adv-x="1670" 
d="M-41 0h474l99 274h606l99 -274h474l-672 1650h-408zM682 660l153 392l153 -392h-306zM835 1786q97 0 176 39t125.5 108t46.5 159t-46.5 159t-125.5 108t-176 39t-176 -39t-125.5 -108t-46.5 -159t46.5 -159t125.5 -108t176 -39zM835 1968q-46 0 -82 36.5t-36 87.5
t36 87.5t82 36.5q47 0 82.5 -36.5t35.5 -87.5t-35.5 -87.5t-82.5 -36.5z" />
    <glyph glyph-name="AE" unicode="&#xc6;" horiz-adv-x="2172" 
d="M-41 0h474l99 274h606l99 -274h976l-148 386h-511l-101 248h493l-149 386h-501l-100 244h532l-149 386h-948zM682 660l153 392l153 -392h-306z" />
    <glyph glyph-name="Ccedilla" unicode="&#xc7;" horiz-adv-x="1476" 
d="M953 -32q155 0 292.5 43t226.5 103l-186 376q-54 -41 -136.5 -65.5t-169.5 -24.5q-133 0 -241.5 55.5t-172.5 151.5t-64 217t64 217t172.5 151.5t241.5 55.5q87 0 169.5 -24.5t136.5 -65.5l186 376q-94 63 -232.5 104.5t-288.5 41.5q-186 0 -353 -66.5t-295.5 -184.5
t-202.5 -273.5t-74 -332.5t73.5 -331.5t202.5 -272.5t296.5 -184.5t354.5 -66.5zM870 -590q124 0 203.5 68.5t79.5 174.5q0 105 -88 160q-68 42 -149 42l37 113h-164l-75 -228l23 -19q8 5 30.5 8t47.5 3q53 0 85.5 -18.5t32.5 -50.5q0 -26 -20 -42.5t-53 -16.5
q-79 0 -150 83l-154 -117q141 -160 314 -160z" />
    <glyph glyph-name="Egrave" unicode="&#xc8;" horiz-adv-x="1340" 
d="M196 0h976v386h-536v248h512v386h-512v244h536v386h-976v-1650zM780 1701l167 140l-335 483l-268 -205z" />
    <glyph glyph-name="Eacute" unicode="&#xc9;" horiz-adv-x="1340" 
d="M196 0h976v386h-536v248h512v386h-512v244h536v386h-976v-1650zM595 1701l436 418l-268 205l-335 -483z" />
    <glyph glyph-name="Ecircumflex" unicode="&#xca;" horiz-adv-x="1340" 
d="M196 0h976v386h-536v248h512v386h-512v244h536v386h-976v-1650zM364 1756l306 224l306 -224l156 210l-462 340l-462 -340z" />
    <glyph glyph-name="Edieresis" unicode="&#xcb;" horiz-adv-x="1340" 
d="M196 0h976v386h-536v248h512v386h-512v244h536v386h-976v-1650zM906 1812q89 0 150.5 62t61.5 150q0 89 -61.5 150.5t-150.5 61.5q-88 0 -150 -61.5t-62 -150.5q0 -88 62 -150t150 -62zM434 1812q89 0 150.5 62t61.5 150q0 89 -61.5 150.5t-150.5 61.5q-88 0 -150 -61.5
t-62 -150.5q0 -88 62 -150t150 -62z" />
    <glyph glyph-name="Igrave" unicode="&#xcc;" horiz-adv-x="832" 
d="M196 0h440v1650h-440v-1650zM526 1701l167 140l-335 483l-268 -205z" />
    <glyph glyph-name="Iacute" unicode="&#xcd;" horiz-adv-x="832" 
d="M196 0h440v1650h-440v-1650zM341 1701l436 418l-268 205l-335 -483z" />
    <glyph glyph-name="Icircumflex" unicode="&#xce;" horiz-adv-x="832" 
d="M196 0h440v1650h-440v-1650zM110 1756l306 224l306 -224l156 210l-462 340l-462 -340z" />
    <glyph glyph-name="Idieresis" unicode="&#xcf;" horiz-adv-x="832" 
d="M196 0h440v1650h-440v-1650zM652 1812q89 0 150.5 62t61.5 150q0 89 -61.5 150.5t-150.5 61.5q-88 0 -150 -61.5t-62 -150.5q0 -88 62 -150t150 -62zM180 1812q89 0 150.5 62t61.5 150q0 89 -61.5 150.5t-150.5 61.5q-88 0 -150 -61.5t-62 -150.5q0 -88 62 -150t150 -62z
" />
    <glyph glyph-name="Eth" unicode="&#xd0;" horiz-adv-x="1645" 
d="M247 0h508q170 0 320.5 60.5t265.5 171t180.5 261t65.5 331.5q0 180 -65.5 331t-181 262t-265.5 172t-320 61h-508v-646h-164v-358h164v-646zM687 394v252h154v358h-154v252h16q127 0 218.5 -59t141 -157t48.5 -216q0 -119 -50 -216.5t-141.5 -155.5t-216.5 -58h-16z" />
    <glyph glyph-name="Ntilde" unicode="&#xd1;" horiz-adv-x="1864" 
d="M196 0h440v920l592 -920h440v1650h-440v-920l-592 920h-440v-1650zM1139 1735q55 0 124 37t132 99.5t98 140.5l-203 179q-13 -53 -53 -100t-80 -47q-29 0 -78.5 25t-111 57t-126 57t-124.5 25q-103 0 -197 -79.5t-150 -197.5l204 -179q15 53 50 100t99 47q47 0 100 -25
t107.5 -57t107.5 -57t101 -25z" />
    <glyph glyph-name="Ograve" unicode="&#xd2;" horiz-adv-x="1788" 
d="M894 -32q173 0 324 66t265 183.5t178.5 273t64.5 333.5t-64.5 333.5t-178.5 273t-265 183.5t-324 66t-324 -66t-265 -183.5t-178.5 -273t-64.5 -333.5t64.5 -333.5t178.5 -273t265 -183.5t324 -66zM894 392q-163 0 -260.5 118t-97.5 314t97.5 314t260.5 118t260.5 -118
t97.5 -314t-97.5 -314t-260.5 -118zM1004 1731l167 140l-335 483l-268 -205z" />
    <glyph glyph-name="Oacute" unicode="&#xd3;" horiz-adv-x="1788" 
d="M894 -32q173 0 324 66t265 183.5t178.5 273t64.5 333.5t-64.5 333.5t-178.5 273t-265 183.5t-324 66t-324 -66t-265 -183.5t-178.5 -273t-64.5 -333.5t64.5 -333.5t178.5 -273t265 -183.5t324 -66zM894 392q-163 0 -260.5 118t-97.5 314t97.5 314t260.5 118t260.5 -118
t97.5 -314t-97.5 -314t-260.5 -118zM819 1731l436 418l-268 205l-335 -483z" />
    <glyph glyph-name="Ocircumflex" unicode="&#xd4;" horiz-adv-x="1788" 
d="M894 -32q173 0 324 66t265 183.5t178.5 273t64.5 333.5t-64.5 333.5t-178.5 273t-265 183.5t-324 66t-324 -66t-265 -183.5t-178.5 -273t-64.5 -333.5t64.5 -333.5t178.5 -273t265 -183.5t324 -66zM894 392q-163 0 -260.5 118t-97.5 314t97.5 314t260.5 118t260.5 -118
t97.5 -314t-97.5 -314t-260.5 -118zM588 1786l306 224l306 -224l156 210l-462 340l-462 -340z" />
    <glyph glyph-name="Otilde" unicode="&#xd5;" horiz-adv-x="1788" 
d="M894 -32q173 0 324 66t265 183.5t178.5 273t64.5 333.5t-64.5 333.5t-178.5 273t-265 183.5t-324 66t-324 -66t-265 -183.5t-178.5 -273t-64.5 -333.5t64.5 -333.5t178.5 -273t265 -183.5t324 -66zM894 392q-163 0 -260.5 118t-97.5 314t97.5 314t260.5 118t260.5 -118
t97.5 -314t-97.5 -314t-260.5 -118zM1101 1765q55 0 124 37t132 99.5t98 140.5l-203 179q-13 -53 -53 -100t-80 -47q-29 0 -78.5 25t-111 57t-126 57t-124.5 25q-103 0 -197 -79.5t-150 -197.5l204 -179q15 53 50 100t99 47q47 0 100 -25t107.5 -57t107.5 -57t101 -25z" />
    <glyph glyph-name="Odieresis" unicode="&#xd6;" horiz-adv-x="1788" 
d="M894 -32q173 0 324 66t265 183.5t178.5 273t64.5 333.5t-64.5 333.5t-178.5 273t-265 183.5t-324 66t-324 -66t-265 -183.5t-178.5 -273t-64.5 -333.5t64.5 -333.5t178.5 -273t265 -183.5t324 -66zM894 392q-163 0 -260.5 118t-97.5 314t97.5 314t260.5 118t260.5 -118
t97.5 -314t-97.5 -314t-260.5 -118zM1130 1842q89 0 150.5 62t61.5 150q0 89 -61.5 150.5t-150.5 61.5q-88 0 -150 -61.5t-62 -150.5q0 -88 62 -150t150 -62zM658 1842q89 0 150.5 62t61.5 150q0 89 -61.5 150.5t-150.5 61.5q-88 0 -150 -61.5t-62 -150.5q0 -88 62 -150
t150 -62z" />
    <glyph glyph-name="multiply" unicode="&#xd7;" horiz-adv-x="1276" 
d="M352 292l286 284l286 -284l252 250l-286 288l286 288l-252 250l-286 -284l-286 284l-252 -250l286 -288l-286 -288z" />
    <glyph glyph-name="Oslash" unicode="&#xd8;" horiz-adv-x="1788" 
d="M424 -35l88 109q89 -51 190.5 -78.5t211.5 -27.5q173 0 324 66t265 183.5t178.5 273t64.5 333.5q0 156 -50 295t-139 249l121 150l-260 200l-111 -138q-88 48 -187 74t-206 26q-173 0 -324 -66t-265 -183.5t-178.5 -273t-64.5 -333.5q0 -154 49 -292t136 -248l-103 -129z
M556 824q0 196 97.5 314t260.5 118q63 0 118 -19l-457 -569q-19 72 -19 156zM914 392q-68 0 -127 22l463 575q22 -76 22 -165q0 -196 -97.5 -314t-260.5 -118z" />
    <glyph glyph-name="Ugrave" unicode="&#xd9;" horiz-adv-x="1663" 
d="M831 -32q329 0 497.5 155.5t168.5 458.5v1068h-440v-936q0 -178 -49 -246t-177 -68t-177 68t-49 246v936h-440v-1068q0 -303 169 -458.5t497 -155.5zM942 1701l167 140l-335 483l-268 -205z" />
    <glyph glyph-name="Uacute" unicode="&#xda;" horiz-adv-x="1663" 
d="M831 -32q329 0 497.5 155.5t168.5 458.5v1068h-440v-936q0 -178 -49 -246t-177 -68t-177 68t-49 246v936h-440v-1068q0 -303 169 -458.5t497 -155.5zM757 1701l436 418l-268 205l-335 -483z" />
    <glyph glyph-name="Ucircumflex" unicode="&#xdb;" horiz-adv-x="1663" 
d="M831 -32q329 0 497.5 155.5t168.5 458.5v1068h-440v-936q0 -178 -49 -246t-177 -68t-177 68t-49 246v936h-440v-1068q0 -303 169 -458.5t497 -155.5zM526 1756l306 224l306 -224l156 210l-462 340l-462 -340z" />
    <glyph glyph-name="Udieresis" unicode="&#xdc;" horiz-adv-x="1663" 
d="M831 -32q329 0 497.5 155.5t168.5 458.5v1068h-440v-936q0 -178 -49 -246t-177 -68t-177 68t-49 246v936h-440v-1068q0 -303 169 -458.5t497 -155.5zM1068 1812q89 0 150.5 62t61.5 150q0 89 -61.5 150.5t-150.5 61.5q-88 0 -150 -61.5t-62 -150.5q0 -88 62 -150t150 -62
zM596 1812q89 0 150.5 62t61.5 150q0 89 -61.5 150.5t-150.5 61.5q-88 0 -150 -61.5t-62 -150.5q0 -88 62 -150t150 -62z" />
    <glyph glyph-name="Yacute" unicode="&#xdd;" horiz-adv-x="1540" 
d="M550 0h440v748l620 902h-530l-310 -458l-310 458h-530l620 -902v-748zM695 1701l436 418l-268 205l-335 -483z" />
    <glyph glyph-name="Thorn" unicode="&#xde;" horiz-adv-x="1448" 
d="M196 0h440v296h212q174 0 303 67t200 189t71 286q0 242 -153.5 381t-420.5 139h-212v292h-440v-1650zM636 644v364h68q242 0 242 -178q0 -90 -63.5 -138t-178.5 -48h-68z" />
    <glyph glyph-name="germandbls" unicode="&#xdf;" horiz-adv-x="1399" 
d="M736 -32h1q177 4 311 75t209.5 194.5t75.5 282.5q0 276 -252 400q186 115 186 333q0 142 -68.5 254.5t-187 177.5t-268.5 65q-152 0 -272 -68t-189 -186t-69 -268v-286h-132v-314h132v-628h414v1244q0 160 111 160q62 0 100.5 -45t38.5 -116q0 -77 -39 -126t-101 -49h-1
v-312h1q71 0 113.5 -56t42.5 -149q0 -91 -43 -148t-113 -57h-1v-378z" />
    <glyph glyph-name="agrave" unicode="&#xe0;" 
d="M579 -32q167 0 312 112v-80h416v1024h-416v-66q-130 98 -312 98q-149 0 -263 -72t-178.5 -194.5t-64.5 -275.5q0 -158 68 -281.5t183 -194t255 -70.5zM707 320q-84 0 -139 54.5t-55 137.5t55.5 137.5t138.5 54.5t137.5 -54.5t54.5 -137.5t-54 -137.5t-138 -54.5z
M889 1107l167 140l-335 483l-268 -205z" />
    <glyph glyph-name="aacute" unicode="&#xe1;" 
d="M579 -32q167 0 312 112v-80h416v1024h-416v-66q-130 98 -312 98q-149 0 -263 -72t-178.5 -194.5t-64.5 -275.5q0 -158 68 -281.5t183 -194t255 -70.5zM707 320q-84 0 -139 54.5t-55 137.5t55.5 137.5t138.5 54.5t137.5 -54.5t54.5 -137.5t-54 -137.5t-138 -54.5z
M704 1107l436 418l-268 205l-335 -483z" />
    <glyph glyph-name="acircumflex" unicode="&#xe2;" 
d="M579 -32q167 0 312 112v-80h416v1024h-416v-66q-130 98 -312 98q-149 0 -263 -72t-178.5 -194.5t-64.5 -275.5q0 -158 68 -281.5t183 -194t255 -70.5zM707 320q-84 0 -139 54.5t-55 137.5t55.5 137.5t138.5 54.5t137.5 -54.5t54.5 -137.5t-54 -137.5t-138 -54.5z
M473 1162l306 224l306 -224l156 210l-462 340l-462 -340z" />
    <glyph glyph-name="atilde" unicode="&#xe3;" 
d="M579 -32q167 0 312 112v-80h416v1024h-416v-66q-130 98 -312 98q-149 0 -263 -72t-178.5 -194.5t-64.5 -275.5q0 -158 68 -281.5t183 -194t255 -70.5zM707 320q-84 0 -139 54.5t-55 137.5t55.5 137.5t138.5 54.5t137.5 -54.5t54.5 -137.5t-54 -137.5t-138 -54.5z
M986 1141q55 0 124 37t132 99.5t98 140.5l-203 179q-13 -53 -53 -100t-80 -47q-29 0 -78.5 25t-111 57t-126 57t-124.5 25q-103 0 -197 -79.5t-150 -197.5l204 -179q15 53 50 100t99 47q47 0 100 -25t107.5 -57t107.5 -57t101 -25z" />
    <glyph glyph-name="adieresis" unicode="&#xe4;" 
d="M579 -32q167 0 312 112v-80h416v1024h-416v-66q-130 98 -312 98q-149 0 -263 -72t-178.5 -194.5t-64.5 -275.5q0 -158 68 -281.5t183 -194t255 -70.5zM707 320q-84 0 -139 54.5t-55 137.5t55.5 137.5t138.5 54.5t137.5 -54.5t54.5 -137.5t-54 -137.5t-138 -54.5z
M1015 1218q89 0 150.5 62t61.5 150q0 89 -61.5 150.5t-150.5 61.5q-88 0 -150 -61.5t-62 -150.5q0 -88 62 -150t150 -62zM543 1218q89 0 150.5 62t61.5 150q0 89 -61.5 150.5t-150.5 61.5q-88 0 -150 -61.5t-62 -150.5q0 -88 62 -150t150 -62z" />
    <glyph glyph-name="aring" unicode="&#xe5;" 
d="M579 -32q167 0 312 112v-80h416v1024h-416v-66q-130 98 -312 98q-149 0 -263 -72t-178.5 -194.5t-64.5 -275.5q0 -158 68 -281.5t183 -194t255 -70.5zM707 320q-84 0 -139 54.5t-55 137.5t55.5 137.5t138.5 54.5t137.5 -54.5t54.5 -137.5t-54 -137.5t-138 -54.5z
M779 1192q97 0 176 39t125.5 108t46.5 159t-46.5 159t-125.5 108t-176 39t-176 -39t-125.5 -108t-46.5 -159t46.5 -159t125.5 -108t176 -39zM779 1374q-46 0 -82 36.5t-36 87.5t36 87.5t82 36.5q47 0 82.5 -36.5t35.5 -87.5t-35.5 -87.5t-82.5 -36.5z" />
    <glyph glyph-name="ae" unicode="&#xe6;" horiz-adv-x="1923" 
d="M438 -32q57 0 120 11.5t147.5 39.5t206.5 75q175 -126 394 -126q177 0 312.5 70.5t211.5 201.5l-298 148q-55 -53 -95 -72.5t-96 -19.5q-92 0 -142.5 41t-50.5 117h694q2 32 3 45.5t1 28.5q0 159 -68.5 277.5t-192 184.5t-288.5 66q-187 0 -345 -88q-75 42 -184 65
t-229 23q-118 0 -223 -22.5t-184 -65.5l126 -284q30 12 76 22t94.5 16t84.5 6q91 0 153 -38.5t62 -95.5v-60q-61 29 -138 45.5t-148 16.5q-112 0 -197 -40.5t-133 -112t-48 -166.5q0 -146 98 -227.5t276 -81.5zM1160 670q2 52 39 81t103 29q119 0 138 -110h-280zM609 214
q-56 0 -94.5 25.5t-38.5 62.5q0 35 36 56.5t91 21.5q58 0 98.5 -24.5t40.5 -59.5q0 -34 -38.5 -58t-94.5 -24z" />
    <glyph glyph-name="ccedilla" unicode="&#xe7;" horiz-adv-x="1010" 
d="M639 -32q99 0 188.5 27.5t141.5 64.5l-136 280q-19 -13 -52.5 -23.5t-73.5 -10.5q-98 0 -155 62t-57 144q0 44 21.5 92t68 81t120.5 33q78 0 128 -34l136 280q-50 38 -142 65t-190 27q-125 0 -231.5 -45.5t-185 -123t-122 -175t-43.5 -201.5q0 -111 46.5 -209.5
t127.5 -173.5t186.5 -117.5t223.5 -42.5zM566 -540q124 0 203.5 68.5t79.5 174.5q0 105 -88 160q-68 42 -149 42l37 113h-164l-75 -228l23 -19q8 5 30.5 8t47.5 3q53 0 85.5 -18.5t32.5 -50.5q0 -26 -20 -42.5t-53 -16.5q-79 0 -150 83l-154 -117q141 -160 314 -160z" />
    <glyph glyph-name="egrave" unicode="&#xe8;" horiz-adv-x="1264" 
d="M658 -32q168 0 304.5 72.5t208.5 199.5l-298 148q-54 -52 -94.5 -72t-96.5 -20q-91 0 -142 42t-51 116h694q3 39 3.5 50.5t0.5 24.5q0 157 -68 275.5t-188.5 185t-280.5 66.5q-167 0 -301 -71.5t-212 -194t-78 -276.5q0 -155 79 -278.5t214.5 -195.5t305.5 -72zM501 650
q2 120 138 120q123 0 142 -120h-280zM759 1107l167 140l-335 483l-268 -205z" />
    <glyph glyph-name="eacute" unicode="&#xe9;" horiz-adv-x="1264" 
d="M658 -32q168 0 304.5 72.5t208.5 199.5l-298 148q-54 -52 -94.5 -72t-96.5 -20q-91 0 -142 42t-51 116h694q3 39 3.5 50.5t0.5 24.5q0 157 -68 275.5t-188.5 185t-280.5 66.5q-167 0 -301 -71.5t-212 -194t-78 -276.5q0 -155 79 -278.5t214.5 -195.5t305.5 -72zM501 650
q2 120 138 120q123 0 142 -120h-280zM574 1107l436 418l-268 205l-335 -483z" />
    <glyph glyph-name="ecircumflex" unicode="&#xea;" horiz-adv-x="1264" 
d="M658 -32q168 0 304.5 72.5t208.5 199.5l-298 148q-54 -52 -94.5 -72t-96.5 -20q-91 0 -142 42t-51 116h694q3 39 3.5 50.5t0.5 24.5q0 157 -68 275.5t-188.5 185t-280.5 66.5q-167 0 -301 -71.5t-212 -194t-78 -276.5q0 -155 79 -278.5t214.5 -195.5t305.5 -72zM501 650
q2 120 138 120q123 0 142 -120h-280zM343 1162l306 224l306 -224l156 210l-462 340l-462 -340z" />
    <glyph glyph-name="edieresis" unicode="&#xeb;" horiz-adv-x="1264" 
d="M658 -32q168 0 304.5 72.5t208.5 199.5l-298 148q-54 -52 -94.5 -72t-96.5 -20q-91 0 -142 42t-51 116h694q3 39 3.5 50.5t0.5 24.5q0 157 -68 275.5t-188.5 185t-280.5 66.5q-167 0 -301 -71.5t-212 -194t-78 -276.5q0 -155 79 -278.5t214.5 -195.5t305.5 -72zM501 650
q2 120 138 120q123 0 142 -120h-280zM885 1218q89 0 150.5 62t61.5 150q0 89 -61.5 150.5t-150.5 61.5q-88 0 -150 -61.5t-62 -150.5q0 -88 62 -150t150 -62zM413 1218q89 0 150.5 62t61.5 150q0 89 -61.5 150.5t-150.5 61.5q-88 0 -150 -61.5t-62 -150.5q0 -88 62 -150
t150 -62z" />
    <glyph glyph-name="igrave" unicode="&#xec;" horiz-adv-x="730" 
d="M157 0h416v1024h-416v-1024zM475 1075l167 140l-335 483l-268 -205z" />
    <glyph glyph-name="iacute" unicode="&#xed;" horiz-adv-x="730" 
d="M157 0h416v1024h-416v-1024zM290 1075l436 418l-268 205l-335 -483z" />
    <glyph glyph-name="icircumflex" unicode="&#xee;" horiz-adv-x="730" 
d="M157 0h416v1024h-416v-1024zM59 1130l306 224l306 -224l156 210l-462 340l-462 -340z" />
    <glyph glyph-name="idieresis" unicode="&#xef;" horiz-adv-x="730" 
d="M157 0h416v1024h-416v-1024zM601 1186q89 0 150.5 62t61.5 150q0 89 -61.5 150.5t-150.5 61.5q-88 0 -150 -61.5t-62 -150.5q0 -88 62 -150t150 -62zM129 1186q89 0 150.5 62t61.5 150q0 89 -61.5 150.5t-150.5 61.5q-88 0 -150 -61.5t-62 -150.5q0 -88 62 -150t150 -62z
" />
    <glyph glyph-name="eth" unicode="&#xf0;" horiz-adv-x="1410" 
d="M695 -32q182 0 323.5 70t222 193t80.5 281q0 184 -48.5 332.5t-129 266t-178.5 208t-198 157.5l94 94l-174 180l-144 -142q-102 52 -207.5 87.5t-186.5 54.5l-96 -348q35 -7 92.5 -25t119.5 -47l-120 -118l178 -178l168 166q47 -30 99.5 -62t104.5 -68q-16 2 -32 2
q-94 0 -198 -33.5t-195.5 -102t-149 -174t-57.5 -250.5q0 -158 78.5 -281t220.5 -193t333 -70zM693 322q-85 0 -136.5 54t-51.5 136q0 86 56 139t132 53q75 0 130.5 -53t55.5 -139q0 -82 -52.5 -136t-133.5 -54z" />
    <glyph glyph-name="ntilde" unicode="&#xf1;" horiz-adv-x="1461" 
d="M157 0h416v564q0 77 46 123.5t122 46.5t122 -46.5t46 -123.5v-564h416v654q0 115 -54 205.5t-146.5 143.5t-209.5 53q-92 0 -181.5 -33.5t-160.5 -94.5v96h-416v-1024zM962 1141q55 0 124 37t132 99.5t98 140.5l-203 179q-13 -53 -53 -100t-80 -47q-29 0 -78.5 25
t-111 57t-126 57t-124.5 25q-103 0 -197 -79.5t-150 -197.5l204 -179q15 53 50 100t99 47q47 0 100 -25t107.5 -57t107.5 -57t101 -25z" />
    <glyph glyph-name="ograve" unicode="&#xf2;" horiz-adv-x="1366" 
d="M683 -32q176 0 317.5 69.5t224 192t82.5 282.5t-82.5 282.5t-224 192t-317.5 69.5t-317.5 -69.5t-224 -192t-82.5 -282.5t82.5 -282.5t224 -192t317.5 -69.5zM683 320q-76 0 -132 53.5t-56 138.5q0 86 56 139t132 53q77 0 132.5 -53t55.5 -139q0 -85 -55.5 -138.5
t-132.5 -53.5zM793 1107l167 140l-335 483l-268 -205z" />
    <glyph glyph-name="oacute" unicode="&#xf3;" horiz-adv-x="1366" 
d="M683 -32q176 0 317.5 69.5t224 192t82.5 282.5t-82.5 282.5t-224 192t-317.5 69.5t-317.5 -69.5t-224 -192t-82.5 -282.5t82.5 -282.5t224 -192t317.5 -69.5zM683 320q-76 0 -132 53.5t-56 138.5q0 86 56 139t132 53q77 0 132.5 -53t55.5 -139q0 -85 -55.5 -138.5
t-132.5 -53.5zM608 1107l436 418l-268 205l-335 -483z" />
    <glyph glyph-name="ocircumflex" unicode="&#xf4;" horiz-adv-x="1366" 
d="M683 -32q176 0 317.5 69.5t224 192t82.5 282.5t-82.5 282.5t-224 192t-317.5 69.5t-317.5 -69.5t-224 -192t-82.5 -282.5t82.5 -282.5t224 -192t317.5 -69.5zM683 320q-76 0 -132 53.5t-56 138.5q0 86 56 139t132 53q77 0 132.5 -53t55.5 -139q0 -85 -55.5 -138.5
t-132.5 -53.5zM377 1162l306 224l306 -224l156 210l-462 340l-462 -340z" />
    <glyph glyph-name="otilde" unicode="&#xf5;" horiz-adv-x="1366" 
d="M683 -32q176 0 317.5 69.5t224 192t82.5 282.5t-82.5 282.5t-224 192t-317.5 69.5t-317.5 -69.5t-224 -192t-82.5 -282.5t82.5 -282.5t224 -192t317.5 -69.5zM683 320q-76 0 -132 53.5t-56 138.5q0 86 56 139t132 53q77 0 132.5 -53t55.5 -139q0 -85 -55.5 -138.5
t-132.5 -53.5zM890 1141q55 0 124 37t132 99.5t98 140.5l-203 179q-13 -53 -53 -100t-80 -47q-29 0 -78.5 25t-111 57t-126 57t-124.5 25q-103 0 -197 -79.5t-150 -197.5l204 -179q15 53 50 100t99 47q47 0 100 -25t107.5 -57t107.5 -57t101 -25z" />
    <glyph glyph-name="odieresis" unicode="&#xf6;" horiz-adv-x="1366" 
d="M683 -32q176 0 317.5 69.5t224 192t82.5 282.5t-82.5 282.5t-224 192t-317.5 69.5t-317.5 -69.5t-224 -192t-82.5 -282.5t82.5 -282.5t224 -192t317.5 -69.5zM683 320q-76 0 -132 53.5t-56 138.5q0 86 56 139t132 53q77 0 132.5 -53t55.5 -139q0 -85 -55.5 -138.5
t-132.5 -53.5zM919 1218q89 0 150.5 62t61.5 150q0 89 -61.5 150.5t-150.5 61.5q-88 0 -150 -61.5t-62 -150.5q0 -88 62 -150t150 -62zM447 1218q89 0 150.5 62t61.5 150q0 89 -61.5 150.5t-150.5 61.5q-88 0 -150 -61.5t-62 -150.5q0 -88 62 -150t150 -62z" />
    <glyph glyph-name="divide" unicode="&#xf7;" horiz-adv-x="1210" 
d="M605 1078q75 0 128.5 54.5t53.5 133.5q0 80 -53.5 134t-128.5 54t-128.5 -54t-53.5 -134q0 -79 53.5 -133.5t128.5 -54.5zM91 650h1028v360h-1028v-360zM605 206q75 0 128.5 54.5t53.5 133.5q0 80 -53.5 134t-128.5 54t-128.5 -54t-53.5 -134q0 -79 53.5 -133.5
t128.5 -54.5z" />
    <glyph glyph-name="oslash" unicode="&#xf8;" horiz-adv-x="1366" 
d="M151 -32h172l53 65q139 -65 307 -65q176 0 317.5 69.5t224 192t82.5 282.5q0 128 -54 232.5t-148 177.5l110 134h-172l-53 -65q-139 65 -307 65q-176 0 -317.5 -69.5t-224 -192t-82.5 -282.5q0 -128 54 -232.5t148 -177.5zM495 512q0 86 56 139t132 53q33 0 63 -10
l-228 -278q-23 43 -23 96zM683 320q-33 0 -63 10l228 278q23 -43 23 -96q0 -85 -55.5 -138.5t-132.5 -53.5z" />
    <glyph glyph-name="ugrave" unicode="&#xf9;" horiz-adv-x="1441" 
d="M720 -32q313 0 452.5 115t139.5 371v570h-416v-466q0 -141 -39 -197.5t-137 -56.5q-97 0 -136.5 56.5t-39.5 197.5v466h-416v-570q0 -256 139.5 -371t452.5 -115zM831 1075l167 140l-335 483l-268 -205z" />
    <glyph glyph-name="uacute" unicode="&#xfa;" horiz-adv-x="1441" 
d="M720 -32q313 0 452.5 115t139.5 371v570h-416v-466q0 -141 -39 -197.5t-137 -56.5q-97 0 -136.5 56.5t-39.5 197.5v466h-416v-570q0 -256 139.5 -371t452.5 -115zM646 1075l436 418l-268 205l-335 -483z" />
    <glyph glyph-name="ucircumflex" unicode="&#xfb;" horiz-adv-x="1441" 
d="M720 -32q313 0 452.5 115t139.5 371v570h-416v-466q0 -141 -39 -197.5t-137 -56.5q-97 0 -136.5 56.5t-39.5 197.5v466h-416v-570q0 -256 139.5 -371t452.5 -115zM415 1130l306 224l306 -224l156 210l-462 340l-462 -340z" />
    <glyph glyph-name="udieresis" unicode="&#xfc;" horiz-adv-x="1441" 
d="M720 -32q313 0 452.5 115t139.5 371v570h-416v-466q0 -141 -39 -197.5t-137 -56.5q-97 0 -136.5 56.5t-39.5 197.5v466h-416v-570q0 -256 139.5 -371t452.5 -115zM957 1186q89 0 150.5 62t61.5 150q0 89 -61.5 150.5t-150.5 61.5q-88 0 -150 -61.5t-62 -150.5
q0 -88 62 -150t150 -62zM485 1186q89 0 150.5 62t61.5 150q0 89 -61.5 150.5t-150.5 61.5q-88 0 -150 -61.5t-62 -150.5q0 -88 62 -150t150 -62z" />
    <glyph glyph-name="yacute" unicode="&#xfd;" horiz-adv-x="1281" 
d="M31 -520h478l836 1544h-478l-208 -432l-252 432h-478l486 -826zM566 1075l436 418l-268 205l-335 -483z" />
    <glyph glyph-name="thorn" unicode="&#xfe;" horiz-adv-x="1465" 
d="M157 -520h416v600q60 -46 139.5 -79t172.5 -33q151 0 265 74.5t177.5 198t63.5 271.5t-63.5 271.5t-177.5 198t-265 74.5q-183 0 -312 -98v762h-416v-2240zM757 320q-84 0 -138 55t-54 137q0 84 57 138t135 54q81 0 137.5 -54t56.5 -138q0 -82 -52 -137t-142 -55z" />
    <glyph glyph-name="ydieresis" unicode="&#xff;" horiz-adv-x="1281" 
d="M31 -520h478l836 1544h-478l-208 -432l-252 432h-478l486 -826zM877 1186q89 0 150.5 62t61.5 150q0 89 -61.5 150.5t-150.5 61.5q-88 0 -150 -61.5t-62 -150.5q0 -88 62 -150t150 -62zM405 1186q89 0 150.5 62t61.5 150q0 89 -61.5 150.5t-150.5 61.5q-88 0 -150 -61.5
t-62 -150.5q0 -88 62 -150t150 -62z" />
    <glyph glyph-name="Amacron" unicode="&#x100;" horiz-adv-x="1670" 
d="M-41 0h474l99 274h606l99 -274h474l-672 1650h-408zM682 660l153 392l153 -392h-306zM427 1874h816v280h-816v-280z" />
    <glyph glyph-name="amacron" unicode="&#x101;" 
d="M579 -32q167 0 312 112v-80h416v1024h-416v-66q-130 98 -312 98q-149 0 -263 -72t-178.5 -194.5t-64.5 -275.5q0 -158 68 -281.5t183 -194t255 -70.5zM707 320q-84 0 -139 54.5t-55 137.5t55.5 137.5t138.5 54.5t137.5 -54.5t54.5 -137.5t-54 -137.5t-138 -54.5z
M371 1280h816v280h-816v-280z" />
    <glyph glyph-name="Abreve" unicode="&#x102;" horiz-adv-x="1670" 
d="M-41 0h474l99 274h606l99 -274h474l-672 1650h-408zM682 660l153 392l153 -392h-306zM835 1860q135 0 238 47.5t165 132t73 194.5l-292 72q-2 -44 -20.5 -89t-57.5 -75t-106 -30q-66 0 -105.5 30t-57.5 75t-21 89l-292 -72q11 -110 73 -194.5t165 -132t238 -47.5z" />
    <glyph glyph-name="abreve" unicode="&#x103;" 
d="M579 -32q167 0 312 112v-80h416v1024h-416v-66q-130 98 -312 98q-149 0 -263 -72t-178.5 -194.5t-64.5 -275.5q0 -158 68 -281.5t183 -194t255 -70.5zM707 320q-84 0 -139 54.5t-55 137.5t55.5 137.5t138.5 54.5t137.5 -54.5t54.5 -137.5t-54 -137.5t-138 -54.5z
M779 1266q135 0 238 47.5t165 132t73 194.5l-292 72q-2 -44 -20.5 -89t-57.5 -75t-106 -30q-66 0 -105.5 30t-57.5 75t-21 89l-292 -72q11 -110 73 -194.5t165 -132t238 -47.5z" />
    <glyph glyph-name="Aogonek" unicode="&#x104;" horiz-adv-x="1670" 
d="M-41 0h474l99 274h606l99 -274h474l-672 1650h-408zM682 660l153 392l153 -392h-306zM1611 -547q80 0 154 38.5t120 105.5l-166 124q-26 -48 -73 -48q-51 0 -51 70q0 54 32 128.5t84 138.5h-185q-167 -192 -167 -332q0 -93 72 -159t180 -66z" />
    <glyph glyph-name="aogonek" unicode="&#x105;" 
d="M579 -32q167 0 312 112v-80h416v1024h-416v-66q-130 98 -312 98q-149 0 -263 -72t-178.5 -194.5t-64.5 -275.5q0 -158 68 -281.5t183 -194t255 -70.5zM707 320q-84 0 -139 54.5t-55 137.5t55.5 137.5t138.5 54.5t137.5 -54.5t54.5 -137.5t-54 -137.5t-138 -54.5z
M1207 -557q80 0 154 38.5t120 105.5l-166 124q-26 -48 -73 -48q-51 0 -51 70q0 54 32 128.5t84 138.5h-185q-167 -192 -167 -332q0 -93 72 -159t180 -66z" />
    <glyph glyph-name="Cacute" unicode="&#x106;" horiz-adv-x="1476" 
d="M953 -32q155 0 292.5 43t226.5 103l-186 376q-54 -41 -136.5 -65.5t-169.5 -24.5q-133 0 -241.5 55.5t-172.5 151.5t-64 217t64 217t172.5 151.5t241.5 55.5q87 0 169.5 -24.5t136.5 -65.5l186 376q-94 63 -232.5 104.5t-288.5 41.5q-186 0 -353 -66.5t-295.5 -184.5
t-202.5 -273.5t-74 -332.5t73.5 -331.5t202.5 -272.5t296.5 -184.5t354.5 -66.5zM876 1731l436 418l-268 205l-335 -483z" />
    <glyph glyph-name="cacute" unicode="&#x107;" horiz-adv-x="1010" 
d="M639 -32q99 0 188.5 27.5t141.5 64.5l-136 280q-19 -13 -52.5 -23.5t-73.5 -10.5q-98 0 -155 62t-57 144q0 44 21.5 92t68 81t120.5 33q78 0 128 -34l136 280q-50 38 -142 65t-190 27q-125 0 -231.5 -45.5t-185 -123t-122 -175t-43.5 -201.5q0 -111 46.5 -209.5
t127.5 -173.5t186.5 -117.5t223.5 -42.5zM492 1107l436 418l-268 205l-335 -483z" />
    <glyph glyph-name="Cdotaccent" unicode="&#x10a;" horiz-adv-x="1476" 
d="M953 -32q155 0 292.5 43t226.5 103l-186 376q-54 -41 -136.5 -65.5t-169.5 -24.5q-133 0 -241.5 55.5t-172.5 151.5t-64 217t64 217t172.5 151.5t241.5 55.5q87 0 169.5 -24.5t136.5 -65.5l186 376q-94 63 -232.5 104.5t-288.5 41.5q-186 0 -353 -66.5t-295.5 -184.5
t-202.5 -273.5t-74 -332.5t73.5 -331.5t202.5 -272.5t296.5 -184.5t354.5 -66.5zM952 1899q66 0 120.5 32.5t87 87.5t32.5 121t-32.5 120.5t-87 87t-120.5 32.5t-121 -32.5t-87.5 -87t-32.5 -120.5t32.5 -121t87.5 -87.5t121 -32.5z" />
    <glyph glyph-name="cdotaccent" unicode="&#x10b;" horiz-adv-x="1010" 
d="M639 -32q99 0 188.5 27.5t141.5 64.5l-136 280q-19 -13 -52.5 -23.5t-73.5 -10.5q-98 0 -155 62t-57 144q0 44 21.5 92t68 81t120.5 33q78 0 128 -34l136 280q-50 38 -142 65t-190 27q-125 0 -231.5 -45.5t-185 -123t-122 -175t-43.5 -201.5q0 -111 46.5 -209.5
t127.5 -173.5t186.5 -117.5t223.5 -42.5zM568 1275q66 0 120.5 32.5t87 87.5t32.5 121t-32.5 120.5t-87 87t-120.5 32.5t-121 -32.5t-87.5 -87t-32.5 -120.5t32.5 -121t87.5 -87.5t121 -32.5z" />
    <glyph glyph-name="Ccaron" unicode="&#x10c;" horiz-adv-x="1476" 
d="M953 -32q155 0 292.5 43t226.5 103l-186 376q-54 -41 -136.5 -65.5t-169.5 -24.5q-133 0 -241.5 55.5t-172.5 151.5t-64 217t64 217t172.5 151.5t241.5 55.5q87 0 169.5 -24.5t136.5 -65.5l186 376q-94 63 -232.5 104.5t-288.5 41.5q-186 0 -353 -66.5t-295.5 -184.5
t-202.5 -273.5t-74 -332.5t73.5 -331.5t202.5 -272.5t296.5 -184.5t354.5 -66.5zM951 1786l462 340l-156 210l-306 -224l-306 224l-156 -210z" />
    <glyph glyph-name="ccaron" unicode="&#x10d;" horiz-adv-x="1010" 
d="M639 -32q99 0 188.5 27.5t141.5 64.5l-136 280q-19 -13 -52.5 -23.5t-73.5 -10.5q-98 0 -155 62t-57 144q0 44 21.5 92t68 81t120.5 33q78 0 128 -34l136 280q-50 38 -142 65t-190 27q-125 0 -231.5 -45.5t-185 -123t-122 -175t-43.5 -201.5q0 -111 46.5 -209.5
t127.5 -173.5t186.5 -117.5t223.5 -42.5zM567 1162l462 340l-156 210l-306 -224l-306 224l-156 -210z" />
    <glyph glyph-name="Dcaron" unicode="&#x10e;" horiz-adv-x="1594" 
d="M196 0h508q176 0 327.5 62.5t265 174.5t176.5 262t63 324t-63.5 324.5t-177 263.5t-264.5 176t-327 63h-508v-1650zM636 394v862h16q120 0 212 -55.5t144 -152.5t52 -224q0 -126 -52 -223t-144 -152t-212 -55h-16zM797 1756l462 340l-156 210l-306 -224l-306 224
l-156 -210z" />
    <glyph glyph-name="dcaron" unicode="&#x10f;" 
d="M574 -32q172 0 317 112v-80h416v1720h-416v-762q-60 47 -139 72.5t-167 25.5q-149 0 -264.5 -71.5t-181.5 -194.5t-66 -278q0 -160 68.5 -283t182.5 -192t250 -69zM704 320q-85 0 -138 53.5t-53 135.5q0 84 55.5 139.5t137.5 55.5t137.5 -55.5t55.5 -138.5
q0 -82 -54.5 -136t-140.5 -54zM632 1653l462 340l-156 210l-306 -224l-306 224l-156 -210z" />
    <glyph glyph-name="Dcroat" unicode="&#x110;" horiz-adv-x="1645" 
d="M247 0h508q170 0 320.5 60.5t265.5 171t180.5 261t65.5 331.5q0 180 -65.5 331t-181 262t-265.5 172t-320 61h-508v-646h-164v-358h164v-646zM687 394v252h154v358h-154v252h16q127 0 218.5 -59t141 -157t48.5 -216q0 -119 -50 -216.5t-141.5 -155.5t-216.5 -58h-16z" />
    <glyph glyph-name="dcroat" unicode="&#x111;" 
d="M579 -32q93 0 172.5 33t139.5 79v-80h416v1238h102v264h-102v218h-416v-218h-206v-264h206v-280q-129 98 -312 98q-151 0 -265 -74.5t-177.5 -198t-63.5 -271.5t63.5 -271.5t177.5 -198t265 -74.5zM707 320q-90 0 -142 55t-52 137q0 84 56.5 138t137.5 54q78 0 135 -54
t57 -138q0 -82 -54 -137t-138 -55z" />
    <glyph glyph-name="Emacron" unicode="&#x112;" horiz-adv-x="1340" 
d="M196 0h976v386h-536v248h512v386h-512v244h536v386h-976v-1650zM262 1874h816v280h-816v-280z" />
    <glyph glyph-name="emacron" unicode="&#x113;" horiz-adv-x="1264" 
d="M658 -32q168 0 304.5 72.5t208.5 199.5l-298 148q-54 -52 -94.5 -72t-96.5 -20q-91 0 -142 42t-51 116h694q3 39 3.5 50.5t0.5 24.5q0 157 -68 275.5t-188.5 185t-280.5 66.5q-167 0 -301 -71.5t-212 -194t-78 -276.5q0 -155 79 -278.5t214.5 -195.5t305.5 -72zM501 650
q2 120 138 120q123 0 142 -120h-280zM241 1280h816v280h-816v-280z" />
    <glyph glyph-name="Edotaccent" unicode="&#x116;" horiz-adv-x="1340" 
d="M196 0h976v386h-536v248h512v386h-512v244h536v386h-976v-1650zM671 1869q66 0 120.5 32.5t87 87.5t32.5 121t-32.5 120.5t-87 87t-120.5 32.5t-121 -32.5t-87.5 -87t-32.5 -120.5t32.5 -121t87.5 -87.5t121 -32.5z" />
    <glyph glyph-name="edotaccent" unicode="&#x117;" horiz-adv-x="1264" 
d="M658 -32q168 0 304.5 72.5t208.5 199.5l-298 148q-54 -52 -94.5 -72t-96.5 -20q-91 0 -142 42t-51 116h694q3 39 3.5 50.5t0.5 24.5q0 157 -68 275.5t-188.5 185t-280.5 66.5q-167 0 -301 -71.5t-212 -194t-78 -276.5q0 -155 79 -278.5t214.5 -195.5t305.5 -72zM501 650
q2 120 138 120q123 0 142 -120h-280zM650 1275q66 0 120.5 32.5t87 87.5t32.5 121t-32.5 120.5t-87 87t-120.5 32.5t-121 -32.5t-87.5 -87t-32.5 -120.5t32.5 -121t87.5 -87.5t121 -32.5z" />
    <glyph glyph-name="Eogonek" unicode="&#x118;" horiz-adv-x="1340" 
d="M196 0h976v386h-536v248h512v386h-512v244h536v386h-976v-1650zM1072 -557q80 0 154 38.5t120 105.5l-166 124q-26 -48 -73 -48q-51 0 -51 70q0 54 32 128.5t84 138.5h-185q-167 -192 -167 -332q0 -93 72 -159t180 -66z" />
    <glyph glyph-name="eogonek" unicode="&#x119;" horiz-adv-x="1264" 
d="M658 -32q168 0 304.5 72.5t208.5 199.5l-298 148q-54 -52 -94.5 -72t-96.5 -20q-91 0 -142 42t-51 116h694q3 39 3.5 50.5t0.5 24.5q0 157 -68 275.5t-188.5 185t-280.5 66.5q-167 0 -301 -71.5t-212 -194t-78 -276.5q0 -155 79 -278.5t214.5 -195.5t305.5 -72zM501 650
q2 120 138 120q123 0 142 -120h-280zM655 -547q80 0 154 38.5t120 105.5l-166 124q-26 -48 -73 -48q-51 0 -51 70q0 54 32 128.5t84 138.5h-185q-167 -192 -167 -332q0 -93 72 -159t180 -66z" />
    <glyph glyph-name="Ecaron" unicode="&#x11a;" horiz-adv-x="1340" 
d="M196 0h976v386h-536v248h512v386h-512v244h536v386h-976v-1650zM670 1756l462 340l-156 210l-306 -224l-306 224l-156 -210z" />
    <glyph glyph-name="ecaron" unicode="&#x11b;" horiz-adv-x="1264" 
d="M658 -32q168 0 304.5 72.5t208.5 199.5l-298 148q-54 -52 -94.5 -72t-96.5 -20q-91 0 -142 42t-51 116h694q3 39 3.5 50.5t0.5 24.5q0 157 -68 275.5t-188.5 185t-280.5 66.5q-167 0 -301 -71.5t-212 -194t-78 -276.5q0 -155 79 -278.5t214.5 -195.5t305.5 -72zM501 650
q2 120 138 120q123 0 142 -120h-280zM649 1162l462 340l-156 210l-306 -224l-306 224l-156 -210z" />
    <glyph glyph-name="Gbreve" unicode="&#x11e;" horiz-adv-x="1697" 
d="M869 -32q154 0 291.5 52.5t243.5 145t166.5 212.5t60.5 254v320h-762v-338h314v-2q0 -63 -38.5 -117t-104 -87.5t-146.5 -33.5q-100 0 -180 56t-126.5 161.5t-46.5 254.5q0 204 94 322.5t276 118.5q91 0 202 -31.5t193 -93.5l202 342q-88 61 -192.5 100t-211 57.5
t-201.5 18.5q-188 0 -342 -65.5t-265 -182t-171 -272t-60 -334.5q0 -184 61.5 -340.5t171.5 -272.5t256 -180.5t315 -64.5zM903 1890q135 0 238 47.5t165 132t73 194.5l-292 72q-2 -44 -20.5 -89t-57.5 -75t-106 -30q-66 0 -105.5 30t-57.5 75t-21 89l-292 -72
q11 -110 73 -194.5t165 -132t238 -47.5z" />
    <glyph glyph-name="gbreve" unicode="&#x11f;" 
d="M679 -550q223 0 361.5 73t202.5 192t64 257v1052h-416v-66q-60 47 -139 72.5t-167 25.5q-149 0 -264.5 -71.5t-181.5 -194.5t-66 -278q0 -160 68.5 -283t182.5 -192t250 -69q172 0 317 112v-72q0 -82 -57.5 -140t-156.5 -58q-67 0 -130.5 28t-101.5 76l-336 -166
q63 -147 208.5 -222.5t361.5 -75.5zM704 320q-85 0 -138 53.5t-53 135.5q0 84 55.5 139.5t137.5 55.5t137.5 -55.5t55.5 -138.5q0 -82 -54.5 -136t-140.5 -54zM732 1234q135 0 238 47.5t165 132t73 194.5l-292 72q-2 -44 -20.5 -89t-57.5 -75t-106 -30q-66 0 -105.5 30
t-57.5 75t-21 89l-292 -72q11 -110 73 -194.5t165 -132t238 -47.5z" />
    <glyph glyph-name="Gdotaccent" unicode="&#x120;" horiz-adv-x="1697" 
d="M869 -32q154 0 291.5 52.5t243.5 145t166.5 212.5t60.5 254v320h-762v-338h314v-2q0 -63 -38.5 -117t-104 -87.5t-146.5 -33.5q-100 0 -180 56t-126.5 161.5t-46.5 254.5q0 204 94 322.5t276 118.5q91 0 202 -31.5t193 -93.5l202 342q-88 61 -192.5 100t-211 57.5
t-201.5 18.5q-188 0 -342 -65.5t-265 -182t-171 -272t-60 -334.5q0 -184 61.5 -340.5t171.5 -272.5t256 -180.5t315 -64.5zM904 1899q66 0 120.5 32.5t87 87.5t32.5 121t-32.5 120.5t-87 87t-120.5 32.5t-121 -32.5t-87.5 -87t-32.5 -120.5t32.5 -121t87.5 -87.5t121 -32.5z
" />
    <glyph glyph-name="gdotaccent" unicode="&#x121;" 
d="M679 -550q223 0 361.5 73t202.5 192t64 257v1052h-416v-66q-60 47 -139 72.5t-167 25.5q-149 0 -264.5 -71.5t-181.5 -194.5t-66 -278q0 -160 68.5 -283t182.5 -192t250 -69q172 0 317 112v-72q0 -82 -57.5 -140t-156.5 -58q-67 0 -130.5 28t-101.5 76l-336 -166
q63 -147 208.5 -222.5t361.5 -75.5zM704 320q-85 0 -138 53.5t-53 135.5q0 84 55.5 139.5t137.5 55.5t137.5 -55.5t55.5 -138.5q0 -82 -54.5 -136t-140.5 -54zM733 1243q66 0 120.5 32.5t87 87.5t32.5 121t-32.5 120.5t-87 87t-120.5 32.5t-121 -32.5t-87.5 -87
t-32.5 -120.5t32.5 -121t87.5 -87.5t121 -32.5z" />
    <glyph glyph-name="uni0122" unicode="&#x122;" horiz-adv-x="1697" 
d="M869 -32q154 0 291.5 52.5t243.5 145t166.5 212.5t60.5 254v320h-762v-338h314v-2q0 -63 -38.5 -117t-104 -87.5t-146.5 -33.5q-100 0 -180 56t-126.5 161.5t-46.5 254.5q0 204 94 322.5t276 118.5q91 0 202 -31.5t193 -93.5l202 342q-88 61 -192.5 100t-211 57.5
t-201.5 18.5q-188 0 -342 -65.5t-265 -182t-171 -272t-60 -334.5q0 -184 61.5 -340.5t171.5 -272.5t256 -180.5t315 -64.5zM881 -553q91 75 140.5 156t49.5 155q0 67 -36.5 101.5t-92.5 34.5q-58 0 -94.5 -35.5t-36.5 -91.5q0 -46 26 -77.5t70 -43.5q-7 -34 -34 -82.5
t-51 -68.5z" />
    <glyph glyph-name="uni0123" unicode="&#x123;" 
d="M679 -550q223 0 361.5 73t202.5 192t64 257v1052h-416v-66q-60 47 -139 72.5t-167 25.5q-149 0 -264.5 -71.5t-181.5 -194.5t-66 -278q0 -160 68.5 -283t182.5 -192t250 -69q172 0 317 112v-72q0 -82 -57.5 -140t-156.5 -58q-67 0 -130.5 28t-101.5 76l-336 -166
q63 -147 208.5 -222.5t361.5 -75.5zM704 320q-85 0 -138 53.5t-53 135.5q0 84 55.5 139.5t137.5 55.5t137.5 -55.5t55.5 -138.5q0 -82 -54.5 -136t-140.5 -54zM752 1300q84 0 137.5 35.5t53.5 91.5q0 44 -33.5 76.5t-92.5 44.5q9 35 45 83.5t67 67.5l-108 48
q-119 -75 -184 -156t-65 -155q0 -63 48.5 -99.5t131.5 -36.5z" />
    <glyph glyph-name="Hbar" unicode="&#x126;" horiz-adv-x="1696" 
d="M196 0h440v580h424v-580h440v1064h130v294h-130v292h-440v-292h-424v292h-440v-292h-130v-294h130v-1064zM636 874v190h424v-190h-424z" />
    <glyph glyph-name="hbar" unicode="&#x127;" horiz-adv-x="1461" 
d="M157 0h416v564q0 77 46 123.5t122 46.5t122 -46.5t46 -123.5v-564h416v654q0 115 -54 205.5t-146.5 143.5t-209.5 53q-92 0 -181.5 -33.5t-160.5 -94.5v290h227v246h-227v256h-416v-256h-137v-246h137v-1218z" />
    <glyph glyph-name="Imacron" unicode="&#x12a;" horiz-adv-x="832" 
d="M196 0h440v1650h-440v-1650zM8 1874h816v280h-816v-280z" />
    <glyph glyph-name="imacron" unicode="&#x12b;" horiz-adv-x="730" 
d="M157 0h416v1024h-416v-1024zM-43 1248h816v280h-816v-280z" />
    <glyph glyph-name="Iogonek" unicode="&#x12e;" horiz-adv-x="832" 
d="M196 0h440v1650h-440v-1650zM536 -557q80 0 154 38.5t120 105.5l-166 124q-26 -48 -73 -48q-51 0 -51 70q0 54 32 128.5t84 138.5h-185q-167 -192 -167 -332q0 -93 72 -159t180 -66z" />
    <glyph glyph-name="iogonek" unicode="&#x12f;" horiz-adv-x="730" 
d="M157 0h416v1024h-416v-1024zM366 1243q66 0 120.5 32.5t87 87.5t32.5 121t-32.5 120.5t-87 87t-120.5 32.5t-121 -32.5t-87.5 -87t-32.5 -120.5t32.5 -121t87.5 -87.5t121 -32.5zM473 -557q80 0 154 38.5t120 105.5l-166 124q-26 -48 -73 -48q-51 0 -51 70q0 54 32 128.5
t84 138.5h-185q-167 -192 -167 -332q0 -93 72 -159t180 -66z" />
    <glyph glyph-name="Idotaccent" unicode="&#x130;" horiz-adv-x="832" 
d="M196 0h440v1650h-440v-1650zM417 1869q66 0 120.5 32.5t87 87.5t32.5 121t-32.5 120.5t-87 87t-120.5 32.5t-121 -32.5t-87.5 -87t-32.5 -120.5t32.5 -121t87.5 -87.5t121 -32.5z" />
    <glyph glyph-name="dotlessi" unicode="&#x131;" horiz-adv-x="730" 
d="M157 0h416v1024h-416v-1024z" />
    <glyph glyph-name="uni0136" unicode="&#x136;" horiz-adv-x="1740" 
d="M196 0h440v662l552 -662h606l-750 872l640 778h-534l-514 -642v642h-440v-1650zM805 -547q91 75 140.5 156t49.5 155q0 67 -36.5 101.5t-92.5 34.5q-58 0 -94.5 -35.5t-36.5 -91.5q0 -46 26 -77.5t70 -43.5q-7 -34 -34 -82.5t-51 -68.5z" />
    <glyph glyph-name="uni0137" unicode="&#x137;" horiz-adv-x="1426" 
d="M157 0h416v350l384 -350h534l-546 508l524 516h-538l-358 -344v1040h-416v-1720zM653 -547q91 75 140.5 156t49.5 155q0 67 -36.5 101.5t-92.5 34.5q-58 0 -94.5 -35.5t-36.5 -91.5q0 -46 26 -77.5t70 -43.5q-7 -34 -34 -82.5t-51 -68.5z" />
    <glyph glyph-name="Lacute" unicode="&#x139;" horiz-adv-x="1157" 
d="M196 0h972v386h-532v1264h-440v-1650zM676 1701l436 418l-268 205l-335 -483z" />
    <glyph glyph-name="lacute" unicode="&#x13a;" horiz-adv-x="730" 
d="M157 0h416v1720h-416v-1720zM290 1771l436 418l-268 205l-335 -483z" />
    <glyph glyph-name="uni013B" unicode="&#x13b;" horiz-adv-x="1157" 
d="M196 0h972v386h-532v1264h-440v-1650zM662 -547q91 75 140.5 156t49.5 155q0 67 -36.5 101.5t-92.5 34.5q-58 0 -94.5 -35.5t-36.5 -91.5q0 -46 26 -77.5t70 -43.5q-7 -34 -34 -82.5t-51 -68.5z" />
    <glyph glyph-name="uni013C" unicode="&#x13c;" horiz-adv-x="730" 
d="M157 0h416v1720h-416v-1720zM305 -547q91 75 140.5 156t49.5 155q0 67 -36.5 101.5t-92.5 34.5q-58 0 -94.5 -35.5t-36.5 -91.5q0 -46 26 -77.5t70 -43.5q-7 -34 -34 -82.5t-51 -68.5z" />
    <glyph glyph-name="Lcaron" unicode="&#x13d;" horiz-adv-x="1157" 
d="M196 0h972v386h-532v1264h-440v-1650zM751 1756l462 340l-156 210l-306 -224l-306 224l-156 -210z" />
    <glyph glyph-name="lcaron" unicode="&#x13e;" horiz-adv-x="730" 
d="M157 0h416v1720h-416v-1720zM365 1826l462 340l-156 210l-306 -224l-306 224l-156 -210z" />
    <glyph glyph-name="Lslash" unicode="&#x141;" horiz-adv-x="1202" 
d="M241 0h972v386h-532v554l208 164v358l-208 -164v352h-440v-698l-148 -116v-358l148 116v-594z" />
    <glyph glyph-name="lslash" unicode="&#x142;" horiz-adv-x="812" 
d="M227 0h416v892l144 114v358l-144 -114v470h-416v-796l-144 -112v-358l144 112v-566z" />
    <glyph glyph-name="Nacute" unicode="&#x143;" horiz-adv-x="1864" 
d="M196 0h440v920l592 -920h440v1650h-440v-920l-592 920h-440v-1650zM857 1701l436 418l-268 205l-335 -483z" />
    <glyph glyph-name="nacute" unicode="&#x144;" horiz-adv-x="1461" 
d="M157 0h416v564q0 77 46 123.5t122 46.5t122 -46.5t46 -123.5v-564h416v654q0 115 -54 205.5t-146.5 143.5t-209.5 53q-92 0 -181.5 -33.5t-160.5 -94.5v96h-416v-1024zM680 1107l436 418l-268 205l-335 -483z" />
    <glyph glyph-name="uni0145" unicode="&#x145;" horiz-adv-x="1864" 
d="M196 0h440v920l592 -920h440v1650h-440v-920l-592 920h-440v-1650zM872 -547q91 75 140.5 156t49.5 155q0 67 -36.5 101.5t-92.5 34.5q-58 0 -94.5 -35.5t-36.5 -91.5q0 -46 26 -77.5t70 -43.5q-7 -34 -34 -82.5t-51 -68.5z" />
    <glyph glyph-name="uni0146" unicode="&#x146;" horiz-adv-x="1461" 
d="M157 0h416v564q0 77 46 123.5t122 46.5t122 -46.5t46 -123.5v-564h416v654q0 115 -54 205.5t-146.5 143.5t-209.5 53q-92 0 -181.5 -33.5t-160.5 -94.5v96h-416v-1024zM671 -547q91 75 140.5 156t49.5 155q0 67 -36.5 101.5t-92.5 34.5q-58 0 -94.5 -35.5t-36.5 -91.5
q0 -46 26 -77.5t70 -43.5q-7 -34 -34 -82.5t-51 -68.5z" />
    <glyph glyph-name="Ncaron" unicode="&#x147;" horiz-adv-x="1864" 
d="M196 0h440v920l592 -920h440v1650h-440v-920l-592 920h-440v-1650zM932 1756l462 340l-156 210l-306 -224l-306 224l-156 -210z" />
    <glyph glyph-name="ncaron" unicode="&#x148;" horiz-adv-x="1461" 
d="M157 0h416v564q0 77 46 123.5t122 46.5t122 -46.5t46 -123.5v-564h416v654q0 115 -54 205.5t-146.5 143.5t-209.5 53q-92 0 -181.5 -33.5t-160.5 -94.5v96h-416v-1024zM755 1162l462 340l-156 210l-306 -224l-306 224l-156 -210z" />
    <glyph glyph-name="Eng" unicode="&#x14a;" horiz-adv-x="1845" 
d="M1175 -551q230 0 361.5 129.5t131.5 366.5v1705h-440v-920l-592 920h-440v-1650h440v920l592 -920v-1q0 -58 -35.5 -93t-94.5 -35q-74 0 -190 100l-140 -364q171 -158 407 -158z" />
    <glyph glyph-name="eng" unicode="&#x14b;" horiz-adv-x="1450" 
d="M918 -550q190 0 298.5 113.5t108.5 298.5v792q0 115 -54 205.5t-146.5 143.5t-209.5 53q-92 0 -181.5 -33.5t-160.5 -94.5v96h-416v-1024h416v564q0 77 46 123.5t122 46.5t122 -46.5t46 -123.5v-620q0 -120 -77 -120q-35 0 -85 28l-128 -334q48 -29 134 -48.5t165 -19.5z
" />
    <glyph glyph-name="Omacron" unicode="&#x14c;" horiz-adv-x="1788" 
d="M894 -32q173 0 324 66t265 183.5t178.5 273t64.5 333.5t-64.5 333.5t-178.5 273t-265 183.5t-324 66t-324 -66t-265 -183.5t-178.5 -273t-64.5 -333.5t64.5 -333.5t178.5 -273t265 -183.5t324 -66zM894 392q-163 0 -260.5 118t-97.5 314t97.5 314t260.5 118t260.5 -118
t97.5 -314t-97.5 -314t-260.5 -118zM486 1904h816v280h-816v-280z" />
    <glyph glyph-name="omacron" unicode="&#x14d;" horiz-adv-x="1366" 
d="M683 -32q176 0 317.5 69.5t224 192t82.5 282.5t-82.5 282.5t-224 192t-317.5 69.5t-317.5 -69.5t-224 -192t-82.5 -282.5t82.5 -282.5t224 -192t317.5 -69.5zM683 320q-76 0 -132 53.5t-56 138.5q0 86 56 139t132 53q77 0 132.5 -53t55.5 -139q0 -85 -55.5 -138.5
t-132.5 -53.5zM275 1280h816v280h-816v-280z" />
    <glyph glyph-name="Ohungarumlaut" unicode="&#x150;" horiz-adv-x="1788" 
d="M894 -32q173 0 324 66t265 183.5t178.5 273t64.5 333.5t-64.5 333.5t-178.5 273t-265 183.5t-324 66t-324 -66t-265 -183.5t-178.5 -273t-64.5 -333.5t64.5 -333.5t178.5 -273t265 -183.5t324 -66zM894 392q-163 0 -260.5 118t-97.5 314t97.5 314t260.5 118t260.5 -118
t97.5 -314t-97.5 -314t-260.5 -118zM1122 1772l493 300l-238 264l-401 -388zM520 1772l491 300l-238 264l-401 -388z" />
    <glyph glyph-name="ohungarumlaut" unicode="&#x151;" horiz-adv-x="1366" 
d="M683 -32q176 0 317.5 69.5t224 192t82.5 282.5t-82.5 282.5t-224 192t-317.5 69.5t-317.5 -69.5t-224 -192t-82.5 -282.5t82.5 -282.5t224 -192t317.5 -69.5zM683 320q-76 0 -132 53.5t-56 138.5q0 86 56 139t132 53q77 0 132.5 -53t55.5 -139q0 -85 -55.5 -138.5
t-132.5 -53.5zM911 1148l493 300l-238 264l-401 -388zM309 1148l491 300l-238 264l-401 -388z" />
    <glyph glyph-name="OE" unicode="&#x152;" horiz-adv-x="2160" 
d="M892 0h1100v386h-536v248h512v386h-512v244h536v386h-890q-351 0 -582.5 -103t-345.5 -285t-114 -420q0 -186 64 -340.5t178 -267t265 -173.5t325 -61zM1016 392q-235 0 -358.5 117t-123.5 319q0 210 129 320t353 110v-866z" />
    <glyph glyph-name="oe" unicode="&#x153;" horiz-adv-x="2064" 
d="M667 -32q248 0 382 140q88 -73 183 -106.5t213 -33.5q178 0 314 70.5t212 201.5l-298 148q-55 -53 -95 -72.5t-96 -19.5q-92 0 -142.5 41t-50.5 117h694q3 41 3.5 51t0.5 23q0 158 -68.5 277t-191 185t-286.5 66q-223 0 -392 -140q-140 140 -383 140q-176 0 -312.5 -69.5
t-213.5 -192.5t-77 -282t77.5 -282t213.5 -192.5t313 -69.5zM1301 670q2 52 39 81t103 29q119 0 138 -110h-280zM687 320q-80 0 -134 55t-54 137t54 137t134 55t134 -55t54 -137t-54 -137t-134 -55z" />
    <glyph glyph-name="Racute" unicode="&#x154;" horiz-adv-x="1584" 
d="M196 0h440v572h1l443 -572h558l-534 626q154 65 236 195t82 307q0 166 -71 282.5t-200 178t-303 61.5h-652v-1650zM636 936v364h68q254 0 254 -184q0 -180 -254 -180h-68zM717 1701l436 418l-268 205l-335 -483z" />
    <glyph glyph-name="racute" unicode="&#x155;" horiz-adv-x="1078" 
d="M157 0h416v502q0 51 29 95t76.5 71.5t100.5 27.5q42 0 92.5 -17t87.5 -45l174 350q-43 32 -109 52t-125 20q-91 0 -176.5 -46.5t-149.5 -129.5v144h-416v-1024zM574 1107l436 418l-268 205l-335 -483z" />
    <glyph glyph-name="uni0156" unicode="&#x156;" horiz-adv-x="1584" 
d="M196 0h440v572h1l443 -572h558l-534 626q154 65 236 195t82 307q0 166 -71 282.5t-200 178t-303 61.5h-652v-1650zM636 936v364h68q254 0 254 -184q0 -180 -254 -180h-68zM732 -547q91 75 140.5 156t49.5 155q0 67 -36.5 101.5t-92.5 34.5q-58 0 -94.5 -35.5t-36.5 -91.5
q0 -46 26 -77.5t70 -43.5q-7 -34 -34 -82.5t-51 -68.5z" />
    <glyph glyph-name="uni0157" unicode="&#x157;" horiz-adv-x="1078" 
d="M157 0h416v502q0 51 29 95t76.5 71.5t100.5 27.5q42 0 92.5 -17t87.5 -45l174 350q-43 32 -109 52t-125 20q-91 0 -176.5 -46.5t-149.5 -129.5v144h-416v-1024zM513 -547q91 75 140.5 156t49.5 155q0 67 -36.5 101.5t-92.5 34.5q-58 0 -94.5 -35.5t-36.5 -91.5
q0 -46 26 -77.5t70 -43.5q-7 -34 -34 -82.5t-51 -68.5z" />
    <glyph glyph-name="Rcaron" unicode="&#x158;" horiz-adv-x="1584" 
d="M196 0h440v572h1l443 -572h558l-534 626q154 65 236 195t82 307q0 166 -71 282.5t-200 178t-303 61.5h-652v-1650zM636 936v364h68q254 0 254 -184q0 -180 -254 -180h-68zM792 1756l462 340l-156 210l-306 -224l-306 224l-156 -210z" />
    <glyph glyph-name="rcaron" unicode="&#x159;" horiz-adv-x="1078" 
d="M157 0h416v502q0 51 29 95t76.5 71.5t100.5 27.5q42 0 92.5 -17t87.5 -45l174 350q-43 32 -109 52t-125 20q-91 0 -176.5 -46.5t-149.5 -129.5v144h-416v-1024zM649 1162l462 340l-156 210l-306 -224l-306 224l-156 -210z" />
    <glyph glyph-name="Sacute" unicode="&#x15a;" horiz-adv-x="1361" 
d="M637 -32q200 0 346 63t225.5 182t79.5 285q0 139 -57 231.5t-171.5 164t-287.5 146.5q-105 46 -145.5 69.5t-40.5 68.5q0 50 42 76t115 26q76 0 165 -26t168 -70l174 354q-67 42 -156 74t-183.5 50t-178.5 18q-131 0 -237.5 -43t-182.5 -116t-117 -164.5t-41 -189.5
q0 -141 84 -247t226 -174q125 -59 199.5 -97.5t107.5 -74t33 -85.5q0 -113 -154 -113q-72 0 -149.5 22.5t-150.5 58t-132 75.5l-218 -374q56 -45 151.5 -89t219.5 -72.5t266 -28.5zM657 1731l436 418l-268 205l-335 -483z" />
    <glyph glyph-name="sacute" unicode="&#x15b;" horiz-adv-x="1046" 
d="M464 -32q242 0 370 91.5t128 266.5q0 91 -32.5 147t-87 90t-122.5 57q-37 13 -87 31t-87.5 40t-37.5 46q0 17 21.5 29t60.5 12q79 0 232 -58l130 274q-118 32 -206.5 46t-159.5 14q-140 0 -247 -45t-167 -125t-60 -185q0 -79 33 -130t86.5 -84t114.5 -60
q97 -42 137.5 -59.5t40.5 -54.5q0 -39 -59 -39q-109 0 -259 94l-164 -288q155 -110 422 -110zM448 1075l436 418l-268 205l-335 -483z" />
    <glyph glyph-name="Scedilla" unicode="&#x15e;" horiz-adv-x="1361" 
d="M637 -32q200 0 346 63t225.5 182t79.5 285q0 139 -57 231.5t-171.5 164t-287.5 146.5q-105 46 -145.5 69.5t-40.5 68.5q0 50 42 76t115 26q76 0 165 -26t168 -70l174 354q-67 42 -156 74t-183.5 50t-178.5 18q-131 0 -237.5 -43t-182.5 -116t-117 -164.5t-41 -189.5
q0 -141 84 -247t226 -174q125 -59 199.5 -97.5t107.5 -74t33 -85.5q0 -113 -154 -113q-72 0 -149.5 22.5t-150.5 58t-132 75.5l-218 -374q56 -45 151.5 -89t219.5 -72.5t266 -28.5zM569 -558q124 0 203.5 68.5t79.5 174.5q0 105 -88 160q-68 42 -149 42l37 113h-164
l-75 -228l23 -19q8 5 30.5 8t47.5 3q53 0 85.5 -18.5t32.5 -50.5q0 -26 -20 -42.5t-53 -16.5q-79 0 -150 83l-154 -117q141 -160 314 -160z" />
    <glyph glyph-name="scedilla" unicode="&#x15f;" horiz-adv-x="1046" 
d="M464 -32q242 0 370 91.5t128 266.5q0 91 -32.5 147t-87 90t-122.5 57q-37 13 -87 31t-87.5 40t-37.5 46q0 17 21.5 29t60.5 12q79 0 232 -58l130 274q-118 32 -206.5 46t-159.5 14q-140 0 -247 -45t-167 -125t-60 -185q0 -79 33 -130t86.5 -84t114.5 -60
q97 -42 137.5 -59.5t40.5 -54.5q0 -39 -59 -39q-109 0 -259 94l-164 -288q155 -110 422 -110zM503 -558q124 0 203.5 68.5t79.5 174.5q0 105 -88 160q-68 42 -149 42l37 113h-164l-75 -228l23 -19q8 5 30.5 8t47.5 3q53 0 85.5 -18.5t32.5 -50.5q0 -26 -20 -42.5t-53 -16.5
q-79 0 -150 83l-154 -117q141 -160 314 -160z" />
    <glyph glyph-name="Scaron" unicode="&#x160;" horiz-adv-x="1361" 
d="M637 -32q200 0 346 63t225.5 182t79.5 285q0 139 -57 231.5t-171.5 164t-287.5 146.5q-105 46 -145.5 69.5t-40.5 68.5q0 50 42 76t115 26q76 0 165 -26t168 -70l174 354q-67 42 -156 74t-183.5 50t-178.5 18q-131 0 -237.5 -43t-182.5 -116t-117 -164.5t-41 -189.5
q0 -141 84 -247t226 -174q125 -59 199.5 -97.5t107.5 -74t33 -85.5q0 -113 -154 -113q-72 0 -149.5 22.5t-150.5 58t-132 75.5l-218 -374q56 -45 151.5 -89t219.5 -72.5t266 -28.5zM732 1786l462 340l-156 210l-306 -224l-306 224l-156 -210z" />
    <glyph glyph-name="scaron" unicode="&#x161;" horiz-adv-x="1046" 
d="M464 -32q242 0 370 91.5t128 266.5q0 91 -32.5 147t-87 90t-122.5 57q-37 13 -87 31t-87.5 40t-37.5 46q0 17 21.5 29t60.5 12q79 0 232 -58l130 274q-118 32 -206.5 46t-159.5 14q-140 0 -247 -45t-167 -125t-60 -185q0 -79 33 -130t86.5 -84t114.5 -60
q97 -42 137.5 -59.5t40.5 -54.5q0 -39 -59 -39q-109 0 -259 94l-164 -288q155 -110 422 -110zM523 1130l462 340l-156 210l-306 -224l-306 224l-156 -210z" />
    <glyph glyph-name="uni0162" unicode="&#x162;" horiz-adv-x="1138" 
d="M349 0h440v1264h360v386h-1160v-386h360v-1264zM506 -558q124 0 203.5 68.5t79.5 174.5q0 105 -88 160q-68 42 -149 42l37 113h-164l-75 -228l23 -19q8 5 30.5 8t47.5 3q53 0 85.5 -18.5t32.5 -50.5q0 -26 -20 -42.5t-53 -16.5q-79 0 -150 83l-154 -117
q141 -160 314 -160z" />
    <glyph glyph-name="uni0163" unicode="&#x163;" horiz-adv-x="940" 
d="M577 -32q73 0 150 18.5t141 51.5l-104 334q-43 -32 -83 -32q-65 0 -65 80v288h204v316h-204v384h-416v-384h-160v-316h160v-320q0 -198 99.5 -309t277.5 -111zM514 -558q124 0 203.5 68.5t79.5 174.5q0 105 -88 160q-68 42 -149 42l37 113h-164l-75 -228l23 -19
q8 5 30.5 8t47.5 3q53 0 85.5 -18.5t32.5 -50.5q0 -26 -20 -42.5t-53 -16.5q-79 0 -150 83l-154 -117q141 -160 314 -160z" />
    <glyph glyph-name="Tcaron" unicode="&#x164;" horiz-adv-x="1138" 
d="M349 0h440v1264h360v386h-1160v-386h360v-1264zM569 1756l462 340l-156 210l-306 -224l-306 224l-156 -210z" />
    <glyph glyph-name="tcaron" unicode="&#x165;" horiz-adv-x="940" 
d="M577 -32q73 0 150 18.5t141 51.5l-104 334q-43 -32 -83 -32q-65 0 -65 80v288h204v316h-204v384h-416v-384h-160v-316h160v-320q0 -198 99.5 -309t277.5 -111zM503 1429l462 340l-156 210l-306 -224l-306 224l-156 -210z" />
    <glyph glyph-name="Tbar" unicode="&#x166;" horiz-adv-x="1138" 
d="M349 0h440v764h170v294h-170v206h360v386h-1160v-386h360v-206h-170v-294h170v-764z" />
    <glyph glyph-name="tbar" unicode="&#x167;" horiz-adv-x="940" 
d="M577 -32q73 0 150 18.5t141 51.5l-104 334q-43 -32 -83 -32q-65 0 -65 80v188h204v216h-204v84h204v216h-204v284h-416v-284h-160v-216h160v-84h-160v-216h160v-220q0 -198 99.5 -309t277.5 -111z" />
    <glyph glyph-name="Umacron" unicode="&#x16a;" horiz-adv-x="1663" 
d="M831 -32q329 0 497.5 155.5t168.5 458.5v1068h-440v-936q0 -178 -49 -246t-177 -68t-177 68t-49 246v936h-440v-1068q0 -303 169 -458.5t497 -155.5zM424 1874h816v280h-816v-280z" />
    <glyph glyph-name="umacron" unicode="&#x16b;" horiz-adv-x="1441" 
d="M720 -32q313 0 452.5 115t139.5 371v570h-416v-466q0 -141 -39 -197.5t-137 -56.5q-97 0 -136.5 56.5t-39.5 197.5v466h-416v-570q0 -256 139.5 -371t452.5 -115zM313 1248h816v280h-816v-280z" />
    <glyph glyph-name="Uring" unicode="&#x16e;" horiz-adv-x="1663" 
d="M831 -32q329 0 497.5 155.5t168.5 458.5v1068h-440v-936q0 -178 -49 -246t-177 -68t-177 68t-49 246v936h-440v-1068q0 -303 169 -458.5t497 -155.5zM832 1786q97 0 176 39t125.5 108t46.5 159t-46.5 159t-125.5 108t-176 39t-176 -39t-125.5 -108t-46.5 -159t46.5 -159
t125.5 -108t176 -39zM832 1968q-46 0 -82 36.5t-36 87.5t36 87.5t82 36.5q47 0 82.5 -36.5t35.5 -87.5t-35.5 -87.5t-82.5 -36.5z" />
    <glyph glyph-name="uring" unicode="&#x16f;" horiz-adv-x="1441" 
d="M720 -32q313 0 452.5 115t139.5 371v570h-416v-466q0 -141 -39 -197.5t-137 -56.5q-97 0 -136.5 56.5t-39.5 197.5v466h-416v-570q0 -256 139.5 -371t452.5 -115zM721 1160q97 0 176 39t125.5 108t46.5 159t-46.5 159t-125.5 108t-176 39t-176 -39t-125.5 -108
t-46.5 -159t46.5 -159t125.5 -108t176 -39zM721 1342q-46 0 -82 36.5t-36 87.5t36 87.5t82 36.5q47 0 82.5 -36.5t35.5 -87.5t-35.5 -87.5t-82.5 -36.5z" />
    <glyph glyph-name="Uhungarumlaut" unicode="&#x170;" horiz-adv-x="1663" 
d="M831 -32q329 0 497.5 155.5t168.5 458.5v1068h-440v-936q0 -178 -49 -246t-177 -68t-177 68t-49 246v936h-440v-1068q0 -303 169 -458.5t497 -155.5zM1060 1742l493 300l-238 264l-401 -388zM458 1742l491 300l-238 264l-401 -388z" />
    <glyph glyph-name="uhungarumlaut" unicode="&#x171;" horiz-adv-x="1441" 
d="M720 -32q313 0 452.5 115t139.5 371v570h-416v-466q0 -141 -39 -197.5t-137 -56.5q-97 0 -136.5 56.5t-39.5 197.5v466h-416v-570q0 -256 139.5 -371t452.5 -115zM949 1116l493 300l-238 264l-401 -388zM347 1116l491 300l-238 264l-401 -388z" />
    <glyph glyph-name="Uogonek" unicode="&#x172;" horiz-adv-x="1663" 
d="M831 -32q329 0 497.5 155.5t168.5 458.5v1068h-440v-936q0 -178 -49 -246t-177 -68t-177 68t-49 246v936h-440v-1068q0 -303 169 -458.5t497 -155.5zM853 -547q80 0 154 38.5t120 105.5l-166 124q-26 -48 -73 -48q-51 0 -51 70q0 54 32 128.5t84 138.5h-185
q-167 -192 -167 -332q0 -93 72 -159t180 -66z" />
    <glyph glyph-name="uogonek" unicode="&#x173;" horiz-adv-x="1441" 
d="M720 -32q313 0 452.5 115t139.5 371v570h-416v-466q0 -141 -39 -197.5t-137 -56.5q-97 0 -136.5 56.5t-39.5 197.5v466h-416v-570q0 -256 139.5 -371t452.5 -115zM757 -547q80 0 154 38.5t120 105.5l-166 124q-26 -48 -73 -48q-51 0 -51 70q0 54 32 128.5t84 138.5h-185
q-167 -192 -167 -332q0 -93 72 -159t180 -66z" />
    <glyph glyph-name="Wcircumflex" unicode="&#x174;" horiz-adv-x="2300" 
d="M456 0h488l206 804l206 -804h488l466 1650h-490l-244 -1040l-262 1040h-328l-262 -1040l-244 1040h-490zM844 1756l306 224l306 -224l156 210l-462 340l-462 -340z" />
    <glyph glyph-name="wcircumflex" unicode="&#x175;" horiz-adv-x="1984" 
d="M500 0h280l212 452l212 -452h280l566 1024h-476l-216 -480l-224 480h-284l-224 -480l-216 480h-476zM686 1130l306 224l306 -224l156 210l-462 340l-462 -340z" />
    <glyph glyph-name="Ycircumflex" unicode="&#x176;" horiz-adv-x="1540" 
d="M550 0h440v748l620 902h-530l-310 -458l-310 458h-530l620 -902v-748zM464 1756l306 224l306 -224l156 210l-462 340l-462 -340z" />
    <glyph glyph-name="ycircumflex" unicode="&#x177;" horiz-adv-x="1281" 
d="M31 -520h478l836 1544h-478l-208 -432l-252 432h-478l486 -826zM335 1130l306 224l306 -224l156 210l-462 340l-462 -340z" />
    <glyph glyph-name="Ydieresis" unicode="&#x178;" horiz-adv-x="1540" 
d="M550 0h440v748l620 902h-530l-310 -458l-310 458h-530l620 -902v-748zM1006 1812q89 0 150.5 62t61.5 150q0 89 -61.5 150.5t-150.5 61.5q-88 0 -150 -61.5t-62 -150.5q0 -88 62 -150t150 -62zM534 1812q89 0 150.5 62t61.5 150q0 89 -61.5 150.5t-150.5 61.5
q-88 0 -150 -61.5t-62 -150.5q0 -88 62 -150t150 -62z" />
    <glyph glyph-name="Zacute" unicode="&#x179;" horiz-adv-x="1516" 
d="M-8 0h1456v384h-690l742 1266h-1390v-384h624zM683 1701l436 418l-268 205l-335 -483z" />
    <glyph glyph-name="zacute" unicode="&#x17a;" horiz-adv-x="1180" 
d="M16 0h1080v312h-392l436 712h-1038v-312h350zM515 1075l436 418l-268 205l-335 -483z" />
    <glyph glyph-name="Zdotaccent" unicode="&#x17b;" horiz-adv-x="1516" 
d="M-8 0h1456v384h-690l742 1266h-1390v-384h624zM759 1869q66 0 120.5 32.5t87 87.5t32.5 121t-32.5 120.5t-87 87t-120.5 32.5t-121 -32.5t-87.5 -87t-32.5 -120.5t32.5 -121t87.5 -87.5t121 -32.5z" />
    <glyph glyph-name="zdotaccent" unicode="&#x17c;" horiz-adv-x="1180" 
d="M16 0h1080v312h-392l436 712h-1038v-312h350zM591 1243q66 0 120.5 32.5t87 87.5t32.5 121t-32.5 120.5t-87 87t-120.5 32.5t-121 -32.5t-87.5 -87t-32.5 -120.5t32.5 -121t87.5 -87.5t121 -32.5z" />
    <glyph glyph-name="Zcaron" unicode="&#x17d;" horiz-adv-x="1516" 
d="M-8 0h1456v384h-690l742 1266h-1390v-384h624zM758 1756l462 340l-156 210l-306 -224l-306 224l-156 -210z" />
    <glyph glyph-name="zcaron" unicode="&#x17e;" horiz-adv-x="1180" 
d="M16 0h1080v312h-392l436 712h-1038v-312h350zM590 1130l462 340l-156 210l-306 -224l-306 224l-156 -210z" />
    <glyph glyph-name="florin" unicode="&#x192;" horiz-adv-x="1062" 
d="M177 -551q134 0 238 67.5t169 190.5t80 290l62 711h228l28 316h-228l14 164q9 113 33 153.5t82 40.5q55 0 98 -24l170 290q-56 47 -139.5 74.5t-170.5 27.5q-133 0 -237.5 -67.5t-169.5 -190.5t-80 -290l-16 -178h-160l-28 -316h160l-60 -697q-9 -113 -33 -153.5
t-82 -40.5q-55 0 -98 24l-170 -290q56 -47 139.5 -74.5t170.5 -27.5z" />
    <glyph glyph-name="uni0218" unicode="&#x218;" horiz-adv-x="1361" 
d="M637 -32q200 0 346 63t225.5 182t79.5 285q0 139 -57 231.5t-171.5 164t-287.5 146.5q-105 46 -145.5 69.5t-40.5 68.5q0 50 42 76t115 26q76 0 165 -26t168 -70l174 354q-67 42 -156 74t-183.5 50t-178.5 18q-131 0 -237.5 -43t-182.5 -116t-117 -164.5t-41 -189.5
q0 -141 84 -247t226 -174q125 -59 199.5 -97.5t107.5 -74t33 -85.5q0 -113 -154 -113q-72 0 -149.5 22.5t-150.5 58t-132 75.5l-218 -374q56 -45 151.5 -89t219.5 -72.5t266 -28.5zM592 -547q91 75 140.5 156t49.5 155q0 67 -36.5 101.5t-92.5 34.5q-58 0 -94.5 -35.5
t-36.5 -91.5q0 -46 26 -77.5t70 -43.5q-7 -34 -34 -82.5t-51 -68.5z" />
    <glyph glyph-name="uni0219" unicode="&#x219;" horiz-adv-x="1046" 
d="M464 -32q242 0 370 91.5t128 266.5q0 91 -32.5 147t-87 90t-122.5 57q-37 13 -87 31t-87.5 40t-37.5 46q0 17 21.5 29t60.5 12q79 0 232 -58l130 274q-118 32 -206.5 46t-159.5 14q-140 0 -247 -45t-167 -125t-60 -185q0 -79 33 -130t86.5 -84t114.5 -60
q97 -42 137.5 -59.5t40.5 -54.5q0 -39 -59 -39q-109 0 -259 94l-164 -288q155 -110 422 -110zM526 -547q91 75 140.5 156t49.5 155q0 67 -36.5 101.5t-92.5 34.5q-58 0 -94.5 -35.5t-36.5 -91.5q0 -46 26 -77.5t70 -43.5q-7 -34 -34 -82.5t-51 -68.5z" />
    <glyph glyph-name="uni021A" unicode="&#x21a;" horiz-adv-x="1138" 
d="M349 0h440v1264h360v386h-1160v-386h360v-1264zM529 -547q91 75 140.5 156t49.5 155q0 67 -36.5 101.5t-92.5 34.5q-58 0 -94.5 -35.5t-36.5 -91.5q0 -46 26 -77.5t70 -43.5q-7 -34 -34 -82.5t-51 -68.5z" />
    <glyph glyph-name="uni021B" unicode="&#x21b;" horiz-adv-x="940" 
d="M577 -32q73 0 150 18.5t141 51.5l-104 334q-43 -32 -83 -32q-65 0 -65 80v288h204v316h-204v384h-416v-384h-160v-316h160v-320q0 -198 99.5 -309t277.5 -111zM537 -547q91 75 140.5 156t49.5 155q0 67 -36.5 101.5t-92.5 34.5q-58 0 -94.5 -35.5t-36.5 -91.5
q0 -46 26 -77.5t70 -43.5q-7 -34 -34 -82.5t-51 -68.5z" />
    <glyph glyph-name="circumflex" unicode="&#x2c6;" horiz-adv-x="924" 
d="M156 1130l306 224l306 -224l156 210l-462 340l-462 -340z" />
    <glyph glyph-name="caron" unicode="&#x2c7;" horiz-adv-x="924" 
d="M462 1130l462 340l-156 210l-306 -224l-306 224l-156 -210z" />
    <glyph glyph-name="breve" unicode="&#x2d8;" horiz-adv-x="952" 
d="M476 1234q135 0 238 47.5t165 132t73 194.5l-292 72q-2 -44 -20.5 -89t-57.5 -75t-106 -30q-66 0 -105.5 30t-57.5 75t-21 89l-292 -72q11 -110 73 -194.5t165 -132t238 -47.5z" />
    <glyph glyph-name="dotaccent" unicode="&#x2d9;" horiz-adv-x="481" 
d="M241 1243q66 0 120.5 32.5t87 87.5t32.5 121t-32.5 120.5t-87 87t-120.5 32.5t-121 -32.5t-87.5 -87t-32.5 -120.5t32.5 -121t87.5 -87.5t121 -32.5z" />
    <glyph glyph-name="ring" unicode="&#x2da;" horiz-adv-x="696" 
d="M348 1160q97 0 176 39t125.5 108t46.5 159t-46.5 159t-125.5 108t-176 39t-176 -39t-125.5 -108t-46.5 -159t46.5 -159t125.5 -108t176 -39zM348 1342q-46 0 -82 36.5t-36 87.5t36 87.5t82 36.5q47 0 82.5 -36.5t35.5 -87.5t-35.5 -87.5t-82.5 -36.5z" />
    <glyph glyph-name="ogonek" unicode="&#x2db;" horiz-adv-x="526" 
d="M252 -550q80 0 154 38.5t120 105.5l-166 124q-26 -48 -73 -48q-51 0 -51 70q0 54 32 128.5t84 138.5h-185q-167 -192 -167 -332q0 -93 72 -159t180 -66z" />
    <glyph glyph-name="tilde" unicode="&#x2dc;" horiz-adv-x="1192" 
d="M769 1109q55 0 124 37t132 99.5t98 140.5l-203 179q-13 -53 -53 -100t-80 -47q-29 0 -78.5 25t-111 57t-126 57t-124.5 25q-103 0 -197 -79.5t-150 -197.5l204 -179q15 53 50 100t99 47q47 0 100 -25t107.5 -57t107.5 -57t101 -25z" />
    <glyph glyph-name="hungarumlaut" unicode="&#x2dd;" horiz-adv-x="1256" 
d="M750 1116l493 300l-238 264l-401 -388zM148 1116l491 300l-238 264l-401 -388z" />
    <glyph glyph-name="gravecomb" unicode="&#x300;" horiz-adv-x="0" 
d="M436 1075l167 140l-335 483l-268 -205z" />
    <glyph glyph-name="acutecomb" unicode="&#x301;" horiz-adv-x="0" 
d="M167 1075l436 418l-268 205l-335 -483z" />
    <glyph glyph-name="uni0302" unicode="&#x302;" horiz-adv-x="0" 
d="M156 1130l306 224l306 -224l156 210l-462 340l-462 -340z" />
    <glyph glyph-name="tildecomb" unicode="&#x303;" horiz-adv-x="0" 
d="M769 1109q55 0 124 37t132 99.5t98 140.5l-203 179q-13 -53 -53 -100t-80 -47q-29 0 -78.5 25t-111 57t-126 57t-124.5 25q-103 0 -197 -79.5t-150 -197.5l204 -179q15 53 50 100t99 47q47 0 100 -25t107.5 -57t107.5 -57t101 -25z" />
    <glyph glyph-name="uni0304" unicode="&#x304;" horiz-adv-x="0" 
d="M0 1248h816v280h-816v-280z" />
    <glyph glyph-name="uni0306" unicode="&#x306;" horiz-adv-x="0" 
d="M476 1234q135 0 238 47.5t165 132t73 194.5l-292 72q-2 -44 -20.5 -89t-57.5 -75t-106 -30q-66 0 -105.5 30t-57.5 75t-21 89l-292 -72q11 -110 73 -194.5t165 -132t238 -47.5z" />
    <glyph glyph-name="uni0307" unicode="&#x307;" horiz-adv-x="0" 
d="M241 1243q66 0 120.5 32.5t87 87.5t32.5 121t-32.5 120.5t-87 87t-120.5 32.5t-121 -32.5t-87.5 -87t-32.5 -120.5t32.5 -121t87.5 -87.5t121 -32.5z" />
    <glyph glyph-name="uni0308" unicode="&#x308;" horiz-adv-x="0" 
d="M684 1186q89 0 150.5 62t61.5 150q0 89 -61.5 150.5t-150.5 61.5q-88 0 -150 -61.5t-62 -150.5q0 -88 62 -150t150 -62zM212 1186q89 0 150.5 62t61.5 150q0 89 -61.5 150.5t-150.5 61.5q-88 0 -150 -61.5t-62 -150.5q0 -88 62 -150t150 -62z" />
    <glyph glyph-name="uni030A" unicode="&#x30a;" horiz-adv-x="0" 
d="M348 1160q97 0 176 39t125.5 108t46.5 159t-46.5 159t-125.5 108t-176 39t-176 -39t-125.5 -108t-46.5 -159t46.5 -159t125.5 -108t176 -39zM348 1342q-46 0 -82 36.5t-36 87.5t36 87.5t82 36.5q47 0 82.5 -36.5t35.5 -87.5t-35.5 -87.5t-82.5 -36.5z" />
    <glyph glyph-name="uni030B" unicode="&#x30b;" horiz-adv-x="0" 
d="M750 1116l493 300l-238 264l-401 -388zM148 1116l491 300l-238 264l-401 -388z" />
    <glyph glyph-name="uni030C" unicode="&#x30c;" horiz-adv-x="0" 
d="M462 1130l462 340l-156 210l-306 -224l-306 224l-156 -210z" />
    <glyph glyph-name="uni0312" unicode="&#x312;" horiz-adv-x="0" 
d="M420 1300q84 0 137.5 35.5t53.5 91.5q0 44 -33.5 76.5t-92.5 44.5q9 35 45 83.5t67 67.5l-108 48q-119 -75 -184 -156t-65 -155q0 -63 48.5 -99.5t131.5 -36.5z" />
    <glyph glyph-name="uni0326" unicode="&#x326;" horiz-adv-x="0" 
d="M340 -547q91 75 140.5 156t49.5 155q0 67 -36.5 101.5t-92.5 34.5q-58 0 -94.5 -35.5t-36.5 -91.5q0 -46 26 -77.5t70 -43.5q-7 -34 -34 -82.5t-51 -68.5z" />
    <glyph glyph-name="uni0327" unicode="&#x327;" horiz-adv-x="0" 
d="M314 -551q124 0 203.5 68.5t79.5 174.5q0 105 -88 160q-68 42 -149 42l37 113h-164l-75 -228l23 -19q8 5 30.5 8t47.5 3q53 0 85.5 -18.5t32.5 -50.5q0 -26 -20 -42.5t-53 -16.5q-79 0 -150 83l-154 -117q141 -160 314 -160z" />
    <glyph glyph-name="uni0328" unicode="&#x328;" horiz-adv-x="0" 
d="M252 -550q80 0 154 38.5t120 105.5l-166 124q-26 -48 -73 -48q-51 0 -51 70q0 54 32 128.5t84 138.5h-185q-167 -192 -167 -332q0 -93 72 -159t180 -66z" />
    <glyph glyph-name="uni0394" unicode="&#x394;" horiz-adv-x="1466" 
d="M229 0h1008l33 22l-498 1273h-78l-498 -1273zM594 277l139 425l139 -425h-278z" />
    <glyph glyph-name="uni03A9" unicode="&#x3a9;" horiz-adv-x="1368" 
d="M59 0h580v160l-9 13q-52 74 -85 178.5t-33 200.5q0 115 48 181.5t124 66.5t124 -67t48 -183q0 -91 -31 -194t-87 -183l-9 -13v-160h580v288l-243 -47q92 77 140 175t48 225q0 161 -73 276t-202 176t-296 61q-163 0 -291.5 -59t-203 -173t-74.5 -279q0 -242 188 -402
l-243 47v-288z" />
    <glyph glyph-name="uni03BC" unicode="&#x3bc;" horiz-adv-x="1616" 
d="M185 -320h480v290q10 -1 22 -1.5t24 -0.5q84 0 162 38t130 90v-96h416v1024h-416v-556q0 -69 -53.5 -123.5t-130.5 -54.5q-70 0 -111 47.5t-41 114.5v572h-416v-612q0 -173 -16.5 -300t-33 -229.5t-16.5 -202.5z" />
    <glyph glyph-name="pi" unicode="&#x3c0;" horiz-adv-x="1397" 
d="M316 0h314v737h158v-394q0 -187 99.5 -265t337.5 -78v314q-71 0 -97 22t-26 81v320h159v287h-1104v-287h159v-737z" />
    <glyph glyph-name="Wgrave" unicode="&#x1e80;" horiz-adv-x="2300" 
d="M456 0h488l206 804l206 -804h488l466 1650h-490l-244 -1040l-262 1040h-328l-262 -1040l-244 1040h-490zM1260 1701l167 140l-335 483l-268 -205z" />
    <glyph glyph-name="wgrave" unicode="&#x1e81;" horiz-adv-x="1984" 
d="M500 0h280l212 452l212 -452h280l566 1024h-476l-216 -480l-224 480h-284l-224 -480l-216 480h-476zM1102 1075l167 140l-335 483l-268 -205z" />
    <glyph glyph-name="Wacute" unicode="&#x1e82;" horiz-adv-x="2300" 
d="M456 0h488l206 804l206 -804h488l466 1650h-490l-244 -1040l-262 1040h-328l-262 -1040l-244 1040h-490zM1075 1701l436 418l-268 205l-335 -483z" />
    <glyph glyph-name="wacute" unicode="&#x1e83;" horiz-adv-x="1984" 
d="M500 0h280l212 452l212 -452h280l566 1024h-476l-216 -480l-224 480h-284l-224 -480l-216 480h-476zM917 1075l436 418l-268 205l-335 -483z" />
    <glyph glyph-name="Wdieresis" unicode="&#x1e84;" horiz-adv-x="2300" 
d="M456 0h488l206 804l206 -804h488l466 1650h-490l-244 -1040l-262 1040h-328l-262 -1040l-244 1040h-490zM1386 1812q89 0 150.5 62t61.5 150q0 89 -61.5 150.5t-150.5 61.5q-88 0 -150 -61.5t-62 -150.5q0 -88 62 -150t150 -62zM914 1812q89 0 150.5 62t61.5 150
q0 89 -61.5 150.5t-150.5 61.5q-88 0 -150 -61.5t-62 -150.5q0 -88 62 -150t150 -62z" />
    <glyph glyph-name="wdieresis" unicode="&#x1e85;" horiz-adv-x="1984" 
d="M500 0h280l212 452l212 -452h280l566 1024h-476l-216 -480l-224 480h-284l-224 -480l-216 480h-476zM1228 1186q89 0 150.5 62t61.5 150q0 89 -61.5 150.5t-150.5 61.5q-88 0 -150 -61.5t-62 -150.5q0 -88 62 -150t150 -62zM756 1186q89 0 150.5 62t61.5 150
q0 89 -61.5 150.5t-150.5 61.5q-88 0 -150 -61.5t-62 -150.5q0 -88 62 -150t150 -62z" />
    <glyph glyph-name="uni1E9E" unicode="&#x1e9e;" horiz-adv-x="1759" 
d="M1164 -23q147 0 265 65t187.5 176t69.5 248q0 96 -32 153.5t-79 89.5t-93.5 50t-78.5 34.5t-32 44.5q0 23 21 49.5t49 64.5t49 95.5t21 143.5q0 152 -77 261.5t-216.5 169t-327.5 59.5q-340 0 -517 -201t-177 -592v-887h442v934q0 322 224 322q86 0 130.5 -46t44.5 -129
q0 -63 -21 -102t-49 -68.5t-49 -62t-21 -83.5q0 -65 37 -101t91 -55.5t108 -34.5t91 -37t37 -64q0 -73 -127 -73q-62 0 -134 19.5t-174 63.5l-80 -425q107 -37 220 -59.5t198 -22.5z" />
    <glyph glyph-name="Ygrave" unicode="&#x1ef2;" horiz-adv-x="1540" 
d="M550 0h440v748l620 902h-530l-310 -458l-310 458h-530l620 -902v-748zM880 1701l167 140l-335 483l-268 -205z" />
    <glyph glyph-name="ygrave" unicode="&#x1ef3;" horiz-adv-x="1281" 
d="M31 -520h478l836 1544h-478l-208 -432l-252 432h-478l486 -826zM751 1075l167 140l-335 483l-268 -205z" />
    <glyph glyph-name="endash" unicode="&#x2013;" horiz-adv-x="1454" 
d="M157 400h1140v358h-1140v-358z" />
    <glyph glyph-name="emdash" unicode="&#x2014;" horiz-adv-x="2606" 
d="M157 400h2292v358h-2292v-358z" />
    <glyph glyph-name="quoteleft" unicode="&#x2018;" horiz-adv-x="681" 
d="M323 853q108 0 175.5 65.5t67.5 168.5q0 84 -47 143.5t-130 81.5q9 43 35 99t59.5 106t62.5 74l-108 89q-169 -139 -260.5 -289t-91.5 -287q0 -115 64 -183t173 -68z" />
    <glyph glyph-name="quoteright" unicode="&#x2019;" horiz-adv-x="680" 
d="M237 854q169 139 260.5 289t91.5 287q0 116 -64 183.5t-173 67.5q-108 0 -175.5 -65t-67.5 -169q0 -84 47 -143t130 -82q-8 -42 -34.5 -98.5t-60 -106.5t-62.5 -74z" />
    <glyph glyph-name="quotesinglbase" unicode="&#x201a;" horiz-adv-x="777" 
d="M236 -348q169 139 260.5 289t91.5 287q0 116 -64 183.5t-173 67.5q-108 0 -175.5 -65t-67.5 -169q0 -84 47 -143t130 -82q-8 -42 -34.5 -98.5t-60 -106.5t-62.5 -74z" />
    <glyph glyph-name="quotedblleft" unicode="&#x201c;" horiz-adv-x="1257" 
d="M900 853q108 0 175.5 65.5t67.5 168.5q0 84 -47 143.5t-130 81.5q9 43 35 99t59.5 106t62.5 74l-108 89q-169 -139 -260.5 -289t-91.5 -287q0 -115 64 -183t173 -68zM319 853q108 0 175.5 65.5t67.5 168.5q0 84 -47 143.5t-130 81.5q9 43 35 99t59.5 106t62.5 74l-108 89
q-169 -139 -260.5 -289t-91.5 -287q0 -115 64 -183t173 -68z" />
    <glyph glyph-name="quotedblright" unicode="&#x201d;" horiz-adv-x="1252" 
d="M820 853q169 139 260.5 289t91.5 287q0 116 -64 183.5t-173 67.5q-108 0 -175.5 -65t-67.5 -169q0 -84 47 -143t130 -82q-8 -42 -34.5 -98.5t-60 -106.5t-62.5 -74zM239 853q169 139 260.5 289t91.5 287q0 116 -64 183.5t-173 67.5q-108 0 -175.5 -65t-67.5 -169
q0 -84 47 -143t130 -82q-8 -42 -34.5 -98.5t-60 -106.5t-62.5 -74z" />
    <glyph glyph-name="quotedblbase" unicode="&#x201e;" horiz-adv-x="1262" 
d="M241 -348q169 139 260.5 289t91.5 287q0 116 -64 183.5t-173 67.5q-108 0 -175.5 -65t-67.5 -169q0 -84 47 -143t130 -82q-8 -42 -34.5 -98.5t-60 -106.5t-62.5 -74zM822 -348q169 139 260.5 289t91.5 287q0 116 -64 183.5t-173 67.5q-108 0 -175.5 -65t-67.5 -169
q0 -84 47 -143t130 -82q-8 -42 -34.5 -98.5t-60 -106.5t-62.5 -74z" />
    <glyph glyph-name="dagger" unicode="&#x2020;" horiz-adv-x="964" 
d="M304 0h356v1006h224v316h-224v398h-356v-398h-224v-316h224v-1006z" />
    <glyph glyph-name="daggerdbl" unicode="&#x2021;" horiz-adv-x="1088" 
d="M366 0h356v438h224v316h-224v204h224v316h-224v446h-356v-446h-224v-316h224v-204h-224v-316h224v-438z" />
    <glyph glyph-name="bullet" unicode="&#x2022;" horiz-adv-x="1148" 
d="M572 256q128 0 232 61t165 165t61 232t-61 232t-165 165t-232 61t-232 -61t-165 -165t-61 -232t61 -232t165 -165t232 -61z" />
    <glyph glyph-name="ellipsis" unicode="&#x2026;" horiz-adv-x="2443" 
d="M424 -32q74 0 134.5 35.5t96 96t35.5 134.5t-35.5 134.5t-96 96t-134.5 35.5t-134.5 -35.5t-96 -96t-35.5 -134.5t35.5 -134.5t96 -96t134.5 -35.5zM1220 -32q74 0 134.5 35.5t96 96t35.5 134.5t-35.5 134.5t-96 96t-134.5 35.5t-134.5 -35.5t-96 -96t-35.5 -134.5
t35.5 -134.5t96 -96t134.5 -35.5zM2016 -32q74 0 134.5 35.5t96 96t35.5 134.5t-35.5 134.5t-96 96t-134.5 35.5t-134.5 -35.5t-96 -96t-35.5 -134.5t35.5 -134.5t96 -96t134.5 -35.5z" />
    <glyph glyph-name="perthousand" unicode="&#x2030;" horiz-adv-x="2931" 
d="M489 892q129 0 232.5 50t163.5 139t60 205t-60 205t-163.5 139t-232.5 50t-232 -50t-163.5 -139t-60.5 -205t60.5 -205t163.5 -139t232 -50zM363 0h274l960 1650h-274zM489 1136q-61 0 -107.5 42t-46.5 108t46.5 108t107.5 42q62 0 108 -42t46 -108t-46 -108t-108 -42z
M1463 -30q129 0 232.5 50t163.5 139t60 205t-60 205t-163.5 139t-232.5 50t-232 -50t-163.5 -139t-60.5 -205t60.5 -205t163.5 -139t232 -50zM2441 -30q129 0 232.5 50t163.5 139t60 205t-60 205t-163.5 139t-232.5 50t-232.5 -50t-163.5 -139t-60 -205t60 -205t163.5 -139
t232.5 -50zM1463 214q-61 0 -107.5 42t-46.5 108t46.5 108t107.5 42q62 0 108 -42t46 -108t-46 -108t-108 -42zM2441 214q-61 0 -107.5 42t-46.5 108t46.5 108t107.5 42q62 0 108 -42t46 -108t-46 -108t-108 -42z" />
    <glyph glyph-name="guilsinglleft" unicode="&#x2039;" horiz-adv-x="724" 
d="M435 58l214 168l-260 332l260 332l-214 168l-390 -500z" />
    <glyph glyph-name="guilsinglright" unicode="&#x203a;" horiz-adv-x="720" 
d="M285 58l390 500l-390 500l-214 -168l260 -332l-260 -332z" />
    <glyph glyph-name="fraction" unicode="&#x2044;" horiz-adv-x="234" 
d="M-500 0h274l960 1650h-274z" />
    <glyph glyph-name="uni2074" unicode="&#x2074;" horiz-adv-x="648" 
d="M362 1040h182v105h79v170h-79v335h-193l-326 -453v-52h337v-105zM292 1315l70 108v-108h-70z" />
    <glyph glyph-name="Euro" unicode="&#x20ac;" horiz-adv-x="1778" 
d="M1147 -32q159 0 306 39.5t238 106.5l-184 376q-55 -41 -134 -65.5t-156 -24.5q-236 0 -390 128h522v250h-624q-4 17 -4 46q0 28 4 44h624v250h-522q155 130 390 130q79 0 157 -24t133 -66l184 376q-91 68 -237.5 107t-306.5 39q-182 0 -350 -71.5t-298 -198t-198 -292.5
h-198v-250h142q-1 -11 -2.5 -22.5t-1.5 -21.5q0 -24 4 -46h-142v-250h198q70 -164 201.5 -290.5t299 -198t345.5 -71.5z" />
    <glyph glyph-name="trademark" unicode="&#x2122;" horiz-adv-x="1342" 
d="M547 1134h138l16 270l96 -270h82l96 270l16 -270h136l-40 516h-146l-104 -268l-102 268h-146zM273 1134h138v396h112v120h-364v-120h114v-396z" />
    <glyph glyph-name="uni2150" unicode="&#x2150;" horiz-adv-x="2510" 
d="M337 600h336v1050h-535v-328h199v-722zM424 0h274l960 1650h-274zM1371 0h395l571 956v94h-919v-293h423z" />
    <glyph glyph-name="uni2151" unicode="&#x2151;" horiz-adv-x="2531" 
d="M337 600h336v1050h-535v-328h199v-722zM424 0h274l960 1650h-274zM1460 0h404l224 222q47 46 103 112.5t94 155.5t29 203q-14 182 -149.5 285t-344.5 103q-150 0 -251.5 -50.5t-153.5 -134.5t-52 -184q0 -110 55 -192.5t141 -128.5t177 -46h34.5t26.5 -1zM1835 630
q-58 0 -97 25.5t-39 63.5t38.5 62.5t96.5 24.5q56 0 93.5 -24.5t37.5 -63.5q0 -37 -35.5 -62.5t-94.5 -25.5z" />
    <glyph glyph-name="uni2152" unicode="&#x2152;" horiz-adv-x="3750" 
d="M337 600h336v1050h-535v-328h199v-722zM424 0h274l960 1650h-274zM1757 0h336v1050h-535v-328h199v-722zM2922 -21q157 0 275.5 70t185.5 194t67 287t-66.5 286.5t-185.5 193.5t-276 70t-276 -70t-186 -193.5t-67 -286.5t67 -287t186 -194t276 -70zM2922 272
q-84 0 -130.5 66t-46.5 192q0 125 46.5 191t130.5 66q83 0 129.5 -65.5t46.5 -191.5t-46.5 -192t-129.5 -66z" />
    <glyph glyph-name="onethird" unicode="&#x2153;" horiz-adv-x="2513" 
d="M337 600h336v1050h-535v-328h199v-722zM424 0h274l960 1650h-274zM1804 -21q127 0 228 49.5t159.5 135t58.5 194.5q0 64 -25 120t-88 108q32 42 44.5 81.5t12.5 82.5q0 98 -50.5 172.5t-139.5 116t-205 41.5q-136 0 -242.5 -57.5t-152.5 -159.5l260 -133q16 41 52 62.5
t79 21.5t70 -19.5t27 -47.5t-24.5 -53t-55.5 -25h-65v-213q24 10 55 10q50 0 83 -29.5t33 -76.5q0 -45 -31 -70.5t-83 -25.5q-61 0 -96 35.5t-45 90.5l-308 -158q57 -117 178 -185t271 -68z" />
    <glyph glyph-name="twothirds" unicode="&#x2154;" horiz-adv-x="3037" 
d="M215 600h959v292h-369q167 68 257 182t90 243q0 102 -56 184.5t-159.5 131t-248.5 48.5q-166 0 -285.5 -72.5t-185.5 -222.5l276 -142q50 86 89.5 115t87.5 29q55 0 88.5 -25.5t33.5 -63.5q0 -76 -144.5 -211.5t-432.5 -311.5v-176zM948 0h274l960 1650h-274zM2328 -21
q127 0 228 49.5t159.5 135t58.5 194.5q0 64 -25 120t-88 108q32 42 44.5 81.5t12.5 82.5q0 98 -50.5 172.5t-139.5 116t-205 41.5q-136 0 -242.5 -57.5t-152.5 -159.5l260 -133q16 41 52 62.5t79 21.5t70 -19.5t27 -47.5t-24.5 -53t-55.5 -25h-65v-213q24 10 55 10
q50 0 83 -29.5t33 -76.5q0 -45 -31 -70.5t-83 -25.5q-61 0 -96 35.5t-45 90.5l-308 -158q57 -117 178 -185t271 -68z" />
    <glyph glyph-name="uni2155" unicode="&#x2155;" horiz-adv-x="2473" 
d="M337 600h336v1050h-535v-328h199v-722zM424 0h274l960 1650h-274zM1776 -19q140 0 244 51t162 134.5t58 182.5q0 71 -32.5 138t-97.5 119q-111 89 -299 112l7 59h344v273h-621l-107 -602q101 5 173 8t100 3q197 -5 197 -114q0 -84 -134 -84q-133 0 -160 75l-264 -127
q43 -103 161 -165.5t269 -62.5z" />
    <glyph glyph-name="uni2156" unicode="&#x2156;" horiz-adv-x="2997" 
d="M215 600h959v292h-369q167 68 257 182t90 243q0 102 -56 184.5t-159.5 131t-248.5 48.5q-166 0 -285.5 -72.5t-185.5 -222.5l276 -142q50 86 89.5 115t87.5 29q55 0 88.5 -25.5t33.5 -63.5q0 -76 -144.5 -211.5t-432.5 -311.5v-176zM948 0h274l960 1650h-274zM2300 -19
q140 0 244 51t162 134.5t58 182.5q0 71 -32.5 138t-97.5 119q-111 89 -299 112l7 59h344v273h-621l-107 -602q101 5 173 8t100 3q197 -5 197 -114q0 -84 -134 -84q-133 0 -160 75l-264 -127q43 -103 161 -165.5t269 -62.5z" />
    <glyph glyph-name="uni2157" unicode="&#x2157;" horiz-adv-x="2904" 
d="M646 579q127 0 228 49.5t159.5 135t58.5 194.5q0 64 -25 120t-88 108q32 42 44.5 81.5t12.5 82.5q0 98 -50.5 172.5t-139.5 116t-205 41.5q-136 0 -242.5 -57.5t-152.5 -159.5l260 -133q16 41 52 62.5t79 21.5t70 -19.5t27 -47.5t-24.5 -53t-55.5 -25h-65v-213
q24 10 55 10q50 0 83 -29.5t33 -76.5q0 -45 -31 -70.5t-83 -25.5q-61 0 -96 35.5t-45 90.5l-308 -158q57 -117 178 -185t271 -68zM855 0h274l960 1650h-274zM2207 -19q140 0 244 51t162 134.5t58 182.5q0 71 -32.5 138t-97.5 119q-111 89 -299 112l7 59h344v273h-621
l-107 -602q101 5 173 8t100 3q197 -5 197 -114q0 -84 -134 -84q-133 0 -160 75l-264 -127q43 -103 161 -165.5t269 -62.5z" />
    <glyph glyph-name="uni2158" unicode="&#x2158;" horiz-adv-x="3012" 
d="M765 600h313v181h136v293h-136v576h-331l-561 -780v-89h579v-181zM646 1074l119 186v-186h-119zM963 0h274l960 1650h-274zM2315 -19q140 0 244 51t162 134.5t58 182.5q0 71 -32.5 138t-97.5 119q-111 89 -299 112l7 59h344v273h-621l-107 -602q101 5 173 8t100 3
q197 -5 197 -114q0 -84 -134 -84q-133 0 -160 75l-264 -127q43 -103 161 -165.5t269 -62.5z" />
    <glyph glyph-name="uni2159" unicode="&#x2159;" horiz-adv-x="2531" 
d="M337 600h336v1050h-535v-328h199v-722zM424 0h274l960 1650h-274zM1868 -20q207 0 331 101t124 270q0 104 -47 184.5t-130 126.5t-193 46h-65l337 342h-404l-173 -168q-152 -148 -214 -280.5t-62 -233.5q0 -114 63.5 -201.5t175.5 -137t257 -49.5zM1852 256
q-57 0 -94.5 22.5t-37.5 60.5t37.5 61t93.5 23q61 0 98.5 -25t37.5 -60t-38.5 -58.5t-96.5 -23.5z" />
    <glyph glyph-name="uni215A" unicode="&#x215a;" horiz-adv-x="2922" 
d="M618 581q140 0 244.5 51t162 134.5t57.5 182.5q0 150 -126 254q-56 47 -133.5 75.5t-169.5 39.5l5 59h346v273h-621l-110 -603q60 7 103 9.5t83 2.5q287 0 287 -114q0 -39 -36 -61.5t-98 -22.5q-61 0 -105 20.5t-55 54.5l-264 -127q43 -103 160.5 -165.5t269.5 -62.5z
M815 0h274l960 1650h-274zM2259 -20q207 0 331 101t124 270q0 104 -47 184.5t-130 126.5t-193 46h-65l337 342h-404l-173 -168q-152 -148 -214 -280.5t-62 -233.5q0 -114 63.5 -201.5t175.5 -137t257 -49.5zM2243 256q-57 0 -94.5 22.5t-37.5 60.5t37.5 61t93.5 23
q61 0 98.5 -25t37.5 -60t-38.5 -58.5t-96.5 -23.5z" />
    <glyph glyph-name="oneeighth" unicode="&#x215b;" horiz-adv-x="2595" 
d="M337 600h336v1050h-535v-328h199v-722zM424 0h274l960 1650h-274zM1876 -21q128 0 230 42.5t161 116.5t59 166q0 86 -50 160t-136 114q64 38 100 97.5t36 124.5q0 83 -55 146t-146 98.5t-199 35.5q-112 0 -202.5 -37.5t-143.5 -101t-53 -142.5q0 -65 36.5 -124t99.5 -97
q-85 -39 -135.5 -114t-50.5 -161q0 -92 59 -165.5t160.5 -116t229.5 -42.5zM1877 697q-33 0 -55.5 19t-22.5 47t22.5 46.5t55.5 18.5q32 0 54.5 -18.5t22.5 -46.5t-22 -47t-55 -19zM1877 268q-37 0 -60 21t-23 55q0 35 23 56.5t60 21.5q36 0 59 -21.5t23 -56.5
q0 -34 -22.5 -55t-59.5 -21z" />
    <glyph glyph-name="threeeighths" unicode="&#x215c;" horiz-adv-x="3026" 
d="M646 579q127 0 228 49.5t159.5 135t58.5 194.5q0 64 -25 120t-88 108q32 42 44.5 81.5t12.5 82.5q0 98 -50.5 172.5t-139.5 116t-205 41.5q-136 0 -242.5 -57.5t-152.5 -159.5l260 -133q16 41 52 62.5t79 21.5t70 -19.5t27 -47.5t-24.5 -53t-55.5 -25h-65v-213
q24 10 55 10q50 0 83 -29.5t33 -76.5q0 -45 -31 -70.5t-83 -25.5q-61 0 -96 35.5t-45 90.5l-308 -158q57 -117 178 -185t271 -68zM855 0h274l960 1650h-274zM2307 -21q128 0 230 42.5t161 116.5t59 166q0 86 -50 160t-136 114q64 38 100 97.5t36 124.5q0 83 -55 146
t-146 98.5t-199 35.5q-112 0 -202.5 -37.5t-143.5 -101t-53 -142.5q0 -65 36.5 -124t99.5 -97q-85 -39 -135.5 -114t-50.5 -161q0 -92 59 -165.5t160.5 -116t229.5 -42.5zM2308 697q-33 0 -55.5 19t-22.5 47t22.5 46.5t55.5 18.5q32 0 54.5 -18.5t22.5 -46.5t-22 -47
t-55 -19zM2308 268q-37 0 -60 21t-23 55q0 35 23 56.5t60 21.5q36 0 59 -21.5t23 -56.5q0 -34 -22.5 -55t-59.5 -21z" />
    <glyph glyph-name="fiveeighths" unicode="&#x215d;" horiz-adv-x="2986" 
d="M618 581q140 0 244.5 51t162 134.5t57.5 182.5q0 150 -126 254q-56 47 -133.5 75.5t-169.5 39.5l5 59h346v273h-621l-110 -603q60 7 103 9.5t83 2.5q287 0 287 -114q0 -39 -36 -61.5t-98 -22.5q-61 0 -105 20.5t-55 54.5l-264 -127q43 -103 160.5 -165.5t269.5 -62.5z
M815 0h274l960 1650h-274zM2267 -21q128 0 230 42.5t161 116.5t59 166q0 86 -50 160t-136 114q64 38 100 97.5t36 124.5q0 83 -55 146t-146 98.5t-199 35.5q-112 0 -202.5 -37.5t-143.5 -101t-53 -142.5q0 -65 36.5 -124t99.5 -97q-85 -39 -135.5 -114t-50.5 -161
q0 -92 59 -165.5t160.5 -116t229.5 -42.5zM2268 697q-33 0 -55.5 19t-22.5 47t22.5 46.5t55.5 18.5q32 0 54.5 -18.5t22.5 -46.5t-22 -47t-55 -19zM2268 268q-37 0 -60 21t-23 55q0 35 23 56.5t60 21.5q36 0 59 -21.5t23 -56.5q0 -34 -22.5 -55t-59.5 -21z" />
    <glyph glyph-name="seveneighths" unicode="&#x215e;" horiz-adv-x="3023" 
d="M213 600h395l571 956v94h-919v-293h423zM852 0h274l960 1650h-274zM2304 -21q128 0 230 42.5t161 116.5t59 166q0 86 -50 160t-136 114q64 38 100 97.5t36 124.5q0 83 -55 146t-146 98.5t-199 35.5q-112 0 -202.5 -37.5t-143.5 -101t-53 -142.5q0 -65 36.5 -124t99.5 -97
q-85 -39 -135.5 -114t-50.5 -161q0 -92 59 -165.5t160.5 -116t229.5 -42.5zM2305 697q-33 0 -55.5 19t-22.5 47t22.5 46.5t55.5 18.5q32 0 54.5 -18.5t22.5 -46.5t-22 -47t-55 -19zM2305 268q-37 0 -60 21t-23 55q0 35 23 56.5t60 21.5q36 0 59 -21.5t23 -56.5
q0 -34 -22.5 -55t-59.5 -21z" />
    <glyph glyph-name="uni215F" unicode="&#x215f;" horiz-adv-x="1158" 
d="M337 600h336v1050h-535v-328h199v-722zM424 0h274l960 1650h-274z" />
    <glyph glyph-name="uni2189" unicode="&#x2189;" horiz-adv-x="3095" 
d="M753 579q157 0 275.5 70t185.5 194t67 287t-66.5 286.5t-185.5 193.5t-276 70t-276 -70t-186 -193.5t-67 -286.5t67 -287t186 -194t276 -70zM753 872q-84 0 -130.5 66t-46.5 192q0 125 46.5 191t130.5 66q83 0 129.5 -65.5t46.5 -191.5t-46.5 -192t-129.5 -66zM1006 0
h274l960 1650h-274zM2386 -21q127 0 228 49.5t159.5 135t58.5 194.5q0 64 -25 120t-88 108q32 42 44.5 81.5t12.5 82.5q0 98 -50.5 172.5t-139.5 116t-205 41.5q-136 0 -242.5 -57.5t-152.5 -159.5l260 -133q16 41 52 62.5t79 21.5t70 -19.5t27 -47.5t-24.5 -53t-55.5 -25
h-65v-213q24 10 55 10q50 0 83 -29.5t33 -76.5q0 -45 -31 -70.5t-83 -25.5q-61 0 -96 35.5t-45 90.5l-308 -158q57 -117 178 -185t271 -68z" />
    <glyph glyph-name="partialdiff" unicode="&#x2202;" horiz-adv-x="1347" 
d="M703 -38q169 0 307.5 72.5t221 222t82.5 380.5q0 265 -110 491.5t-302 409t-439 315.5l-180 -302q110 -62 213.5 -141t187 -169t131.5 -187q-26 12 -82 22.5t-118 10.5q-117 0 -221 -42t-183.5 -117t-125 -174t-45.5 -214q0 -121 51 -226.5t142 -184t211 -123t259 -44.5z
M668 325q-75 0 -132 51t-57 134q0 77 52.5 137.5t136.5 60.5q76 0 131.5 -52.5t55.5 -135.5q0 -77 -51.5 -136t-135.5 -59z" />
    <glyph glyph-name="emptyset" unicode="&#x2205;" horiz-adv-x="1200" 
d="M215 54l142 142q56 -36 123 -56t141 -20q134 0 241.5 62.5t171 171t63.5 246.5q0 75 -19 141.5t-55 122.5l142 142l-138 140l-142 -142q-117 76 -263 76q-136 0 -244 -64t-170.5 -172.5t-62.5 -244.5q0 -73 19 -139.5t54 -122.5l-143 -143zM406 600q0 99 59.5 154
t155.5 55q33 0 62 -7l-269 -269q-8 31 -8 67zM621 391q-33 0 -63 7l269 270q9 -32 9 -68q0 -99 -59.5 -154t-155.5 -55z" />
    <glyph glyph-name="product" unicode="&#x220f;" horiz-adv-x="1496" 
d="M355 0h314v1433h158v-1433h314v1433h159v287h-1104v-287h159v-1433z" />
    <glyph glyph-name="summation" unicode="&#x2211;" horiz-adv-x="1496" 
d="M196 0h1104v287h-666l256 573l-256 573h666v287h-1104l380 -860z" />
    <glyph glyph-name="minus" unicode="&#x2212;" horiz-adv-x="1498" 
d="M235 650h1028v360h-1028v-360z" />
    <glyph glyph-name="DivisionSlash" unicode="&#x2215;" horiz-adv-x="996" 
d="M-93 -240h358l824 1960h-358z" />
    <glyph glyph-name="radical" unicode="&#x221a;" horiz-adv-x="1882" 
d="M489 -32h384l379 1465h434v287h-683l-337 -1431l-156 320h-314z" />
    <glyph glyph-name="infinity" unicode="&#x221e;" horiz-adv-x="2085" 
d="M566 29q135 0 250.5 72.5t226.5 190.5q110 -118 225.5 -190.5t250.5 -72.5q96 0 187 38t163 107t114.5 163.5t42.5 207.5t-42.5 207.5t-115 163.5t-163 106.5t-186.5 37.5q-135 0 -250.5 -72.5t-225.5 -189.5q-111 117 -226.5 189.5t-250.5 72.5q-96 0 -186.5 -37.5
t-163 -106.5t-115 -163.5t-42.5 -207.5t42.5 -207.5t114.5 -163.5t163 -107t187 -38zM623 390q-57 0 -104 43t-47 112q0 68 47.5 111t103.5 43q59 0 106.5 -45t101.5 -109q-55 -64 -102 -109.5t-106 -45.5zM1462 390q-58 0 -105.5 45.5t-102.5 109.5q54 64 102 109t106 45
q56 0 103.5 -43t47.5 -111q0 -69 -47 -112t-104 -43z" />
    <glyph glyph-name="integral" unicode="&#x222b;" horiz-adv-x="1062" 
d="M177 -551q134 0 238.5 67.5t169 190.5t79.5 290l104 1191q9 113 34 153.5t81 40.5q55 0 98 -24l170 290q-56 47 -140 74.5t-170 27.5q-134 0 -238.5 -67.5t-169 -190.5t-79.5 -290l-104 -1191q-9 -113 -34 -153.5t-81 -40.5q-55 0 -98 24l-170 -290q56 -47 140 -74.5
t170 -27.5z" />
    <glyph glyph-name="approxequal" unicode="&#x2248;" horiz-adv-x="1593" 
d="M1004 877q55 0 124 37t132 99.5t98 140.5l-203 179q-13 -53 -53 -100t-80 -47q-29 0 -78.5 25t-111 57t-126 57t-124.5 25q-103 0 -197 -79.5t-150 -197.5l204 -179q15 53 50 100t99 47q47 0 100 -25t107.5 -57t107.5 -57t101 -25zM1004 319q55 0 124 37t132 99.5
t98 140.5l-203 179q-13 -53 -53 -100t-80 -47q-29 0 -78.5 25t-111 57t-126 57t-124.5 25q-103 0 -197 -79.5t-150 -197.5l204 -179q15 53 50 100t99 47q47 0 100 -25t107.5 -57t107.5 -57t101 -25z" />
    <glyph glyph-name="notequal" unicode="&#x2260;" horiz-adv-x="1424" 
d="M122 106h274l168 292h670v360h-460l84 146h376v360h-166l162 280h-274l-162 -280h-588v-360h378l-84 -146h-294v-360h84z" />
    <glyph glyph-name="lessequal" unicode="&#x2264;" horiz-adv-x="1428" 
d="M1225 550v330l-652 228l652 234v332l-1096 -424v-276zM129 0h1096v360h-1096v-360z" />
    <glyph glyph-name="greaterequal" unicode="&#x2265;" horiz-adv-x="1428" 
d="M203 550l1096 424v276l-1096 424v-332l652 -234l-652 -228v-330zM203 0h1096v360h-1096v-360z" />
    <glyph glyph-name="lozenge" unicode="&#x25ca;" horiz-adv-x="1200" 
d="M485 -80h230l420 875l-420 875h-230l-420 -875zM600 389l-194 406l194 406l194 -406z" />
    <glyph glyph-name="ogonekcomb" horiz-adv-x="684" 
 />
    <glyph glyph-name="M.alt" horiz-adv-x="2136" 
d="M196 0h440v730l304 -730h256l304 730v-730h440v1650h-504l-368 -856l-368 856h-504v-1650z" />
    <glyph glyph-name="i.aalt" horiz-adv-x="730" 
d="M157 0h416v1024h-416v-1024zM366 1243q66 0 120.5 32.5t87 87.5t32.5 121t-32.5 120.5t-87 87t-120.5 32.5t-121 -32.5t-87.5 -87t-32.5 -120.5t32.5 -121t87.5 -87.5t121 -32.5z" />
    <glyph glyph-name="a.alt" horiz-adv-x="1268" 
d="M445 -32q140 0 283 58v-26h422v578q0 141 -78 248.5t-216.5 168.5t-320.5 61q-113 0 -222 -23.5t-181 -64.5l126 -284q30 12 76 22t94.5 16t83.5 6q92 0 154 -40.5t62 -93.5v-60q-62 29 -141 45.5t-153 16.5q-171 0 -270.5 -89.5t-99.5 -229.5q0 -142 103 -225.5
t278 -83.5zM608 214q-56 0 -94 25.5t-38 62.5q0 35 35.5 56.5t91.5 21.5q59 0 99 -24.5t40 -59.5q0 -34 -39.5 -58t-94.5 -24z" />
    <glyph glyph-name="j.alt" horiz-adv-x="730" 
d="M365 1243q66 0 120.5 32.5t87 87.5t32.5 121t-32.5 120.5t-87 87t-120.5 32.5t-121 -32.5t-87.5 -87t-32.5 -120.5t32.5 -121t87.5 -87.5t121 -32.5zM157 -520h416v1544h-416v-1544z" />
    <glyph glyph-name="t.alt" horiz-adv-x="875" 
d="M215 0h416v708h212v316h-212v384h-416v-384h-152v-316h152v-708z" />
    <glyph glyph-name="u.alt" horiz-adv-x="1461" 
d="M596 -32q84 0 162 38t130 90v-96h416v1024h-416v-556q0 -69 -53.5 -123.5t-130.5 -54.5q-70 0 -111 47.5t-41 114.5v572h-416v-684q0 -110 47.5 -182.5t120.5 -114t151.5 -58.5t140.5 -17z" />
    <glyph glyph-name="f_f_j" horiz-adv-x="2165" 
d="M1690 -550q116 0 193 39t122 101t64 134t19 138v1162h-752v164q0 102 31 150t121 48q71 0 145 -34.5t125 -71.5l138 296q-51 40 -131 80t-182.5 67t-222.5 27q-140 0 -238.5 -71t-150 -195t-51.5 -282v-178h-360v164q0 102 16 148t80 46q34 0 62.5 -10t43.5 -18l144 292
q-46 36 -130 70t-194 34q-140 0 -238 -71t-149 -195t-51 -282v-178h-160v-316h160v-708h416v708h360v-708h416v708h336v-764q0 -120 -80 -120q-21 0 -44.5 10t-37.5 18l-128 -334q37 -22 115.5 -45t192.5 -23z" />
    <glyph glyph-name="f_f_t" horiz-adv-x="2448" 
d="M2116 -32q86 0 162 22.5t124 47.5l-104 334q-15 -11 -36.5 -21.5t-43.5 -10.5q-68 0 -68 130v238h204v316h-204v384h-416v-384h-326v164q0 102 16 148t80 46q32 0 59 -8t43 -16l144 290q-45 35 -127.5 68.5t-192.5 33.5q-140 0 -238 -71t-149 -195t-51 -282v-178h-358
v164q0 102 16 148t80 46q34 0 62.5 -10t43.5 -18l144 292q-46 36 -130 70t-194 34q-140 0 -238 -71t-149 -195t-51 -282v-178h-160v-316h160v-708h416v708h358v-708h416v708h326v-320q0 -73 17 -147t59 -136t116.5 -99.5t189.5 -37.5z" />
    <glyph glyph-name="f_j" horiz-adv-x="1388" 
d="M913 -550q116 0 193 39t122 101t64 134t19 138v1162h-752v164q0 102 31 150t121 48q71 0 145 -34.5t125 -71.5l138 296q-51 40 -131 80t-182.5 67t-222.5 27q-140 0 -238.5 -71t-150 -195t-51.5 -282v-178h-160v-316h160v-708h416v708h336v-764q0 -120 -80 -120
q-21 0 -44.5 10t-37.5 18l-128 -334q37 -22 115.5 -45t192.5 -23z" />
    <glyph glyph-name="f_t" horiz-adv-x="1596" 
d="M1303 -32q86 0 162 22.5t124 47.5l-104 334q-16 -12 -37.5 -22t-42.5 -10q-68 0 -68 130v238h204v316h-204v384h-416v-384h-326v164q0 102 16 148t80 46q32 0 59 -8t43 -16l144 290q-45 35 -127.5 68.5t-192.5 33.5q-140 0 -238 -71t-149 -195t-51 -282v-178h-160v-316
h160v-708h416v708h326v-320q0 -73 17 -147t59 -136t116.5 -99.5t189.5 -37.5z" />
    <glyph glyph-name="zero.dnom" horiz-adv-x="1507" 
d="M679 -21q157 0 275.5 70t185.5 194t67 287t-66.5 286.5t-185.5 193.5t-276 70t-276 -70t-186 -193.5t-67 -286.5t67 -287t186 -194t276 -70zM679 272q-84 0 -130.5 66t-46.5 192q0 125 46.5 191t130.5 66q83 0 129.5 -65.5t46.5 -191.5t-46.5 -192t-129.5 -66z" />
    <glyph glyph-name="one.dnom" horiz-adv-x="1085" 
d="M599 0h336v1050h-535v-328h199v-722z" />
    <glyph glyph-name="two.dnom" horiz-adv-x="1448" 
d="M215 0h959v292h-369q167 68 257 182t90 243q0 102 -56 184.5t-159.5 131t-248.5 48.5q-166 0 -285.5 -72.5t-185.5 -222.5l276 -142q50 86 89.5 115t87.5 29q55 0 88.5 -25.5t33.5 -63.5q0 -76 -144.5 -211.5t-432.5 -311.5v-176z" />
    <glyph glyph-name="three.dnom" horiz-adv-x="1355" 
d="M646 -21q127 0 228 49.5t159.5 135t58.5 194.5q0 64 -25 120t-88 108q32 42 44.5 81.5t12.5 82.5q0 98 -50.5 172.5t-139.5 116t-205 41.5q-136 0 -242.5 -57.5t-152.5 -159.5l260 -133q16 41 52 62.5t79 21.5t70 -19.5t27 -47.5t-24.5 -53t-55.5 -25h-65v-213
q24 10 55 10q50 0 83 -29.5t33 -76.5q0 -45 -31 -70.5t-83 -25.5q-61 0 -96 35.5t-45 90.5l-308 -158q57 -117 178 -185t271 -68z" />
    <glyph glyph-name="four.dnom" horiz-adv-x="1377" 
d="M679 0h313v181h136v293h-136v576h-331l-561 -780v-89h579v-181zM560 474l119 186v-186h-119z" />
    <glyph glyph-name="five.dnom" horiz-adv-x="1315" 
d="M618 -19q140 0 244 51t162 134.5t58 182.5q0 71 -32.5 138t-97.5 119q-111 89 -299 112l7 59h344v273h-621l-107 -602q101 5 173 8t100 3q197 -5 197 -114q0 -84 -134 -84q-133 0 -160 75l-264 -127q43 -103 161 -165.5t269 -62.5z" />
    <glyph glyph-name="six.dnom" horiz-adv-x="1373" 
d="M710 -20q207 0 331 101t124 270q0 104 -47 184.5t-130 126.5t-193 46h-65l337 342h-404l-173 -168q-152 -148 -214 -280.5t-62 -233.5q0 -114 63.5 -201.5t175.5 -137t257 -49.5zM694 256q-57 0 -94.5 22.5t-37.5 60.5t37.5 61t93.5 23q61 0 98.5 -25t37.5 -60
t-38.5 -58.5t-96.5 -23.5z" />
    <glyph glyph-name="seven.dnom" horiz-adv-x="1352" 
d="M213 0h395l571 956v94h-919v-293h423z" />
    <glyph glyph-name="eight.dnom" horiz-adv-x="1437" 
d="M718 -21q128 0 230 42.5t161 116.5t59 166q0 86 -50 160t-136 114q64 38 100 97.5t36 124.5q0 83 -55 146t-146 98.5t-199 35.5q-112 0 -202.5 -37.5t-143.5 -101t-53 -142.5q0 -65 36.5 -124t99.5 -97q-85 -39 -135.5 -114t-50.5 -161q0 -92 59 -165.5t160.5 -116
t229.5 -42.5zM719 697q-33 0 -55.5 19t-22.5 47t22.5 46.5t55.5 18.5q32 0 54.5 -18.5t22.5 -46.5t-22 -47t-55 -19zM719 268q-37 0 -60 21t-23 55q0 35 23 56.5t60 21.5q36 0 59 -21.5t23 -56.5q0 -34 -22.5 -55t-59.5 -21z" />
    <glyph glyph-name="nine.dnom" horiz-adv-x="1373" 
d="M302 0h404l224 222q47 46 103 112.5t94 155.5t29 203q-14 182 -149.5 285t-344.5 103q-150 0 -251.5 -50.5t-153.5 -134.5t-52 -184q0 -110 55 -192.5t141 -128.5t177 -46h34.5t26.5 -1zM677 630q-58 0 -97 25.5t-39 63.5t38.5 62.5t96.5 24.5q56 0 93.5 -24.5
t37.5 -63.5q0 -37 -35.5 -62.5t-94.5 -25.5z" />
    <glyph glyph-name="zero.numr" horiz-adv-x="1506" 
d="M753 579q157 0 275.5 70t185.5 194t67 287t-66.5 286.5t-185.5 193.5t-276 70t-276 -70t-186 -193.5t-67 -286.5t67 -287t186 -194t276 -70zM753 872q-84 0 -130.5 66t-46.5 192q0 125 46.5 191t130.5 66q83 0 129.5 -65.5t46.5 -191.5t-46.5 -192t-129.5 -66z" />
    <glyph glyph-name="one.numr" horiz-adv-x="924" 
d="M337 600h336v1050h-535v-328h199v-722z" />
    <glyph glyph-name="two.numr" horiz-adv-x="1448" 
d="M215 600h959v292h-369q167 68 257 182t90 243q0 102 -56 184.5t-159.5 131t-248.5 48.5q-166 0 -285.5 -72.5t-185.5 -222.5l276 -142q50 86 89.5 115t87.5 29q55 0 88.5 -25.5t33.5 -63.5q0 -76 -144.5 -211.5t-432.5 -311.5v-176z" />
    <glyph glyph-name="three.numr" horiz-adv-x="1355" 
d="M646 579q127 0 228 49.5t159.5 135t58.5 194.5q0 64 -25 120t-88 108q32 42 44.5 81.5t12.5 82.5q0 98 -50.5 172.5t-139.5 116t-205 41.5q-136 0 -242.5 -57.5t-152.5 -159.5l260 -133q16 41 52 62.5t79 21.5t70 -19.5t27 -47.5t-24.5 -53t-55.5 -25h-65v-213
q24 10 55 10q50 0 83 -29.5t33 -76.5q0 -45 -31 -70.5t-83 -25.5q-61 0 -96 35.5t-45 90.5l-308 -158q57 -117 178 -185t271 -68z" />
    <glyph glyph-name="four.numr" horiz-adv-x="1463" 
d="M765 600h313v181h136v293h-136v576h-331l-561 -780v-89h579v-181zM646 1074l119 186v-186h-119z" />
    <glyph glyph-name="five.numr" horiz-adv-x="1315" 
d="M618 581q140 0 244.5 51t162 134.5t57.5 182.5q0 150 -126 254q-56 47 -133.5 75.5t-169.5 39.5l5 59h346v273h-621l-110 -603q60 7 103 9.5t83 2.5q287 0 287 -114q0 -39 -36 -61.5t-98 -22.5q-61 0 -105 20.5t-55 54.5l-264 -127q43 -103 160.5 -165.5t269.5 -62.5z
" />
    <glyph glyph-name="six.numr" horiz-adv-x="1373" 
d="M710 580q207 0 331 100.5t124 269.5q0 103 -46.5 184t-129.5 127.5t-194 46.5h-65l337 342h-404l-223 -218q-114 -111 -170 -237t-56 -227q0 -113 63.5 -201t175.5 -137.5t257 -49.5zM694 856q-57 0 -94.5 22.5t-37.5 60.5t37.5 61t93.5 23q61 0 98.5 -25t37.5 -60
t-38.5 -58.5t-96.5 -23.5z" />
    <glyph glyph-name="seven.numr" horiz-adv-x="1352" 
d="M213 600h395l571 956v94h-919v-293h423z" />
    <glyph glyph-name="eight.numr" horiz-adv-x="1437" 
d="M718 579q124 0 226 41.5t163 114.5t61 169q0 88 -51.5 161.5t-134.5 112.5q64 38 100 97.5t36 126.5q0 91 -61 153t-153.5 93.5t-187.5 31.5q-103 0 -194 -35.5t-147 -98.5t-56 -147q0 -64 36 -123.5t100 -97.5q-81 -37 -133.5 -111.5t-52.5 -163.5q0 -95 60.5 -168
t162.5 -114.5t226 -41.5zM719 1297q-33 0 -55.5 19t-22.5 47t22.5 46.5t55.5 18.5q32 0 54.5 -18.5t22.5 -46.5t-22 -47t-55 -19zM719 868q-39 0 -61 21.5t-22 54.5q0 35 23.5 56.5t59.5 21.5t59 -21.5t23 -56.5q0 -32 -21.5 -54t-60.5 -22z" />
    <glyph glyph-name="nine.numr" horiz-adv-x="1373" 
d="M302 600h404l224 222q47 46 103 112.5t94 155.5t29 203q-14 182 -149.5 285t-344.5 103q-150 0 -251.5 -50.5t-153.5 -134.5t-52 -184q0 -110 55 -192.5t141 -128.5t177 -46h34.5t26.5 -1zM677 1230q-58 0 -97 25.5t-39 63.5t38.5 62.5t96.5 24.5q56 0 93.5 -24.5
t37.5 -63.5q0 -37 -35.5 -62.5t-94.5 -25.5z" />
    </font>
</defs>
</svg>
