<svg xmlns="http://www.w3.org/2000/svg" width="38.688" height="30" viewBox="0 0 38.688 30">
  <g id="folder" transform="translate(0 -0.5)">
    <path id="Path_25379" data-name="Path 25379" d="M39.044,162.429a3.25,3.25,0,0,0-2.779-1.488H10.605a3.249,3.249,0,0,0-2.948,1.795L.87,176.712A2.435,2.435,0,0,0,3.259,178.5h27.3a3.086,3.086,0,0,0,2.755-1.674l5.866-11.548a2.869,2.869,0,0,0-.136-2.849Zm0,0" transform="translate(-0.806 -148)" fill="#f2940d"/>
    <path id="Path_25380" data-name="Path 25380" d="M5.374,12.052a3.185,3.185,0,0,1,2.9-1.795H32V7.222a2.315,2.315,0,0,0-2.353-2.269H15.81a.074.074,0,0,1-.039-.009L13.294,1.481A2.378,2.378,0,0,0,11.357.5h-9A2.315,2.315,0,0,0,0,2.769V23.318Zm0,0" fill="#f2940d"/>
  </g>
</svg>
