<svg xmlns="http://www.w3.org/2000/svg" width="109.25" height="100" viewBox="0 0 109.25 100">
  <g id="Group_20930" data-name="Group 20930" transform="translate(-251.5 -312.978)">
    <g id="megaphone" transform="translate(251.5 291.303)">
      <path id="Path_25381" data-name="Path 25381" d="M430.938,297.716a3.2,3.2,0,1,0-4.526,4.526l6.457,6.457a3.2,3.2,0,0,0,4.526-4.526Z" transform="translate(-334.687 -216.402)" fill="#f2940d"/>
      <path id="Path_25382" data-name="Path 25382" d="M428.675,129.636a3.192,3.192,0,0,0,2.263-.937l6.457-6.457a3.2,3.2,0,0,0-4.526-4.526l-6.457,6.457a3.2,3.2,0,0,0,2.263,5.464Z" transform="translate(-334.687 -74.81)" fill="#f2940d"/>
      <path id="Path_25383" data-name="Path 25383" d="M451.539,221.907h-9.131a3.2,3.2,0,1,0,0,6.4h9.131a3.2,3.2,0,0,0,0-6.4Z" transform="translate(-345.49 -157.507)" fill="#f2940d"/>
      <path id="Path_25384" data-name="Path 25384" d="M85.191,22.083a3.2,3.2,0,0,0-3.236.063L45.3,44.595H29.027a12.507,12.507,0,0,0-9.319,3.416,12.911,12.911,0,0,0-2.376,3.033H9.279A9.29,9.29,0,0,0,0,60.323V74.879a9.29,9.29,0,0,0,9.279,9.279h8.037a13.952,13.952,0,0,0,5.6,5.478L11.765,108.951a3.2,3.2,0,0,0,1.206,4.392l14.122,7.923a3.2,3.2,0,0,0,4.338-1.191L47.353,92.493l34.638,20.584a3.2,3.2,0,0,0,4.836-2.752V24.876a3.2,3.2,0,0,0-1.636-2.792ZM9.279,77.756A2.881,2.881,0,0,1,6.4,74.879V60.323a2.881,2.881,0,0,1,2.878-2.878h6.328c0,.048,0,.1,0,.143V77.613c0,.048,0,.1,0,.143ZM22,57.589a6.761,6.761,0,0,1,2.09-4.916,6.167,6.167,0,0,1,4.648-1.682C28.808,50.994,43,51,43,51V84.885H29.042A7.44,7.44,0,0,1,22,77.613Zm5.463,56.547-8.539-4.79L29.166,91.613a3.207,3.207,0,0,0,.163-.326h11.33ZM80.426,104.7,49.4,86.265V49.588l31.023-19Z" transform="translate(0)" fill="#f2940d"/>
    </g>
  </g>
</svg>
