<svg xmlns="http://www.w3.org/2000/svg" width="35.004" height="35.004" viewBox="0 0 35.004 35.004">
  <g id="Group_20679" data-name="Group 20679" transform="translate(-390 -1596)">
    <path id="Path_24383" data-name="Path 24383" d="M28.52,36.254H8.983A7.743,7.743,0,0,1,1.25,28.52V8.983A7.743,7.743,0,0,1,8.983,1.25H28.52a7.743,7.743,0,0,1,7.733,7.733V28.52a7.743,7.743,0,0,1-7.733,7.733ZM8.983,3.692A5.3,5.3,0,0,0,3.692,8.983V28.52a5.3,5.3,0,0,0,5.291,5.291H28.52a5.3,5.3,0,0,0,5.291-5.291V8.983A5.3,5.3,0,0,0,28.52,3.692Z" transform="translate(388.75 1594.75)" fill="#f20d0d"/>
    <line id="Line_410" data-name="Line 410" x2="17" transform="translate(401.49 1607.99) rotate(45)" fill="none" stroke="#f20d0d" stroke-linecap="round" stroke-width="2.5"/>
    <line id="Line_413" data-name="Line 413" x2="17" transform="translate(401.49 1620.012) rotate(-45)" fill="none" stroke="#f20d0d" stroke-linecap="round" stroke-width="2.5"/>
  </g>
</svg>
