<svg xmlns="http://www.w3.org/2000/svg" xmlns:xlink="http://www.w3.org/1999/xlink" width="80.014" height="80" viewBox="0 0 80.014 80">
  <defs>
    <clipPath id="clip-path">
      <rect id="Rectangle_8046" data-name="Rectangle 8046" width="80.014" height="80" fill="none"/>
    </clipPath>
  </defs>
  <g id="Group_11231" data-name="Group 11231" transform="translate(-710 -2619)">
    <g id="Group_11230" data-name="Group 11230" transform="translate(710 2619)">
      <g id="Group_11229" data-name="Group 11229" clip-path="url(#clip-path)">
        <path id="Path_24349" data-name="Path 24349" d="M79.867,18.96A4,4,0,0,0,72.533,18l-.666,1.16a1.334,1.334,0,0,0-1.814.48l-3.386,5.773-1.16-.667a1.332,1.332,0,1,0-1.334,2.307l1.16.667L54,47.36l-2.8,7.48-1.333,2.493a4,4,0,0,0,.213,4.32l-3,3.68-.84-2.106a2.667,2.667,0,0,0-4.76-.374l-.48.813-.453-5.333a2.667,2.667,0,0,0-5.187-.626l-3.28,9.839a1.334,1.334,0,0,0,.84,1.681,1.161,1.161,0,0,0,.413.106,1.332,1.332,0,0,0,1.267-.906l3.267-9.84L38.333,64a2.667,2.667,0,0,0,4.947,1.147l.493-.814.827,2.094a2.667,2.667,0,0,0,4.56.679l3.107-3.933a4.115,4.115,0,0,0,1.053.134,4,4,0,0,0,3.48-1.974l1.333-2.227,5.081-6.173,11.453-19.88,1.16.667a1.336,1.336,0,0,1,.493,1.826l-5.333,9.241a1.323,1.323,0,1,0,2.253,1.386l5.334-9.24a4,4,0,0,0-1.467-5.467l-1.16-.666,3.333-5.774a1.333,1.333,0,0,0-.48-1.813l.667-1.16a4,4,0,0,0,.4-3.093m-5.027.373a1.326,1.326,0,0,1,.814-.626,1.4,1.4,0,0,1,1.013.133,1.338,1.338,0,0,1,.627.813,1.4,1.4,0,0,1-.134,1.013l-.666,1.16-2.321-1.333ZM56.667,56.56,56,56.173l-1.973-1.147L55.92,49.96l4.2,2.426Zm-4,3.853a1.333,1.333,0,0,1-.4-1.747l.667-1.159,2.319,1.333-.666,1.147a1.332,1.332,0,0,1-1.92.426M61.64,50.2l-4.613-2.667,10.666-18.48,4.614,2.667Zm12-20.787-4.613-2.667,2.666-4.613L76.307,24.8Z" fill="#f2940d"/>
        <path id="Path_24350" data-name="Path 24350" d="M21.04,59.747l-4.719,4.707-2.827-2.827a1.334,1.334,0,1,0-1.88,1.893l2.826,2.827a2.687,2.687,0,0,0,3.774,0l4.706-4.72a1.333,1.333,0,0,0-1.88-1.88" fill="#0376c8"/>
        <path id="Path_24351" data-name="Path 24351" d="M5.333,63.333a11.333,11.333,0,0,0,22.667,0,1.334,1.334,0,0,0-2.667,0A8.669,8.669,0,1,1,21.866,56.4a1.333,1.333,0,1,0,1.6-2.133A11.333,11.333,0,0,0,5.333,63.333" fill="#0376c8"/>
        <path id="Path_24352" data-name="Path 24352" d="M48,10.667A1.334,1.334,0,0,0,48,8H13.333A1.333,1.333,0,0,0,12,9.334v5.333A1.333,1.333,0,0,0,13.333,16H48a1.333,1.333,0,0,0,0-2.666H14.667V10.667Z" fill="#0376c8"/>
        <path id="Path_24353" data-name="Path 24353" d="M17.333,18.667a1.334,1.334,0,0,0,0,2.667H44a1.334,1.334,0,0,0,0-2.667Z" fill="#0376c8"/>
        <path id="Path_24354" data-name="Path 24354" d="M52,28H22.667a1.334,1.334,0,1,0,0,2.667H52A1.334,1.334,0,0,0,52,28" fill="#0376c8"/>
        <path id="Path_24355" data-name="Path 24355" d="M38.667,37.333A1.333,1.333,0,0,0,37.334,36H10.667a1.333,1.333,0,1,0,0,2.666H37.334a1.333,1.333,0,0,0,1.333-1.333" fill="#0376c8"/>
        <path id="Path_24356" data-name="Path 24356" d="M52,36H42.667a1.334,1.334,0,1,0,0,2.667H52A1.334,1.334,0,0,0,52,36" fill="#0376c8"/>
        <path id="Path_24357" data-name="Path 24357" d="M24,45.333a1.334,1.334,0,0,0,0-2.667H10.667a1.334,1.334,0,1,0,0,2.667Z" fill="#0376c8"/>
        <path id="Path_24358" data-name="Path 24358" d="M29.333,45.333h9.333a1.334,1.334,0,1,0,0-2.667H29.333a1.334,1.334,0,0,0,0,2.667" fill="#0376c8"/>
        <path id="Path_24359" data-name="Path 24359" d="M60,61.333a1.333,1.333,0,0,0-1.333,1.333V76a1.333,1.333,0,0,1-1.334,1.333H4A1.333,1.333,0,0,1,2.667,76V4A1.333,1.333,0,0,1,4,2.666H57.333A1.334,1.334,0,0,1,58.667,4V29.04a1.333,1.333,0,0,0,2.666,0V4a4,4,0,0,0-4-4H4A4,4,0,0,0,0,4V76a4,4,0,0,0,4,4H57.333a4,4,0,0,0,4-4V62.666A1.333,1.333,0,0,0,60,61.333" fill="#f2940d"/>
      </g>
    </g>
  </g>
</svg>
