<svg xmlns="http://www.w3.org/2000/svg" width="20.003" height="19.996" viewBox="0 0 20.003 19.996">
  <g id="ARROW_48" data-name="ARROW 48" transform="translate(-0.17 -0.16)">
    <path id="Path_25163" data-name="Path 25163" d="M12.188,13.733a.938.938,0,0,0-.938.938v2.285A1.326,1.326,0,0,1,9.925,18.28H3.37a1.326,1.326,0,0,1-1.324-1.325V3.361A1.326,1.326,0,0,1,3.37,2.036H9.925A1.326,1.326,0,0,1,11.25,3.361V5.336a.938.938,0,1,0,1.876,0V3.361a3.2,3.2,0,0,0-3.2-3.2H3.37a3.2,3.2,0,0,0-3.2,3.2v13.6a3.2,3.2,0,0,0,3.2,3.2H9.925a3.2,3.2,0,0,0,3.2-3.2V14.671A.938.938,0,0,0,12.188,13.733Z" transform="translate(0)" fill="#5e6468"/>
    <path id="Path_25164" data-name="Path 25164" d="M210.257,149.763l-3.338-3.335a.938.938,0,0,0-1.313-.013.955.955,0,0,0,0,1.354l1.738,1.739h-8.129a.938.938,0,1,0,0,1.876h8.129l-1.755,1.755a.938.938,0,0,0,1.326,1.327l3.339-3.338a.964.964,0,0,0,0-1.364Z" transform="translate(-190.368 -140.287)" fill="#5e6468"/>
  </g>
</svg>
