<svg id="Group_11244" data-name="Group 11244" xmlns="http://www.w3.org/2000/svg" xmlns:xlink="http://www.w3.org/1999/xlink" width="99.823" height="100" viewBox="0 0 99.823 100">
  <defs>
    <clipPath id="clip-path">
      <rect id="Rectangle_7994" data-name="Rectangle 7994" width="99.823" height="100" fill="#f2940d"/>
    </clipPath>
  </defs>
  <g id="Group_11123" data-name="Group 11123" clip-path="url(#clip-path)">
    <path id="Path_24086" data-name="Path 24086" d="M97.253,85,65.771,53.345a8.783,8.783,0,0,0-4.14-11.724l3.862-3.862A8.792,8.792,0,0,0,74.73,23.287L54.013,2.57A8.791,8.791,0,0,0,40.245,13.287L13.29,40.241A8.79,8.79,0,0,0,2.576,54.007L23.293,74.724a8.784,8.784,0,0,0,12.43,0h0a8.8,8.8,0,0,0,2.037-9.233l3.866-3.866a8.783,8.783,0,0,0,11.711,4.146l31.48,31.654A8.789,8.789,0,0,0,97.253,85M45.726,6.714a2.933,2.933,0,0,1,4.144,0L70.586,27.431a2.93,2.93,0,1,1-4.143,4.143L45.726,10.857a2.933,2.933,0,0,1,0-4.144M31.58,70.58h0a2.928,2.928,0,0,1-4.143,0L6.72,49.864a2.93,2.93,0,0,1,4.144-4.143L31.58,66.437a2.933,2.933,0,0,1,0,4.143M34.2,60.768,17.624,44.194,44.2,17.618,60.774,34.192,34.2,60.768M51.635,59.9l-.006.006a2.93,2.93,0,0,1-4.144-4.143l8.287-8.287a2.93,2.93,0,0,1,4.144,4.143Zm6.2,2.083,4.144-4.144L82.774,78.752,78.631,82.9ZM93.1,93.282a2.932,2.932,0,0,1-4.138.006l-6.2-6.238,4.143-4.143,6.2,6.232a2.927,2.927,0,0,1,0,4.143" transform="translate(0 0)" fill="#f2940d"/>
    <path id="Path_24087" data-name="Path 24087" d="M61.594,433.716H58.369A14.674,14.674,0,0,0,44.015,422H20.577A14.674,14.674,0,0,0,6.222,433.716H3a2.93,2.93,0,1,0,0,5.86h58.6a2.93,2.93,0,0,0,0-5.86m-49.3,0a8.8,8.8,0,0,1,8.287-5.86H44.015a8.8,8.8,0,0,1,8.287,5.86Z" transform="translate(-0.055 -339.576)" fill="#f2940d"/>
  </g>
</svg>
