<svg id="Group_11227" data-name="Group 11227" xmlns="http://www.w3.org/2000/svg" xmlns:xlink="http://www.w3.org/1999/xlink" width="80" height="80" viewBox="0 0 80 80">
  <defs>
    <clipPath id="clip-path">
      <rect id="Rectangle_8045" data-name="Rectangle 8045" width="80" height="80" fill="none"/>
    </clipPath>
  </defs>
  <g id="Group_11226" data-name="Group 11226" clip-path="url(#clip-path)">
    <path id="Path_24341" data-name="Path 24341" d="M11.192,22.384A11.192,11.192,0,1,0,0,11.192,11.2,11.2,0,0,0,11.192,22.384M6.727,18.826a5.038,5.038,0,0,1,8.93,0,8.812,8.812,0,0,1-8.93,0M11.192,2.344a8.842,8.842,0,0,1,6.331,15.021,7.381,7.381,0,0,0-12.662,0A8.842,8.842,0,0,1,11.192,2.344" fill="#0376c8"/>
    <path id="Path_24342" data-name="Path 24342" d="M11.192,12.364A3.677,3.677,0,1,0,7.515,8.687a3.681,3.681,0,0,0,3.677,3.677m0-5.01A1.333,1.333,0,1,1,9.859,8.687a1.335,1.335,0,0,1,1.333-1.333" fill="#0376c8"/>
    <path id="Path_24343" data-name="Path 24343" d="M22.546,50.02A11.192,11.192,0,1,0,33.738,38.828,11.205,11.205,0,0,0,22.546,50.02Zm6.727,7.634a5.038,5.038,0,0,1,8.93,0,8.818,8.818,0,0,1-8.93,0M42.586,50.02a8.814,8.814,0,0,1-2.517,6.172,7.382,7.382,0,0,0-12.663,0,8.846,8.846,0,1,1,15.18-6.172" fill="#0376c8"/>
    <path id="Path_24344" data-name="Path 24344" d="M30.061,47.515a3.677,3.677,0,1,0,3.677-3.677,3.681,3.681,0,0,0-3.677,3.677m5.01,0a1.333,1.333,0,1,1-1.333-1.333,1.335,1.335,0,0,1,1.333,1.333" fill="#0376c8"/>
    <path id="Path_24345" data-name="Path 24345" d="M57.616,23.717A11.192,11.192,0,1,0,68.808,12.525,11.2,11.2,0,0,0,57.616,23.717m6.727,7.635a5.038,5.038,0,0,1,8.93,0,8.818,8.818,0,0,1-8.93,0m4.465-16.483A8.842,8.842,0,0,1,75.139,29.89a7.381,7.381,0,0,0-12.662,0,8.842,8.842,0,0,1,6.331-15.021" fill="#0376c8"/>
    <path id="Path_24346" data-name="Path 24346" d="M68.808,24.889a3.677,3.677,0,1,0-3.677-3.677,3.681,3.681,0,0,0,3.677,3.677m0-5.01a1.333,1.333,0,1,1-1.333,1.333,1.335,1.335,0,0,1,1.333-1.333" fill="#0376c8"/>
    <path id="Path_24347" data-name="Path 24347" d="M78.375,34.015a1.171,1.171,0,0,0-1.018,1.307c.15,1.211.242,2.367.28,3.506H64.554A7.443,7.443,0,0,0,58.463,42L54.38,47.832a7.42,7.42,0,0,0,.5,9.159l3.676,4.2a6.342,6.342,0,0,1,1.569,4.177v6.477A37.831,37.831,0,0,1,28.647,75.92V73.51a5.109,5.109,0,0,1,1.115-3.18L33.4,65.782a1.172,1.172,0,0,0-1.83-1.464l-3.638,4.547A7.462,7.462,0,0,0,26.3,73.51V75.1a37.912,37.912,0,0,1-20.5-19.282l2.315-3.088a8.738,8.738,0,0,0,1.738-5.212V38.8a8.735,8.735,0,0,0-1.8-5.3l-3.9-5.069q.557-1.721,1.281-3.4a1.172,1.172,0,0,0-2.15-.932A40,40,0,0,0,68.284,68.284a39.856,39.856,0,0,0,11.4-33.25,1.172,1.172,0,0,0-1.307-1.019M3.369,31.249,6.2,34.931A6.377,6.377,0,0,1,7.515,38.8v8.717a6.382,6.382,0,0,1-1.268,3.806L4.755,53.309a37.911,37.911,0,0,1-1.386-22.06ZM66.627,66.627a38.317,38.317,0,0,1-4.162,3.6V65.369a8.684,8.684,0,0,0-2.15-5.72l-3.676-4.2a5.081,5.081,0,0,1-.339-6.272l4.083-5.833a5.1,5.1,0,0,1,4.17-2.171H77.636A37.39,37.39,0,0,1,66.627,66.627Z" fill="#f2940d"/>
    <path id="Path_24348" data-name="Path 24348" d="M21.108,35.012l-.036-3.791a1.172,1.172,0,0,0-1.908-.9l-3.876,3.13a7.4,7.4,0,0,0-2.763,5.784v3.27A3.681,3.681,0,0,0,16.2,46.182h3.075a1.172,1.172,0,1,0,0-2.344H16.2a1.335,1.335,0,0,1-1.333-1.333V39.234a5.07,5.07,0,0,1,1.892-3.96l1.99-1.608.013,1.368a3.668,3.668,0,0,0,7.335-.01l.02-3.038a6.366,6.366,0,0,1,2.031-4.609l6.521-6.044A6.2,6.2,0,0,0,36.164,14.4l-1.42-3.367a1.327,1.327,0,0,1,.6-1.693l1.975-1.059a4.921,4.921,0,0,0,2.6-4.345V2.345H40A37.208,37.208,0,0,1,59.366,7.7l-4.95,4.949a6.146,6.146,0,0,0-1.81,4.372V19.96a1.335,1.335,0,0,1-1.333,1.333H50.02a4.934,4.934,0,0,0-4.929,4.929V29.98a4.934,4.934,0,0,0,4.929,4.929h7.515a1.172,1.172,0,0,0,0-2.344H50.02a2.588,2.588,0,0,1-2.586-2.585V26.222a2.588,2.588,0,0,1,2.586-2.585h1.253a3.681,3.681,0,0,0,3.676-3.677V17.025a3.814,3.814,0,0,1,1.125-2.714l5.3-5.3q.965.669,1.9,1.4a1.172,1.172,0,1,0,1.45-1.841A39.983,39.983,0,0,0,24.1,3.291a1.172,1.172,0,0,0,.932,2.15A37.321,37.321,0,0,1,37.576,2.423V3.932a2.583,2.583,0,0,1-1.365,2.28L34.236,7.27a3.66,3.66,0,0,0-1.651,4.67l1.42,3.367a3.85,3.85,0,0,1-.927,4.307l-6.521,6.044a8.719,8.719,0,0,0-2.781,6.312l-.021,3.038a1.324,1.324,0,0,1-2.647,0Z" fill="#f2940d"/>
  </g>
</svg>
