<svg id="Group_11243" data-name="Group 11243" xmlns="http://www.w3.org/2000/svg" xmlns:xlink="http://www.w3.org/1999/xlink" width="82.813" height="100" viewBox="0 0 82.813 100">
  <defs>
    <clipPath id="clip-path">
      <rect id="Rectangle_8054" data-name="Rectangle 8054" width="82.813" height="100" fill="#f2940d"/>
    </clipPath>
  </defs>
  <g id="Group_11240" data-name="Group 11240" clip-path="url(#clip-path)">
    <path id="Path_24370" data-name="Path 24370" d="M72.88,0H23.54c-5.48,0-9.933,4.207-9.933,9.373V12.5H6.787A6.793,6.793,0,0,0,0,19.287V93.213A6.789,6.789,0,0,0,6.787,100H62.413A6.793,6.793,0,0,0,69.2,93.213V87.5h3.68a9.674,9.674,0,0,0,9.927-9.373V9.373A9.674,9.674,0,0,0,72.88,0M62.947,93.213a.536.536,0,0,1-.533.54H6.787a.538.538,0,0,1-.54-.54V19.287a.536.536,0,0,1,.54-.533H62.413a.535.535,0,0,1,.533.533ZM76.56,78.127a3.446,3.446,0,0,1-3.68,3.127H69.2V19.287A6.8,6.8,0,0,0,62.413,12.5H19.86V9.373a3.436,3.436,0,0,1,3.68-3.12H72.88a3.441,3.441,0,0,1,3.68,3.12Z" fill="#f2940d"/>
    <path id="Path_24371" data-name="Path 24371" d="M35.391,11.638H5.7a3.123,3.123,0,1,1,0-6.247H35.391a3.123,3.123,0,1,1,0,6.247" transform="translate(14.609 30.549)" fill="#f2940d"/>
    <path id="Path_24372" data-name="Path 24372" d="M35.391,13.513H5.7a3.123,3.123,0,1,1,0-6.247H35.391a3.123,3.123,0,1,1,0,6.247" transform="translate(14.609 41.174)" fill="#f2940d"/>
    <path id="Path_24373" data-name="Path 24373" d="M35.391,15.388H5.7a3.123,3.123,0,1,1,0-6.247H35.391a3.123,3.123,0,1,1,0,6.247" transform="translate(14.609 51.799)" fill="#f2940d"/>
  </g>
</svg>
