<svg xmlns="http://www.w3.org/2000/svg" width="20" height="20" viewBox="0 0 20 20">
  <path id="noun-question-8063" d="M10,0A10,10,0,1,0,20,10,10,10,0,0,0,10,0Zm1.086,16.382a.369.369,0,0,1-.368.368H9.173a.369.369,0,0,1-.368-.368V14.99a.369.369,0,0,1,.368-.368h1.545a.369.369,0,0,1,.368.368Zm2.972-8.071a2.892,2.892,0,0,1-.366.806,3.319,3.319,0,0,1-.522.6q-.293.265-.586.522-.348.293-.641.568a3.276,3.276,0,0,0-.513.613,2.7,2.7,0,0,0-.339.8,4.185,4.185,0,0,0-.1.673c-.032.359-.228.444-.39.444H9.389a.385.385,0,0,1-.385-.4s.017-.6.072-.968A3.843,3.843,0,0,1,9.341,11a3.065,3.065,0,0,1,.448-.742,5.142,5.142,0,0,1,.632-.632q.293-.256.559-.476a3.257,3.257,0,0,0,.476-.486,2.107,2.107,0,0,0,.33-.6,2.326,2.326,0,0,0,.119-.788,2.129,2.129,0,0,0-.192-.944,1.958,1.958,0,0,0-.467-.632,1.831,1.831,0,0,0-.586-.348,1.683,1.683,0,0,0-.55-.11,1.935,1.935,0,0,0-1.676.742,3.241,3.241,0,0,0-.515,1.473c-.061.422-.307.515-.457.515H6.2a.361.361,0,0,1-.365-.4,6.793,6.793,0,0,1,.271-1.437,3.888,3.888,0,0,1,.88-1.41,3.961,3.961,0,0,1,1.392-.907A4.947,4.947,0,0,1,10.2,3.5a4.815,4.815,0,0,1,1.566.247,3.78,3.78,0,0,1,1.264.714,3.292,3.292,0,0,1,.852,1.163A3.82,3.82,0,0,1,14.195,7.2,3.965,3.965,0,0,1,14.057,8.311Z" fill="#0376c8"/>
</svg>
