<svg id="noun-upload-1570340" xmlns="http://www.w3.org/2000/svg" width="50.578" height="37.09" viewBox="0 0 50.578 37.09">
  <path id="Path_24120" data-name="Path 24120" d="M30.289,969.361a15.037,15.037,0,0,0-14.91,12.574,12.336,12.336,0,0,0,1.984,24.515H44.9a10.656,10.656,0,0,0,.457-21.3A15.023,15.023,0,0,0,30.289,969.36Zm0,2.248a12.9,12.9,0,0,1,12.82,14.471,1.124,1.124,0,0,0,1.124,1.265H44.9a8.43,8.43,0,0,1,0,16.859H17.363a10.12,10.12,0,0,1-.931-20.2,1.124,1.124,0,0,0,1.019-.984,12.885,12.885,0,0,1,12.838-11.415Zm0,11.24a1.22,1.22,0,0,0-.755.281l-6.182,5.62a1.155,1.155,0,0,0-.088,1.6,1.176,1.176,0,0,0,1.6.07l4.3-3.916v12.083a1.124,1.124,0,1,0,2.248,0V986.5l4.3,3.916a1.2,1.2,0,0,0,1.6-.07,1.142,1.142,0,0,0-.088-1.6l-6.182-5.62A.981.981,0,0,0,30.289,982.849Z" transform="translate(-5 -969.36)" fill="#2872b5"/>
</svg>
