<svg xmlns="http://www.w3.org/2000/svg" xmlns:xlink="http://www.w3.org/1999/xlink" width="80" height="79.105" viewBox="0 0 80 79.105">
  <defs>
    <clipPath id="clip-path">
      <rect id="Rectangle_8044" data-name="Rectangle 8044" width="80" height="79.105" transform="translate(0 0)" fill="none"/>
    </clipPath>
  </defs>
  <g id="Group_11237" data-name="Group 11237" transform="translate(-1120 -2326.895)">
    <g id="Group_11222" data-name="Group 11222" transform="translate(1120 2326.895)">
      <g id="Group_11221" data-name="Group 11221" clip-path="url(#clip-path)">
        <path id="Path_24339" data-name="Path 24339" d="M26.934,37.9l0-.025a.417.417,0,0,0-.007-.051h0l-.865-4.107v0L25.194,29.6v0l-.866-4.111a.485.485,0,0,0-.475-.385H3.082a.485.485,0,0,0-.475.385l-.865,4.11V29.6L.876,33.707v0L.011,37.818A.451.451,0,0,0,0,37.871v.012c0,.012,0,.023,0,.035v1.947a.486.486,0,0,0,.486.486H12.008v2.727H8.275a.486.486,0,0,0-.486.486v1.462H3.082a.486.486,0,0,0,0,.971h20.77a.486.486,0,1,0,0-.971H19.146V43.564a.486.486,0,0,0-.486-.486H14.927V40.351H26.449a.487.487,0,0,0,.486-.486V37.9m-1.083-.462h-7.6l-.221-3.14H25.19Zm-1.526-7.251.661,3.14H17.959l-.22-3.14Zm-.866-4.111.661,3.14H17.67l-.22-3.14Zm-13,0h6.019l.22,3.14H10.238Zm-.288,4.111h6.595l.221,3.14H9.95Zm-.289,4.111h7.173l.22,3.14H9.661Zm-6.4-8.222H9.485l-.22,3.14H2.815Zm-.865,4.111H9.2l-.221,3.14H1.95ZM18.175,44.049v.977H8.76v-.977h9.415Zm-5.2-3.7h.977v2.727h-.977Zm1.468-.971H.971V38.4H3.284a.486.486,0,0,0,0-.971h-2.2l.661-3.14H8.908l-.22,3.14h-3.3a.485.485,0,0,0,0,.97H25.964v.977Z" fill="#0376c8"/>
        <path id="Path_24340" data-name="Path 24340" d="M67.435,47.59l-13.383-2.6V41.681a13.971,13.971,0,0,0,6.236-10.273,3.8,3.8,0,0,0,3.491-3.781V24.912a3.6,3.6,0,0,0-.614-6.807V17.057A17.057,17.057,0,0,0,46.109,0h-1.43A17.057,17.057,0,0,0,27.622,17.056V18.1a3.6,3.6,0,0,0-.613,6.807v2.715a3.8,3.8,0,0,0,3.49,3.781,13.937,13.937,0,0,0,4.685,9.079,17.4,17.4,0,0,0,1.552,1.194v3.307l-13.384,2.6c-7.061,1.373-12.564,5.354-12.564,12.7V73.723a5.382,5.382,0,0,0,5.382,5.382H74.617A5.382,5.382,0,0,0,80,73.723V60.288c0-7.32-5.47-11.319-12.565-12.7m-10.994.553c-.959,1.395-2.425,3.523-4.009,5.815a1.921,1.921,0,0,1-2.255.783L48.09,53.49c2.035-1.2,4.851-3.266,5.7-5.861ZM45.393,51.95c-2.006-1.01-6.005-3.506-6.016-5.864V43.139a15.168,15.168,0,0,0,12.033,0v2.937c0,2.362-4.009,4.863-6.017,5.874M30.264,17.056A14.424,14.424,0,0,1,37.7,4.447V6.1a1.321,1.321,0,0,0,2.642,0v-2.8a14.33,14.33,0,0,1,3.73-.653V9.186a1.321,1.321,0,0,0,2.642,0V2.655a14.345,14.345,0,0,1,3.732.653V6.1a1.321,1.321,0,0,0,2.641,0V4.447a14.424,14.424,0,0,1,7.436,12.609v.955H30.264Zm-1.826,3.6H62.349a.957.957,0,0,1,0,1.913H28.438a.957.957,0,0,1,0-1.913m4.619,9.417a1.321,1.321,0,0,0-1.321-1.293c-.22-.054-2.086.344-2.086-1.15V25.208H61.137v2.419c0,1.491-1.916,1.109-2.087,1.15a1.321,1.321,0,0,0-1.32,1.293,11.393,11.393,0,0,1-3.85,8.415,12.681,12.681,0,0,1-16.972,0,11.387,11.387,0,0,1-3.851-8.415m3.934,17.559c.856,2.595,3.671,4.659,5.706,5.861-2.091,1.12-1.943,1.455-2.893,1.343a2.083,2.083,0,0,1-1.46-.89c-1.58-2.287-3.041-4.409-4-5.8ZM21.751,76.464H16.169a2.741,2.741,0,0,1-2.74-2.741V60.288c0-3.958,1.8-6.695,5.743-8.585a54.358,54.358,0,0,1,2.579,16.451Zm22.321,0H24.393v-8.31A55.422,55.422,0,0,0,21.635,50.72c1.543-.512.4-.117,9.883-2.027,2.727,3.962,7.815,11.354,10.814,15.617a9.507,9.507,0,0,1,1.74,5.5Zm1.321-12.179a12.347,12.347,0,0,0-.9-1.5c-1.014-1.44-2.33-3.331-3.7-5.313a3.959,3.959,0,0,0,1.179-.47l3.424-2.054,3.425,2.054a3.965,3.965,0,0,0,1.18.47c-1.373,1.981-2.689,3.871-3.7,5.313a12.363,12.363,0,0,0-.9,1.5m31.965,9.438a2.741,2.741,0,0,1-2.741,2.741H69.035V71.48a1.321,1.321,0,0,0-2.641,0v4.984H46.714V69.809a9.5,9.5,0,0,1,1.741-5.5c1.706-2.425,8.73-12.562,10.814-15.618,9.481,1.909,8.338,1.514,9.883,2.027A57.6,57.6,0,0,0,66.43,66.143a1.321,1.321,0,0,0,2.64.094A52.809,52.809,0,0,1,71.615,51.7c3.945,1.89,5.743,4.627,5.743,8.584Z" fill="#f2940d"/>
      </g>
    </g>
  </g>
</svg>
