<svg id="Group_11242" data-name="Group 11242" xmlns="http://www.w3.org/2000/svg" xmlns:xlink="http://www.w3.org/1999/xlink" width="12.422" height="15" viewBox="0 0 12.422 15">
  <defs>
    <clipPath id="clip-path">
      <rect id="Rectangle_8054" data-name="Rectangle 8054" width="12.422" height="15" fill="#5e6468"/>
    </clipPath>
  </defs>
  <g id="Group_11240" data-name="Group 11240" clip-path="url(#clip-path)">
    <path id="Path_24370" data-name="Path 24370" d="M10.932,0h-7.4a1.451,1.451,0,0,0-1.49,1.406v.469H1.018A1.019,1.019,0,0,0,0,2.893V13.982A1.018,1.018,0,0,0,1.018,15H9.362a1.019,1.019,0,0,0,1.018-1.018v-.857h.552a1.451,1.451,0,0,0,1.489-1.406V1.406A1.451,1.451,0,0,0,10.932,0M9.442,13.982a.08.08,0,0,1-.08.081H1.018a.081.081,0,0,1-.081-.081V2.893a.08.08,0,0,1,.081-.08H9.362a.08.08,0,0,1,.08.08Zm2.042-2.263a.517.517,0,0,1-.552.469H10.38V2.893A1.02,1.02,0,0,0,9.362,1.875H2.979V1.406A.515.515,0,0,1,3.531.938h7.4a.516.516,0,0,1,.552.468Z" fill="#5e6468"/>
    <path id="Path_24371" data-name="Path 24371" d="M7.5,6.328H3.047a.469.469,0,1,1,0-.937H7.5a.469.469,0,1,1,0,.937" fill="#5e6468"/>
    <path id="Path_24372" data-name="Path 24372" d="M7.5,8.2H3.047a.469.469,0,1,1,0-.937H7.5a.469.469,0,1,1,0,.937" fill="#5e6468"/>
    <path id="Path_24373" data-name="Path 24373" d="M7.5,10.078H3.047a.469.469,0,1,1,0-.937H7.5a.469.469,0,1,1,0,.937" fill="#5e6468"/>
  </g>
</svg>
