<?xml version="1.0" encoding="UTF-8"?>
<svg id="Vrstva_1" data-name="Vrstva 1" xmlns="http://www.w3.org/2000/svg" version="1.1" viewBox="0 0 2218.52 616.5">
  <defs>
    <style>
      .cls-1 {
        fill: #fcc202;
      }

      .cls-1, .cls-2, .cls-3 {
        stroke-width: 0px;
      }

      .cls-2 {
        fill: #1d1d1b;
      }

      .cls-3 {
        fill: #fff;
      }
    </style>
  </defs>
  <path class="cls-3" d="M268.91,618.22l1.73,1.73h71.1l91.84-91.86v-71.11l-1.71-1.72-162.97,162.95ZM227.53,576.84l36.78,36.78,162.97-162.95-36.79-36.78-162.95,162.95ZM184.62,533.92l38.31,38.31,162.95-162.97-38.31-38.3-162.95,162.95ZM270.65,365.12l-91.84,91.87v71.11l1.21,1.24,162.97-162.98-1.24-1.24h-71.1ZM90.09,439.43l1.73,1.72h71.13l91.86-91.86v-71.1l-1.75-1.73-162.97,162.97ZM451.8,435.34l1.72,1.72h71.11l91.87-91.86v-71.1l-1.73-1.73-162.97,162.97ZM48.71,398.03l36.79,36.78,162.97-162.97-36.76-36.76L48.71,398.03ZM410.41,393.94l36.78,36.79,162.97-162.95-36.78-36.78-162.97,162.94ZM5.81,355.12l38.31,38.3,162.97-162.95-38.33-38.31L5.81,355.12ZM367.51,351.04l38.31,38.3,162.97-162.95-38.31-38.31-162.97,162.97ZM91.83,186.34L0,278.2v71.1l1.22,1.24,162.95-162.97-1.22-1.22h-71.13ZM453.52,182.25l-91.84,91.86v71.1l1.22,1.24,162.95-162.97-1.22-1.22h-71.11ZM272.99,256.54l1.73,1.72h71.1l91.86-91.86v-71.1l-1.72-1.73-162.97,162.97ZM231.61,215.14l36.79,36.78,162.97-162.95-36.81-36.78-162.95,162.95ZM188.69,172.24l38.33,38.3L389.98,47.6l-38.33-38.31-162.97,162.95ZM274.73,3.45l-91.83,91.86v71.1l1.21,1.22L347.06,4.66l-1.24-1.21h-71.1Z"/>
  <polygon class="cls-2" points="912.08 366.62 912.08 250.59 934.73 250.59 934.73 346.42 987.37 346.42 987.37 366.62 912.08 366.62"/>
  <path class="cls-2" d="M1053.98,239.36h-14.17l10.44-27.71h22.33l-18.6,27.71ZM1049.58,284.81l-14.66,42.22h28.83l-14.17-42.22ZM1076.64,366.63l-6.85-20.53h-41.23l-6.99,20.53h-23.64l42.21-116.04h17.77l42.37,116.04h-23.63Z"/>
  <polygon class="cls-2" points="1299.47 366.62 1253.51 295.4 1253.51 366.62 1230.86 366.62 1230.86 250.59 1251.08 250.59 1297.03 321.64 1297.03 250.59 1319.67 250.59 1319.67 366.62 1299.47 366.62"/>
  <path class="cls-2" d="M1351.57,250.59h22.65v116.04h-22.65v-116.04ZM1365.74,239.35h-14.17l10.44-27.71h22.32l-18.58,27.71Z"/>
  <path class="cls-2" d="M1487.77,284.81l-14.66,42.21h28.83l-14.17-42.21ZM1514.82,366.63l-6.85-20.53h-41.23l-6.99,20.53h-23.64l42.21-116.04h17.76l42.37,116.04h-23.61Z"/>
  <rect class="cls-2" x="1874.44" y="250.58" width="22.65" height="116.04"/>
  <path class="cls-2" d="M1967.96,284.81l-14.66,42.21h28.83l-14.17-42.21ZM1995.01,366.63l-6.85-20.53h-41.23l-7.01,20.53h-23.61l42.21-116.04h17.76l42.37,116.04h-23.63Z"/>
  <polygon class="cls-2" points="2142.07 250.59 2142.07 366.62 2218.52 366.62 2218.52 346.42 2164.72 346.42 2164.72 318.22 2210.51 318.22 2210.51 298.01 2164.72 298.01 2164.72 270.8 2218.52 270.8 2218.52 250.59 2142.07 250.59"/>
  <polygon class="cls-2" points="755.64 427.23 759.82 427.23 759.82 478.59 789.05 478.59 789.05 482.3 755.64 482.3 755.64 427.23"/>
  <polygon class="cls-2" points="879.47 434.42 879.47 482.3 875.31 482.3 875.31 427.24 879.47 427.24 911.26 474.95 911.26 427.24 915.46 427.24 915.46 482.3 911.26 482.3 879.47 434.42"/>
  <polygon class="cls-2" points="1005.39 427.23 1038.8 427.23 1038.8 430.94 1009.57 430.94 1009.57 452.67 1034.48 452.67 1034.48 456.4 1009.57 456.4 1009.57 478.59 1038.8 478.59 1038.8 482.3 1005.39 482.3 1005.39 427.23"/>
  <polygon class="cls-2" points="1172.79 427.23 1206.2 427.23 1206.2 430.94 1176.97 430.94 1176.97 452.67 1201.88 452.67 1201.88 456.4 1176.97 456.4 1176.97 478.59 1206.2 478.59 1206.2 482.3 1172.79 482.3 1172.79 427.23"/>
  <polygon class="cls-2" points="1234.79 434.42 1234.79 482.3 1230.62 482.3 1230.62 427.24 1234.79 427.24 1266.58 474.95 1266.58 427.24 1270.74 427.24 1270.74 482.3 1266.58 482.3 1234.79 434.42"/>
  <polygon class="cls-2" points="1299.34 427.23 1332.75 427.23 1332.75 430.94 1303.52 430.94 1303.52 452.67 1328.43 452.67 1328.43 456.4 1303.52 456.4 1303.52 478.59 1332.75 478.59 1332.75 482.3 1299.34 482.3 1299.34 427.23"/>
  <rect class="cls-2" x="1481.46" y="427.22" width="4.17" height="55.08"/>
  <polygon class="cls-2" points="1514.22 427.23 1547.63 427.23 1547.63 430.94 1518.4 430.94 1518.4 452.67 1543.31 452.67 1543.31 456.4 1518.4 456.4 1518.4 478.59 1547.63 478.59 1547.63 482.3 1514.22 482.3 1514.22 427.23"/>
  <path class="cls-2" d="M1684.87,465.21h23.05l-11.53-32.4-11.52,32.4ZM1709.24,468.91h-25.69l-4.79,13.39h-4.49l20.27-55.08h3.71l20.26,55.08h-4.46l-4.81-13.39Z"/>
  <polygon class="cls-2" points="1757.07 451.43 1743.92 467.39 1743.92 482.3 1739.76 482.3 1739.76 427.22 1743.92 427.22 1743.92 461.66 1771.85 427.22 1776.88 427.22 1759.86 448.26 1779.74 482.3 1774.79 482.3 1757.07 451.43"/>
  <polygon class="cls-2" points="1908.06 436.89 1891.35 474.57 1887.19 474.57 1870.17 436.89 1870.17 482.29 1865.99 482.29 1865.99 427.24 1870.17 427.24 1889.35 469.7 1908.06 427.24 1912.24 427.24 1912.24 482.29 1908.06 482.29 1908.06 436.89"/>
  <polygon class="cls-2" points="2005.59 427.23 2009.77 427.23 2009.77 478.59 2039 478.59 2039 482.3 2005.59 482.3 2005.59 427.23"/>
  <path class="cls-2" d="M2064.65,465.21h23.05l-11.53-32.4-11.52,32.4ZM2089.02,468.91h-25.69l-4.79,13.39h-4.49l20.26-55.08h3.72l20.26,55.08h-4.46l-4.81-13.39Z"/>
  <polygon class="cls-2" points="2180.13 427.23 2213.54 427.23 2213.54 430.94 2184.31 430.94 2184.31 452.67 2209.22 452.67 2209.22 456.4 2184.31 456.4 2184.31 478.59 2213.54 478.59 2213.54 482.3 2180.13 482.3 2180.13 427.23"/>
  <path class="cls-1" d="M268.91,614.77l1.73,1.73h71.1l91.84-91.86v-71.11l-1.71-1.72-162.97,162.95ZM227.53,573.38l36.78,36.78,162.97-162.95-36.79-36.78-162.95,162.95ZM184.62,530.48l38.31,38.31,162.95-162.97-38.31-38.3-162.95,162.95ZM270.65,361.68l-91.84,91.86v71.11l1.21,1.24,162.97-162.98-1.24-1.22h-71.1ZM90.09,435.98l1.73,1.72h71.13l91.86-91.86v-71.1l-1.75-1.73-162.97,162.97ZM451.8,431.88l1.72,1.72h71.11l91.87-91.86v-71.1l-1.73-1.73-162.97,162.97ZM48.71,394.58l36.79,36.79,162.97-162.97-36.76-36.78L48.71,394.58ZM410.41,390.48l36.78,36.79,162.97-162.95-36.78-36.78-162.97,162.94ZM5.81,351.67l38.31,38.3,162.97-162.95-38.33-38.31L5.81,351.67ZM367.51,347.59l38.31,38.31,162.97-162.95-38.31-38.33-162.97,162.97ZM91.83,182.89L0,274.74v71.1l1.22,1.24,162.95-162.97-1.22-1.22h-71.13ZM453.52,178.79l-91.84,91.86v71.1l1.22,1.24,162.95-162.97-1.22-1.22h-71.11ZM272.99,253.09l1.73,1.72h71.1l91.86-91.86v-71.1l-1.72-1.73-162.97,162.97ZM231.61,211.69l36.79,36.78,162.97-162.94-36.81-36.79-162.95,162.95ZM188.69,168.78l38.33,38.3L389.98,44.14l-38.33-38.31-162.97,162.95ZM274.73,0l-91.83,91.86v71.1l1.21,1.24L347.06,1.21l-1.24-1.21h-71.1Z"/>
  <g>
    <path class="cls-2" d="M733.08,367.6c-17.61,0-30.96-3.74-42.38-15.31l14.67-14.67c7.34,7.34,17.27,9.78,28.04,9.78,13.36,0,20.54-5.06,20.54-14.34,0-4.08-1.15-7.49-3.6-9.78-2.27-2.1-4.89-3.26-10.26-4.07l-14.02-1.96c-9.94-1.46-17.26-4.56-22.49-9.61-5.54-5.54-8.3-13.04-8.3-22.82,0-20.7,15.31-35.2,40.4-35.2,15.98,0,27.55,3.91,37.49,13.53l-14.33,14.16c-7.35-6.99-16.15-7.99-23.8-7.99-12.07,0-17.93,6.7-17.93,14.67,0,2.94.95,6.04,3.41,8.32,2.29,2.12,6.04,3.91,10.76,4.56l13.68,1.96c10.61,1.46,17.29,4.39,22.18,8.96,6.18,5.87,8.96,14.34,8.96,24.62,0,22.46-18.75,35.19-43.02,35.19"/>
    <path class="cls-2" d="M855.74,276.03c-3.26-3.75-8.3-6.21-14.5-6.21s-11.4,2.46-14.67,6.21c-4.39,4.89-5.52,10.25-5.52,32.6s1.12,27.69,5.52,32.57c3.27,3.75,8.49,6.2,14.67,6.2s11.25-2.45,14.5-6.2c4.41-4.88,5.7-10.26,5.7-32.57s-1.29-27.71-5.7-32.6M872.53,354.89c-8.15,8.15-18.08,12.72-31.29,12.72s-23.3-4.58-31.46-12.72c-11.71-11.73-11.4-26.24-11.4-46.26s-.31-34.58,11.4-46.29c8.16-8.15,18.25-12.72,31.46-12.72s23.15,4.58,31.29,12.72c11.73,11.71,11.57,26.23,11.57,46.29s.16,34.53-11.57,46.26"/>
  </g>
  <polygon class="cls-2" points="912.08 366.62 912.08 250.59 934.73 250.59 934.73 346.42 987.37 346.42 987.37 366.62 912.08 366.62"/>
  <path class="cls-2" d="M1053.98,239.36h-14.17l10.44-27.71h22.33l-18.6,27.71ZM1049.58,284.81l-14.66,42.22h28.83l-14.17-42.22ZM1076.64,366.63l-6.85-20.53h-41.23l-6.99,20.53h-23.64l42.21-116.04h17.77l42.37,116.04h-23.63Z"/>
  <path class="cls-2" d="M1163.45,270.81h-21.35v30.61h21.35c9.94,0,16.46-6.34,16.46-15.3s-6.53-15.31-16.46-15.31M1181.04,366.63l-22.65-46.3h-16.29v46.3h-22.65v-116.04h45.47c23.63,0,37.65,16.14,37.65,35.53,0,16.29-9.94,26.39-21.18,30.48l25.9,50.03h-26.24Z"/>
  <polygon class="cls-2" points="1299.47 366.62 1253.51 295.4 1253.51 366.62 1230.86 366.62 1230.86 250.59 1251.08 250.59 1297.03 321.64 1297.03 250.59 1319.67 250.59 1319.67 366.62 1299.47 366.62"/>
  <path class="cls-2" d="M1351.57,250.59h22.65v116.04h-22.65v-116.04ZM1365.74,239.35h-14.17l10.44-27.71h22.32l-18.58,27.71Z"/>
  <path class="cls-2" d="M1487.77,284.81l-14.66,42.21h28.83l-14.17-42.21ZM1514.82,366.63l-6.85-20.53h-41.23l-6.99,20.53h-23.64l42.21-116.04h17.76l42.37,116.04h-23.61Z"/>
  <g>
    <path class="cls-2" d="M1589.56,367.6c-17.6,0-30.96-3.74-42.37-15.31l14.67-14.67c7.32,7.34,17.26,9.78,28.02,9.78,13.38,0,20.54-5.06,20.54-14.34,0-4.08-1.15-7.49-3.6-9.78-2.27-2.1-4.89-3.26-10.26-4.07l-14-1.96c-9.94-1.46-17.27-4.56-22.49-9.61-5.56-5.54-8.32-13.04-8.32-22.82,0-20.7,15.31-35.2,40.4-35.2,15.99,0,27.55,3.91,37.49,13.53l-14.33,14.16c-7.35-6.99-16.14-7.99-23.8-7.99-12.07,0-17.93,6.7-17.93,14.67,0,2.94.97,6.04,3.41,8.32,2.29,2.12,6.04,3.91,10.75,4.56l13.71,1.96c10.59,1.46,17.27,4.39,22.16,8.96,6.18,5.87,8.96,14.34,8.96,24.62,0,22.46-18.74,35.19-43.02,35.19"/>
    <path class="cls-2" d="M1712.23,276.03c-3.27-3.75-8.3-6.21-14.5-6.21s-11.42,2.46-14.67,6.21c-4.39,4.89-5.56,10.25-5.56,32.6s1.17,27.69,5.56,32.57c3.26,3.75,8.49,6.2,14.67,6.2s11.23-2.45,14.5-6.2c4.41-4.88,5.7-10.26,5.7-32.57s-1.29-27.71-5.7-32.6M1729.02,354.89c-8.16,8.15-18.1,12.72-31.29,12.72s-23.32-4.58-31.46-12.72c-11.73-11.73-11.4-26.24-11.4-46.26s-.33-34.58,11.4-46.29c8.15-8.15,18.27-12.72,31.46-12.72s23.13,4.58,31.29,12.72c11.73,11.71,11.57,26.23,11.57,46.29s.16,34.53-11.57,46.26"/>
    <path class="cls-2" d="M1807.35,367.6c-12.38,0-22.8-4.25-31.29-12.72-5.06-5.03-8.13-10.9-9.44-17.42-1.31-6.53-1.98-16.15-1.98-28.85s.67-22.33,1.98-28.85c1.31-6.68,4.38-12.38,9.44-17.44,8.49-8.47,18.91-12.71,31.29-12.71,22.33,0,38.78,13.04,42.69,36.67h-22.97c-2.45-9.94-8.64-16.45-19.55-16.45-6.2,0-11.09,1.95-14.52,6.01-4.72,5.06-5.7,10.28-5.7,32.77s.98,27.71,5.7,32.74c3.43,4.07,8.32,6.04,14.52,6.04,10.9,0,17.1-6.53,19.55-16.46h22.97c-3.91,23.63-20.53,36.67-42.69,36.67"/>
  </g>
  <rect class="cls-2" x="1874.44" y="250.58" width="22.65" height="116.04"/>
  <path class="cls-2" d="M1967.96,284.81l-14.66,42.21h28.83l-14.17-42.21ZM1995.01,366.63l-6.85-20.53h-41.23l-7.01,20.53h-23.61l42.21-116.04h17.76l42.37,116.04h-23.63Z"/>
  <path class="cls-2" d="M2074.98,367.6c-12.38,0-22.8-4.25-31.28-12.72-5.08-5.03-8.16-10.9-9.47-17.42-1.29-6.53-1.96-16.15-1.96-28.85s.67-22.33,1.96-28.85c1.31-6.68,4.39-12.38,9.47-17.44,8.47-8.47,18.89-12.71,31.28-12.71,22.33,0,38.78,13.04,42.69,36.67h-22.97c-2.45-9.94-8.66-16.45-19.55-16.45-6.2,0-11.09,1.95-14.52,6.01-4.72,5.06-5.7,10.28-5.7,32.77s.98,27.71,5.7,32.74c3.43,4.07,8.32,6.04,14.52,6.04,10.89,0,17.1-6.53,19.55-16.46h22.97c-3.91,23.63-20.53,36.67-42.69,36.67"/>
  <polygon class="cls-2" points="2142.07 250.59 2142.07 366.62 2218.52 366.62 2218.52 346.42 2164.72 346.42 2164.72 318.22 2210.51 318.22 2210.51 298.01 2164.72 298.01 2164.72 270.8 2218.52 270.8 2218.52 250.59 2142.07 250.59"/>
  <path class="cls-2" d="M712.43,482.76c-8.13,0-13.31-2.25-18.34-7.26l2.94-2.94c4.95,4.95,9.06,6.51,15.62,6.51,8.74,0,14.16-4.19,14.16-11.39,0-3.33-.92-5.96-3.01-7.72-2.09-1.63-3.41-2.33-7.96-2.94l-6.44-1.01c-4.15-.63-7.42-1.95-9.81-4.02-2.86-2.39-4.34-5.79-4.34-10.14,0-9.27,6.5-15.08,17.09-15.08,6.81,0,11.15,1.86,15.87,5.96l-2.7,2.72c-3.26-3.1-6.88-5.1-13.38-5.1-8.06,0-12.78,4.32-12.78,11.35,0,3.2.92,5.59,2.86,7.21,1.95,1.62,5.12,2.87,8.22,3.4l5.94.94c5.19.7,7.59,1.71,9.84,3.63,3.01,2.47,4.79,6.27,4.79,10.69,0,9.35-7.04,15.23-18.57,15.23"/>
  <polygon class="cls-2" points="755.64 427.23 759.82 427.23 759.82 478.59 789.05 478.59 789.05 482.3 755.64 482.3 755.64 427.23"/>
  <path class="cls-2" d="M828.62,482.76c-11.06,0-18.88-7.58-18.88-18.33v-37.21h4.18v36.65c0,9.14,5.8,15.18,14.7,15.18s14.69-6.04,14.69-15.18v-36.65h4.18v37.21c0,10.75-7.81,18.33-18.87,18.33"/>
  <polygon class="cls-2" points="879.47 434.42 879.47 482.3 875.31 482.3 875.31 427.24 879.47 427.24 911.26 474.95 911.26 427.24 915.46 427.24 915.46 482.3 911.26 482.3 879.47 434.42"/>
  <path class="cls-2" d="M960.73,482.76c-5.25,0-10.12-2-13.78-5.64-5.02-5.02-5.1-9.97-5.1-22.35s.09-17.33,5.1-22.35c3.65-3.64,8.53-5.66,13.78-5.66,9.91,0,16.88,6.18,18.72,16.09h-4.27c-1.62-7.66-7.02-12.37-14.46-12.37-3.94,0-7.65,1.46-10.44,4.25-3.95,3.94-4.27,8.27-4.27,20.03s.31,16.07,4.27,20.02c2.79,2.8,6.5,4.28,10.44,4.28,7.44,0,12.99-4.72,14.63-12.38h4.09c-1.85,9.89-8.97,16.08-18.72,16.08"/>
  <polygon class="cls-2" points="1005.39 427.23 1038.8 427.23 1038.8 430.94 1009.57 430.94 1009.57 452.67 1034.48 452.67 1034.48 456.4 1009.57 456.4 1009.57 478.59 1038.8 478.59 1038.8 482.3 1005.39 482.3 1005.39 427.23"/>
  <path class="cls-2" d="M1092.55,454.36c0-3.07,1.09-5.69,3.27-7.89,2.18-2.18,4.78-3.28,7.86-3.28s5.74,1.11,7.92,3.27c2.2,2.18,3.28,4.82,3.28,7.9s-1.08,5.76-3.28,7.92c-2.18,2.18-4.81,3.26-7.88,3.26s-5.73-1.08-7.9-3.26c-2.18-2.16-3.27-4.82-3.27-7.92"/>
  <polygon class="cls-2" points="1172.79 427.23 1206.2 427.23 1206.2 430.94 1176.97 430.94 1176.97 452.67 1201.88 452.67 1201.88 456.4 1176.97 456.4 1176.97 478.59 1206.2 478.59 1206.2 482.3 1172.79 482.3 1172.79 427.23"/>
  <polygon class="cls-2" points="1234.79 434.42 1234.79 482.3 1230.62 482.3 1230.62 427.24 1234.79 427.24 1266.58 474.95 1266.58 427.24 1270.74 427.24 1270.74 482.3 1266.58 482.3 1234.79 434.42"/>
  <polygon class="cls-2" points="1299.34 427.23 1332.75 427.23 1332.75 430.94 1303.52 430.94 1303.52 452.67 1328.43 452.67 1328.43 456.4 1303.52 456.4 1303.52 478.59 1332.75 478.59 1332.75 482.3 1299.34 482.3 1299.34 427.23"/>
  <g>
    <path class="cls-2" d="M1377.58,430.94h-16.26v22.29h16.26c7.11,0,12.14-3.48,12.14-11.15s-5.03-11.15-12.14-11.15M1376.49,456.93h-15.17v25.38h-4.17v-55.08h20.96c8.99,0,15.78,5.19,15.78,14.77,0,8.27-4.95,13.53-12.68,14.84l13.31,25.46h-4.88l-13.15-25.38Z"/>
    <path class="cls-2" d="M1450.71,476.42c-3.63,4.02-8.9,6.34-14.46,6.34-5.26,0-10.14-2-13.76-5.64-5.03-5.03-5.12-9.97-5.12-22.35s.09-17.33,5.12-22.35c3.63-3.64,8.5-5.66,13.76-5.66,9.58,0,17.17,6.43,18.79,16.09h-4.18c-1.63-7.66-7.19-12.37-14.61-12.37-3.95,0-7.66,1.45-10.44,4.24-3.95,3.95-4.28,8.29-4.28,20.05s.33,16.08,4.28,20.03c2.77,2.79,6.48,4.27,10.44,4.27,4.34,0,8.59-1.88,11.44-5.36,2.4-3.01,3.31-6.17,3.31-10.9v-4.95h-14.76v-3.71h18.95v8.97c0,5.81-1.17,9.82-4.49,13.31"/>
  </g>
  <rect class="cls-2" x="1481.46" y="427.22" width="4.17" height="55.08"/>
  <polygon class="cls-2" points="1514.22 427.23 1547.63 427.23 1547.63 430.94 1518.4 430.94 1518.4 452.67 1543.31 452.67 1543.31 456.4 1518.4 456.4 1518.4 478.59 1547.63 478.59 1547.63 482.3 1514.22 482.3 1514.22 427.23"/>
  <path class="cls-2" d="M1601.38,454.36c0-3.07,1.09-5.69,3.27-7.89,2.18-2.18,4.78-3.28,7.86-3.28s5.74,1.11,7.92,3.27c2.22,2.18,3.28,4.82,3.28,7.9s-1.07,5.76-3.28,7.92c-2.18,2.18-4.81,3.26-7.88,3.26s-5.73-1.08-7.9-3.26c-2.18-2.16-3.27-4.82-3.27-7.92"/>
  <path class="cls-2" d="M1684.87,465.21h23.05l-11.53-32.4-11.52,32.4ZM1709.24,468.91h-25.69l-4.79,13.39h-4.49l20.27-55.08h3.71l20.26,55.08h-4.46l-4.81-13.39Z"/>
  <polygon class="cls-2" points="1757.07 451.43 1743.92 467.39 1743.92 482.3 1739.76 482.3 1739.76 427.22 1743.92 427.22 1743.92 461.66 1771.85 427.22 1776.88 427.22 1759.86 448.26 1779.74 482.3 1774.79 482.3 1757.07 451.43"/>
  <path class="cls-2" d="M1819.3,482.76c-11.06,0-18.88-7.58-18.88-18.33v-37.21h4.18v36.65c0,9.14,5.8,15.18,14.7,15.18s14.7-6.04,14.7-15.18v-36.65h4.17v37.21c0,10.75-7.81,18.33-18.87,18.33"/>
  <polygon class="cls-2" points="1908.06 436.89 1891.35 474.57 1887.19 474.57 1870.17 436.89 1870.17 482.29 1865.99 482.29 1865.99 427.24 1870.17 427.24 1889.35 469.7 1908.06 427.24 1912.24 427.24 1912.24 482.29 1908.06 482.29 1908.06 436.89"/>
  <path class="cls-2" d="M1958.91,482.76c-11.06,0-18.88-7.58-18.88-18.33v-37.21h4.18v36.65c0,9.14,5.8,15.18,14.7,15.18s14.7-6.04,14.7-15.18v-36.65h4.17v37.21c0,10.75-7.81,18.33-18.87,18.33"/>
  <polygon class="cls-2" points="2005.59 427.23 2009.77 427.23 2009.77 478.59 2039 478.59 2039 482.3 2005.59 482.3 2005.59 427.23"/>
  <path class="cls-2" d="M2064.65,465.21h23.05l-11.53-32.4-11.52,32.4ZM2089.02,468.91h-25.69l-4.79,13.39h-4.49l20.26-55.08h3.72l20.26,55.08h-4.46l-4.81-13.39Z"/>
  <path class="cls-2" d="M2135.47,482.76c-5.26,0-10.12-2-13.78-5.64-5.02-5.02-5.09-9.97-5.09-22.35s.07-17.33,5.09-22.35c3.65-3.64,8.52-5.66,13.78-5.66,9.91,0,16.86,6.18,18.72,16.09h-4.27c-1.62-7.66-7.04-12.37-14.46-12.37-3.94,0-7.65,1.46-10.45,4.25-3.94,3.94-4.25,8.27-4.25,20.03s.31,16.07,4.25,20.02c2.8,2.8,6.51,4.28,10.45,4.28,7.42,0,12.99-4.72,14.61-12.38h4.11c-1.86,9.89-8.97,16.08-18.72,16.08"/>
  <polygon class="cls-2" points="2180.13 427.23 2213.54 427.23 2213.54 430.94 2184.31 430.94 2184.31 452.67 2209.22 452.67 2209.22 456.4 2184.31 456.4 2184.31 478.59 2213.54 478.59 2213.54 482.3 2180.13 482.3 2180.13 427.23"/>
</svg>