<svg xmlns="http://www.w3.org/2000/svg" width="76.753" height="15" viewBox="0 0 76.753 15">
  <g id="Bank_iD_logo_RGB" data-name="Bank iD_logo_RGB" transform="translate(-23.858 -24.085)">
    <path id="Path_25202" data-name="Path 25202" d="M89.519,26.937h3.486c2.746,0,4.12,2.282,4.12,4.542,0,2.282-1.373,4.542-4.12,4.542H89.519V34.965H91V27.993H89.519ZM87.512,38.874h5.6a7.147,7.147,0,0,0,7.5-7.394,7.147,7.147,0,0,0-7.5-7.394h-5.6Zm-5.7-11.937h3.169V24.085H81.808Zm0,1.056h3.169v10.88H81.808ZM68.625,38.874V35.24h1.056l3.169,3.634H76V37.817l-3.993-4.479,3.887-4.289V27.993H72.871l-3.19,3.634v1.458H68.625v-9H65.456V38.874Zm-8.768,0h3.169V32.282a4.275,4.275,0,0,0-4.2-4.5,4.5,4.5,0,0,0-2.768.993V30H55V27.993H52.252v10.88h3.169V32.852a2.244,2.244,0,0,1,2.3-2.324,2.071,2.071,0,0,1,2.134,2.218v6.127ZM43.844,30.486a2.69,2.69,0,0,1,2.6,2.937,2.69,2.69,0,0,1-2.6,2.937,2.753,2.753,0,0,1-2.683-2.937,2.753,2.753,0,0,1,2.683-2.937m-5.958,2.937c0,3.507,2.514,5.662,5.007,5.662a4.082,4.082,0,0,0,2.81-1.1v-1.12h1.056v2.007h2.958V27.993H46.759V30H45.7v-1.12a4.082,4.082,0,0,0-2.81-1.1c-2.493,0-5.007,2.155-5.007,5.641m-10.753-6.7h3.845a1.693,1.693,0,1,1,0,3.38H28.189v2.747h3.063a1.693,1.693,0,1,1,0,3.38h-4.12V26.726ZM35.076,31.9H33.344V30.845h1.521a3.626,3.626,0,0,0,1.31-2.81c0-1.965-1.542-3.951-4.754-3.951H23.858V38.874h7.859c3.232,0,4.8-2.049,4.8-4.056A3.611,3.611,0,0,0,35.076,31.9" transform="translate(0 0)"/>
  </g>
</svg>
