<svg xmlns="http://www.w3.org/2000/svg" width="60" height="60" viewBox="0 0 60 60">
  <g id="Group_10669" data-name="Group 10669" transform="translate(-376 -5499)">
    <g id="Group_5945" data-name="Group 5945" transform="translate(395 5520.578)">
      <path id="Path_12066" data-name="Path 12066" d="M394.478,3414.842a9.317,9.317,0,0,1-2.92,1.1,4.62,4.62,0,0,0-3.355-1.43,4.562,4.562,0,0,0-4.6,4.525,4.506,4.506,0,0,0,.118,1.03,13.122,13.122,0,0,1-9.475-4.728,4.481,4.481,0,0,0,1.423,6.041,4.623,4.623,0,0,1-2.082-.565v.057a4.549,4.549,0,0,0,3.688,4.438,4.686,4.686,0,0,1-2.077.078,4.6,4.6,0,0,0,4.294,3.142,9.318,9.318,0,0,1-5.71,1.938,9.55,9.55,0,0,1-1.1-.063,13.165,13.165,0,0,0,7.047,2.033,12.882,12.882,0,0,0,13.079-12.875c0-.194,0-.391-.012-.585a9.235,9.235,0,0,0,2.293-2.342,9.309,9.309,0,0,1-2.64.712A4.554,4.554,0,0,0,394.478,3414.842Z" transform="translate(-372.69 -3414.512)" fill="#31363a"/>
    </g>
    <g id="Ellipse_1336" data-name="Ellipse 1336" transform="translate(376 5499)" fill="none" stroke="#d1e3ec" stroke-width="1">
      <circle cx="30" cy="30" r="30" stroke="none"/>
      <circle cx="30" cy="30" r="29.5" fill="none"/>
    </g>
  </g>
</svg>
