<svg xmlns="http://www.w3.org/2000/svg" width="30" height="30" viewBox="0 0 30 30">
  <path id="user_1_" data-name="user (1)" d="M25.606,4.393A15,15,0,0,0,4.393,25.607,15,15,0,0,0,25.606,4.393ZM6.51,25.154A8.582,8.582,0,0,1,15,17.6a8.55,8.55,0,0,1,8.49,7.552,13.214,13.214,0,0,1-16.98,0ZM15,15.791a4.556,4.556,0,1,1,4.556-4.556A4.561,4.561,0,0,1,15,15.791Zm10,7.877a10.333,10.333,0,0,0-6.468-7.2,6.314,6.314,0,1,0-7.067,0A10.324,10.324,0,0,0,5,23.667a13.242,13.242,0,1,1,20.007,0Zm0,0" transform="translate(0.001)" fill="#5e6468"/>
</svg>
