<svg xmlns="http://www.w3.org/2000/svg" width="29.137" height="25" viewBox="0 0 29.137 25">
  <g id="private" transform="translate(0 -33.926)">
    <g id="Group_13391" data-name="Group 13391" transform="translate(0 33.926)">
      <path id="Path_24386" data-name="Path 24386" d="M28.939,45.815a27.628,27.628,0,0,0-6.294-5.993l4.106-4.106a1.041,1.041,0,1,0-1.446-1.5l-.026.026-4.486,4.482a13.457,13.457,0,0,0-6.225-1.665c-7.909,0-14.11,8.4-14.37,8.754a1.041,1.041,0,0,0,0,1.224,27.628,27.628,0,0,0,6.294,5.993L2.386,57.137a1.041,1.041,0,0,0,1.446,1.5l.026-.026,4.486-4.482a13.457,13.457,0,0,0,6.225,1.665c7.909,0,14.11-8.4,14.37-8.754A1.04,1.04,0,0,0,28.939,45.815ZM8.006,51.521a25.91,25.91,0,0,1-5.639-5.095c1.532-1.855,6.5-7.284,12.2-7.284a11.015,11.015,0,0,1,4.671,1.145l-1.807,1.807a5.195,5.195,0,0,0-7.2,7.2Zm9.373-6.432a3.071,3.071,0,0,1,.312,1.337,3.122,3.122,0,0,1-3.122,3.122,3.071,3.071,0,0,1-1.337-.312Zm-5.619,2.674a3.071,3.071,0,0,1-.312-1.337A3.122,3.122,0,0,1,14.569,43.3a3.071,3.071,0,0,1,1.337.312Zm2.81,5.947A11.015,11.015,0,0,1,9.9,52.566L11.7,50.759a5.195,5.195,0,0,0,7.2-7.2l2.227-2.227a25.912,25.912,0,0,1,5.639,5.095C25.239,48.282,20.271,53.711,14.569,53.711Z" transform="translate(0 -33.926)" fill="#5e6468"/>
    </g>
  </g>
</svg>
