<svg xmlns="http://www.w3.org/2000/svg" width="21.4" height="20" viewBox="0 0 21.4 20">
  <g id="calendar" transform="translate(-1 -2)">
    <path id="Path_25327" data-name="Path 25327" d="M20.067,2h-2V4a.667.667,0,1,1-1.333,0V2H6.067V4A.667.667,0,0,1,4.733,4V2h-2A1.836,1.836,0,0,0,1,4V6.4H22.333V4a2.25,2.25,0,0,0-2.267-2ZM1,7.8V20a1.809,1.809,0,0,0,1.8,2H20.133A2.25,2.25,0,0,0,22.4,20V7.8ZM6.933,19h-1.6a.526.526,0,0,1-.533-.533V16.8a.526.526,0,0,1,.533-.533H7a.526.526,0,0,1,.533.533v1.667a.584.584,0,0,1-.6.533Zm0-6h-1.6a.526.526,0,0,1-.533-.533V10.8a.526.526,0,0,1,.533-.533H7a.526.526,0,0,1,.533.533v1.667a.584.584,0,0,1-.6.533Zm5.333,6H10.6a.526.526,0,0,1-.533-.533V16.8a.526.526,0,0,1,.533-.533h1.667a.526.526,0,0,1,.533.533v1.667A.491.491,0,0,1,12.267,19Zm0-6H10.6a.526.526,0,0,1-.533-.533V10.8a.526.526,0,0,1,.533-.533h1.667a.526.526,0,0,1,.533.533v1.667A.491.491,0,0,1,12.267,13ZM17.6,19H15.933a.526.526,0,0,1-.533-.533V16.8a.526.526,0,0,1,.533-.533H17.6a.526.526,0,0,1,.533.533v1.667A.491.491,0,0,1,17.6,19Zm0-6H15.933a.526.526,0,0,1-.533-.533V10.8a.526.526,0,0,1,.533-.533H17.6a.526.526,0,0,1,.533.533v1.667A.491.491,0,0,1,17.6,13Z" fill="#5e6468"/>
  </g>
</svg>
