<svg xmlns="http://www.w3.org/2000/svg" width="35.004" height="35.004" viewBox="0 0 35.004 35.004">
  <g id="Group_20678" data-name="Group 20678" transform="translate(-390 -1422)">
    <path id="Path_24382" data-name="Path 24382" d="M28.52,36.254H8.983A7.743,7.743,0,0,1,1.25,28.52V8.983A7.743,7.743,0,0,1,8.983,1.25H28.52a7.743,7.743,0,0,1,7.733,7.733V28.52a7.743,7.743,0,0,1-7.733,7.733ZM8.983,3.692A5.3,5.3,0,0,0,3.692,8.983V28.52a5.3,5.3,0,0,0,5.291,5.291H28.52a5.3,5.3,0,0,0,5.291-5.291V8.983A5.3,5.3,0,0,0,28.52,3.692Z" transform="translate(388.75 1420.75)" fill="#f2940d"/>
    <line id="Line_412" data-name="Line 412" x2="17" transform="translate(399 1440)" fill="none" stroke="#f2940d" stroke-linecap="round" stroke-width="2.5"/>
  </g>
</svg>
