<svg id="Group_11213" data-name="Group 11213" xmlns="http://www.w3.org/2000/svg" xmlns:xlink="http://www.w3.org/1999/xlink" width="14" height="14" viewBox="0 0 14 14">
  <defs>
    <clipPath id="clip-path">
      <rect id="Rectangle_8035" data-name="Rectangle 8035" width="14" height="14" fill="#5e6468"/>
    </clipPath>
  </defs>
  <g id="Group_11211" data-name="Group 11211" clip-path="url(#clip-path)">
    <path id="Path_24315" data-name="Path 24315" d="M298.667,151.124v1.3a1.791,1.791,0,0,0,1.791,1.791h1.3a1.791,1.791,0,0,0,1.791-1.791v-1.3a1.791,1.791,0,0,0-1.791-1.791h-1.3a1.791,1.791,0,0,0-1.791,1.791m.977,0a.814.814,0,0,1,.814-.814h1.3a.814.814,0,0,1,.814.814v1.3a.814.814,0,0,1-.814.814h-1.3a.814.814,0,0,1-.814-.814Z" transform="translate(-289.551 -144.775)" fill="#5e6468" fill-rule="evenodd"/>
    <path id="Path_24316" data-name="Path 24316" d="M0,1.791v1.3A1.791,1.791,0,0,0,1.791,4.884h1.3A1.791,1.791,0,0,0,4.884,3.093v-1.3A1.791,1.791,0,0,0,3.093,0h-1.3A1.791,1.791,0,0,0,0,1.791m.977,0A.814.814,0,0,1,1.791.977h1.3a.814.814,0,0,1,.814.814v1.3a.814.814,0,0,1-.814.814h-1.3a.814.814,0,0,1-.814-.814Z" fill="#5e6468" fill-rule="evenodd"/>
    <path id="Path_24317" data-name="Path 24317" d="M0,300.458v1.3a1.791,1.791,0,0,0,1.791,1.791h1.3a1.791,1.791,0,0,0,1.791-1.791v-1.3a1.791,1.791,0,0,0-1.791-1.791h-1.3A1.791,1.791,0,0,0,0,300.458m.977,0a.814.814,0,0,1,.814-.814h1.3a.814.814,0,0,1,.814.814v1.3a.814.814,0,0,1-.814.814h-1.3a.814.814,0,0,1-.814-.814Z" transform="translate(0 -289.551)" fill="#5e6468" fill-rule="evenodd"/>
    <path id="Path_24318" data-name="Path 24318" d="M64.463,216.915h.025l.021,0a.5.5,0,0,0,.468-.494v-.643a1.465,1.465,0,0,1,1.465-1.465h5.209a.488.488,0,1,0,0-.977H66.442A2.441,2.441,0,0,0,64,215.776v.651a.453.453,0,0,0,.01.1.427.427,0,0,0,.073.174A.487.487,0,0,0,64.463,216.915Z" transform="translate(-62.047 -206.822)" fill="#5e6468" fill-rule="evenodd"/>
    <path id="Path_24319" data-name="Path 24319" d="M135.626,67.581h.025l.021,0a.5.5,0,0,0,.468-.494v-.643A2.441,2.441,0,0,0,133.7,64h-5.209a.488.488,0,0,0,0,.977H133.7a1.465,1.465,0,0,1,1.465,1.465v.651a.453.453,0,0,0,.01.1.427.427,0,0,0,.073.174.487.487,0,0,0,.38.215" transform="translate(-124.093 -62.047)" fill="#5e6468" fill-rule="evenodd"/>
    <path id="Path_24320" data-name="Path 24320" d="M128.488,322.285h4.558a.488.488,0,0,0,.345-.833l-1.3-1.3a.488.488,0,1,0-.69.69l.468.469h-3.379a.488.488,0,0,0,0,.977Z" transform="translate(-124.093 -310.238)" fill="#5e6468" fill-rule="evenodd"/>
    <path id="Path_24321" data-name="Path 24321" d="M236.118,362.815l-1.3,1.3a.488.488,0,0,0,.69.69l1.3-1.3a.488.488,0,1,0-.69-.69Z" transform="translate(-227.51 -351.602)" fill="#5e6468" fill-rule="evenodd"/>
  </g>
</svg>
