<svg id="clock" xmlns="http://www.w3.org/2000/svg" width="14.996" height="14.996" viewBox="0 0 14.996 14.996">
  <g id="Group_11118" data-name="Group 11118" transform="translate(6.917 3.479)">
    <g id="Group_11117" data-name="Group 11117">
      <path id="Path_24083" data-name="Path 24083" d="M239.421,124.122l-2.091-1.568V119.36a.581.581,0,0,0-1.162,0v3.485a.58.58,0,0,0,.232.465l2.323,1.742a.581.581,0,0,0,.7-.929Z" transform="translate(-236.169 -118.779)" fill="#5e6468"/>
    </g>
  </g>
  <g id="Group_11120" data-name="Group 11120">
    <g id="Group_11119" data-name="Group 11119">
      <path id="Path_24084" data-name="Path 24084" d="M7.5,0A7.5,7.5,0,1,0,15,7.5,7.506,7.506,0,0,0,7.5,0Zm0,13.835A6.336,6.336,0,1,1,13.835,7.5,6.344,6.344,0,0,1,7.5,13.835Z" fill="#5e6468"/>
    </g>
  </g>
</svg>
