<svg id="Group_11124" data-name="Group 11124" xmlns="http://www.w3.org/2000/svg" xmlns:xlink="http://www.w3.org/1999/xlink" width="14.969" height="14.995" viewBox="0 0 14.969 14.995">
  <defs>
    <clipPath id="clip-path">
      <rect id="Rectangle_7994" data-name="Rectangle 7994" width="14.969" height="14.995" fill="#5e6468"/>
    </clipPath>
  </defs>
  <g id="Group_11123" data-name="Group 11123" clip-path="url(#clip-path)">
    <path id="Path_24086" data-name="Path 24086" d="M14.583,12.746,9.862,8a1.317,1.317,0,0,0-.621-1.758l.579-.579a1.318,1.318,0,0,0,1.385-2.17L8.1.386A1.318,1.318,0,0,0,6.035,1.992L1.993,6.034A1.318,1.318,0,0,0,.386,8.1l3.107,3.107a1.317,1.317,0,0,0,1.864,0h0a1.32,1.32,0,0,0,.305-1.384l.58-.58A1.317,1.317,0,0,0,8,9.863l4.72,4.747a1.318,1.318,0,0,0,1.865-1.863M6.857,1.007a.44.44,0,0,1,.621,0l3.106,3.107a.439.439,0,0,1-.621.621L6.857,1.628a.44.44,0,0,1,0-.621M4.735,10.584h0a.439.439,0,0,1-.621,0L1.008,7.477a.439.439,0,0,1,.621-.621L4.735,9.962a.44.44,0,0,1,0,.621m.393-1.471L2.643,6.627,6.628,2.642,9.113,5.127,5.128,9.112m2.615-.13h0a.439.439,0,0,1-.621-.621L8.363,7.12a.439.439,0,0,1,.621.621Zm.93.312.621-.621,3.118,3.135-.621.621Zm5.288,4.693a.44.44,0,0,1-.62,0l-.93-.935.621-.621.929.935a.439.439,0,0,1,0,.621" transform="translate(0 0)" fill="#5e6468"/>
    <path id="Path_24087" data-name="Path 24087" d="M9.294,423.754H8.81A2.2,2.2,0,0,0,6.658,422H3.143a2.2,2.2,0,0,0-2.152,1.757H.507a.439.439,0,1,0,0,.879H9.294a.439.439,0,0,0,0-.879m-7.393,0a1.32,1.32,0,0,1,1.243-.879H6.658a1.32,1.32,0,0,1,1.243.879Z" transform="translate(-0.066 -409.638)" fill="#5e6468"/>
  </g>
</svg>
