<svg xmlns="http://www.w3.org/2000/svg" width="60" height="60" viewBox="0 0 60 60">
  <g id="Group_10667" data-name="Group 10667" transform="translate(-256 -5500)">
    <g id="Group_5946" data-name="Group 5946" transform="translate(275 5518.127)">
      <path id="Path_12067" data-name="Path 12067" d="M114.968,3776.342h-9.193A6.784,6.784,0,0,0,99,3783.119v9.193a6.783,6.783,0,0,0,6.776,6.775h9.193a6.783,6.783,0,0,0,6.776-6.775v-9.193A6.784,6.784,0,0,0,114.968,3776.342Zm4.488,15.97a4.488,4.488,0,0,1-4.488,4.488h-9.193a4.488,4.488,0,0,1-4.488-4.488v-9.193a4.488,4.488,0,0,1,4.488-4.488h9.193a4.488,4.488,0,0,1,4.488,4.488v9.193Z" transform="translate(-98.999 -3776.342)" fill="#31363a"/>
      <path id="Path_12068" data-name="Path 12068" d="M113.226,3784.687a5.883,5.883,0,1,0,5.882,5.882A5.889,5.889,0,0,0,113.226,3784.687Zm0,9.477a3.594,3.594,0,1,1,3.594-3.594A3.594,3.594,0,0,1,113.226,3794.164Z" transform="translate(-101.853 -3779.198)" fill="#31363a"/>
      <path id="Path_12069" data-name="Path 12069" d="M124.51,3782.612a1.409,1.409,0,1,1-1.409,1.409A1.41,1.41,0,0,1,124.51,3782.612Z" transform="translate(-107.244 -3778.488)" fill="#31363a"/>
    </g>
    <g id="Ellipse_1338" data-name="Ellipse 1338" transform="translate(256 5500)" fill="none" stroke="#d1e3ec" stroke-width="1">
      <circle cx="30" cy="30" r="30" stroke="none"/>
      <circle cx="30" cy="30" r="29.5" fill="none"/>
    </g>
  </g>
</svg>
