<svg xmlns="http://www.w3.org/2000/svg" width="35.004" height="35.004" viewBox="0 0 35.004 35.004">
  <g id="Group_20677" data-name="Group 20677" transform="translate(-390 -882)">
    <path id="Path_24376" data-name="Path 24376" d="M28.52,36.254H8.983A7.743,7.743,0,0,1,1.25,28.52V8.983A7.743,7.743,0,0,1,8.983,1.25H28.52a7.743,7.743,0,0,1,7.733,7.733V28.52a7.743,7.743,0,0,1-7.733,7.733ZM8.983,3.692A5.3,5.3,0,0,0,3.692,8.983V28.52a5.3,5.3,0,0,0,5.291,5.291H28.52a5.3,5.3,0,0,0,5.291-5.291V8.983A5.3,5.3,0,0,0,28.52,3.692Z" transform="translate(388.75 880.75)" fill="#7ec447"/>
    <path id="Path_24377" data-name="Path 24377" d="M12.8,19.707a1.218,1.218,0,0,1-.863-.358L7.6,15.007a1.221,1.221,0,0,1,1.726-1.726L12.8,16.759l7.815-7.815a1.221,1.221,0,1,1,1.726,1.728l-8.673,8.682a1.218,1.218,0,0,1-.868.353Z" transform="translate(392.531 885.357)" fill="#7ec447"/>
  </g>
</svg>
