<svg xmlns="http://www.w3.org/2000/svg" width="13.117" height="15.004" viewBox="0 0 13.117 15.004">
    <g id="Layer_2_00000097469747894302416050000002917915783155835571_" transform="translate(-32.325 0.15)">
        <g id="upload_arrow" transform="translate(32.325 -0.15)">
            <path id="Path_25337" data-name="Path 25337"
                  d="M38.863,326.01H35.21a2.786,2.786,0,0,1-2.883-2.871q0-.875,0-1.749a.93.93,0,1,1,1.857-.006c0,.592,0,1.187,0,1.781a.909.909,0,0,0,1,.984h7.4a.91.91,0,0,0,1-.984c0-.592,0-1.186,0-1.781a.928.928,0,1,1,1.852.006,19.572,19.572,0,0,1-.059,2.273,2.706,2.706,0,0,1-2.731,2.344C41.383,326.016,40.123,326.01,38.863,326.01Z"
                  transform="translate(-32.325 -311.008)" fill="#0376c8"/>
            <path id="Path_25338" data-name="Path 25338"
                  d="M99.985,3.054c-.141.132-.226.205-.3.281-.595.6-1.184,1.2-1.781,1.8a.945.945,0,1,1-1.345-1.315Q98.377,1.99,100.205.171a.944.944,0,0,1,1.418,0Q103.464,2,105.291,3.839a.944.944,0,1,1-1.345,1.318c-.606-.6-1.2-1.216-1.8-1.822-.076-.079-.161-.152-.284-.267-.009.167-.018.275-.018.387,0,1.916,0,3.835,0,5.751a.918.918,0,0,1-1.292.891.9.9,0,0,1-.563-.92q0-2.843,0-5.69Z"
                  transform="translate(-94.361 0.15)" fill="#0376c8"/>
        </g>
    </g>
</svg>
