<?xml version="1.0" encoding="UTF-8"?>
<svg id="Vrstva_1" data-name="Vrstva 1" xmlns="http://www.w3.org/2000/svg" version="1.1" viewBox="0 0 107 191.7">
  <defs>
    <style>
      .cls-1 {
        fill: #106999;
      }

      .cls-1, .cls-2 {
        stroke-width: 0px;
      }

      .cls-2 {
        fill: #93367e;
      }
    </style>
  </defs>
  <path class="cls-1" d="M.8,34.8c-.6,0-.8-.3-.8-1V1.4C0,.7.2.4.9.4h10.6c8.7,0,11.6,3.7,11.6,7.8v18.8c0,4.2-2.9,7.8-11.6,7.8H.8ZM4.9,4.5v26.1h6.6c4.6,0,6.6-1.7,6.6-4.4V9c0-2.7-2-4.4-6.6-4.4h-6.6ZM27.7,7.8c0-4.2,2.8-7.8,11.5-7.8s11.6,3.6,11.6,7.8v19.6c0,4.2-2.8,7.8-11.6,7.8s-11.5-3.6-11.5-7.8V7.8ZM45.8,8.6c0-2.7-2-4.4-6.6-4.4s-6.5,1.6-6.5,4.4v18c0,2.7,2,4.4,6.5,4.4s6.6-1.7,6.6-4.4V8.6ZM60.7,1.4c0-.7-.3-1-.9-1h-3.1c-.7,0-1,.3-1,1v26c0,4.2,2.8,7.8,11.5,7.8s11.6-3.7,11.6-7.8V1.4c0-.7-.2-1-.9-1h-3c-.7,0-.9.3-.9,1v25.2c0,2.7-2.1,4.4-6.6,4.4s-6.5-1.7-6.5-4.4V1.4ZM50,68.5c0-.7-.3-1-.9-1h-2.9c-.7,0-1,.3-1,1v2.3c0,2.7-1.8,4.4-6.3,4.4s-6.3-1.6-6.3-4.4v-18c0-2.7,1.7-4.4,6.3-4.4s6.3,1.7,6.3,4.4v1.7c0,.7.2,1,1,1h2.9c.7,0,.9-.3.9-1v-2.5c0-4.2-2.5-7.8-11.2-7.8s-11.2,3.6-11.2,7.8v19.7c0,4.2,2.5,7.8,11.2,7.8s11.2-3.7,11.2-7.8v-3.2ZM60.9,45.6c0-.7-.2-1-.9-1h-3.1c-.7,0-.9.3-.9,1v32.4c0,.7.2,1,.9,1h3.1c.7,0,.9-.3.9-1v-14.9h13.2v14.9c0,.7.2,1,.9,1h3.1c.7,0,.9-.3.9-1v-32.4c0-.7-.3-1-.9-1h-3.1c-.7,0-.9.3-.9,1v13.3h-13.2v-13.3ZM95.9,44.6c.6,0,1.1.4,1.2,1l9.8,32.6c.2.6,0,1-.8,1h-3.2c-.6,0-1.1-.4-1.1-1,0,0,0,0,0,0l-2.3-7.9h-10.7l-2.3,7.9c0,.6-.5,1-1.1,1,0,0,0,0,0,0h-3c-.7,0-.9-.3-.7-1l9.8-32.5c0-.6.6-1,1.2-1h3.2ZM95.5,57.1c-.6-2.4-1.1-4.9-1.4-7.4-.1.5-.8,5.1-1.4,7.3l-2.9,9.3h8.5l-2.8-9.2Z"/>
  <path class="cls-2" d="M25.8,98.1c0-2.7-1.7-4.3-6.1-4.3s-6.2,1.6-6.2,4.3v1c0,1.6,1,3,2.6,3.4l9.2,3.5c3,1.2,5.6,3.1,5.6,6.9v4.2c0,4.2-2.9,7.8-11.4,7.8s-11.4-3.6-11.4-7.8v-2.9c0-.7.3-1,1-1h3c.7,0,.9.3.9,1v2.3c0,2.7,1.9,4.3,6.5,4.3s6.5-1.6,6.5-4.3v-2.4c0-2.5-2.3-3.4-4.3-4.2l-8.6-3.3c-2.6-1-4.4-3.5-4.5-6.3v-2.9c0-4.2,2.6-7.8,10.9-7.8s11,3.7,11,7.8v2.2c0,.7-.3,1-.9,1h-3c-.7,0-.9-.3-.9-1v-1.6ZM19.5,88.3l2.1-3.3c.2-.5.7-.9,1.3-1h2.3c.7,0,.9.4.5,1l-3.8,5.4c-.3.5-.9.9-1.5.9h-1.8c-.6,0-1.2-.4-1.5-1l-3.8-5.3c-.4-.6-.2-1,.5-1h2.3c.6,0,1.1.4,1.4,1l2.1,3.4ZM42.4,91.1c0-.7-.2-1-.9-1h-3.1c-.7,0-.9.3-.9,1v32.4c0,.7.2,1,.9,1h3.1c.7,0,.9-.3.9-1v-32.4ZM60.6,107.1l11.8-16c.4-.5.2-1-.5-1h-3.3c-.7,0-1.2.4-1.6,1l-10.6,14.5h-1.2v-14.5c0-.7-.2-1-1-1h-3.1c-.7,0-.9.3-.9,1v32.6c0,.7.3,1,.9,1h3.1c.7,0,1-.3,1-1v-14.4h1.3l11.4,14.4c.3.6.8,1,1.5,1h4c.7,0,.8-.5.5-1l-13.2-16.5ZM27.6,141.7c0-4.2,2.8-7.8,11.5-7.8s11.6,3.6,11.6,7.8v19.7c0,4.2-2.8,7.8-11.6,7.8s-11.5-3.6-11.5-7.8v-19.7ZM45.7,142.5c0-2.7-2-4.4-6.6-4.4s-6.5,1.7-6.5,4.4v18c0,2.7,2,4.4,6.5,4.4s6.6-1.7,6.6-4.4v-18ZM61.8,135.3c0-.7-.2-1-.9-1h-3.1c-.7,0-1,.3-1,1v32.4c0,.7.2,1,.8,1h17.2c.7,0,1-.2,1-1v-2.3c0-.7-.3-.9-1-.9h-13v-29.2ZM94,134.3c.6,0,1.1.4,1.2,1l9.9,32.5c.2.6,0,1-.8,1h-3.2c-.6,0-1.1-.4-1.1-1,0,0,0,0,0,0l-2.4-7.9h-10.7l-2.3,7.9c0,.6-.5,1-1.1,1,0,0,0,0,0,0h-2.9c-.7,0-.9-.4-.7-1l9.8-32.6c0-.6.6-1,1.2-1h3.1ZM93.7,146.8c-.6-2.4-1.1-4.9-1.4-7.4-.1.5-.8,5.1-1.4,7.3l-2.9,9.3h8.5l-2.8-9.2Z"/>
  <path class="cls-2" d="M5.6,178.9c.2,0,.4.1.4.4l3.6,11.9c0,.2,0,.4-.3.4h-1.2c-.2,0-.4-.1-.4-.4l-.9-2.9h-3.9l-.9,2.9c0,.2-.2.4-.4.4H.6c-.2,0-.3-.1-.3-.4l3.6-11.9c0-.2.2-.4.4-.4h1.2ZM5.5,183.4c-.2-.9-.4-1.8-.5-2.7,0,.2-.3,1.9-.5,2.7l-1.1,3.4h3.1l-1-3.4ZM12.6,191.5c-.2,0-.3-.1-.3-.4v-11.9c0-.3,0-.4.3-.4h3.8c3.2,0,4.2,1.3,4.2,2.9v6.9c0,1.5-1.1,2.9-4.2,2.9h-3.9ZM14.1,180.4v9.6h2.4c1.7,0,2.4-.6,2.4-1.6v-6.3c0-1-.7-1.6-2.4-1.6h-2.4ZM28.3,191.5c.2,0,.4-.1.5-.4l3.6-11.9c0-.2,0-.4-.3-.4h-1.1c-.2,0-.3.1-.4.4l-2.3,7.8c-.2.7-.5,2.2-.5,2.2,0-.8-.2-1.5-.4-2.3l-2.3-7.7c0-.2-.2-.4-.4-.4h-1.2c-.2,0-.3.1-.3.4l3.6,11.9c0,.2.2.4.5.4h1.2ZM34.7,181.6c0-1.5,1-2.9,4.2-2.9s4.2,1.3,4.2,2.9v7.2c0,1.5-1,2.9-4.2,2.9s-4.2-1.3-4.2-2.9v-7.2ZM41.3,181.9c0-1-.7-1.6-2.4-1.6s-2.4.6-2.4,1.6v6.6c0,1,.7,1.6,2.4,1.6s2.4-.6,2.4-1.6v-6.6ZM50.6,185.1l4.3-5.9c.1-.2,0-.4-.2-.4h-1.2c-.2,0-.4.2-.6.4l-3.9,5.3h-.5v-5.3c0-.2,0-.4-.3-.4h-1.1c-.2,0-.3.1-.3.4v11.9c0,.2,0,.4.3.4h1.1c.3,0,.3-.1.3-.4v-5.3h.5l4.2,5.3c.1.2.3.3.5.4h1.5c.2,0,.3-.2.2-.4l-4.8-6.1ZM62.3,178.9c.2,0,.4.1.4.4l3.6,11.9c0,.2,0,.4-.3.4h-1.2c-.2,0-.3-.1-.4-.4l-.9-2.9h-3.9l-.8,2.9c0,.2-.2.4-.4.4h-1.1c-.2,0-.3-.1-.3-.4l3.6-11.9c0-.2.2-.4.4-.4h1.2ZM62.1,183.4c-.2-.9-.4-1.8-.5-2.7-.1.9-.3,1.8-.5,2.7l-1.1,3.4h3.1l-1-3.4ZM62.6,177.6c0,.1-.3.2-.4.2h-.9c-.2,0-.3,0-.2-.3l1.1-2c0-.2.3-.3.5-.3h1.1c.3,0,.3.1.2.4l-1.4,2.1ZM67,178.9c-.3,0-.4.1-.4.4v.8c0,.3,0,.4.4.4h3v10.7c0,.3,0,.4.3.4h1.1c.2,0,.3-.1.3-.4v-10.7h3c.2,0,.3-.1.3-.4v-.8c0-.3-.1-.4-.3-.4h-7.8ZM79.5,179.2c0-.3,0-.4-.3-.4h-1.2c-.2,0-.3.1-.3.4v11.9c0,.3,0,.4.3.4h1.1c.3,0,.3-.1.3-.4v-11.9Z"/>
</svg>