<svg xmlns="http://www.w3.org/2000/svg" width="161.954" height="141.946" viewBox="0 0 161.954 141.946">
  <g id="gallery" transform="translate(0 -26.576)">
    <g id="Group_13394" data-name="Group 13394" transform="translate(0 26.576)">
      <g id="Group_13393" data-name="Group 13393" transform="translate(0 0)">
        <path id="Path_24387" data-name="Path 24387" d="M190.509,159.668a16.52,16.52,0,1,0,16.52,16.52A16.52,16.52,0,0,0,190.509,159.668Zm0,25.173a8.653,8.653,0,0,1,0-17.307h0a8.653,8.653,0,1,1,0,17.307Z" transform="translate(-108.493 -109.567)" fill="#ebe9e9"/>
        <path id="Path_24388" data-name="Path 24388" d="M147.9,38.916,40.519,26.723a14.748,14.748,0,0,0-11.6,3.343,14.946,14.946,0,0,0-5.7,10.227L21.246,56.42h-6.1C6.5,56.42.005,64.089.005,72.743V153.18a14.947,14.947,0,0,0,14.547,15.336q.3.008.6,0H123.119c8.653,0,16.52-6.687,16.52-15.34v-3.147a19.666,19.666,0,0,0,7.473-3.147,16.325,16.325,0,0,0,5.7-10.62l9.047-79.847A15.931,15.931,0,0,0,147.9,38.916ZM131.773,153.18c0,4.327-4.327,7.473-8.653,7.473H15.149a7.08,7.08,0,0,1-7.285-6.869q-.009-.3.008-.6V138.627l30.484-22.42a9.44,9.44,0,0,1,12.193.59l21.437,18.88A18.488,18.488,0,0,0,83.59,140a17.9,17.9,0,0,0,9.44-2.557l38.743-22.42V153.18Zm0-47.4L88.9,130.76a10.03,10.03,0,0,1-11.6-.983L55.662,110.7a17.5,17.5,0,0,0-21.83-.787l-25.96,18.88V72.743c0-4.327,2.95-8.457,7.277-8.457H123.119a9.047,9.047,0,0,1,8.653,8.457v33.04ZM154,55.358c0,.026,0,.052-.008.078l-9.243,79.847a6.686,6.686,0,0,1-2.557,5.31c-.787.787-2.557,1.18-2.557,1.574V72.743a16.913,16.913,0,0,0-16.52-16.323H29.112l1.77-15.34a9.047,9.047,0,0,1,2.95-5.113,9.046,9.046,0,0,1,5.9-1.574l107.184,12.39A7.867,7.867,0,0,1,154,55.358Z" transform="translate(0 -26.576)" fill="#ebe9e9"/>
      </g>
    </g>
  </g>
</svg>
