<?xml version="1.0" encoding="UTF-8"?>
<svg id="Vrstva_1" data-name="Vrstva 1" xmlns="http://www.w3.org/2000/svg" version="1.1" xmlns:xlink="http://www.w3.org/1999/xlink" viewBox="0 0 513 88">
  <defs>
    <style>
      .cls-1 {
        fill: url(#Nepojmenovaný_přechod_70);
      }

      .cls-1, .cls-2, .cls-3, .cls-4, .cls-5, .cls-6 {
        stroke-width: 0px;
      }

      .cls-2 {
        fill: url(#Nepojmenovaný_přechod_55);
      }

      .cls-3 {
        fill: url(#Nepojmenovaný_přechod_70-2);
      }

      .cls-4 {
        fill: url(#Nepojmenovaný_přechod_55-2);
      }

      .cls-5 {
        fill: #1a2664;
      }

      .cls-6 {
        fill: #f1930d;
      }
    </style>
    <linearGradient id="Nepojmenovaný_přechod_70" data-name="Nepojmenovaný přechod 70" x1="41.96" y1="86.56" x2="104.43" y2="43.64" gradientUnits="userSpaceOnUse">
      <stop offset="0" stop-color="#f1930d"/>
      <stop offset="1" stop-color="#f9c504"/>
    </linearGradient>
    <linearGradient id="Nepojmenovaný_přechod_55" data-name="Nepojmenovaný přechod 55" x1="-1254.89" y1="1309.08" x2="-1192.42" y2="1266.15" gradientTransform="translate(-1187.74 1309.98) rotate(-180)" gradientUnits="userSpaceOnUse">
      <stop offset="0" stop-color="#096cb4"/>
      <stop offset="1" stop-color="#11a3de"/>
    </linearGradient>
    <linearGradient id="Nepojmenovaný_přechod_55-2" data-name="Nepojmenovaný přechod 55" x1="82.36" y1="43.81" x2="52.23" y2=".3" gradientTransform="matrix(1,0,0,1,0,0)" xlink:href="#Nepojmenovaný_přechod_55"/>
    <linearGradient id="Nepojmenovaný_přechod_70-2" data-name="Nepojmenovaný přechod 70" x1="27.23" y1="43.29" x2="56.2" y2="87.5" xlink:href="#Nepojmenovaný_přechod_70"/>
  </defs>
  <g>
    <path class="cls-5" d="M124.88,65.21V25.23h18.47c1.98,0,3.96.23,5.92.68,1.96.45,3.72,1.2,5.27,2.23,1.55,1.03,2.8,2.41,3.75,4.12.95,1.72,1.43,3.81,1.43,6.29s-.51,4.73-1.52,6.51c-1.01,1.78-2.3,3.22-3.87,4.34-1.57,1.11-3.33,1.93-5.27,2.45-1.94.52-3.84.78-5.7.78h-8.74v12.58h-9.73ZM134.62,44.88h8.62c.78,0,1.58-.06,2.39-.18s1.54-.39,2.2-.81c.66-.41,1.2-.99,1.61-1.74.41-.74.62-1.76.62-3.04s-.22-2.38-.65-3.19c-.43-.81-.99-1.43-1.67-1.86-.68-.43-1.42-.72-2.2-.87s-1.55-.22-2.29-.22h-8.62v11.9Z"/>
    <path class="cls-5" d="M162.76,25.23h10.66l11.34,35.46,12.27-35.46h10.29l-14.13,39.98h-17.42l-13.02-39.98Z"/>
    <path class="cls-5" d="M214.7,35.64v-8.24h5.27v8.24h11.9v4.4h-11.9v17.23c0,1.32.44,2.19,1.33,2.6.89.41,2.39.62,4.49.62l6.07-.06v4.77h-10.23c-2.27,0-4.01-.64-5.21-1.92-1.2-1.28-1.8-3.26-1.8-5.95v-17.3h-5.64v-4.4h5.7Z"/>
    <path class="cls-5" d="M238.93,65.21v-29.57h5.08v4.96c.46-.83.91-1.54,1.36-2.14.45-.6.98-1.12,1.58-1.55.6-.43,1.3-.75,2.11-.96s1.77-.31,2.88-.31h6.01v4.4h-3.97c-3.35,0-5.81.92-7.38,2.76-1.57,1.84-2.36,4.29-2.36,7.35v15.06h-5.33Z"/>
    <path class="cls-5" d="M264.72,35.64h5.33v17.91c0,1.45.18,2.66.56,3.63.37.97.92,1.75,1.64,2.33.72.58,1.62.98,2.7,1.21,1.08.23,2.31.34,3.72.34,3.26,0,5.58-.59,6.94-1.77,1.36-1.18,2.04-3.07,2.04-5.67v-17.98h5.33v17.91c0,4.13-1.16,7.21-3.47,9.24-2.32,2.02-5.87,3.04-10.66,3.04-9.42,0-14.13-4.09-14.13-12.27v-17.91Z"/>
    <path class="cls-5" d="M306,55.6c.12.5.37,1.06.74,1.7.37.64.93,1.25,1.67,1.83.74.58,1.7,1.08,2.88,1.49,1.18.41,2.63.62,4.37.62,2.64,0,4.71-.46,6.2-1.36,1.49-.91,2.23-1.9,2.23-2.98,0-.95-.53-1.76-1.58-2.42-1.05-.66-2.41-1.12-4.06-1.36l-7.69-1.18c-2.02-.33-3.67-.79-4.93-1.39s-2.24-1.27-2.94-2.02c-.7-.74-1.18-1.54-1.43-2.39-.25-.84-.35-1.64-.31-2.38.04-1.36.4-2.58,1.08-3.66s1.61-1.98,2.79-2.73c1.18-.74,2.58-1.32,4.22-1.74,1.63-.41,3.44-.62,5.42-.62,2.56,0,4.74.31,6.54.93,1.8.62,3.28,1.39,4.46,2.32,1.18.93,2.08,1.91,2.7,2.95.62,1.03,1.03,1.98,1.24,2.85l-4.96,1.18c-.12-.5-.38-1.06-.78-1.71-.39-.64-.97-1.25-1.74-1.83-.76-.58-1.74-1.08-2.91-1.49-1.18-.41-2.63-.62-4.37-.62-2.6,0-4.65.42-6.14,1.27-1.49.85-2.23,1.81-2.23,2.88,0,.91.53,1.67,1.58,2.29,1.05.62,2.41,1.05,4.06,1.3l7.69,1.18c2.07.29,3.72.74,4.96,1.36,1.24.62,2.21,1.31,2.91,2.08.7.76,1.17,1.56,1.39,2.39.23.83.34,1.61.34,2.35,0,1.41-.33,2.68-.99,3.81-.66,1.14-1.59,2.1-2.79,2.88-1.2.79-2.62,1.39-4.28,1.8-1.65.41-3.47.62-5.45.62-2.56,0-4.74-.31-6.54-.93-1.8-.62-3.28-1.39-4.43-2.32-1.16-.93-2.05-1.91-2.67-2.94-.62-1.03-1.03-1.99-1.24-2.85l4.96-1.18Z"/>
    <path class="cls-5" d="M339.41,35.64v-8.24h5.27v8.24h11.9v4.4h-11.9v17.23c0,1.32.44,2.19,1.33,2.6.89.41,2.38.62,4.49.62l6.08-.06v4.77h-10.23c-2.27,0-4.01-.64-5.21-1.92-1.2-1.28-1.8-3.26-1.8-5.95v-17.3h-5.64v-4.4h5.7Z"/>
    <path class="cls-5" d="M376.41,65.83c-2.23,0-4.28-.34-6.14-1.02-1.86-.68-3.47-1.65-4.83-2.91-1.36-1.26-2.43-2.79-3.19-4.59-.76-1.8-1.15-3.81-1.15-6.04,0-5.04,1.28-9.01,3.84-11.9,2.56-2.89,6.45-4.34,11.65-4.34,2.56,0,4.77.45,6.63,1.36,1.86.91,3.41,2.14,4.65,3.69,1.24,1.55,2.16,3.35,2.76,5.39.6,2.05.9,4.23.9,6.54h-24.73c0,1.36.25,2.6.74,3.69.5,1.1,1.18,2.04,2.05,2.82.87.79,1.88,1.39,3.04,1.83,1.16.43,2.42.65,3.78.65,1.12,0,2.18-.06,3.19-.18,1.01-.12,1.94-.37,2.79-.74.85-.37,1.58-.91,2.2-1.61.62-.7,1.08-1.63,1.36-2.79h5.08c-.17,2.07-.72,3.76-1.67,5.08-.95,1.32-2.12,2.36-3.5,3.1-1.39.74-2.9,1.26-4.55,1.55-1.66.29-3.29.43-4.9.43ZM385.71,47.48c-.54-2.23-1.55-4.06-3.04-5.49-1.49-1.42-3.59-2.14-6.32-2.14-1.49,0-2.79.22-3.91.65-1.12.43-2.07,1-2.85,1.71-.79.7-1.41,1.51-1.86,2.42-.46.91-.76,1.86-.93,2.85h18.91Z"/>
    <path class="cls-5" d="M423.71,65.15v-4.65c-1.28,1.74-2.86,3.07-4.74,4-1.88.93-3.98,1.39-6.29,1.39-2.11,0-4.04-.39-5.8-1.18-1.75-.78-3.28-1.87-4.55-3.26-1.28-1.38-2.28-3.03-3.01-4.93-.72-1.9-1.09-3.95-1.09-6.14s.36-4.22,1.09-6.11c.72-1.88,1.72-3.5,3.01-4.87,1.28-1.36,2.81-2.44,4.59-3.22,1.78-.78,3.72-1.18,5.83-1.18,2.23,0,4.28.43,6.14,1.3,1.86.87,3.39,2.13,4.59,3.78v-18.53h5.33v43.57h-5.08ZM403.62,50.39c0,1.45.24,2.82.71,4.12s1.15,2.45,2.02,3.44c.87.99,1.92,1.78,3.16,2.36,1.24.58,2.6.87,4.09.87s2.84-.29,4.06-.87c1.22-.58,2.26-1.36,3.13-2.36.87-.99,1.54-2.14,2.02-3.44.47-1.3.71-2.68.71-4.12s-.23-2.87-.68-4.15c-.46-1.28-1.12-2.41-1.98-3.38-.87-.97-1.91-1.74-3.13-2.29-1.22-.56-2.6-.84-4.12-.84s-2.85.28-4.09.84c-1.24.56-2.29,1.32-3.16,2.29-.87.97-1.54,2.1-2.02,3.38-.48,1.28-.71,2.67-.71,4.15Z"/>
    <path class="cls-6" d="M436.61,62.26c0-.89.31-1.64.93-2.25.62-.6,1.38-.9,2.27-.9s1.63.3,2.2.9c.57.6.85,1.35.85,2.25s-.28,1.65-.85,2.27c-.57.62-1.3.93-2.2.93s-1.7-.31-2.3-.93c-.6-.62-.9-1.38-.9-2.27Z"/>
    <path class="cls-6" d="M460.32,61.7c1.93,0,3.6-.39,5.01-1.16,1.41-.77,2.39-2.18,2.94-4.21h4.7c-.31,1.65-.85,3.07-1.63,4.26-.78,1.19-1.72,2.16-2.84,2.92-1.12.76-2.38,1.32-3.77,1.68-1.39.36-2.9.54-4.52.54-4.17,0-7.4-1.11-9.69-3.33-2.29-2.22-3.44-5.42-3.44-9.58s1.14-7.34,3.44-9.51c2.29-2.17,5.52-3.25,9.69-3.25,3.44,0,6.27.78,8.47,2.35,2.2,1.57,3.67,4.11,4.39,7.62h-4.65c-.45-2.24-1.39-3.79-2.84-4.65-1.45-.86-3.24-1.29-5.37-1.29-3,0-5.17.73-6.51,2.2-1.34,1.46-2.02,3.66-2.02,6.59s.68,5.09,2.04,6.59c1.36,1.5,3.56,2.25,6.59,2.25Z"/>
    <path class="cls-6" d="M477.42,65.21v-3.62l15.55-17.36h-15.35v-3.67h20.92v3.67l-15.5,17.31h15.5v3.67h-21.13Z"/>
  </g>
  <g>
    <path class="cls-1" d="M42.17,87.46h22.07c3.85,0,7.49-1.76,9.88-4.78l30.83-38.95h-28.17l-34.62,43.73Z"/>
    <path class="cls-2" d="M66.94,0h-22.07C41.02,0,37.38,1.76,34.99,4.78L4.16,43.73h28.17L66.94,0Z"/>
    <path class="cls-4" d="M69.17,0h-18.48c4.35,0,7.88,3.53,7.88,7.88v35.85h23.2V12.6c0-6.96-5.64-12.6-12.6-12.6Z"/>
    <path class="cls-3" d="M50.55,79.58v-35.85h-23.2v31.13c0,6.96,5.64,12.6,12.6,12.6h18.48c-4.35,0-7.88-3.53-7.88-7.88Z"/>
  </g>
</svg>