<?xml version="1.0" standalone="no"?>
<!DOCTYPE svg PUBLIC "-//W3C//DTD SVG 1.1//EN" "http://www.w3.org/Graphics/SVG/1.1/DTD/svg11.dtd" >
<svg xmlns="http://www.w3.org/2000/svg" xmlns:xlink="http://www.w3.org/1999/xlink" version="1.1">
<metadata>
Created by FontForge 20170731 at Tue Jan 28 00:27:15 2020
 By Aleksey,,,
Copyright 2020 The Spartan Project Authors (https://github.com/bghryct/Spartan-MB)
</metadata>
<defs>
<font id="Spartan-ExtraBold" horiz-adv-x="1459" >
  <font-face 
    font-family="Spartan ExtraBold"
    font-weight="800"
    font-stretch="normal"
    units-per-em="2000"
    panose-1="0 0 0 0 0 0 0 0 0 0"
    ascent="1600"
    descent="-400"
    x-height="1024"
    cap-height="1650"
    bbox="-516 -590 3340 2379"
    underline-thickness="100"
    underline-position="-300"
    unicode-range="U+000D-FB02"
  />
<missing-glyph horiz-adv-x="728" 
d="M66 0v1333h530v-1333h-530zM132 66h398v1201h-398v-1201z" />
    <glyph glyph-name="fi" unicode="fi" horiz-adv-x="1402" 
d="M221 0h365v747h333v-747h365v1024h-698v203q0 106 33 155t122 49q68 0 137.5 -33.5t115.5 -71.5l125 257q-70 59 -197.5 113t-290.5 54q-130 0 -221.5 -65t-140 -180.5t-48.5 -266.5v-214h-150v-277h150v-747z" />
    <glyph glyph-name="fl" unicode="fl" horiz-adv-x="1430" 
d="M194 0h364v747h235v277h-235v203q0 106 20.5 153t87.5 47q33 0 61.5 -9t45.5 -18l55 299q-31 17 -89.5 34t-136.5 17q-130 0 -221 -65t-139 -180.5t-48 -266.5v-214h-150v-277h150v-747zM892 0h364v1720h-364v-1720z" />
    <glyph glyph-name="f_f" unicode="ff" horiz-adv-x="1615" 
d="M195 0h365v747h355v-747h365v747h234v277h-234v203q0 106 20 153t88 47q34 0 61 -8t44 -18l126 255q-41 32 -117 63t-179 31q-129 0 -220.5 -65t-139.5 -180.5t-48 -266.5v-214h-355v203q0 106 20.5 153t87.5 47q34 0 61.5 -9t43.5 -18l127 257q-43 32 -119 62.5
t-177 30.5q-130 0 -221 -65t-139.5 -180.5t-48.5 -266.5v-214h-149v-277h149v-747z" />
    <glyph glyph-name="f_f_i" unicode="ffi" horiz-adv-x="2136" 
d="M227 0h365v747h356v-747h365v747h333v-747h365v1024h-698v203q0 106 33.5 155t122.5 49q68 0 137.5 -33.5t115.5 -71.5l125 257q-70 59 -197.5 113t-290.5 54q-130 0 -222 -65t-140.5 -180.5t-48.5 -266.5v-214h-356v203q0 106 20.5 153t87.5 47q33 0 61 -9t44 -18
l127 257q-43 32 -119 62.5t-177 30.5q-130 0 -221.5 -65t-139.5 -180.5t-48 -266.5v-214h-149v-277h149v-747z" />
    <glyph glyph-name="f_f_l" unicode="ffl" horiz-adv-x="2150" 
d="M194 0h365v747h354v-747h365v747h234v277h-234v203q0 106 20.5 153t87.5 47q32 0 60.5 -9t46.5 -18l55 299q-31 17 -90 34t-136 17q-130 0 -221.5 -65t-139.5 -180.5t-48 -266.5v-214h-354v203q0 106 20.5 153t87.5 47q33 0 61 -9t44 -18l127 257q-43 32 -119.5 62.5
t-176.5 30.5q-130 0 -221.5 -65t-139.5 -180.5t-48 -266.5v-214h-149v-277h149v-747zM1611 0h365v1720h-365v-1720z" />
    <glyph glyph-name=".notdef" horiz-adv-x="728" 
d="M66 0v1333h530v-1333h-530zM132 66h398v1201h-398v-1201z" />
    <glyph glyph-name=".null" horiz-adv-x="0" 
 />
    <glyph glyph-name="nonmarkingreturn" horiz-adv-x="666" 
 />
    <glyph glyph-name="NULL" horiz-adv-x="0" 
 />
    <glyph glyph-name="NULL" horiz-adv-x="0" 
 />
    <glyph glyph-name="CR" unicode="&#xd;" horiz-adv-x="548" 
 />
    <glyph glyph-name="space" unicode=" " horiz-adv-x="548" 
 />
    <glyph glyph-name="exclam" unicode="!" horiz-adv-x="792" 
d="M264 546h265l49 1174h-364zM395 -32q65 0 118.5 31.5t85 85t31.5 118.5q0 66 -31.5 119t-85 84.5t-118.5 31.5t-119 -31.5t-85.5 -84.5t-31.5 -119q0 -65 31.5 -118.5t85.5 -85t119 -31.5z" />
    <glyph glyph-name="quotedbl" unicode="&#x22;" horiz-adv-x="1140" 
d="M690 937h216l65 744h-347zM234 937h216l66 744h-347z" />
    <glyph glyph-name="numbersign" unicode="#" horiz-adv-x="1607" 
d="M285 0h248l51 438h340l-51 -438h247l51 438h301v249h-269l35 285h234v249h-206l55 437h-249l-53 -437h-341l55 437h-249l-53 -437h-295v-249h265l-35 -285h-230v-249h200zM615 687l35 285h340l-36 -285h-339z" />
    <glyph glyph-name="dollar" unicode="$" horiz-adv-x="1421" 
d="M631 -276h221v258q211 33 334.5 167t123.5 336q0 125 -53.5 218.5t-166.5 169t-292 147.5q-53 21 -102 44t-80 55.5t-31 79.5q0 59 50.5 94.5t135.5 35.5q83 0 173.5 -30.5t163.5 -81.5l156 307q-76 56 -188 97.5t-224 52.5v252h-221v-260q-134 -28 -229 -103.5
t-145 -176.5t-50 -207q0 -145 88.5 -247.5t233.5 -170.5q113 -52 193 -94t122.5 -87t42.5 -108q0 -67 -50 -106.5t-141 -39.5q-103 0 -223 49t-218 131l-194 -324q62 -58 153.5 -104.5t199.5 -75t217 -32.5v-246z" />
    <glyph glyph-name="percent" unicode="%" horiz-adv-x="1998" 
d="M510 892q127 0 228 50t160 139t59 205t-59 205t-160 139t-228 50q-126 0 -227.5 -50t-161 -139t-59.5 -205t59.5 -205t161 -139t227.5 -50zM400 0h243l960 1650h-243zM510 1109q-73 0 -126.5 49.5t-53.5 127.5t53.5 127.5t126.5 49.5q74 0 127 -49.5t53 -127.5
t-53 -127.5t-127 -49.5zM1487 -30q127 0 228.5 50t160.5 139t59 205t-59 205t-160.5 139t-228.5 50q-126 0 -227.5 -50t-160.5 -139t-59 -205t59 -205t160.5 -139t227.5 -50zM1487 187q-73 0 -126.5 49.5t-53.5 127.5t53.5 127.5t126.5 49.5q74 0 127 -49.5t53 -127.5
t-53 -127.5t-127 -49.5z" />
    <glyph glyph-name="ampersand" unicode="&#x26;" horiz-adv-x="1845" 
d="M633 -32q159 0 297 52.5t253 146.5l161 -167h486l-358 373q47 38 110 99t126 126l-237 233q-30 -31 -72.5 -71t-86.5 -78t-81 -64l-216 223q158 85 241.5 191t83.5 229q0 72 -30.5 146.5t-93.5 136.5t-159 100t-228 38q-141 0 -258 -49t-187 -144.5t-70 -233.5
q0 -88 36.5 -172.5t127.5 -200.5q-402 -161 -402 -463q0 -134 68.5 -235.5t194 -158.5t294.5 -57zM823 1050q-57 56 -86.5 109t-29.5 107q0 64 39 104t103 40q67 0 110 -42t43 -104q0 -60 -44.5 -110.5t-134.5 -103.5zM687 335q-76 0 -125 37.5t-49 106.5q0 65 44.5 120
t116.5 77l255 -248q-115 -93 -242 -93z" />
    <glyph glyph-name="quotesingle" unicode="'" horiz-adv-x="684" 
d="M234 937h216l66 744h-347z" />
    <glyph glyph-name="parenleft" unicode="(" horiz-adv-x="732" 
d="M446 -520l236 100q-62 91 -120 244t-95.5 354t-37.5 437q0 257 42 464t101 353t110 218l-236 100q-57 -75 -118 -188.5t-113.5 -260t-85 -320t-32.5 -367.5q0 -193 32.5 -366t85 -319t113.5 -260t118 -189z" />
    <glyph glyph-name="parenright" unicode=")" horiz-adv-x="731" 
d="M285 -520q173 236 260 532t87 602q0 314 -89.5 610.5t-257.5 525.5l-235 -100q79 -117 135 -281.5t85.5 -357.5t29.5 -397q0 -205 -30 -398t-86 -356.5t-134 -279.5z" />
    <glyph glyph-name="asterisk" unicode="*" horiz-adv-x="1019" 
d="M366 1015l142 184l142 -184l136 93l-133 200l229 82l-52 165l-231 -72v237h-182v-237l-231 72l-53 -165l229 -82l-133 -200z" />
    <glyph glyph-name="plus" unicode="+" horiz-adv-x="1309" 
d="M496 316h316v356h356v316h-356v356h-316v-356h-355v-316h355v-356z" />
    <glyph glyph-name="comma" unicode="," horiz-adv-x="767" 
d="M284 -382q164 134 254.5 284.5t90.5 287.5q0 115 -63 181.5t-170 66.5q-105 0 -171 -64t-66 -166q0 -82 46.5 -140t128.5 -79q-8 -45 -34 -102t-58.5 -107.5t-62.5 -75.5z" />
    <glyph glyph-name="hyphen" unicode="-" horiz-adv-x="980" 
d="M168 422h644v314h-644v-314z" />
    <glyph glyph-name="period" unicode="." horiz-adv-x="834" 
d="M416 -32q66 0 119 31.5t84.5 85t31.5 118.5q0 66 -31.5 119t-84.5 84.5t-119 31.5q-65 0 -118.5 -31.5t-85 -84.5t-31.5 -119q0 -65 31.5 -118.5t85 -85t118.5 -31.5z" />
    <glyph glyph-name="slash" unicode="/" horiz-adv-x="1005" 
d="M-66 -240h313l824 1960h-313z" />
    <glyph glyph-name="zero" unicode="0" horiz-adv-x="1540" 
d="M770 -32q203 0 356 108t238.5 301t85.5 447q0 255 -85.5 447.5t-238.5 300.5t-356 108q-202 0 -355.5 -108t-239 -300.5t-85.5 -447.5q0 -254 85.5 -447t239 -301t355.5 -108zM770 307q-128 0 -200.5 136.5t-72.5 380.5t72.5 380.5t200.5 136.5t201 -136.5t73 -380.5
t-73 -380.5t-201 -136.5z" />
    <glyph glyph-name="one" unicode="1" horiz-adv-x="882" 
d="M295 0h386v1650h-664v-379h278v-1271z" />
    <glyph glyph-name="two" unicode="2" horiz-adv-x="1449" 
d="M44 0h1292v340h-601q299 209 435 396.5t136 386.5q0 162 -79 288t-218.5 198.5t-321.5 72.5q-232 0 -396.5 -125t-238.5 -355l321 -157q56 152 127 223.5t163 71.5q98 0 162.5 -68t64.5 -161q0 -96 -85 -220t-271 -292t-490 -399v-200z" />
    <glyph glyph-name="three" unicode="3" horiz-adv-x="1352" 
d="M638 -32q180 0 318.5 71t217.5 194t79 279q0 124 -53 218.5t-153 158.5q141 118 141 307q0 140 -70.5 249.5t-194 172t-282.5 62.5q-132 0 -244 -44.5t-191.5 -126t-113.5 -191.5l303 -148q18 89 85 144.5t155 55.5q86 0 144.5 -52.5t58.5 -128.5q0 -52 -26.5 -97.5
t-70 -74t-96.5 -28.5h-83v-252q30 13 76 13q96 0 163 -67t67 -171q0 -97 -62.5 -155t-167.5 -58q-117 0 -187 70t-81 179l-356 -175q42 -123 132.5 -214t216.5 -141t275 -50z" />
    <glyph glyph-name="four" unicode="4" horiz-adv-x="1442" 
d="M813 0h362v297h192v338h-192v1015h-382l-801 -1240v-113h821v-297zM519 635l294 500v-500h-294z" />
    <glyph glyph-name="five" unicode="5" horiz-adv-x="1341" 
d="M627 -30q177 0 316.5 71t220.5 201.5t81 307.5q0 152 -65.5 267.5t-180.5 175.5q-166 99 -409 76l37 243h512v338h-842l-143 -907q64 31 137.5 47.5t153.5 16.5q193 0 303 -74.5t110 -208.5q0 -100 -63 -166t-179 -66q-99 0 -172.5 50.5t-95.5 132.5l-305 -147
q43 -117 130.5 -196.5t205 -120.5t248.5 -41z" />
    <glyph glyph-name="six" unicode="6" horiz-adv-x="1388" 
d="M721 -32q184 0 321.5 72t214.5 201t77 301q0 166 -66.5 293.5t-183 200t-266.5 72.5q-75 0 -122 -22l476 564h-467l-373 -453q-127 -156 -199.5 -323.5t-72.5 -310.5q0 -170 84 -305t233 -212.5t344 -77.5zM702 288q-107 0 -174.5 69t-67.5 172q0 107 70 178t174 71
q103 0 173.5 -70.5t70.5 -176.5t-70 -174.5t-176 -68.5z" />
    <glyph glyph-name="seven" unicode="7" horiz-adv-x="1335" 
d="M27 0h456l872 1538v112h-1277v-338h705z" />
    <glyph glyph-name="eight" unicode="8" horiz-adv-x="1426" 
d="M712 -32q173 0 314 63t224.5 174.5t83.5 255.5q0 141 -79 256.5t-209 173.5q99 55 158 151t59 208q0 105 -49.5 185.5t-130.5 135t-178.5 82t-193.5 27.5q-150 0 -275 -55.5t-200 -153t-75 -223.5q0 -107 57.5 -203.5t159.5 -153.5q-127 -56 -207 -171.5t-80 -257.5
q0 -145 83.5 -256.5t224.5 -174.5t313 -63zM712 1030q-77 0 -128 51t-51 128t51.5 128t127.5 51q77 0 128.5 -51t51.5 -128t-51.5 -128t-128.5 -51zM712 302q-90 0 -144.5 57.5t-54.5 145.5q0 91 57 148t142 57q87 0 143.5 -58t56.5 -147q0 -88 -54.5 -145.5t-145.5 -57.5z
" />
    <glyph glyph-name="nine" unicode="9" horiz-adv-x="1388" 
d="M213 0h467l372 453q86 105 147.5 195.5t94.5 194.5t31 248q-1 162 -82.5 296.5t-229.5 214.5t-349 80q-196 0 -333 -77t-209 -206t-72 -286q0 -127 44 -232t119 -181t168.5 -117t191.5 -41q73 0 118 24zM683 873q-105 0 -175 70.5t-70 175.5t69.5 173.5t175.5 68.5
q105 0 173 -68t68 -174q0 -104 -69 -175t-172 -71z" />
    <glyph glyph-name="colon" unicode=":" horiz-adv-x="802" 
d="M396 691q66 0 119.5 31.5t85 85t31.5 118.5q0 66 -31.5 119t-85 84.5t-119.5 31.5q-65 0 -118.5 -31.5t-85 -84.5t-31.5 -119q0 -65 31.5 -118.5t85 -85t118.5 -31.5zM396 -32q66 0 119.5 31.5t85 85t31.5 118.5q0 66 -31.5 119t-85 84.5t-119.5 31.5q-65 0 -118.5 -31.5
t-85 -84.5t-31.5 -119q0 -65 31.5 -118.5t85 -85t118.5 -31.5z" />
    <glyph glyph-name="semicolon" unicode=";" horiz-adv-x="777" 
d="M396 691q66 0 119.5 31.5t85 85t31.5 118.5q0 66 -31.5 119t-85 84.5t-119.5 31.5q-65 0 -118.5 -31.5t-85 -84.5t-31.5 -119q0 -65 31.5 -118.5t85 -85t118.5 -31.5zM284 -382q164 134 254.5 284.5t90.5 287.5q0 115 -63 181.5t-170 66.5q-105 0 -171 -64t-66 -166
q0 -82 46.5 -140t128.5 -79q-8 -45 -34 -102t-58.5 -107.5t-62.5 -75.5z" />
    <glyph glyph-name="less" unicode="&#x3c;" horiz-adv-x="1392" 
d="M1199 270v291l-704 271l704 271v291l-1092 -441v-242z" />
    <glyph glyph-name="equal" unicode="=" horiz-adv-x="1531" 
d="M252 916h1027v316h-1027v-316zM252 430h1027v316h-1027v-316z" />
    <glyph glyph-name="greater" unicode="&#x3e;" horiz-adv-x="1392" 
d="M194 270l1092 441v242l-1092 441v-291l704 -271l-704 -271v-291z" />
    <glyph glyph-name="question" unicode="?" horiz-adv-x="1175" 
d="M388 545h338v155q105 24 194 93.5t142.5 170t53.5 218.5q0 134 -71.5 247t-197.5 182t-289 69q-134 0 -247.5 -50.5t-190.5 -143t-105 -220.5l300 -65q20 78 81.5 117.5t152.5 39.5q108 0 166 -47.5t58 -129.5q0 -86 -65 -131.5t-184 -45.5q-40 0 -76.5 4.5t-59.5 11.5
v-475zM556 -32q66 0 119 31.5t84.5 85t31.5 118.5q0 66 -31.5 119t-84.5 84.5t-119 31.5q-65 0 -118.5 -31.5t-85 -84.5t-31.5 -119q0 -65 31.5 -118.5t85 -85t118.5 -31.5z" />
    <glyph glyph-name="at" unicode="@" horiz-adv-x="1965" 
d="M1019 -519q154 0 271.5 39.5t199 99t126.5 120.5l-238 158q-44 -45 -135.5 -85.5t-222.5 -40.5q-127 0 -237 43t-193 120.5t-129.5 181t-46.5 224.5q0 110 40.5 215.5t118.5 190.5t190.5 135.5t256.5 50.5q106 0 214.5 -31.5t199.5 -97.5t146.5 -168t55.5 -243
q0 -113 -35 -152t-83 -39q-50 0 -73.5 19.5t-30 46t-6.5 47.5v368h-225v-66q-40 40 -100 63t-128 23q-106 0 -186.5 -50t-125.5 -135.5t-45 -190.5q0 -106 46 -191t125.5 -134.5t179.5 -49.5q86 0 148 35t102 87q108 -86 272 -86q72 0 142.5 20t128.5 67t93 129t35 205
q0 171 -65.5 314.5t-182 249t-272 163t-334.5 57.5q-185 0 -348 -62t-287.5 -175.5t-195 -270.5t-70.5 -346q0 -190 71 -347t196 -271.5t288.5 -177t348.5 -62.5zM1018 170q-70 0 -114.5 43.5t-44.5 113.5q0 74 47.5 120t113.5 46q67 0 114.5 -45.5t47.5 -118.5
q0 -70 -46 -114.5t-118 -44.5z" />
    <glyph glyph-name="A" unicode="A" horiz-adv-x="1667" 
d="M-13 0h415l119 322h626l118 -322h415l-667 1650h-358zM652 660l182 467l181 -467h-363z" />
    <glyph glyph-name="B" unicode="B" horiz-adv-x="1334" 
d="M117 0h632q165 0 286.5 56.5t188 162t66.5 252.5q0 169 -90 273t-260 132q204 109 204 360q0 208 -135.5 311t-372.5 103h-519v-1650zM503 1009v344h40q228 0 228 -169q0 -175 -228 -175h-40zM503 298v379h110q133 0 202 -50t69 -144q0 -185 -271 -185h-110z" />
    <glyph glyph-name="C" unicode="C" horiz-adv-x="1501" 
d="M960 -32q155 0 292.5 43.5t228.5 107.5l-164 328q-61 -46 -150 -73t-184 -27q-147 0 -265 63t-187.5 171t-69.5 243q0 136 69.5 243.5t187.5 170.5t265 63q95 0 184 -26.5t150 -73.5l164 328q-96 67 -234 109t-289 42q-186 0 -351.5 -66.5t-292 -184t-199 -273
t-72.5 -333.5q0 -177 72 -332t199 -272.5t293 -184t353 -66.5z" />
    <glyph glyph-name="D" unicode="D" horiz-adv-x="1602" 
d="M210 0h482q176 0 327.5 62.5t265 174.5t176.5 262t63 324t-63.5 324.5t-177 263.5t-264.5 176t-327 63h-482v-1650zM595 345v960h52q134 0 238 -62t163.5 -170.5t59.5 -248.5q0 -139 -59.5 -247t-163.5 -170t-238 -62h-52z" />
    <glyph glyph-name="E" unicode="E" horiz-adv-x="1328" 
d="M210 0h948v338h-563v320h539v338h-539v316h563v338h-948v-1650z" />
    <glyph glyph-name="F" unicode="F" horiz-adv-x="1257" 
d="M210 0h385v658h530v338h-530v316h574v338h-959v-1650z" />
    <glyph glyph-name="G" unicode="G" horiz-adv-x="1734" 
d="M890 -32q150 0 287 51t244 142.5t168.5 213.5t61.5 264v288h-762v-298h369v-12q0 -81 -48 -148t-126.5 -106.5t-172.5 -39.5q-115 0 -208 63.5t-147 180.5t-54 276q0 146 48.5 257t143.5 173.5t232 62.5q105 0 221.5 -37.5t201.5 -108.5l179 299q-128 96 -292 143.5
t-316 47.5q-189 0 -343 -66.5t-264 -184t-169 -272t-59 -331.5q0 -183 61.5 -339.5t171.5 -272.5t256.5 -181t315.5 -65z" />
    <glyph glyph-name="H" unicode="H" horiz-adv-x="1705" 
d="M210 0h385v658h514v-658h386v1650h-386v-654h-514v654h-385v-1650z" />
    <glyph glyph-name="I" unicode="I" horiz-adv-x="805" 
d="M210 0h385v1650h-385v-1650z" />
    <glyph glyph-name="J" unicode="J" horiz-adv-x="1086" 
d="M402 -32q231 0 362 130t131 366v1186h-385v-1088q0 -104 -46.5 -164t-126.5 -60q-91 0 -212 106l-125 -319q170 -157 402 -157z" />
    <glyph glyph-name="K" unicode="K" horiz-adv-x="1696" 
d="M210 0h385v679l600 -679h531l-775 865l671 785h-470l-557 -664v664h-385v-1650z" />
    <glyph glyph-name="L" unicode="L" horiz-adv-x="1169" 
d="M210 0h947v338h-562v1312h-385v-1650z" />
    <glyph glyph-name="M" unicode="M" horiz-adv-x="2112" 
d="M139 0h386l73 961l342 -942h232l342 942l74 -961h385l-146 1650h-410l-361 -938l-361 938h-410z" />
    <glyph glyph-name="N" unicode="N" horiz-adv-x="1838" 
d="M210 0h385v1009l648 -1009h385v1650h-385v-1009l-648 1009h-385v-1650z" />
    <glyph glyph-name="O" unicode="O" horiz-adv-x="1828" 
d="M914 -32q173 0 324 66t265 183.5t178.5 273t64.5 333.5t-64.5 333.5t-178.5 273t-265 183.5t-324 66t-324 -66t-265 -183.5t-178.5 -273t-64.5 -333.5t64.5 -333.5t178.5 -273t265 -183.5t324 -66zM914 340q-123 0 -217 61t-147 170.5t-53 252.5q0 144 53 253t147 170
t217 61q124 0 217.5 -61t146.5 -170t53 -253q0 -143 -53 -252.5t-146.5 -170.5t-217.5 -61z" />
    <glyph glyph-name="P" unicode="P" horiz-adv-x="1433" 
d="M210 0h385v609h225q160 0 288 61.5t202.5 180t74.5 289.5q0 172 -74.5 285t-202.5 169t-288 56h-610v-1650zM595 915v428h101q71 0 136 -18.5t106 -65.5t41 -131q0 -83 -41 -129.5t-106 -65t-136 -18.5h-101z" />
    <glyph glyph-name="Q" unicode="Q" horiz-adv-x="1892" 
d="M1664 -54l170 344q-56 15 -112.5 35t-114.5 45q133 202 133 454q0 178 -64.5 333.5t-178.5 273t-265 183.5t-324 66t-324 -66t-265 -184t-178.5 -273t-64.5 -334q0 -178 64 -333.5t178 -272.5t265 -183t325 -66q245 0 448 133q76 -48 153 -86.5t155 -68.5zM908 340
q-124 0 -218 60.5t-146.5 169.5t-52.5 253t53 253.5t147 170.5t217 61q124 0 218 -61t146.5 -170t52.5 -253q0 -149 -72 -264q-72 50 -141 109t-133 127l-163 -205q44 -60 96 -117.5t110 -110.5q-49 -23 -114 -23z" />
    <glyph glyph-name="R" unicode="R" horiz-adv-x="1549" 
d="M210 0h385v595h37l458 -595h489l-536 642q164 57 253 186.5t89 310.5q0 162 -70 276.5t-196.5 174.5t-298.5 60h-610v-1650zM595 915v428h101q137 0 210 -55.5t73 -159.5q0 -103 -72.5 -158t-210.5 -55h-101z" />
    <glyph glyph-name="S" unicode="S" horiz-adv-x="1362" 
d="M645 -32q191 0 332 61.5t218.5 177.5t77.5 279q0 141 -59.5 233.5t-174 161.5t-278.5 139q-107 45 -160 75.5t-53 93.5q0 62 49.5 101t137.5 39q85 0 174.5 -31.5t161.5 -80.5l156 307q-61 44 -145 79t-176.5 56t-179.5 21q-167 0 -292.5 -71.5t-194.5 -186t-69 -242.5
q0 -151 92 -253.5t230 -165.5q123 -56 202.5 -96t117.5 -82t38 -105q0 -77 -52.5 -115t-141.5 -38q-84 0 -165.5 29t-151.5 71t-122 81l-193 -324q50 -43 139.5 -93t212 -85.5t269.5 -35.5z" />
    <glyph glyph-name="T" unicode="T" horiz-adv-x="1184" 
d="M399 0h386v1311h387v339h-1160v-339h387v-1311z" />
    <glyph glyph-name="U" unicode="U" horiz-adv-x="1657" 
d="M828 -32q320 0 484.5 156t164.5 460v1066h-386v-953q0 -193 -59.5 -271.5t-203.5 -78.5q-143 0 -202.5 78.5t-59.5 271.5v953h-386v-1066q0 -304 164 -460t484 -156z" />
    <glyph glyph-name="V" unicode="V" horiz-adv-x="1656" 
d="M677 0h302l692 1650h-435l-408 -1070l-408 1070h-435z" />
    <glyph glyph-name="W" unicode="W" horiz-adv-x="2336" 
d="M485 0h428l255 907l254 -907h428l471 1650h-429l-276 -1118l-304 1118h-288l-304 -1118l-276 1118h-429z" />
    <glyph glyph-name="X" unicode="X" horiz-adv-x="1675" 
d="M-23 0h477l383 554l384 -554h477l-624 888l521 762h-460l-298 -442l-298 442h-459l521 -762z" />
    <glyph glyph-name="Y" unicode="Y" horiz-adv-x="1529" 
d="M572 0h385v742l610 908h-464l-339 -517l-338 517h-465l611 -908v-742z" />
    <glyph glyph-name="Z" unicode="Z" horiz-adv-x="1529" 
d="M15 0h1426v338h-753l805 1312h-1361v-338h688z" />
    <glyph glyph-name="bracketleft" unicode="[" horiz-adv-x="873" 
d="M201 -520h654v240h-340v1760h340v240h-654v-2240z" />
    <glyph glyph-name="backslash" unicode="\" horiz-adv-x="1005" 
d="M758 0h313l-824 1720h-313z" />
    <glyph glyph-name="bracketright" unicode="]" horiz-adv-x="873" 
d="M18 -520h654v2240h-654v-240h340v-1760h-340v-240z" />
    <glyph glyph-name="asciicircum" unicode="^" horiz-adv-x="1154" 
d="M68 1210h330l179 211l179 -211h330l-414 472h-190z" />
    <glyph glyph-name="underscore" unicode="_" horiz-adv-x="1362" 
d="M168 -202h1026v174h-1026v-174z" />
    <glyph glyph-name="grave" unicode="`" horiz-adv-x="598" 
d="M397 1091l150 124l-308 463l-239 -182z" />
    <glyph glyph-name="a" unicode="a" 
d="M593 -32q187 0 333 138v-106h365v1024h-365v-94q-61 59 -148 92.5t-185 33.5q-148 0 -262.5 -71.5t-179.5 -194.5t-65 -276q0 -158 68 -281.5t183 -194t256 -70.5zM703 277q-100 0 -166 66.5t-66 168.5q0 101 66 168t166 67q101 0 165.5 -66.5t64.5 -168.5t-64.5 -168.5
t-165.5 -66.5z" />
    <glyph glyph-name="b" unicode="b" horiz-adv-x="1460" 
d="M870 -32q138 0 252 69.5t182.5 192t68.5 282.5q0 156 -66 279t-181.5 194t-264.5 71q-97 0 -182 -33.5t-146 -92.5v790h-365v-1720h365v106q69 -66 155.5 -102t181.5 -36zM758 277q-102 0 -167.5 66.5t-65.5 166.5q0 102 66.5 169.5t165.5 67.5t165 -67.5t66 -170.5
q0 -100 -64.5 -166t-165.5 -66z" />
    <glyph glyph-name="c" unicode="c" horiz-adv-x="1035" 
d="M649 -32q100 0 189 28t144 68l-121 246q-26 -19 -66.5 -31.5t-87.5 -12.5q-115 0 -183.5 72.5t-68.5 173.5q0 58 27.5 114.5t83.5 94t139 37.5q95 0 156 -44l121 246q-53 41 -144.5 68.5t-190.5 27.5q-124 0 -229 -44.5t-183 -121.5t-121.5 -175t-43.5 -204
q0 -112 46 -210.5t126 -173.5t185 -117t222 -42z" />
    <glyph glyph-name="d" unicode="d" 
d="M589 -32q95 0 181.5 36t155.5 102v-106h365v1720h-365v-790q-61 59 -146 92.5t-182 33.5q-148 0 -264 -71t-182 -194t-66 -279q0 -160 68.5 -282.5t183 -192t251.5 -69.5zM701 277q-101 0 -165.5 66t-64.5 166q0 103 66 170.5t166 67.5q98 0 164 -67.5t66 -169.5
q0 -100 -65 -166.5t-167 -66.5z" />
    <glyph glyph-name="e" unicode="e" horiz-adv-x="1277" 
d="M665 -32q165 0 299.5 71.5t206.5 196.5l-262 131q-55 -60 -105.5 -85t-117.5 -25q-109 0 -172.5 55.5t-63.5 149.5h737q3 33 3.5 44t0.5 24q0 156 -68 274.5t-188.5 185t-280.5 66.5q-163 0 -294.5 -72t-208.5 -195t-77 -276q0 -155 78 -278.5t211.5 -195t301.5 -71.5z
M461 646q5 72 54 112.5t131 40.5q162 0 187 -153h-372z" />
    <glyph glyph-name="f" unicode="f" horiz-adv-x="856" 
d="M221 0h365v747h235v277h-235v203q0 87 17.5 143.5t93.5 56.5q57 0 103 -26l126 255q-55 44 -134.5 69t-159.5 25q-127 0 -219.5 -63.5t-142 -178.5t-49.5 -270v-214h-149v-277h149v-747z" />
    <glyph glyph-name="g" unicode="g" 
d="M677 -550q213 0 349 70.5t200.5 189t64.5 262.5v1052h-365v-94q-61 59 -145.5 92.5t-182.5 33.5q-148 0 -264 -71t-182 -194t-66 -279q0 -160 68.5 -282.5t183 -192t251.5 -69.5q95 0 181.5 36t155.5 102v-106q0 -101 -69 -168t-182 -67q-80 0 -152.5 35t-111.5 93
l-296 -145q63 -147 206.5 -222.5t355.5 -75.5zM701 277q-101 0 -165.5 66t-64.5 166q0 103 66 170.5t166 67.5q98 0 164.5 -67.5t66.5 -169.5q0 -100 -65.5 -166.5t-167.5 -66.5z" />
    <glyph glyph-name="h" unicode="h" horiz-adv-x="1428" 
d="M168 0h365v584q0 83 52.5 136t140.5 53q87 0 138 -54t51 -146v-573h365v651q0 118 -52.5 209.5t-144 143.5t-208.5 52q-98 0 -187.5 -37t-154.5 -99v800h-365v-1720z" />
    <glyph glyph-name="i" unicode="i" horiz-adv-x="701" 
d="M350 1240q88 0 150.5 63t62.5 151t-62.5 150.5t-150.5 62.5t-150.5 -62.5t-62.5 -150.5t62.5 -151t150.5 -63zM168 0h365v1024h-365v-1024z" />
    <glyph glyph-name="j" unicode="j" horiz-adv-x="701" 
d="M351 1241q88 0 150 62.5t62 150.5t-62 150.5t-150 62.5t-151 -62.5t-63 -150.5t63 -150.5t151 -62.5zM152 -550q178 0 279.5 107.5t101.5 287.5v1179h-365v-1109q0 -137 -92 -137q-44 0 -91 30l-112 -293q48 -31 128.5 -48t150.5 -17z" />
    <glyph glyph-name="k" unicode="k" horiz-adv-x="1365" 
d="M168 0h365v376l394 -376h468l-535 514l513 510h-472l-368 -358v1054h-365v-1720z" />
    <glyph glyph-name="l" unicode="l" horiz-adv-x="701" 
d="M168 0h365v1720h-365v-1720z" />
    <glyph glyph-name="m" unicode="m" horiz-adv-x="2077" 
d="M168 0h365v597q0 75 46.5 122t122.5 47q77 0 119.5 -49.5t42.5 -130.5v-586h365v606q0 70 46 115t122 45q75 0 119.5 -49t44.5 -134v-583h365v682q0 113 -50 197t-136.5 130.5t-198.5 46.5q-104 0 -188.5 -46t-164.5 -141q-43 85 -138.5 136t-210.5 51q-81 0 -152.5 -32
t-153.5 -104v104h-365v-1024z" />
    <glyph glyph-name="n" unicode="n" horiz-adv-x="1428" 
d="M168 0h365v584q0 83 52.5 135.5t140.5 52.5q87 0 138 -53.5t51 -145.5v-573h365v651q0 118 -52.5 209.5t-144 143.5t-208.5 52q-98 0 -187.5 -37t-154.5 -99v104h-365v-1024z" />
    <glyph glyph-name="o" unicode="o" horiz-adv-x="1374" 
d="M687 -32q173 0 312 69.5t220 192t81 282.5t-81 282.5t-220 192t-312 69.5t-312 -69.5t-220 -192t-81 -282.5t81 -282.5t220 -192t312 -69.5zM687 278q-96 0 -163.5 65.5t-67.5 168.5q0 104 67.5 169t163.5 65t163.5 -65t67.5 -169q0 -103 -67.5 -168.5t-163.5 -65.5z" />
    <glyph glyph-name="p" unicode="p" horiz-adv-x="1460" 
d="M168 -520h365v626q143 -138 337 -138q143 0 257 71.5t180 195t66 277.5q0 156 -66.5 279t-182 194t-263.5 71q-96 0 -181 -33t-147 -93v94h-365v-1544zM758 277q-101 0 -167 66t-66 168q0 101 66.5 168.5t165.5 67.5t165 -67.5t66 -169.5t-64.5 -167.5t-165.5 -65.5z" />
    <glyph glyph-name="q" unicode="q" 
d="M926 -520h365v1544h-365v-94q-131 126 -328 126q-147 0 -263 -71t-182.5 -194t-66.5 -279q0 -154 66 -277.5t180 -195t257 -71.5q193 0 337 138v-626zM702 277q-101 0 -166 66t-65 169q0 101 66 168t166 67q99 0 164.5 -67.5t65.5 -168.5q0 -102 -65 -168t-166 -66z" />
    <glyph glyph-name="r" unicode="r" horiz-adv-x="1043" 
d="M168 0h365v535q0 53 31 100t81.5 76t106.5 29q41 0 89 -15.5t84 -40.5l152 307q-41 29 -103 47t-119 18q-93 0 -177 -46.5t-145 -130.5v145h-365v-1024z" />
    <glyph glyph-name="s" unicode="s" horiz-adv-x="1036" 
d="M467 -32q227 0 351 91t124 262q0 91 -33 146.5t-90 89.5t-129 59q-42 15 -92.5 34.5t-87 43.5t-36.5 53q0 27 27.5 45t74.5 18q91 0 232 -70l118 239q-212 75 -353 75q-131 0 -232 -43.5t-158 -119.5t-57 -176q0 -79 34.5 -130t89.5 -84t117 -60q102 -43 147 -64.5
t45 -68.5q0 -72 -91 -72q-125 0 -266 115l-148 -249q148 -134 413 -134z" />
    <glyph glyph-name="t" unicode="t" horiz-adv-x="903" 
d="M557 -32q68 0 139 17t129 48l-91 293q-43 -32 -87 -32q-77 0 -77 98v355h214v277h-214v384h-365v-384h-149v-277h149v-382q0 -187 93 -292t259 -105z" />
    <glyph glyph-name="u" unicode="u" horiz-adv-x="1407" 
d="M703 -32q298 0 430 113t132 367v576h-365v-486q0 -151 -44.5 -212.5t-152.5 -61.5q-109 0 -153 61.5t-44 212.5v486h-365v-576q0 -254 132 -367t430 -113z" />
    <glyph glyph-name="v" unicode="v" horiz-adv-x="1268" 
d="M511 0h246l553 1024h-431l-245 -547l-244 547h-431z" />
    <glyph glyph-name="w" unicode="w" horiz-adv-x="1979" 
d="M511 0h246l232 517l233 -517h245l553 1024h-418l-246 -543l-242 543h-249l-243 -543l-246 543h-417z" />
    <glyph glyph-name="x" unicode="x" horiz-adv-x="1249" 
d="M-34 0h438l221 283l221 -283h438l-439 538l376 486h-424l-172 -232l-172 232h-425l376 -486z" />
    <glyph glyph-name="y" unicode="y" horiz-adv-x="1272" 
d="M82 -520h418l811 1544h-419l-238 -511l-281 511h-419l487 -859z" />
    <glyph glyph-name="z" unicode="z" horiz-adv-x="1183" 
d="M28 0h1065v276h-457l497 748h-1020v-276h412z" />
    <glyph glyph-name="braceleft" unicode="{" horiz-adv-x="793" 
d="M526 -520h198v262h-82q-50 0 -85.5 37t-35.5 94v508q0 86 -36.5 139t-89.5 80q53 27 89.5 79t36.5 140v508q0 57 35.5 94t85.5 37h82v262h-198q-96 0 -158 -32.5t-97 -86t-49 -117.5t-14 -126v-531q0 -70 -39 -100.5t-105 -30.5v-192q66 0 105 -30.5t39 -100.5v-531
q0 -62 14 -126t49 -117.5t97 -86t158 -32.5z" />
    <glyph glyph-name="bar" unicode="|" horiz-adv-x="817" 
d="M252 0h313v1720h-313v-1720z" />
    <glyph glyph-name="braceright" unicode="}" horiz-adv-x="793" 
d="M70 -520h198q96 0 158 32.5t97 86t49 117.5t14 126v531q0 70 39 100.5t104 30.5v192q-65 0 -104 30.5t-39 100.5v531q0 62 -14 126t-49 117.5t-97 86t-158 32.5h-198v-262h81q50 0 85.5 -37t35.5 -94v-508q0 -88 37 -140t89 -79q-52 -27 -89 -80t-37 -139v-508
q0 -57 -35.5 -94t-85.5 -37h-81v-262z" />
    <glyph glyph-name="asciitilde" unicode="~" horiz-adv-x="1462" 
d="M938 597q74 0 145.5 39.5t130.5 102.5t94 135l-191 166q-25 -71 -70.5 -112.5t-93.5 -41.5q-40 0 -89.5 26t-105 60t-115.5 60t-122 26q-71 0 -143.5 -38.5t-133 -101.5t-95.5 -137l190 -168q25 71 69.5 113.5t93.5 42.5q42 0 91.5 -26t105.5 -60t116.5 -60t122.5 -26z
" />
    <glyph glyph-name="uni00A0" unicode="&#xa0;" horiz-adv-x="548" 
 />
    <glyph glyph-name="exclamdown" unicode="&#xa1;" horiz-adv-x="797" 
d="M396 760q66 0 119 31.5t84.5 85t31.5 118.5q0 66 -31.5 119t-84.5 84.5t-119 31.5q-65 0 -118.5 -31.5t-85 -84.5t-31.5 -119q0 -65 31.5 -118.5t85 -85t118.5 -31.5zM216 -522h364l-50 1174h-264z" />
    <glyph glyph-name="cent" unicode="&#xa2;" horiz-adv-x="1155" 
d="M556 -258h221v233q68 9 132.5 32.5t110.5 56.5l-120 246q-30 -21 -76.5 -33.5t-90.5 -12.5q-106 0 -173.5 69t-67.5 183q0 110 64.5 177t174.5 67q103 0 169 -46l120 246q-55 41 -135.5 65.5t-169.5 28.5v218h-220v-249q-115 -39 -202.5 -116t-136 -179t-48.5 -216
q0 -124 58 -234.5t159.5 -188.5t230.5 -106v-241z" />
    <glyph glyph-name="sterling" unicode="&#xa3;" horiz-adv-x="1552" 
d="M1106 -30q151 0 249.5 80t124.5 216l-282 139q-10 -71 -43.5 -105t-103.5 -34q-60 0 -142 24t-147 38q37 71 37 141q0 57 -20 106h301v201h-351q-49 115 -75 213t-26 171q0 201 191 201q104 0 160 -57t85 -157l313 157q-29 108 -102 193.5t-186 135t-263 49.5
q-168 0 -294.5 -65.5t-196.5 -186t-70 -286.5q0 -103 28 -195.5t75 -172.5h-202v-201h290q28 -46 28 -104q0 -68 -26 -111q-87 -1 -154.5 -48.5t-105 -128.5t-34.5 -183h314q3 84 103 84q68 0 152.5 -28.5t179 -57t193.5 -28.5z" />
    <glyph glyph-name="currency" unicode="&#xa4;" horiz-adv-x="1237" 
d="M209 74l140 141q57 -39 125.5 -60.5t144.5 -21.5q77 0 145.5 21.5t125.5 59.5l140 -140l122 125l-139 139q37 57 58 125.5t21 145.5t-21 145.5t-58 124.5l139 140l-122 125l-140 -140q-57 38 -125.5 59.5t-145.5 21.5q-76 0 -144.5 -21.5t-125.5 -60.5l-140 141
l-124 -125l141 -141q-37 -55 -58 -123.5t-21 -145.5t21 -145.5t58 -124.5l-141 -140zM619 439q-75 0 -123.5 47t-48.5 123q0 77 48.5 123t123.5 46q76 0 124.5 -46t48.5 -123q0 -76 -48.5 -123t-124.5 -47z" />
    <glyph glyph-name="yen" unicode="&#xa5;" horiz-adv-x="1746" 
d="M681 0h386v216h424v272h-424v115h424v273h-334l519 774h-464l-339 -517l-338 517h-464l518 -774h-335v-273h427v-115h-427v-272h427v-216z" />
    <glyph glyph-name="brokenbar" unicode="&#xa6;" horiz-adv-x="817" 
d="M252 1056h313v664h-313v-664zM252 0h313v664h-313v-664z" />
    <glyph glyph-name="section" unicode="&#xa7;" horiz-adv-x="1436" 
d="M686 -550q150 0 273.5 47.5t197.5 142.5t74 237q0 116 -51.5 201.5t-143.5 148.5q136 56 208.5 147.5t78.5 207.5t-50.5 205t-148 156t-192.5 115q-43 21 -95 45t-99.5 51.5t-77.5 59.5t-30 68q0 40 32 67.5t89 27.5q75 0 112 -40.5t42 -87.5l330 69q-18 85 -71 168
t-155.5 138.5t-272.5 55.5t-282.5 -58.5t-168.5 -155.5t-56 -214q0 -223 204 -349q-140 -58 -213.5 -149t-80.5 -206q-7 -121 50.5 -211.5t150.5 -156.5t189 -115q81 -39 148.5 -71t108 -64t40.5 -73q0 -39 -33 -71.5t-110 -32.5q-92 0 -142.5 45t-70.5 104l-330 -70
q15 -66 51.5 -133.5t100.5 -123.5t161 -90.5t233 -34.5zM801 365q-27 11 -71.5 31t-99.5 52q-136 78 -136 162q0 63 57 96t118 49q26 -11 45 -20t32 -15q122 -61 171 -107t49 -95q0 -40 -27 -70.5t-65 -51t-73 -31.5z" />
    <glyph glyph-name="dieresis" unicode="&#xa8;" horiz-adv-x="850" 
d="M661 1209q79 0 134 55t55 134t-55 134t-134 55t-134 -55t-55 -134t55 -134t134 -55zM189 1209q79 0 134 55t55 134t-55 134t-134 55t-134 -55t-55 -134t55 -134t134 -55z" />
    <glyph glyph-name="copyright" unicode="&#xa9;" horiz-adv-x="1940" 
d="M971 -30q176 0 331 66.5t273 184t184.5 272.5t66.5 331q0 177 -67 332t-184.5 273t-273 184.5t-332.5 66.5t-332 -67t-272 -184.5t-183.5 -272t-66.5 -330.5q0 -177 67 -332.5t185 -273t273 -184t331 -66.5zM971 204q-128 0 -241 48.5t-199 134t-134.5 198t-48.5 240.5
t48.5 241t134 198.5t198 134t240.5 48.5q129 0 242 -48.5t199 -134.5t135 -198.5t49 -241.5q0 -128 -48.5 -240t-134.5 -197.5t-199 -134t-241 -48.5zM1013 418q115 0 256 65l-89 183q-16 -12 -48.5 -20t-65.5 -8q-88 0 -142 55.5t-54 134.5q0 83 56.5 138t138.5 55
q70 0 117 -29l87 183q-43 31 -111.5 49.5t-137.5 18.5q-122 0 -222.5 -58t-159.5 -152.5t-59 -205.5t60.5 -204t159.5 -149t214 -56z" />
    <glyph glyph-name="ordfeminine" unicode="&#xaa;" horiz-adv-x="1087" 
d="M452 1008q66 0 119 24.5t89 61.5v-66h227v632h-227v-57q-79 77 -200 77q-95 0 -166.5 -45t-111 -121t-39.5 -169q0 -96 41 -172t111 -120.5t157 -44.5zM522 1199q-64 0 -103.5 41.5t-39.5 102.5q0 65 42 105.5t102 40.5q59 0 101 -40.5t42 -104.5q0 -62 -40.5 -103.5
t-103.5 -41.5z" />
    <glyph glyph-name="guillemotleft" unicode="&#xab;" horiz-adv-x="1256" 
d="M896 58l191 149l-275 351l275 350l-191 150l-390 -500zM532 58l191 149l-275 351l275 350l-191 150l-390 -500z" />
    <glyph glyph-name="logicalnot" unicode="&#xac;" horiz-adv-x="1309" 
d="M852 316h316v672h-1027v-316h711v-356z" />
    <glyph glyph-name="uni00AD" unicode="&#xad;" horiz-adv-x="980" 
d="M168 422h644v314h-644v-314z" />
    <glyph glyph-name="registered" unicode="&#xae;" horiz-adv-x="1228" 
d="M614 782q122 0 224 59.5t163.5 161.5t61.5 227q0 126 -61 228.5t-162.5 163t-225.5 60.5q-125 0 -227.5 -62t-162.5 -164.5t-60 -225.5t61 -225t163 -162.5t226 -60.5zM614 907q-89 0 -162.5 43.5t-117.5 117t-44 162.5q0 88 43 162.5t116.5 119.5t164.5 45
q89 0 162.5 -43.5t118 -117.5t44.5 -166t-45 -165t-118.5 -115.5t-161.5 -42.5zM476 1027h102v150h4l114 -150h128l-133 161q36 14 59.5 45t23.5 79q0 66 -41 97t-101 31h-156v-413zM578 1259v101h22q21 0 44 -9t23 -42q0 -31 -21 -40.5t-46 -9.5h-22z" />
    <glyph glyph-name="macron" unicode="&#xaf;" horiz-adv-x="816" 
d="M0 1265h816v246h-816v-246z" />
    <glyph glyph-name="degree" unicode="&#xb0;" horiz-adv-x="887" 
d="M443 1338q99 0 166 57.5t67 148.5q0 92 -67.5 149t-165.5 57t-165.5 -57t-67.5 -149q0 -91 67 -148.5t166 -57.5zM443 1456q-35 0 -59.5 25t-24.5 63t24.5 63t59.5 25t59.5 -25t24.5 -63t-24 -63t-60 -25z" />
    <glyph glyph-name="plusminus" unicode="&#xb1;" horiz-adv-x="1412" 
d="M548 419h316v304h356v314h-356v305h-316v-305h-356v-314h356v-304zM192 0h1028v316h-1028v-316z" />
    <glyph glyph-name="uni00B2" unicode="&#xb2;" horiz-adv-x="658" 
d="M54 1026h513v148h-213q104 71 152.5 141t48.5 145q0 96 -68.5 159t-179.5 63q-177 0 -253 -184l140 -71q50 114 112 114q30 0 49 -20t19 -52q0 -120 -320 -354v-89z" />
    <glyph glyph-name="uni00B3" unicode="&#xb3;" horiz-adv-x="615" 
d="M298 1026q104 0 176.5 47.5t72.5 147.5q0 107 -91 161q63 63 63 142t-60.5 117.5t-158.5 38.5q-94 0 -148.5 -35t-81.5 -100l130 -65q7 30 30.5 49t54.5 19q29 0 48 -16t19 -40q0 -28 -25 -48.5t-54 -20.5h-33v-107q13 5 28 5q42 0 70 -23.5t28 -61.5q0 -32 -20.5 -50.5
t-55.5 -18.5q-41 0 -66.5 24t-30.5 64l-153 -77q65 -152 258 -152z" />
    <glyph glyph-name="acute" unicode="&#xb4;" horiz-adv-x="598" 
d="M150 1091l397 405l-239 182l-308 -463z" />
    <glyph glyph-name="mu" unicode="&#xb5;" horiz-adv-x="1594" 
d="M206 -320h424v313q34 -25 87 -25q80 0 161 37t136 99v-104h365v1024h-365v-577q0 -79 -60.5 -137.5t-143.5 -58.5q-81 0 -129.5 53t-48.5 141v579h-365v-607q0 -168 -15 -292t-30.5 -229t-15.5 -216z" />
    <glyph glyph-name="paragraph" unicode="&#xb6;" horiz-adv-x="1600" 
d="M803 0h211v1437h124v-1437h210v1650h-737q-161 0 -278.5 -68.5t-181 -184.5t-63.5 -257q0 -140 63.5 -261t181 -195.5t278.5 -74.5h192v-609z" />
    <glyph glyph-name="periodcentered" unicode="&#xb7;" horiz-adv-x="834" 
d="M416 305q66 0 119 31.5t84.5 85t31.5 118.5q0 66 -31.5 119t-84.5 84.5t-119 31.5q-65 0 -118.5 -31.5t-85 -84.5t-31.5 -119q0 -65 31.5 -118.5t85 -85t118.5 -31.5z" />
    <glyph glyph-name="cedilla" unicode="&#xb8;" horiz-adv-x="579" 
d="M303 -548q121 0 198.5 66.5t77.5 170.5q0 115 -103 163q-63 36 -139 34l40 124h-148l-77 -234l21 -16q26 15 89 15q55 0 88 -21.5t33 -56.5q0 -32 -24 -52t-64 -20q-87 0 -157 87l-138 -103q132 -157 303 -157z" />
    <glyph glyph-name="uni00B9" unicode="&#xb9;" horiz-adv-x="450" 
d="M164 1026h164v624h-278v-161h114v-463z" />
    <glyph glyph-name="ordmasculine" unicode="&#xba;" horiz-adv-x="947" 
d="M473 1004q105 0 189 43.5t133.5 119.5t49.5 175t-49.5 175.5t-133.5 119.5t-189 43t-189.5 -43t-134 -119.5t-49.5 -175.5t49.5 -175t134 -119.5t189.5 -43.5zM473 1195q-58 0 -96.5 41t-38.5 106t38.5 106.5t96.5 41.5q57 0 95.5 -41.5t38.5 -106.5q0 -64 -38.5 -105.5
t-95.5 -41.5z" />
    <glyph glyph-name="guillemotright" unicode="&#xbb;" horiz-adv-x="1251" 
d="M275 58l390 500l-390 500l-190 -150l274 -350l-274 -351zM800 58l390 500l-390 500l-191 -150l275 -350l-275 -351z" />
    <glyph glyph-name="onequarter" unicode="&#xbc;" horiz-adv-x="2469" 
d="M331 600h295v1050h-471v-289h176v-761zM396 0h245l988 1650h-244zM1802 0h276v184h136v259h-136v607h-292l-565 -784v-82h581v-184zM1625 443l177 262v-262h-177z" />
    <glyph glyph-name="onehalf" unicode="&#xbd;" horiz-adv-x="2563" 
d="M331 600h295v1050h-471v-289h176v-761zM396 0h245l988 1650h-244zM1343 0h939v258h-414q200 98 296 215t96 246q0 102 -55.5 184t-157 130t-240.5 48q-166 0 -284.5 -76t-175.5 -225l245 -123q43 92 90.5 128.5t108.5 36.5q67 0 109.5 -34t42.5 -83q0 -82 -145 -219
t-455 -332v-154z" />
    <glyph glyph-name="threequarters" unicode="&#xbe;" horiz-adv-x="2908" 
d="M647 579q124 0 221 48t152.5 130.5t55.5 186.5q0 71 -30 129.5t-97 106.5q41 40 59 84.5t18 93.5q0 94 -48.5 166.5t-134 114t-197.5 41.5q-134 0 -237.5 -60.5t-143.5 -164.5l230 -115q14 49 55 77t92 28t84.5 -26t33.5 -64t-32 -69.5t-74 -31.5h-60v-190q23 10 53 10
q57 0 96.5 -36t39.5 -92q0 -53 -37 -84t-99 -31q-70 0 -111.5 40t-49.5 102l-272 -137q50 -118 167.5 -187.5t265.5 -69.5zM836 0h245l988 1650h-244zM2242 0h276v184h136v259h-136v607h-292l-565 -784v-82h581v-184zM2065 443l177 262v-262h-177z" />
    <glyph glyph-name="questiondown" unicode="&#xbf;" horiz-adv-x="1174" 
d="M618 692q66 0 119 31.5t84.5 85t31.5 118.5q0 66 -31.5 119t-84.5 84.5t-119 31.5q-65 0 -118.5 -31.5t-85 -84.5t-31.5 -119q0 -65 31.5 -118.5t85 -85t118.5 -31.5zM616 -550q135 0 248 50.5t190.5 143.5t104.5 220l-300 65q-20 -78 -81 -117.5t-153 -39.5
q-108 0 -166 47.5t-58 129.5q0 86 65 131.5t184 45.5q41 0 77.5 -4.5t59.5 -11.5v475h-339v-155q-105 -24 -193.5 -93.5t-142.5 -170t-54 -218.5q0 -133 72 -246.5t198 -182.5t288 -69z" />
    <glyph glyph-name="Agrave" unicode="&#xc0;" horiz-adv-x="1667" 
d="M-13 0h415l119 322h626l118 -322h415l-667 1650h-358zM652 660l182 467l181 -467h-363zM936 1717l150 124l-308 463l-239 -182z" />
    <glyph glyph-name="Aacute" unicode="&#xc1;" horiz-adv-x="1667" 
d="M-13 0h415l119 322h626l118 -322h415l-667 1650h-358zM652 660l182 467l181 -467h-363zM771 1717l397 405l-239 182l-308 -463z" />
    <glyph glyph-name="Acircumflex" unicode="&#xc2;" horiz-adv-x="1667" 
d="M-13 0h415l119 322h626l118 -322h415l-667 1650h-358zM652 660l182 467l181 -467h-363zM528 1793l306 224l306 -224l138 186l-444 327l-444 -327z" />
    <glyph glyph-name="Atilde" unicode="&#xc3;" horiz-adv-x="1667" 
d="M-13 0h415l119 322h626l118 -322h415l-667 1650h-358zM652 660l182 467l181 -467h-363zM1040 1765q55 0 121.5 34.5t126.5 93.5t95 134l-179 158q-17 -56 -60.5 -102t-88.5 -46q-34 0 -82.5 25t-107 57t-121 57t-123.5 25q-102 0 -192.5 -75.5t-144.5 -186.5l181 -159
q17 55 55.5 101.5t105.5 46.5q50 0 101.5 -24.5t104.5 -57t105 -57t103 -24.5z" />
    <glyph glyph-name="Adieresis" unicode="&#xc4;" horiz-adv-x="1667" 
d="M-13 0h415l119 322h626l118 -322h415l-667 1650h-358zM652 660l182 467l181 -467h-363zM1070 1835q79 0 134 55t55 134t-55 134t-134 55t-134 -55t-55 -134t55 -134t134 -55zM598 1835q79 0 134 55t55 134t-55 134t-134 55t-134 -55t-55 -134t55 -134t134 -55z" />
    <glyph glyph-name="Aring" unicode="&#xc5;" horiz-adv-x="1667" 
d="M-13 0h415l119 322h626l118 -322h415l-667 1650h-358zM652 660l182 467l181 -467h-363zM833 1805q91 0 165 36.5t117.5 101.5t43.5 149t-43.5 148.5t-117.5 101.5t-165 37t-165 -37t-117.5 -101.5t-43.5 -148.5t43.5 -149t117.5 -101.5t165 -36.5zM833 1968
q-49 0 -85 36.5t-36 87.5t36 87t85 36t85.5 -36t36.5 -87t-36.5 -87.5t-85.5 -36.5z" />
    <glyph glyph-name="AE" unicode="&#xc6;" horiz-adv-x="2201" 
d="M-13 0h415l119 322h626l118 -322h948l-129 338h-541l-128 320h522l-130 338h-530l-126 316h559l-131 338h-924zM652 660l182 467l181 -467h-363z" />
    <glyph glyph-name="Ccedilla" unicode="&#xc7;" horiz-adv-x="1501" 
d="M960 -32q155 0 292.5 43.5t228.5 107.5l-164 328q-61 -46 -150 -73t-184 -27q-147 0 -265 63t-187.5 171t-69.5 243q0 136 69.5 243.5t187.5 170.5t265 63q95 0 184 -26.5t150 -73.5l164 328q-96 67 -234 109t-289 42q-186 0 -351.5 -66.5t-292 -184t-199 -273
t-72.5 -333.5q0 -177 72 -332t199 -272.5t293 -184t353 -66.5zM886 -590q121 0 198.5 66.5t77.5 170.5q0 115 -103 163q-63 36 -139 34l40 124h-148l-77 -234l21 -16q26 15 89 15q55 0 88 -21.5t33 -56.5q0 -32 -24 -52t-64 -20q-87 0 -157 87l-138 -103q132 -157 303 -157z
" />
    <glyph glyph-name="Egrave" unicode="&#xc8;" horiz-adv-x="1328" 
d="M210 0h948v338h-563v320h539v338h-539v316h563v338h-948v-1650zM778 1717l150 124l-308 463l-239 -182z" />
    <glyph glyph-name="Eacute" unicode="&#xc9;" horiz-adv-x="1328" 
d="M210 0h948v338h-563v320h539v338h-539v316h563v338h-948v-1650zM612 1717l397 405l-239 182l-308 -463z" />
    <glyph glyph-name="Ecircumflex" unicode="&#xca;" horiz-adv-x="1328" 
d="M210 0h948v338h-563v320h539v338h-539v316h563v338h-948v-1650zM369 1793l306 224l306 -224l138 186l-444 327l-444 -327z" />
    <glyph glyph-name="Edieresis" unicode="&#xcb;" horiz-adv-x="1328" 
d="M210 0h948v338h-563v320h539v338h-539v316h563v338h-948v-1650zM911 1835q79 0 134 55t55 134t-55 134t-134 55t-134 -55t-55 -134t55 -134t134 -55zM439 1835q79 0 134 55t55 134t-55 134t-134 55t-134 -55t-55 -134t55 -134t134 -55z" />
    <glyph glyph-name="Igrave" unicode="&#xcc;" horiz-adv-x="805" 
d="M210 0h385v1650h-385v-1650zM505 1717l150 124l-308 463l-239 -182z" />
    <glyph glyph-name="Iacute" unicode="&#xcd;" horiz-adv-x="805" 
d="M210 0h385v1650h-385v-1650zM340 1717l397 405l-239 182l-308 -463z" />
    <glyph glyph-name="Icircumflex" unicode="&#xce;" horiz-adv-x="805" 
d="M210 0h385v1650h-385v-1650zM96 1793l306 224l306 -224l138 186l-444 327l-444 -327z" />
    <glyph glyph-name="Idieresis" unicode="&#xcf;" horiz-adv-x="805" 
d="M210 0h385v1650h-385v-1650zM639 1835q79 0 134 55t55 134t-55 134t-134 55t-134 -55t-55 -134t55 -134t134 -55zM167 1835q79 0 134 55t55 134t-55 134t-134 55t-134 -55t-55 -134t55 -134t134 -55z" />
    <glyph glyph-name="Eth" unicode="&#xd0;" horiz-adv-x="1650" 
d="M258 0h482q170 0 320.5 60.5t265.5 171t180.5 261t65.5 331.5q0 180 -65.5 331t-181 262t-265.5 172t-320 61h-482v-668h-164v-314h164v-668zM643 345v323h209v314h-209v323h52q139 0 242.5 -64.5t161.5 -173.5t57 -243q0 -134 -58.5 -242.5t-162 -172.5t-240.5 -64h-52z
" />
    <glyph glyph-name="Ntilde" unicode="&#xd1;" horiz-adv-x="1838" 
d="M210 0h385v1009l648 -1009h385v1650h-385v-1009l-648 1009h-385v-1650zM1125 1765q55 0 121.5 34.5t126.5 93.5t95 134l-179 158q-17 -56 -60.5 -102t-88.5 -46q-34 0 -82.5 25t-107 57t-121 57t-123.5 25q-102 0 -192.5 -75.5t-144.5 -186.5l181 -159q17 55 55.5 101.5
t105.5 46.5q50 0 101.5 -24.5t104.5 -57t105 -57t103 -24.5z" />
    <glyph glyph-name="Ograve" unicode="&#xd2;" horiz-adv-x="1828" 
d="M914 -32q173 0 324 66t265 183.5t178.5 273t64.5 333.5t-64.5 333.5t-178.5 273t-265 183.5t-324 66t-324 -66t-265 -183.5t-178.5 -273t-64.5 -333.5t64.5 -333.5t178.5 -273t265 -183.5t324 -66zM914 340q-123 0 -217 61t-147 170.5t-53 252.5q0 144 53 253t147 170
t217 61q124 0 217.5 -61t146.5 -170t53 -253q0 -143 -53 -252.5t-146.5 -170.5t-217.5 -61zM1017 1743l150 124l-308 463l-239 -182z" />
    <glyph glyph-name="Oacute" unicode="&#xd3;" horiz-adv-x="1828" 
d="M914 -32q173 0 324 66t265 183.5t178.5 273t64.5 333.5t-64.5 333.5t-178.5 273t-265 183.5t-324 66t-324 -66t-265 -183.5t-178.5 -273t-64.5 -333.5t64.5 -333.5t178.5 -273t265 -183.5t324 -66zM914 340q-123 0 -217 61t-147 170.5t-53 252.5q0 144 53 253t147 170
t217 61q124 0 217.5 -61t146.5 -170t53 -253q0 -143 -53 -252.5t-146.5 -170.5t-217.5 -61zM851 1743l397 405l-239 182l-308 -463z" />
    <glyph glyph-name="Ocircumflex" unicode="&#xd4;" horiz-adv-x="1828" 
d="M914 -32q173 0 324 66t265 183.5t178.5 273t64.5 333.5t-64.5 333.5t-178.5 273t-265 183.5t-324 66t-324 -66t-265 -183.5t-178.5 -273t-64.5 -333.5t64.5 -333.5t178.5 -273t265 -183.5t324 -66zM914 340q-123 0 -217 61t-147 170.5t-53 252.5q0 144 53 253t147 170
t217 61q124 0 217.5 -61t146.5 -170t53 -253q0 -143 -53 -252.5t-146.5 -170.5t-217.5 -61zM608 1819l306 224l306 -224l138 186l-444 327l-444 -327z" />
    <glyph glyph-name="Otilde" unicode="&#xd5;" horiz-adv-x="1828" 
d="M914 -32q173 0 324 66t265 183.5t178.5 273t64.5 333.5t-64.5 333.5t-178.5 273t-265 183.5t-324 66t-324 -66t-265 -183.5t-178.5 -273t-64.5 -333.5t64.5 -333.5t178.5 -273t265 -183.5t324 -66zM914 340q-123 0 -217 61t-147 170.5t-53 252.5q0 144 53 253t147 170
t217 61q124 0 217.5 -61t146.5 -170t53 -253q0 -143 -53 -252.5t-146.5 -170.5t-217.5 -61zM1120 1791q55 0 121.5 34.5t126.5 93.5t95 134l-179 158q-17 -56 -60.5 -102t-88.5 -46q-34 0 -82.5 25t-107 57t-121 57t-123.5 25q-102 0 -192.5 -75.5t-144.5 -186.5l181 -159
q17 55 55.5 101.5t105.5 46.5q50 0 101.5 -24.5t104.5 -57t105 -57t103 -24.5z" />
    <glyph glyph-name="Odieresis" unicode="&#xd6;" horiz-adv-x="1828" 
d="M914 -32q173 0 324 66t265 183.5t178.5 273t64.5 333.5t-64.5 333.5t-178.5 273t-265 183.5t-324 66t-324 -66t-265 -183.5t-178.5 -273t-64.5 -333.5t64.5 -333.5t178.5 -273t265 -183.5t324 -66zM914 340q-123 0 -217 61t-147 170.5t-53 252.5q0 144 53 253t147 170
t217 61q124 0 217.5 -61t146.5 -170t53 -253q0 -143 -53 -252.5t-146.5 -170.5t-217.5 -61zM1150 1861q79 0 134 55t55 134t-55 134t-134 55t-134 -55t-55 -134t55 -134t134 -55zM678 1861q79 0 134 55t55 134t-55 134t-134 55t-134 -55t-55 -134t55 -134t134 -55z" />
    <glyph glyph-name="multiply" unicode="&#xd7;" horiz-adv-x="1284" 
d="M340 307l302 300l302 -300l221 219l-302 304l302 303l-221 219l-302 -300l-301 300l-222 -219l302 -303l-302 -304z" />
    <glyph glyph-name="Oslash" unicode="&#xd8;" horiz-adv-x="1828" 
d="M426 -29l89 111q92 -55 197 -84.5t219 -29.5q173 0 324 66t265 183.5t178.5 273t64.5 333.5q0 161 -53.5 304.5t-148.5 255.5l118 147l-230 176l-109 -136q-91 52 -194 80.5t-215 28.5q-173 0 -324 -66t-265 -183.5t-178.5 -273t-64.5 -333.5q0 -160 53 -302.5
t146 -254.5l-102 -128zM514 824q0 143 53 252.5t147 170.5t217 61q92 0 171 -36l-544 -680q-44 104 -44 232zM931 340q-96 0 -177 39l548 682q46 -105 46 -237q0 -143 -53 -252.5t-146.5 -170.5t-217.5 -61z" />
    <glyph glyph-name="Ugrave" unicode="&#xd9;" horiz-adv-x="1657" 
d="M828 -32q320 0 484.5 156t164.5 460v1066h-386v-953q0 -193 -59.5 -271.5t-203.5 -78.5q-143 0 -202.5 78.5t-59.5 271.5v953h-386v-1066q0 -304 164 -460t484 -156zM932 1717l150 124l-308 463l-239 -182z" />
    <glyph glyph-name="Uacute" unicode="&#xda;" horiz-adv-x="1657" 
d="M828 -32q320 0 484.5 156t164.5 460v1066h-386v-953q0 -193 -59.5 -271.5t-203.5 -78.5q-143 0 -202.5 78.5t-59.5 271.5v953h-386v-1066q0 -304 164 -460t484 -156zM767 1717l397 405l-239 182l-308 -463z" />
    <glyph glyph-name="Ucircumflex" unicode="&#xdb;" horiz-adv-x="1657" 
d="M828 -32q320 0 484.5 156t164.5 460v1066h-386v-953q0 -193 -59.5 -271.5t-203.5 -78.5q-143 0 -202.5 78.5t-59.5 271.5v953h-386v-1066q0 -304 164 -460t484 -156zM523 1793l306 224l306 -224l138 186l-444 327l-444 -327z" />
    <glyph glyph-name="Udieresis" unicode="&#xdc;" horiz-adv-x="1657" 
d="M828 -32q320 0 484.5 156t164.5 460v1066h-386v-953q0 -193 -59.5 -271.5t-203.5 -78.5q-143 0 -202.5 78.5t-59.5 271.5v953h-386v-1066q0 -304 164 -460t484 -156zM1065 1835q79 0 134 55t55 134t-55 134t-134 55t-134 -55t-55 -134t55 -134t134 -55zM593 1835
q79 0 134 55t55 134t-55 134t-134 55t-134 -55t-55 -134t55 -134t134 -55z" />
    <glyph glyph-name="Yacute" unicode="&#xdd;" horiz-adv-x="1529" 
d="M572 0h385v742l610 908h-464l-339 -517l-338 517h-465l611 -908v-742zM702 1717l397 405l-239 182l-308 -463z" />
    <glyph glyph-name="Thorn" unicode="&#xde;" horiz-adv-x="1433" 
d="M210 0h385v305h225q172 0 298.5 66t196.5 185.5t70 279.5q0 237 -151 373.5t-414 136.5h-225v304h-385v-1650zM595 611v428h101q134 0 203.5 -55t69.5 -155q0 -102 -72 -160t-201 -58h-101z" />
    <glyph glyph-name="germandbls" unicode="&#xdf;" horiz-adv-x="1390" 
d="M699 -32h31q171 4 302 74t205 191.5t74 277.5q0 285 -263 409q198 115 198 342q0 139 -67 249.5t-182.5 174.5t-261.5 64q-147 0 -263.5 -67t-184.5 -182t-68 -260v-317h-132v-278h132v-646h364v1255q0 89 40 139.5t108 50.5q75 0 123.5 -54t48.5 -137
q0 -88 -48.5 -145.5t-124.5 -57.5h-31v-276h31q87 0 141 -66t54 -172q0 -103 -54.5 -170t-140.5 -67h-31v-332z" />
    <glyph glyph-name="agrave" unicode="&#xe0;" 
d="M593 -32q187 0 333 138v-106h365v1024h-365v-94q-61 59 -148 92.5t-185 33.5q-148 0 -262.5 -71.5t-179.5 -194.5t-65 -276q0 -158 68 -281.5t183 -194t256 -70.5zM703 277q-100 0 -166 66.5t-66 168.5q0 101 66 168t166 67q101 0 165.5 -66.5t64.5 -168.5t-64.5 -168.5
t-165.5 -66.5zM877 1123l150 124l-308 463l-239 -182z" />
    <glyph glyph-name="aacute" unicode="&#xe1;" 
d="M593 -32q187 0 333 138v-106h365v1024h-365v-94q-61 59 -148 92.5t-185 33.5q-148 0 -262.5 -71.5t-179.5 -194.5t-65 -276q0 -158 68 -281.5t183 -194t256 -70.5zM703 277q-100 0 -166 66.5t-66 168.5q0 101 66 168t166 67q101 0 165.5 -66.5t64.5 -168.5t-64.5 -168.5
t-165.5 -66.5zM712 1123l397 405l-239 182l-308 -463z" />
    <glyph glyph-name="acircumflex" unicode="&#xe2;" 
d="M593 -32q187 0 333 138v-106h365v1024h-365v-94q-61 59 -148 92.5t-185 33.5q-148 0 -262.5 -71.5t-179.5 -194.5t-65 -276q0 -158 68 -281.5t183 -194t256 -70.5zM703 277q-100 0 -166 66.5t-66 168.5q0 101 66 168t166 67q101 0 165.5 -66.5t64.5 -168.5t-64.5 -168.5
t-165.5 -66.5zM468 1199l306 224l306 -224l138 186l-444 327l-444 -327z" />
    <glyph glyph-name="atilde" unicode="&#xe3;" 
d="M593 -32q187 0 333 138v-106h365v1024h-365v-94q-61 59 -148 92.5t-185 33.5q-148 0 -262.5 -71.5t-179.5 -194.5t-65 -276q0 -158 68 -281.5t183 -194t256 -70.5zM703 277q-100 0 -166 66.5t-66 168.5q0 101 66 168t166 67q101 0 165.5 -66.5t64.5 -168.5t-64.5 -168.5
t-165.5 -66.5zM980 1171q55 0 121.5 34.5t126.5 93.5t95 134l-179 158q-17 -56 -60.5 -102t-88.5 -46q-34 0 -82.5 25t-107 57t-121 57t-123.5 25q-102 0 -192.5 -75.5t-144.5 -186.5l181 -159q17 55 55.5 101.5t105.5 46.5q50 0 101.5 -24.5t104.5 -57t105 -57t103 -24.5z
" />
    <glyph glyph-name="adieresis" unicode="&#xe4;" 
d="M593 -32q187 0 333 138v-106h365v1024h-365v-94q-61 59 -148 92.5t-185 33.5q-148 0 -262.5 -71.5t-179.5 -194.5t-65 -276q0 -158 68 -281.5t183 -194t256 -70.5zM703 277q-100 0 -166 66.5t-66 168.5q0 101 66 168t166 67q101 0 165.5 -66.5t64.5 -168.5t-64.5 -168.5
t-165.5 -66.5zM1011 1241q79 0 134 55t55 134t-55 134t-134 55t-134 -55t-55 -134t55 -134t134 -55zM539 1241q79 0 134 55t55 134t-55 134t-134 55t-134 -55t-55 -134t55 -134t134 -55z" />
    <glyph glyph-name="aring" unicode="&#xe5;" 
d="M593 -32q187 0 333 138v-106h365v1024h-365v-94q-61 59 -148 92.5t-185 33.5q-148 0 -262.5 -71.5t-179.5 -194.5t-65 -276q0 -158 68 -281.5t183 -194t256 -70.5zM703 277q-100 0 -166 66.5t-66 168.5q0 101 66 168t166 67q101 0 165.5 -66.5t64.5 -168.5t-64.5 -168.5
t-165.5 -66.5zM774 1211q91 0 165 36.5t117.5 101.5t43.5 149t-43.5 148.5t-117.5 101.5t-165 37t-165 -37t-117.5 -101.5t-43.5 -148.5t43.5 -149t117.5 -101.5t165 -36.5zM774 1374q-49 0 -85 36.5t-36 87.5t36 87t85 36t85.5 -36t36.5 -87t-36.5 -87.5t-85.5 -36.5z" />
    <glyph glyph-name="ae" unicode="&#xe6;" horiz-adv-x="1948" 
d="M454 -32q96 0 200 35t265 114q173 -149 407 -149q173 0 306.5 69.5t209.5 198.5l-262 131q-56 -61 -106 -85.5t-118 -24.5q-109 0 -172.5 55t-63.5 150h738q2 28 2.5 40t0.5 25q0 158 -68.5 277t-191.5 185.5t-285 66.5q-103 0 -195 -31t-169 -89q-67 55 -174.5 87.5
t-235.5 32.5q-115 0 -218.5 -24.5t-180.5 -74.5l114 -248q46 24 123.5 41t138.5 17q101 0 167.5 -47t66.5 -122v-72q-60 35 -139 55t-156 20q-112 0 -198.5 -40.5t-135 -112.5t-48.5 -168q0 -147 101 -229.5t277 -82.5zM1131 655q4 71 55.5 114t133.5 43q79 0 126.5 -41.5
t58.5 -115.5h-374zM601 186q-69 0 -116.5 33.5t-47.5 82.5q0 47 45.5 77t113.5 30q71 0 120.5 -32t49.5 -80t-48.5 -79.5t-116.5 -31.5z" />
    <glyph glyph-name="ccedilla" unicode="&#xe7;" horiz-adv-x="1035" 
d="M649 -32q100 0 189 28t144 68l-121 246q-26 -19 -66.5 -31.5t-87.5 -12.5q-115 0 -183.5 72.5t-68.5 173.5q0 58 27.5 114.5t83.5 94t139 37.5q95 0 156 -44l121 246q-53 41 -144.5 68.5t-190.5 27.5q-124 0 -229 -44.5t-183 -121.5t-121.5 -175t-43.5 -204
q0 -112 46 -210.5t126 -173.5t185 -117t222 -42zM584 -541q121 0 198.5 66.5t77.5 170.5q0 115 -103 163q-63 36 -139 34l40 124h-148l-77 -234l21 -16q26 15 89 15q55 0 88 -21.5t33 -56.5q0 -32 -24 -52t-64 -20q-87 0 -157 87l-138 -103q132 -157 303 -157z" />
    <glyph glyph-name="egrave" unicode="&#xe8;" horiz-adv-x="1277" 
d="M665 -32q165 0 299.5 71.5t206.5 196.5l-262 131q-55 -60 -105.5 -85t-117.5 -25q-109 0 -172.5 55.5t-63.5 149.5h737q3 33 3.5 44t0.5 24q0 156 -68 274.5t-188.5 185t-280.5 66.5q-163 0 -294.5 -72t-208.5 -195t-77 -276q0 -155 78 -278.5t211.5 -195t301.5 -71.5z
M461 646q5 72 54 112.5t131 40.5q162 0 187 -153h-372zM756 1119l150 124l-308 463l-239 -182z" />
    <glyph glyph-name="eacute" unicode="&#xe9;" horiz-adv-x="1277" 
d="M665 -32q165 0 299.5 71.5t206.5 196.5l-262 131q-55 -60 -105.5 -85t-117.5 -25q-109 0 -172.5 55.5t-63.5 149.5h737q3 33 3.5 44t0.5 24q0 156 -68 274.5t-188.5 185t-280.5 66.5q-163 0 -294.5 -72t-208.5 -195t-77 -276q0 -155 78 -278.5t211.5 -195t301.5 -71.5z
M461 646q5 72 54 112.5t131 40.5q162 0 187 -153h-372zM591 1119l397 405l-239 182l-308 -463z" />
    <glyph glyph-name="ecircumflex" unicode="&#xea;" horiz-adv-x="1277" 
d="M665 -32q165 0 299.5 71.5t206.5 196.5l-262 131q-55 -60 -105.5 -85t-117.5 -25q-109 0 -172.5 55.5t-63.5 149.5h737q3 33 3.5 44t0.5 24q0 156 -68 274.5t-188.5 185t-280.5 66.5q-163 0 -294.5 -72t-208.5 -195t-77 -276q0 -155 78 -278.5t211.5 -195t301.5 -71.5z
M461 646q5 72 54 112.5t131 40.5q162 0 187 -153h-372zM347 1195l306 224l306 -224l138 186l-444 327l-444 -327z" />
    <glyph glyph-name="edieresis" unicode="&#xeb;" horiz-adv-x="1277" 
d="M665 -32q165 0 299.5 71.5t206.5 196.5l-262 131q-55 -60 -105.5 -85t-117.5 -25q-109 0 -172.5 55.5t-63.5 149.5h737q3 33 3.5 44t0.5 24q0 156 -68 274.5t-188.5 185t-280.5 66.5q-163 0 -294.5 -72t-208.5 -195t-77 -276q0 -155 78 -278.5t211.5 -195t301.5 -71.5z
M461 646q5 72 54 112.5t131 40.5q162 0 187 -153h-372zM890 1237q79 0 134 55t55 134t-55 134t-134 55t-134 -55t-55 -134t55 -134t134 -55zM418 1237q79 0 134 55t55 134t-55 134t-134 55t-134 -55t-55 -134t55 -134t134 -55z" />
    <glyph glyph-name="igrave" unicode="&#xec;" horiz-adv-x="701" 
d="M168 0h365v1024h-365v-1024zM453 1091l150 124l-308 463l-239 -182z" />
    <glyph glyph-name="iacute" unicode="&#xed;" horiz-adv-x="701" 
d="M168 0h365v1024h-365v-1024zM288 1091l397 405l-239 182l-308 -463z" />
    <glyph glyph-name="icircumflex" unicode="&#xee;" horiz-adv-x="701" 
d="M168 0h365v1024h-365v-1024zM44 1167l306 224l306 -224l138 186l-444 327l-444 -327z" />
    <glyph glyph-name="idieresis" unicode="&#xef;" horiz-adv-x="701" 
d="M168 0h365v1024h-365v-1024zM587 1209q79 0 134 55t55 134t-55 134t-134 55t-134 -55t-55 -134t55 -134t134 -55zM115 1209q79 0 134 55t55 134t-55 134t-134 55t-134 -55t-55 -134t55 -134t134 -55z" />
    <glyph glyph-name="eth" unicode="&#xf0;" horiz-adv-x="1415" 
d="M697 -32q179 0 317.5 70t218 193t79.5 281q0 182 -45 331t-122 268.5t-172 213t-196 163.5l102 102l-155 160l-146 -144q-96 52 -197 88t-182 56l-85 -306q41 -10 100 -30.5t120 -51.5l-124 -122l159 -159l166 165q61 -43 120 -96.5t109 -118.5q-32 39 -94 39
q-97 0 -201 -34t-193 -103.5t-144 -174.5t-55 -246q0 -158 77.5 -281t217 -193t325.5 -70zM696 279q-104 0 -168 66t-64 167q0 104 67.5 169.5t164.5 65.5q95 0 162 -65.5t67 -169.5q0 -101 -64.5 -167t-164.5 -66z" />
    <glyph glyph-name="ntilde" unicode="&#xf1;" horiz-adv-x="1428" 
d="M168 0h365v584q0 83 52.5 135.5t140.5 52.5q87 0 138 -53.5t51 -145.5v-573h365v651q0 118 -52.5 209.5t-144 143.5t-208.5 52q-98 0 -187.5 -37t-154.5 -99v104h-365v-1024zM944 1171q55 0 121.5 34.5t126.5 93.5t95 134l-179 158q-17 -56 -60.5 -102t-88.5 -46
q-34 0 -82.5 25t-107 57t-121 57t-123.5 25q-102 0 -192.5 -75.5t-144.5 -186.5l181 -159q17 55 55.5 101.5t105.5 46.5q50 0 101.5 -24.5t104.5 -57t105 -57t103 -24.5z" />
    <glyph glyph-name="ograve" unicode="&#xf2;" horiz-adv-x="1374" 
d="M687 -32q173 0 312 69.5t220 192t81 282.5t-81 282.5t-220 192t-312 69.5t-312 -69.5t-220 -192t-81 -282.5t81 -282.5t220 -192t312 -69.5zM687 278q-96 0 -163.5 65.5t-67.5 168.5q0 104 67.5 169t163.5 65t163.5 -65t67.5 -169q0 -103 -67.5 -168.5t-163.5 -65.5z
M790 1123l150 124l-308 463l-239 -182z" />
    <glyph glyph-name="oacute" unicode="&#xf3;" horiz-adv-x="1374" 
d="M687 -32q173 0 312 69.5t220 192t81 282.5t-81 282.5t-220 192t-312 69.5t-312 -69.5t-220 -192t-81 -282.5t81 -282.5t220 -192t312 -69.5zM687 278q-96 0 -163.5 65.5t-67.5 168.5q0 104 67.5 169t163.5 65t163.5 -65t67.5 -169q0 -103 -67.5 -168.5t-163.5 -65.5z
M624 1123l397 405l-239 182l-308 -463z" />
    <glyph glyph-name="ocircumflex" unicode="&#xf4;" horiz-adv-x="1374" 
d="M687 -32q173 0 312 69.5t220 192t81 282.5t-81 282.5t-220 192t-312 69.5t-312 -69.5t-220 -192t-81 -282.5t81 -282.5t220 -192t312 -69.5zM687 278q-96 0 -163.5 65.5t-67.5 168.5q0 104 67.5 169t163.5 65t163.5 -65t67.5 -169q0 -103 -67.5 -168.5t-163.5 -65.5z
M381 1199l306 224l306 -224l138 186l-444 327l-444 -327z" />
    <glyph glyph-name="otilde" unicode="&#xf5;" horiz-adv-x="1374" 
d="M687 -32q173 0 312 69.5t220 192t81 282.5t-81 282.5t-220 192t-312 69.5t-312 -69.5t-220 -192t-81 -282.5t81 -282.5t220 -192t312 -69.5zM687 278q-96 0 -163.5 65.5t-67.5 168.5q0 104 67.5 169t163.5 65t163.5 -65t67.5 -169q0 -103 -67.5 -168.5t-163.5 -65.5z
M893 1171q55 0 121.5 34.5t126.5 93.5t95 134l-179 158q-17 -56 -60.5 -102t-88.5 -46q-34 0 -82.5 25t-107 57t-121 57t-123.5 25q-102 0 -192.5 -75.5t-144.5 -186.5l181 -159q17 55 55.5 101.5t105.5 46.5q50 0 101.5 -24.5t104.5 -57t105 -57t103 -24.5z" />
    <glyph glyph-name="odieresis" unicode="&#xf6;" horiz-adv-x="1374" 
d="M687 -32q173 0 312 69.5t220 192t81 282.5t-81 282.5t-220 192t-312 69.5t-312 -69.5t-220 -192t-81 -282.5t81 -282.5t220 -192t312 -69.5zM687 278q-96 0 -163.5 65.5t-67.5 168.5q0 104 67.5 169t163.5 65t163.5 -65t67.5 -169q0 -103 -67.5 -168.5t-163.5 -65.5z
M923 1241q79 0 134 55t55 134t-55 134t-134 55t-134 -55t-55 -134t55 -134t134 -55zM451 1241q79 0 134 55t55 134t-55 134t-134 55t-134 -55t-55 -134t55 -134t134 -55z" />
    <glyph glyph-name="divide" unicode="&#xf7;" horiz-adv-x="1251" 
d="M622 1108q67 0 115 48.5t48 119.5t-48 119.5t-115 48.5t-115 -48.5t-48 -119.5t48 -119.5t115 -48.5zM108 672h1027v316h-1027v-316zM622 216q67 0 115 48.5t48 119.5t-48 119.5t-115 48.5t-115 -48.5t-48 -119.5t48 -119.5t115 -48.5z" />
    <glyph glyph-name="oslash" unicode="&#xf8;" horiz-adv-x="1374" 
d="M162 -32h158l56 69q141 -69 311 -69q173 0 312 69.5t220 192t81 282.5q0 128 -53 232.5t-145 177.5l110 134h-158l-56 -69q-141 69 -311 69q-173 0 -312 -69.5t-220 -192t-81 -282.5q0 -128 53 -232.5t145 -177.5zM456 512q0 104 67.5 169t163.5 65q51 0 97 -20
l-288 -350q-40 59 -40 136zM687 278q-51 0 -97 20l288 350q40 -59 40 -136q0 -103 -67.5 -168.5t-163.5 -65.5z" />
    <glyph glyph-name="ugrave" unicode="&#xf9;" horiz-adv-x="1407" 
d="M703 -32q298 0 430 113t132 367v576h-365v-486q0 -151 -44.5 -212.5t-152.5 -61.5q-109 0 -153 61.5t-44 212.5v486h-365v-576q0 -254 132 -367t430 -113zM806 1091l150 124l-308 463l-239 -182z" />
    <glyph glyph-name="uacute" unicode="&#xfa;" horiz-adv-x="1407" 
d="M703 -32q298 0 430 113t132 367v576h-365v-486q0 -151 -44.5 -212.5t-152.5 -61.5q-109 0 -153 61.5t-44 212.5v486h-365v-576q0 -254 132 -367t430 -113zM641 1091l397 405l-239 182l-308 -463z" />
    <glyph glyph-name="ucircumflex" unicode="&#xfb;" horiz-adv-x="1407" 
d="M703 -32q298 0 430 113t132 367v576h-365v-486q0 -151 -44.5 -212.5t-152.5 -61.5q-109 0 -153 61.5t-44 212.5v486h-365v-576q0 -254 132 -367t430 -113zM398 1167l306 224l306 -224l138 186l-444 327l-444 -327z" />
    <glyph glyph-name="udieresis" unicode="&#xfc;" horiz-adv-x="1407" 
d="M703 -32q298 0 430 113t132 367v576h-365v-486q0 -151 -44.5 -212.5t-152.5 -61.5q-109 0 -153 61.5t-44 212.5v486h-365v-576q0 -254 132 -367t430 -113zM940 1209q79 0 134 55t55 134t-55 134t-134 55t-134 -55t-55 -134t55 -134t134 -55zM468 1209q79 0 134 55t55 134
t-55 134t-134 55t-134 -55t-55 -134t55 -134t134 -55z" />
    <glyph glyph-name="yacute" unicode="&#xfd;" horiz-adv-x="1272" 
d="M82 -520h418l811 1544h-419l-238 -511l-281 511h-419l487 -859zM574 1091l397 405l-239 182l-308 -463z" />
    <glyph glyph-name="thorn" unicode="&#xfe;" horiz-adv-x="1460" 
d="M168 -520h365v626q60 -59 145.5 -98.5t187.5 -39.5q150 0 264.5 73.5t178.5 197.5t64 273q0 150 -64 273.5t-178.5 197t-264.5 73.5q-102 0 -186 -32.5t-147 -93.5v790h-365v-2240zM756 277q-100 0 -165.5 67t-65.5 168q0 103 67.5 169t163.5 66q98 0 165 -66t67 -169
q0 -101 -63.5 -168t-168.5 -67z" />
    <glyph glyph-name="ydieresis" unicode="&#xff;" horiz-adv-x="1272" 
d="M82 -520h418l811 1544h-419l-238 -511l-281 511h-419l487 -859zM873 1209q79 0 134 55t55 134t-55 134t-134 55t-134 -55t-55 -134t55 -134t134 -55zM401 1209q79 0 134 55t55 134t-55 134t-134 55t-134 -55t-55 -134t55 -134t134 -55z" />
    <glyph glyph-name="Amacron" unicode="&#x100;" horiz-adv-x="1667" 
d="M-13 0h415l119 322h626l118 -322h415l-667 1650h-358zM652 660l182 467l181 -467h-363zM426 1891h816v246h-816v-246z" />
    <glyph glyph-name="amacron" unicode="&#x101;" 
d="M593 -32q187 0 333 138v-106h365v1024h-365v-94q-61 59 -148 92.5t-185 33.5q-148 0 -262.5 -71.5t-179.5 -194.5t-65 -276q0 -158 68 -281.5t183 -194t256 -70.5zM703 277q-100 0 -166 66.5t-66 168.5q0 101 66 168t166 67q101 0 165.5 -66.5t64.5 -168.5t-64.5 -168.5
t-165.5 -66.5zM366 1297h816v246h-816v-246z" />
    <glyph glyph-name="Abreve" unicode="&#x102;" horiz-adv-x="1667" 
d="M-13 0h415l119 322h626l118 -322h415l-667 1650h-358zM652 660l182 467l181 -467h-363zM834 1878q130 0 230 46.5t161 129t73 189.5l-258 63q-4 -49 -26.5 -96t-66.5 -77.5t-113 -30.5t-113 30.5t-66 77.5t-27 96l-258 -63q13 -107 74 -189.5t161 -129t229 -46.5z" />
    <glyph glyph-name="abreve" unicode="&#x103;" 
d="M593 -32q187 0 333 138v-106h365v1024h-365v-94q-61 59 -148 92.5t-185 33.5q-148 0 -262.5 -71.5t-179.5 -194.5t-65 -276q0 -158 68 -281.5t183 -194t256 -70.5zM703 277q-100 0 -166 66.5t-66 168.5q0 101 66 168t166 67q101 0 165.5 -66.5t64.5 -168.5t-64.5 -168.5
t-165.5 -66.5zM775 1284q130 0 230 46.5t161 129t73 189.5l-258 63q-4 -49 -26.5 -96t-66.5 -77.5t-113 -30.5t-113 30.5t-66 77.5t-27 96l-258 -63q13 -107 74 -189.5t161 -129t229 -46.5z" />
    <glyph glyph-name="Aogonek" unicode="&#x104;" horiz-adv-x="1667" 
d="M-13 0h415l119 322h626l118 -322h415l-667 1650h-358zM652 660l182 467l181 -467h-363zM1597 -549q80 0 154 38.5t120 105.5l-147 110q-38 -58 -96 -58q-36 0 -54.5 23t-18.5 62q0 55 34.5 131t91.5 145h-166q-170 -192 -170 -332q0 -93 71.5 -159t180.5 -66z" />
    <glyph glyph-name="aogonek" unicode="&#x105;" 
d="M593 -32q187 0 333 138v-106h365v1024h-365v-94q-61 59 -148 92.5t-185 33.5q-148 0 -262.5 -71.5t-179.5 -194.5t-65 -276q0 -158 68 -281.5t183 -194t256 -70.5zM703 277q-100 0 -166 66.5t-66 168.5q0 101 66 168t166 67q101 0 165.5 -66.5t64.5 -168.5t-64.5 -168.5
t-165.5 -66.5zM1207 -557q80 0 154 38.5t120 105.5l-147 110q-38 -58 -96 -58q-36 0 -54.5 23t-18.5 62q0 55 34.5 131t91.5 145h-166q-170 -192 -170 -332q0 -93 71.5 -159t180.5 -66z" />
    <glyph glyph-name="Cacute" unicode="&#x106;" horiz-adv-x="1501" 
d="M960 -32q155 0 292.5 43.5t228.5 107.5l-164 328q-61 -46 -150 -73t-184 -27q-147 0 -265 63t-187.5 171t-69.5 243q0 136 69.5 243.5t187.5 170.5t265 63q95 0 184 -26.5t150 -73.5l164 328q-96 67 -234 109t-289 42q-186 0 -351.5 -66.5t-292 -184t-199 -273
t-72.5 -333.5q0 -177 72 -332t199 -272.5t293 -184t353 -66.5zM896 1747l397 405l-239 182l-308 -463z" />
    <glyph glyph-name="cacute" unicode="&#x107;" horiz-adv-x="1035" 
d="M649 -32q100 0 189 28t144 68l-121 246q-26 -19 -66.5 -31.5t-87.5 -12.5q-115 0 -183.5 72.5t-68.5 173.5q0 58 27.5 114.5t83.5 94t139 37.5q95 0 156 -44l121 246q-53 41 -144.5 68.5t-190.5 27.5q-124 0 -229 -44.5t-183 -121.5t-121.5 -175t-43.5 -204
q0 -112 46 -210.5t126 -173.5t185 -117t222 -42zM525 1123l397 405l-239 182l-308 -463z" />
    <glyph glyph-name="Cdotaccent" unicode="&#x10a;" horiz-adv-x="1501" 
d="M960 -32q155 0 292.5 43.5t228.5 107.5l-164 328q-61 -46 -150 -73t-184 -27q-147 0 -265 63t-187.5 171t-69.5 243q0 136 69.5 243.5t187.5 170.5t265 63q95 0 184 -26.5t150 -73.5l164 328q-96 67 -234 109t-289 42q-186 0 -351.5 -66.5t-292 -184t-199 -273
t-72.5 -333.5q0 -177 72 -332t199 -272.5t293 -184t353 -66.5zM959 1925q88 0 150 62.5t62 150.5t-62 150.5t-150 62.5t-151 -62.5t-63 -150.5t63 -150.5t151 -62.5z" />
    <glyph glyph-name="cdotaccent" unicode="&#x10b;" horiz-adv-x="1035" 
d="M649 -32q100 0 189 28t144 68l-121 246q-26 -19 -66.5 -31.5t-87.5 -12.5q-115 0 -183.5 72.5t-68.5 173.5q0 58 27.5 114.5t83.5 94t139 37.5q95 0 156 -44l121 246q-53 41 -144.5 68.5t-190.5 27.5q-124 0 -229 -44.5t-183 -121.5t-121.5 -175t-43.5 -204
q0 -112 46 -210.5t126 -173.5t185 -117t222 -42zM589 1301q88 0 150 62.5t62 150.5t-62 150.5t-150 62.5t-151 -62.5t-63 -150.5t63 -150.5t151 -62.5z" />
    <glyph glyph-name="Ccaron" unicode="&#x10c;" horiz-adv-x="1501" 
d="M960 -32q155 0 292.5 43.5t228.5 107.5l-164 328q-61 -46 -150 -73t-184 -27q-147 0 -265 63t-187.5 171t-69.5 243q0 136 69.5 243.5t187.5 170.5t265 63q95 0 184 -26.5t150 -73.5l164 328q-96 67 -234 109t-289 42q-186 0 -351.5 -66.5t-292 -184t-199 -273
t-72.5 -333.5q0 -177 72 -332t199 -272.5t293 -184t353 -66.5zM958 1803l444 327l-138 186l-306 -224l-306 224l-138 -186z" />
    <glyph glyph-name="ccaron" unicode="&#x10d;" horiz-adv-x="1035" 
d="M649 -32q100 0 189 28t144 68l-121 246q-26 -19 -66.5 -31.5t-87.5 -12.5q-115 0 -183.5 72.5t-68.5 173.5q0 58 27.5 114.5t83.5 94t139 37.5q95 0 156 -44l121 246q-53 41 -144.5 68.5t-190.5 27.5q-124 0 -229 -44.5t-183 -121.5t-121.5 -175t-43.5 -204
q0 -112 46 -210.5t126 -173.5t185 -117t222 -42zM587 1179l444 327l-138 186l-306 -224l-306 224l-138 -186z" />
    <glyph glyph-name="Dcaron" unicode="&#x10e;" horiz-adv-x="1602" 
d="M210 0h482q176 0 327.5 62.5t265 174.5t176.5 262t63 324t-63.5 324.5t-177 263.5t-264.5 176t-327 63h-482v-1650zM595 345v960h52q134 0 238 -62t163.5 -170.5t59.5 -248.5q0 -139 -59.5 -247t-163.5 -170t-238 -62h-52zM801 1773l444 327l-138 186l-306 -224l-306 224
l-138 -186z" />
    <glyph glyph-name="dcaron" unicode="&#x10f;" 
d="M589 -32q95 0 181.5 36t155.5 102v-106h365v1720h-365v-790q-61 59 -146 92.5t-182 33.5q-148 0 -264 -71t-182 -194t-66 -279q0 -160 68.5 -282.5t183 -192t251.5 -69.5zM701 277q-101 0 -165.5 66t-64.5 166q0 103 66 170.5t166 67.5q98 0 164 -67.5t66 -169.5
q0 -100 -65 -166.5t-167 -66.5zM635 1630l444 327l-138 186l-306 -224l-306 224l-138 -186z" />
    <glyph glyph-name="Dcroat" unicode="&#x110;" horiz-adv-x="1650" 
d="M258 0h482q170 0 320.5 60.5t265.5 171t180.5 261t65.5 331.5q0 180 -65.5 331t-181 262t-265.5 172t-320 61h-482v-668h-164v-314h164v-668zM643 345v323h209v314h-209v323h52q139 0 242.5 -64.5t161.5 -173.5t57 -243q0 -134 -58.5 -242.5t-162 -172.5t-240.5 -64h-52z
" />
    <glyph glyph-name="dcroat" unicode="&#x111;" 
d="M593 -32q102 0 187 39.5t146 98.5v-106h365v1254h116v233h-116v233h-365v-233h-243v-233h243v-324q-63 61 -147 93.5t-186 32.5q-150 0 -264 -73.5t-178.5 -197t-64.5 -273.5q0 -149 64.5 -273t178.5 -197.5t264 -73.5zM703 277q-105 0 -168.5 67t-63.5 168
q0 103 67.5 169t164.5 66q96 0 163 -66t67 -169q0 -101 -64.5 -168t-165.5 -67z" />
    <glyph glyph-name="Emacron" unicode="&#x112;" horiz-adv-x="1328" 
d="M210 0h948v338h-563v320h539v338h-539v316h563v338h-948v-1650zM267 1891h816v246h-816v-246z" />
    <glyph glyph-name="emacron" unicode="&#x113;" horiz-adv-x="1277" 
d="M665 -32q165 0 299.5 71.5t206.5 196.5l-262 131q-55 -60 -105.5 -85t-117.5 -25q-109 0 -172.5 55.5t-63.5 149.5h737q3 33 3.5 44t0.5 24q0 156 -68 274.5t-188.5 185t-280.5 66.5q-163 0 -294.5 -72t-208.5 -195t-77 -276q0 -155 78 -278.5t211.5 -195t301.5 -71.5z
M461 646q5 72 54 112.5t131 40.5q162 0 187 -153h-372zM245 1293h816v246h-816v-246z" />
    <glyph glyph-name="Edotaccent" unicode="&#x116;" horiz-adv-x="1328" 
d="M210 0h948v338h-563v320h539v338h-539v316h563v338h-948v-1650zM676 1895q88 0 150 62.5t62 150.5t-62 150.5t-150 62.5t-151 -62.5t-63 -150.5t63 -150.5t151 -62.5z" />
    <glyph glyph-name="edotaccent" unicode="&#x117;" horiz-adv-x="1277" 
d="M665 -32q165 0 299.5 71.5t206.5 196.5l-262 131q-55 -60 -105.5 -85t-117.5 -25q-109 0 -172.5 55.5t-63.5 149.5h737q3 33 3.5 44t0.5 24q0 156 -68 274.5t-188.5 185t-280.5 66.5q-163 0 -294.5 -72t-208.5 -195t-77 -276q0 -155 78 -278.5t211.5 -195t301.5 -71.5z
M461 646q5 72 54 112.5t131 40.5q162 0 187 -153h-372zM655 1297q88 0 150 62.5t62 150.5t-62 150.5t-150 62.5t-151 -62.5t-63 -150.5t63 -150.5t151 -62.5z" />
    <glyph glyph-name="Eogonek" unicode="&#x118;" horiz-adv-x="1328" 
d="M210 0h948v338h-563v320h539v338h-539v316h563v338h-948v-1650zM1075 -557q80 0 154 38.5t120 105.5l-147 110q-38 -58 -96 -58q-36 0 -54.5 23t-18.5 62q0 55 34.5 131t91.5 145h-166q-170 -192 -170 -332q0 -93 71.5 -159t180.5 -66z" />
    <glyph glyph-name="eogonek" unicode="&#x119;" horiz-adv-x="1277" 
d="M665 -32q165 0 299.5 71.5t206.5 196.5l-262 131q-55 -60 -105.5 -85t-117.5 -25q-109 0 -172.5 55.5t-63.5 149.5h737q3 33 3.5 44t0.5 24q0 156 -68 274.5t-188.5 185t-280.5 66.5q-163 0 -294.5 -72t-208.5 -195t-77 -276q0 -155 78 -278.5t211.5 -195t301.5 -71.5z
M461 646q5 72 54 112.5t131 40.5q162 0 187 -153h-372zM669 -549q80 0 154 38.5t120 105.5l-147 110q-38 -58 -96 -58q-36 0 -54.5 23t-18.5 62q0 55 34.5 131t91.5 145h-166q-170 -192 -170 -332q0 -93 71.5 -159t180.5 -66z" />
    <glyph glyph-name="Ecaron" unicode="&#x11a;" horiz-adv-x="1328" 
d="M210 0h948v338h-563v320h539v338h-539v316h563v338h-948v-1650zM675 1773l444 327l-138 186l-306 -224l-306 224l-138 -186z" />
    <glyph glyph-name="ecaron" unicode="&#x11b;" horiz-adv-x="1277" 
d="M665 -32q165 0 299.5 71.5t206.5 196.5l-262 131q-55 -60 -105.5 -85t-117.5 -25q-109 0 -172.5 55.5t-63.5 149.5h737q3 33 3.5 44t0.5 24q0 156 -68 274.5t-188.5 185t-280.5 66.5q-163 0 -294.5 -72t-208.5 -195t-77 -276q0 -155 78 -278.5t211.5 -195t301.5 -71.5z
M461 646q5 72 54 112.5t131 40.5q162 0 187 -153h-372zM653 1175l444 327l-138 186l-306 -224l-306 224l-138 -186z" />
    <glyph glyph-name="Gbreve" unicode="&#x11e;" horiz-adv-x="1734" 
d="M890 -32q150 0 287 51t244 142.5t168.5 213.5t61.5 264v288h-762v-298h369v-12q0 -81 -48 -148t-126.5 -106.5t-172.5 -39.5q-115 0 -208 63.5t-147 180.5t-54 276q0 146 48.5 257t143.5 173.5t232 62.5q105 0 221.5 -37.5t201.5 -108.5l179 299q-128 96 -292 143.5
t-316 47.5q-189 0 -343 -66.5t-264 -184t-169 -272t-59 -331.5q0 -183 61.5 -339.5t171.5 -272.5t256.5 -181t315.5 -65zM921 1904q130 0 230 46.5t161 129t73 189.5l-258 63q-4 -49 -26.5 -96t-66.5 -77.5t-113 -30.5t-113 30.5t-66 77.5t-27 96l-258 -63
q13 -107 74 -189.5t161 -129t229 -46.5z" />
    <glyph glyph-name="gbreve" unicode="&#x11f;" 
d="M677 -550q213 0 349 70.5t200.5 189t64.5 262.5v1052h-365v-94q-61 59 -145.5 92.5t-182.5 33.5q-148 0 -264 -71t-182 -194t-66 -279q0 -160 68.5 -282.5t183 -192t251.5 -69.5q95 0 181.5 36t155.5 102v-106q0 -101 -69 -168t-182 -67q-80 0 -152.5 35t-111.5 93
l-296 -145q63 -147 206.5 -222.5t355.5 -75.5zM701 277q-101 0 -165.5 66t-64.5 166q0 103 66 170.5t166 67.5q98 0 164.5 -67.5t66.5 -169.5q0 -100 -65.5 -166.5t-167.5 -66.5zM725 1256q130 0 230 46.5t161 129t73 189.5l-258 63q-4 -49 -26.5 -96t-66.5 -77.5
t-113 -30.5t-113 30.5t-66 77.5t-27 96l-258 -63q13 -107 74 -189.5t161 -129t229 -46.5z" />
    <glyph glyph-name="Gdotaccent" unicode="&#x120;" horiz-adv-x="1734" 
d="M890 -32q150 0 287 51t244 142.5t168.5 213.5t61.5 264v288h-762v-298h369v-12q0 -81 -48 -148t-126.5 -106.5t-172.5 -39.5q-115 0 -208 63.5t-147 180.5t-54 276q0 146 48.5 257t143.5 173.5t232 62.5q105 0 221.5 -37.5t201.5 -108.5l179 299q-128 96 -292 143.5
t-316 47.5q-189 0 -343 -66.5t-264 -184t-169 -272t-59 -331.5q0 -183 61.5 -339.5t171.5 -272.5t256.5 -181t315.5 -65zM922 1921q88 0 150 62.5t62 150.5t-62 150.5t-150 62.5t-151 -62.5t-63 -150.5t63 -150.5t151 -62.5z" />
    <glyph glyph-name="gdotaccent" unicode="&#x121;" 
d="M677 -550q213 0 349 70.5t200.5 189t64.5 262.5v1052h-365v-94q-61 59 -145.5 92.5t-182.5 33.5q-148 0 -264 -71t-182 -194t-66 -279q0 -160 68.5 -282.5t183 -192t251.5 -69.5q95 0 181.5 36t155.5 102v-106q0 -101 -69 -168t-182 -67q-80 0 -152.5 35t-111.5 93
l-296 -145q63 -147 206.5 -222.5t355.5 -75.5zM701 277q-101 0 -165.5 66t-64.5 166q0 103 66 170.5t166 67.5q98 0 164.5 -67.5t66.5 -169.5q0 -100 -65.5 -166.5t-167.5 -66.5zM726 1273q88 0 150 62.5t62 150.5t-62 150.5t-150 62.5t-151 -62.5t-63 -150.5t63 -150.5
t151 -62.5z" />
    <glyph glyph-name="uni0122" unicode="&#x122;" horiz-adv-x="1734" 
d="M890 -32q150 0 287 51t244 142.5t168.5 213.5t61.5 264v288h-762v-298h369v-12q0 -81 -48 -148t-126.5 -106.5t-172.5 -39.5q-115 0 -208 63.5t-147 180.5t-54 276q0 146 48.5 257t143.5 173.5t232 62.5q105 0 221.5 -37.5t201.5 -108.5l179 299q-128 96 -292 143.5
t-316 47.5q-189 0 -343 -66.5t-264 -184t-169 -272t-59 -331.5q0 -183 61.5 -339.5t171.5 -272.5t256.5 -181t315.5 -65zM900 -537q83 68 129.5 147t46.5 151q0 64 -33.5 96.5t-85.5 32.5q-54 0 -87.5 -33t-33.5 -84q0 -43 25 -72.5t66 -40.5q-6 -37 -30.5 -85t-48.5 -70z
" />
    <glyph glyph-name="uni0123" unicode="&#x123;" 
d="M677 -550q213 0 349 70.5t200.5 189t64.5 262.5v1052h-365v-94q-61 59 -145.5 92.5t-182.5 33.5q-148 0 -264 -71t-182 -194t-66 -279q0 -160 68.5 -282.5t183 -192t251.5 -69.5q95 0 181.5 36t155.5 102v-106q0 -101 -69 -168t-182 -67q-80 0 -152.5 35t-111.5 93
l-296 -145q63 -147 206.5 -222.5t355.5 -75.5zM701 277q-101 0 -165.5 66t-64.5 166q0 103 66 170.5t166 67.5q98 0 164.5 -67.5t66.5 -169.5q0 -100 -65.5 -166.5t-167.5 -66.5zM741 1313q75 0 123 32.5t48 83.5q0 41 -30.5 71t-84.5 40q8 37 40 83t61 66l-94 43
q-106 -67 -165 -144t-59 -148q0 -59 43 -93t118 -34z" />
    <glyph glyph-name="Hbar" unicode="&#x126;" horiz-adv-x="1705" 
d="M210 0h385v607h514v-607h386v1065h133v259h-133v326h-386v-326h-514v326h-385v-326h-131v-259h131v-1065zM595 867v198h514v-198h-514z" />
    <glyph glyph-name="hbar" unicode="&#x127;" horiz-adv-x="1428" 
d="M168 0h365v584q0 83 52.5 136t140.5 53q87 0 138 -54t51 -146v-573h365v651q0 118 -52.5 209.5t-144 143.5t-208.5 52q-98 0 -187.5 -37t-154.5 -99v315h225v218h-225v267h-365v-267h-138v-218h138v-1235z" />
    <glyph glyph-name="Imacron" unicode="&#x12a;" horiz-adv-x="805" 
d="M210 0h385v1650h-385v-1650zM-6 1891h816v246h-816v-246z" />
    <glyph glyph-name="imacron" unicode="&#x12b;" horiz-adv-x="701" 
d="M168 0h365v1024h-365v-1024zM-57 1265h816v246h-816v-246z" />
    <glyph glyph-name="Iogonek" unicode="&#x12e;" horiz-adv-x="805" 
d="M210 0h385v1650h-385v-1650zM512 -557q80 0 154 38.5t120 105.5l-147 110q-38 -58 -96 -58q-36 0 -54.5 23t-18.5 62q0 55 34.5 131t91.5 145h-166q-170 -192 -170 -332q0 -93 71.5 -159t180.5 -66z" />
    <glyph glyph-name="iogonek" unicode="&#x12f;" horiz-adv-x="701" 
d="M168 0h365v1024h-365v-1024zM352 1269q88 0 150 62.5t62 150.5t-62 150.5t-150 62.5t-151 -62.5t-63 -150.5t63 -150.5t151 -62.5zM449 -557q80 0 154 38.5t120 105.5l-147 110q-38 -58 -96 -58q-36 0 -54.5 23t-18.5 62q0 55 34.5 131t91.5 145h-166
q-170 -192 -170 -332q0 -93 71.5 -159t180.5 -66z" />
    <glyph glyph-name="Idotaccent" unicode="&#x130;" horiz-adv-x="805" 
d="M210 0h385v1650h-385v-1650zM404 1895q88 0 150 62.5t62 150.5t-62 150.5t-150 62.5t-151 -62.5t-63 -150.5t63 -150.5t151 -62.5z" />
    <glyph glyph-name="dotlessi" unicode="&#x131;" horiz-adv-x="701" 
d="M168 0h365v1024h-365v-1024z" />
    <glyph glyph-name="uni0136" unicode="&#x136;" horiz-adv-x="1696" 
d="M210 0h385v679l600 -679h531l-775 865l671 785h-470l-557 -664v664h-385v-1650zM790 -532q83 68 129.5 147t46.5 151q0 64 -33.5 96.5t-85.5 32.5q-54 0 -87.5 -33t-33.5 -84q0 -43 25 -72.5t66 -40.5q-6 -37 -30.5 -85t-48.5 -70z" />
    <glyph glyph-name="uni0137" unicode="&#x137;" horiz-adv-x="1365" 
d="M168 0h365v376l394 -376h468l-535 514l513 510h-472l-368 -358v1054h-365v-1720zM626 -532q83 68 129.5 147t46.5 151q0 64 -33.5 96.5t-85.5 32.5q-54 0 -87.5 -33t-33.5 -84q0 -43 25 -72.5t66 -40.5q-6 -37 -30.5 -85t-48.5 -70z" />
    <glyph glyph-name="Lacute" unicode="&#x139;" horiz-adv-x="1169" 
d="M210 0h947v338h-562v1312h-385v-1650zM670 1717l397 405l-239 182l-308 -463z" />
    <glyph glyph-name="lacute" unicode="&#x13a;" horiz-adv-x="701" 
d="M168 0h365v1720h-365v-1720zM288 1787l397 405l-239 182l-308 -463z" />
    <glyph glyph-name="uni013B" unicode="&#x13b;" horiz-adv-x="1169" 
d="M210 0h947v338h-562v1312h-385v-1650zM652 -532q83 68 129.5 147t46.5 151q0 64 -33.5 96.5t-85.5 32.5q-54 0 -87.5 -33t-33.5 -84q0 -43 25 -72.5t66 -40.5q-6 -37 -30.5 -85t-48.5 -70z" />
    <glyph glyph-name="uni013C" unicode="&#x13c;" horiz-adv-x="701" 
d="M168 0h365v1720h-365v-1720zM294 -532q83 68 129.5 147t46.5 151q0 64 -33.5 96.5t-85.5 32.5q-54 0 -87.5 -33t-33.5 -84q0 -43 25 -72.5t66 -40.5q-6 -37 -30.5 -85t-48.5 -70z" />
    <glyph glyph-name="Lcaron" unicode="&#x13d;" horiz-adv-x="1169" 
d="M210 0h947v338h-562v1312h-385v-1650zM733 1773l444 327l-138 186l-306 -224l-306 224l-138 -186z" />
    <glyph glyph-name="lcaron" unicode="&#x13e;" horiz-adv-x="701" 
d="M168 0h365v1720h-365v-1720zM350 1843l444 327l-138 186l-306 -224l-306 224l-138 -186z" />
    <glyph glyph-name="Lslash" unicode="&#x141;" horiz-adv-x="1212" 
d="M253 0h947v338h-561v580l209 165v314l-209 -165v418h-386v-721l-151 -118v-314l151 118v-615z" />
    <glyph glyph-name="lslash" unicode="&#x142;" horiz-adv-x="782" 
d="M238 0h365v897l150 119v315l-150 -119v508h-365v-794l-151 -117v-316l151 118v-611z" />
    <glyph glyph-name="Nacute" unicode="&#x143;" horiz-adv-x="1838" 
d="M210 0h385v1009l648 -1009h385v1650h-385v-1009l-648 1009h-385v-1650zM857 1717l397 405l-239 182l-308 -463z" />
    <glyph glyph-name="nacute" unicode="&#x144;" horiz-adv-x="1428" 
d="M168 0h365v584q0 83 52.5 135.5t140.5 52.5q87 0 138 -53.5t51 -145.5v-573h365v651q0 118 -52.5 209.5t-144 143.5t-208.5 52q-98 0 -187.5 -37t-154.5 -99v104h-365v-1024zM676 1123l397 405l-239 182l-308 -463z" />
    <glyph glyph-name="uni0145" unicode="&#x145;" horiz-adv-x="1838" 
d="M210 0h385v1009l648 -1009h385v1650h-385v-1009l-648 1009h-385v-1650zM863 -532q83 68 129.5 147t46.5 151q0 64 -33.5 96.5t-85.5 32.5q-54 0 -87.5 -33t-33.5 -84q0 -43 25 -72.5t66 -40.5q-6 -37 -30.5 -85t-48.5 -70z" />
    <glyph glyph-name="uni0146" unicode="&#x146;" horiz-adv-x="1428" 
d="M168 0h365v584q0 83 52.5 135.5t140.5 52.5q87 0 138 -53.5t51 -145.5v-573h365v651q0 118 -52.5 209.5t-144 143.5t-208.5 52q-98 0 -187.5 -37t-154.5 -99v104h-365v-1024zM658 -532q83 68 129.5 147t46.5 151q0 64 -33.5 96.5t-85.5 32.5q-54 0 -87.5 -33t-33.5 -84
q0 -43 25 -72.5t66 -40.5q-6 -37 -30.5 -85t-48.5 -70z" />
    <glyph glyph-name="Ncaron" unicode="&#x147;" horiz-adv-x="1838" 
d="M210 0h385v1009l648 -1009h385v1650h-385v-1009l-648 1009h-385v-1650zM919 1773l444 327l-138 186l-306 -224l-306 224l-138 -186z" />
    <glyph glyph-name="ncaron" unicode="&#x148;" horiz-adv-x="1428" 
d="M168 0h365v584q0 83 52.5 135.5t140.5 52.5q87 0 138 -53.5t51 -145.5v-573h365v651q0 118 -52.5 209.5t-144 143.5t-208.5 52q-98 0 -187.5 -37t-154.5 -99v104h-365v-1024zM738 1179l444 327l-138 186l-306 -224l-306 224l-138 -186z" />
    <glyph glyph-name="Eng" unicode="&#x14a;" horiz-adv-x="1820" 
d="M1136 -551q230 0 361 130t131 366v1705h-385v-1009l-648 1009h-385v-1650h385v1009l648 -1009v-5q0 -81 -46 -128.5t-127 -47.5q-92 0 -211 106l-125 -319q86 -80 183.5 -118.5t218.5 -38.5z" />
    <glyph glyph-name="eng" unicode="&#x14b;" horiz-adv-x="1418" 
d="M898 -550q179 0 280.5 108t101.5 287v807q0 116 -53 207t-144.5 144t-208.5 53q-96 0 -186 -36t-155 -100v104h-365v-1024h365v584q0 86 54.5 137.5t137.5 51.5q88 0 139 -56t51 -145v-657q0 -137 -92 -137q-41 0 -90 30l-113 -293q45 -28 124 -46.5t154 -18.5z" />
    <glyph glyph-name="Omacron" unicode="&#x14c;" horiz-adv-x="1828" 
d="M914 -32q173 0 324 66t265 183.5t178.5 273t64.5 333.5t-64.5 333.5t-178.5 273t-265 183.5t-324 66t-324 -66t-265 -183.5t-178.5 -273t-64.5 -333.5t64.5 -333.5t178.5 -273t265 -183.5t324 -66zM914 340q-123 0 -217 61t-147 170.5t-53 252.5q0 144 53 253t147 170
t217 61q124 0 217.5 -61t146.5 -170t53 -253q0 -143 -53 -252.5t-146.5 -170.5t-217.5 -61zM506 1917h816v246h-816v-246z" />
    <glyph glyph-name="omacron" unicode="&#x14d;" horiz-adv-x="1374" 
d="M687 -32q173 0 312 69.5t220 192t81 282.5t-81 282.5t-220 192t-312 69.5t-312 -69.5t-220 -192t-81 -282.5t81 -282.5t220 -192t312 -69.5zM687 278q-96 0 -163.5 65.5t-67.5 168.5q0 104 67.5 169t163.5 65t163.5 -65t67.5 -169q0 -103 -67.5 -168.5t-163.5 -65.5z
M279 1297h816v246h-816v-246z" />
    <glyph glyph-name="Ohungarumlaut" unicode="&#x150;" horiz-adv-x="1828" 
d="M914 -32q173 0 324 66t265 183.5t178.5 273t64.5 333.5t-64.5 333.5t-178.5 273t-265 183.5t-324 66t-324 -66t-265 -183.5t-178.5 -273t-64.5 -333.5t64.5 -333.5t178.5 -273t265 -183.5t324 -66zM914 340q-123 0 -217 61t-147 170.5t-53 252.5q0 144 53 253t147 170
t217 61q124 0 217.5 -61t146.5 -170t53 -253q0 -143 -53 -252.5t-146.5 -170.5t-217.5 -61zM1125 1818l450 279l-213 235l-368 -357zM570 1818l448 279l-213 235l-368 -357z" />
    <glyph glyph-name="ohungarumlaut" unicode="&#x151;" horiz-adv-x="1374" 
d="M687 -32q173 0 312 69.5t220 192t81 282.5t-81 282.5t-220 192t-312 69.5t-312 -69.5t-220 -192t-81 -282.5t81 -282.5t220 -192t312 -69.5zM687 278q-96 0 -163.5 65.5t-67.5 168.5q0 104 67.5 169t163.5 65t163.5 -65t67.5 -169q0 -103 -67.5 -168.5t-163.5 -65.5z
M898 1198l450 279l-213 235l-368 -357zM343 1198l448 279l-213 235l-368 -357z" />
    <glyph glyph-name="OE" unicode="&#x152;" horiz-adv-x="2136" 
d="M911 0h1056v338h-564v320h540v338h-540v316h564v338h-876q-334 0 -559 -104t-338.5 -286.5t-113.5 -420.5q0 -184 64 -338t177.5 -266t264.5 -173.5t325 -61.5zM1018 344q-248 0 -385.5 131.5t-137.5 351.5q0 227 142.5 353t380.5 126v-962z" />
    <glyph glyph-name="oe" unicode="&#x153;" horiz-adv-x="2111" 
d="M673 -32q131 0 234.5 44t167.5 126q164 -170 413 -170q173 0 307 69.5t210 198.5l-262 131q-56 -61 -106 -85.5t-118 -24.5q-109 0 -172 55t-63 150h737q2 35 2.5 44.5t0.5 20.5q0 157 -69 276t-191 186t-283 67q-121 0 -222.5 -44t-183.5 -127q-139 171 -403 171
q-173 0 -307.5 -69.5t-211 -192.5t-76.5 -282t76.5 -282t211 -192.5t308.5 -69.5zM1294 655q4 71 55.5 114t133.5 43q79 0 126.5 -41.5t58.5 -115.5h-374zM690 277q-99 0 -165 67.5t-66 167.5q0 101 66 168t165 67q100 0 166 -67t66 -168q0 -100 -66 -167.5t-166 -67.5z" />
    <glyph glyph-name="Racute" unicode="&#x154;" horiz-adv-x="1549" 
d="M210 0h385v595h37l458 -595h489l-536 642q164 57 253 186.5t89 310.5q0 162 -70 276.5t-196.5 174.5t-298.5 60h-610v-1650zM595 915v428h101q137 0 210 -55.5t73 -159.5q0 -103 -72.5 -158t-210.5 -55h-101zM712 1717l397 405l-239 182l-308 -463z" />
    <glyph glyph-name="racute" unicode="&#x155;" horiz-adv-x="1043" 
d="M168 0h365v535q0 53 31 100t81.5 76t106.5 29q41 0 89 -15.5t84 -40.5l152 307q-41 29 -103 47t-119 18q-93 0 -177 -46.5t-145 -130.5v145h-365v-1024zM552 1123l397 405l-239 182l-308 -463z" />
    <glyph glyph-name="uni0156" unicode="&#x156;" horiz-adv-x="1549" 
d="M210 0h385v595h37l458 -595h489l-536 642q164 57 253 186.5t89 310.5q0 162 -70 276.5t-196.5 174.5t-298.5 60h-610v-1650zM595 915v428h101q137 0 210 -55.5t73 -159.5q0 -103 -72.5 -158t-210.5 -55h-101zM718 -532q83 68 129.5 147t46.5 151q0 64 -33.5 96.5
t-85.5 32.5q-54 0 -87.5 -33t-33.5 -84q0 -43 25 -72.5t66 -40.5q-6 -37 -30.5 -85t-48.5 -70z" />
    <glyph glyph-name="uni0157" unicode="&#x157;" horiz-adv-x="1043" 
d="M168 0h365v535q0 53 31 100t81.5 76t106.5 29q41 0 89 -15.5t84 -40.5l152 307q-41 29 -103 47t-119 18q-93 0 -177 -46.5t-145 -130.5v145h-365v-1024zM495 -532q83 68 129.5 147t46.5 151q0 64 -33.5 96.5t-85.5 32.5q-54 0 -87.5 -33t-33.5 -84q0 -43 25 -72.5
t66 -40.5q-6 -37 -30.5 -85t-48.5 -70z" />
    <glyph glyph-name="Rcaron" unicode="&#x158;" horiz-adv-x="1549" 
d="M210 0h385v595h37l458 -595h489l-536 642q164 57 253 186.5t89 310.5q0 162 -70 276.5t-196.5 174.5t-298.5 60h-610v-1650zM595 915v428h101q137 0 210 -55.5t73 -159.5q0 -103 -72.5 -158t-210.5 -55h-101zM774 1773l444 327l-138 186l-306 -224l-306 224l-138 -186z
" />
    <glyph glyph-name="rcaron" unicode="&#x159;" horiz-adv-x="1043" 
d="M168 0h365v535q0 53 31 100t81.5 76t106.5 29q41 0 89 -15.5t84 -40.5l152 307q-41 29 -103 47t-119 18q-93 0 -177 -46.5t-145 -130.5v145h-365v-1024zM615 1179l444 327l-138 186l-306 -224l-306 224l-138 -186z" />
    <glyph glyph-name="Sacute" unicode="&#x15a;" horiz-adv-x="1362" 
d="M645 -32q191 0 332 61.5t218.5 177.5t77.5 279q0 141 -59.5 233.5t-174 161.5t-278.5 139q-107 45 -160 75.5t-53 93.5q0 62 49.5 101t137.5 39q85 0 174.5 -31.5t161.5 -80.5l156 307q-61 44 -145 79t-176.5 56t-179.5 21q-167 0 -292.5 -71.5t-194.5 -186t-69 -242.5
q0 -151 92 -253.5t230 -165.5q123 -56 202.5 -96t117.5 -82t38 -105q0 -77 -52.5 -115t-141.5 -38q-84 0 -165.5 29t-151.5 71t-122 81l-193 -324q50 -43 139.5 -93t212 -85.5t269.5 -35.5zM664 1744l397 405l-239 182l-308 -463z" />
    <glyph glyph-name="sacute" unicode="&#x15b;" horiz-adv-x="1036" 
d="M467 -32q227 0 351 91t124 262q0 91 -33 146.5t-90 89.5t-129 59q-42 15 -92.5 34.5t-87 43.5t-36.5 53q0 27 27.5 45t74.5 18q91 0 232 -70l118 239q-212 75 -353 75q-131 0 -232 -43.5t-158 -119.5t-57 -176q0 -79 34.5 -130t89.5 -84t117 -60q102 -43 147 -64.5
t45 -68.5q0 -72 -91 -72q-125 0 -266 115l-148 -249q148 -134 413 -134zM456 1095l397 405l-239 182l-308 -463z" />
    <glyph glyph-name="Scedilla" unicode="&#x15e;" horiz-adv-x="1362" 
d="M645 -32q191 0 332 61.5t218.5 177.5t77.5 279q0 141 -59.5 233.5t-174 161.5t-278.5 139q-107 45 -160 75.5t-53 93.5q0 62 49.5 101t137.5 39q85 0 174.5 -31.5t161.5 -80.5l156 307q-61 44 -145 79t-176.5 56t-179.5 21q-167 0 -292.5 -71.5t-194.5 -186t-69 -242.5
q0 -151 92 -253.5t230 -165.5q123 -56 202.5 -96t117.5 -82t38 -105q0 -77 -52.5 -115t-141.5 -38q-84 0 -165.5 29t-151.5 71t-122 81l-193 -324q50 -43 139.5 -93t212 -85.5t269.5 -35.5zM588 -558q121 0 198.5 66.5t77.5 170.5q0 115 -103 163q-63 36 -139 34l40 124
h-148l-77 -234l21 -16q26 15 89 15q55 0 88 -21.5t33 -56.5q0 -32 -24 -52t-64 -20q-87 0 -157 87l-138 -103q132 -157 303 -157z" />
    <glyph glyph-name="scedilla" unicode="&#x15f;" horiz-adv-x="1036" 
d="M467 -32q227 0 351 91t124 262q0 91 -33 146.5t-90 89.5t-129 59q-42 15 -92.5 34.5t-87 43.5t-36.5 53q0 27 27.5 45t74.5 18q91 0 232 -70l118 239q-212 75 -353 75q-131 0 -232 -43.5t-158 -119.5t-57 -176q0 -79 34.5 -130t89.5 -84t117 -60q102 -43 147 -64.5
t45 -68.5q0 -72 -91 -72q-125 0 -266 115l-148 -249q148 -134 413 -134zM502 -558q121 0 198.5 66.5t77.5 170.5q0 115 -103 163q-63 36 -139 34l40 124h-148l-77 -234l21 -16q26 15 89 15q55 0 88 -21.5t33 -56.5q0 -32 -24 -52t-64 -20q-87 0 -157 87l-138 -103
q132 -157 303 -157z" />
    <glyph glyph-name="Scaron" unicode="&#x160;" horiz-adv-x="1362" 
d="M645 -32q191 0 332 61.5t218.5 177.5t77.5 279q0 141 -59.5 233.5t-174 161.5t-278.5 139q-107 45 -160 75.5t-53 93.5q0 62 49.5 101t137.5 39q85 0 174.5 -31.5t161.5 -80.5l156 307q-61 44 -145 79t-176.5 56t-179.5 21q-167 0 -292.5 -71.5t-194.5 -186t-69 -242.5
q0 -151 92 -253.5t230 -165.5q123 -56 202.5 -96t117.5 -82t38 -105q0 -77 -52.5 -115t-141.5 -38q-84 0 -165.5 29t-151.5 71t-122 81l-193 -324q50 -43 139.5 -93t212 -85.5t269.5 -35.5zM726 1800l444 327l-138 186l-306 -224l-306 224l-138 -186z" />
    <glyph glyph-name="scaron" unicode="&#x161;" horiz-adv-x="1036" 
d="M467 -32q227 0 351 91t124 262q0 91 -33 146.5t-90 89.5t-129 59q-42 15 -92.5 34.5t-87 43.5t-36.5 53q0 27 27.5 45t74.5 18q91 0 232 -70l118 239q-212 75 -353 75q-131 0 -232 -43.5t-158 -119.5t-57 -176q0 -79 34.5 -130t89.5 -84t117 -60q102 -43 147 -64.5
t45 -68.5q0 -72 -91 -72q-125 0 -266 115l-148 -249q148 -134 413 -134zM519 1151l444 327l-138 186l-306 -224l-306 224l-138 -186z" />
    <glyph glyph-name="uni0162" unicode="&#x162;" horiz-adv-x="1184" 
d="M399 0h386v1311h387v339h-1160v-339h387v-1311zM539 -558q121 0 198.5 66.5t77.5 170.5q0 115 -103 163q-63 36 -139 34l40 124h-148l-77 -234l21 -16q26 15 89 15q55 0 88 -21.5t33 -56.5q0 -32 -24 -52t-64 -20q-87 0 -157 87l-138 -103q132 -157 303 -157z" />
    <glyph glyph-name="uni0163" unicode="&#x163;" horiz-adv-x="903" 
d="M557 -32q68 0 139 17t129 48l-91 293q-43 -32 -87 -32q-77 0 -77 98v355h214v277h-214v384h-365v-384h-149v-277h149v-382q0 -187 93 -292t259 -105zM499 -558q121 0 198.5 66.5t77.5 170.5q0 115 -103 163q-63 36 -139 34l40 124h-148l-77 -234l21 -16q26 15 89 15
q55 0 88 -21.5t33 -56.5q0 -32 -24 -52t-64 -20q-87 0 -157 87l-138 -103q132 -157 303 -157z" />
    <glyph glyph-name="Tcaron" unicode="&#x164;" horiz-adv-x="1184" 
d="M399 0h386v1311h387v339h-1160v-339h387v-1311zM592 1773l444 327l-138 186l-306 -224l-306 224l-138 -186z" />
    <glyph glyph-name="tcaron" unicode="&#x165;" horiz-adv-x="903" 
d="M557 -32q68 0 139 17t129 48l-91 293q-43 -32 -87 -32q-77 0 -77 98v355h214v277h-214v384h-365v-384h-149v-277h149v-382q0 -187 93 -292t259 -105zM481 1435l444 327l-138 186l-306 -224l-306 224l-138 -186z" />
    <glyph glyph-name="Tbar" unicode="&#x166;" horiz-adv-x="1184" 
d="M399 0h386v798h194v260h-194v253h387v339h-1160v-339h387v-253h-193v-260h193v-798z" />
    <glyph glyph-name="tbar" unicode="&#x167;" horiz-adv-x="903" 
d="M557 -32q68 0 139 17t129 48l-91 293q-43 -32 -87 -32q-77 0 -77 98v241h214v191h-214v95h214v191h-214v298h-365v-298h-149v-191h149v-95h-149v-191h149v-268q0 -187 93 -292t259 -105z" />
    <glyph glyph-name="Umacron" unicode="&#x16a;" horiz-adv-x="1657" 
d="M828 -32q320 0 484.5 156t164.5 460v1066h-386v-953q0 -193 -59.5 -271.5t-203.5 -78.5q-143 0 -202.5 78.5t-59.5 271.5v953h-386v-1066q0 -304 164 -460t484 -156zM421 1891h816v246h-816v-246z" />
    <glyph glyph-name="umacron" unicode="&#x16b;" horiz-adv-x="1407" 
d="M703 -32q298 0 430 113t132 367v576h-365v-486q0 -151 -44.5 -212.5t-152.5 -61.5q-109 0 -153 61.5t-44 212.5v486h-365v-576q0 -254 132 -367t430 -113zM296 1265h816v246h-816v-246z" />
    <glyph glyph-name="Uring" unicode="&#x16e;" horiz-adv-x="1657" 
d="M828 -32q320 0 484.5 156t164.5 460v1066h-386v-953q0 -193 -59.5 -271.5t-203.5 -78.5q-143 0 -202.5 78.5t-59.5 271.5v953h-386v-1066q0 -304 164 -460t484 -156zM829 1805q91 0 165 36.5t117.5 101.5t43.5 149t-43.5 148.5t-117.5 101.5t-165 37t-165 -37
t-117.5 -101.5t-43.5 -148.5t43.5 -149t117.5 -101.5t165 -36.5zM829 1968q-49 0 -85 36.5t-36 87.5t36 87t85 36t85.5 -36t36.5 -87t-36.5 -87.5t-85.5 -36.5z" />
    <glyph glyph-name="uring" unicode="&#x16f;" horiz-adv-x="1407" 
d="M703 -32q298 0 430 113t132 367v576h-365v-486q0 -151 -44.5 -212.5t-152.5 -61.5q-109 0 -153 61.5t-44 212.5v486h-365v-576q0 -254 132 -367t430 -113zM704 1179q91 0 165 36.5t117.5 101.5t43.5 149t-43.5 148.5t-117.5 101.5t-165 37t-165 -37t-117.5 -101.5
t-43.5 -148.5t43.5 -149t117.5 -101.5t165 -36.5zM704 1342q-49 0 -85 36.5t-36 87.5t36 87t85 36t85.5 -36t36.5 -87t-36.5 -87.5t-85.5 -36.5z" />
    <glyph glyph-name="Uhungarumlaut" unicode="&#x170;" horiz-adv-x="1657" 
d="M828 -32q320 0 484.5 156t164.5 460v1066h-386v-953q0 -193 -59.5 -271.5t-203.5 -78.5q-143 0 -202.5 78.5t-59.5 271.5v953h-386v-1066q0 -304 164 -460t484 -156zM1041 1792l450 279l-213 235l-368 -357zM486 1792l448 279l-213 235l-368 -357z" />
    <glyph glyph-name="uhungarumlaut" unicode="&#x171;" horiz-adv-x="1407" 
d="M703 -32q298 0 430 113t132 367v576h-365v-486q0 -151 -44.5 -212.5t-152.5 -61.5q-109 0 -153 61.5t-44 212.5v486h-365v-576q0 -254 132 -367t430 -113zM915 1166l450 279l-213 235l-368 -357zM360 1166l448 279l-213 235l-368 -357z" />
    <glyph glyph-name="Uogonek" unicode="&#x172;" horiz-adv-x="1657" 
d="M828 -32q320 0 484.5 156t164.5 460v1066h-386v-953q0 -193 -59.5 -271.5t-203.5 -78.5q-143 0 -202.5 78.5t-59.5 271.5v953h-386v-1066q0 -304 164 -460t484 -156zM855 -549q80 0 154 38.5t120 105.5l-147 110q-38 -58 -96 -58q-36 0 -54.5 23t-18.5 62q0 55 34.5 131
t91.5 145h-166q-170 -192 -170 -332q0 -93 71.5 -159t180.5 -66z" />
    <glyph glyph-name="uogonek" unicode="&#x173;" horiz-adv-x="1407" 
d="M703 -32q298 0 430 113t132 367v576h-365v-486q0 -151 -44.5 -212.5t-152.5 -61.5q-109 0 -153 61.5t-44 212.5v486h-365v-576q0 -254 132 -367t430 -113zM741 -547q80 0 154 38.5t120 105.5l-147 110q-38 -58 -96 -58q-36 0 -54.5 23t-18.5 62q0 55 34.5 131t91.5 145
h-166q-170 -192 -170 -332q0 -93 71.5 -159t180.5 -66z" />
    <glyph glyph-name="Wcircumflex" unicode="&#x174;" horiz-adv-x="2336" 
d="M485 0h428l255 907l254 -907h428l471 1650h-429l-276 -1118l-304 1118h-288l-304 -1118l-276 1118h-429zM862 1793l306 224l306 -224l138 186l-444 327l-444 -327z" />
    <glyph glyph-name="wcircumflex" unicode="&#x175;" horiz-adv-x="1979" 
d="M511 0h246l232 517l233 -517h245l553 1024h-418l-246 -543l-242 543h-249l-243 -543l-246 543h-417zM683 1167l306 224l306 -224l138 186l-444 327l-444 -327z" />
    <glyph glyph-name="Ycircumflex" unicode="&#x176;" horiz-adv-x="1529" 
d="M572 0h385v742l610 908h-464l-339 -517l-338 517h-465l611 -908v-742zM458 1793l306 224l306 -224l138 186l-444 327l-444 -327z" />
    <glyph glyph-name="ycircumflex" unicode="&#x177;" horiz-adv-x="1272" 
d="M82 -520h418l811 1544h-419l-238 -511l-281 511h-419l487 -859zM330 1167l306 224l306 -224l138 186l-444 327l-444 -327z" />
    <glyph glyph-name="Ydieresis" unicode="&#x178;" horiz-adv-x="1529" 
d="M572 0h385v742l610 908h-464l-339 -517l-338 517h-465l611 -908v-742zM1000 1835q79 0 134 55t55 134t-55 134t-134 55t-134 -55t-55 -134t55 -134t134 -55zM528 1835q79 0 134 55t55 134t-55 134t-134 55t-134 -55t-55 -134t55 -134t134 -55z" />
    <glyph glyph-name="Zacute" unicode="&#x179;" horiz-adv-x="1529" 
d="M15 0h1426v338h-753l805 1312h-1361v-338h688zM702 1717l397 405l-239 182l-308 -463z" />
    <glyph glyph-name="zacute" unicode="&#x17a;" horiz-adv-x="1183" 
d="M28 0h1065v276h-457l497 748h-1020v-276h412zM529 1091l397 405l-239 182l-308 -463z" />
    <glyph glyph-name="Zdotaccent" unicode="&#x17b;" horiz-adv-x="1529" 
d="M15 0h1426v338h-753l805 1312h-1361v-338h688zM766 1895q88 0 150 62.5t62 150.5t-62 150.5t-150 62.5t-151 -62.5t-63 -150.5t63 -150.5t151 -62.5z" />
    <glyph glyph-name="zdotaccent" unicode="&#x17c;" horiz-adv-x="1183" 
d="M28 0h1065v276h-457l497 748h-1020v-276h412zM593 1269q88 0 150 62.5t62 150.5t-62 150.5t-150 62.5t-151 -62.5t-63 -150.5t63 -150.5t151 -62.5z" />
    <glyph glyph-name="Zcaron" unicode="&#x17d;" horiz-adv-x="1529" 
d="M15 0h1426v338h-753l805 1312h-1361v-338h688zM765 1773l444 327l-138 186l-306 -224l-306 224l-138 -186z" />
    <glyph glyph-name="zcaron" unicode="&#x17e;" horiz-adv-x="1183" 
d="M28 0h1065v276h-457l497 748h-1020v-276h412zM592 1147l444 327l-138 186l-306 -224l-306 224l-138 -186z" />
    <glyph glyph-name="florin" unicode="&#x192;" horiz-adv-x="1038" 
d="M160 -551q188 0 310.5 138.5t144.5 373.5l72 786h234l24 277h-234l19 203q9 113 37.5 156.5t90.5 43.5q26 0 53.5 -6.5t47.5 -19.5l149 255q-52 44 -128.5 69t-157.5 25q-125 0 -222.5 -62.5t-158 -177.5t-75.5 -272l-20 -214h-149l-25 -277h150l-70 -775
q-10 -113 -38.5 -156.5t-90.5 -43.5q-26 0 -53 6.5t-47 19.5l-150 -255q52 -43 129 -68.5t158 -25.5z" />
    <glyph glyph-name="uni0218" unicode="&#x218;" horiz-adv-x="1362" 
d="M645 -32q191 0 332 61.5t218.5 177.5t77.5 279q0 141 -59.5 233.5t-174 161.5t-278.5 139q-107 45 -160 75.5t-53 93.5q0 62 49.5 101t137.5 39q85 0 174.5 -31.5t161.5 -80.5l156 307q-61 44 -145 79t-176.5 56t-179.5 21q-167 0 -292.5 -71.5t-194.5 -186t-69 -242.5
q0 -151 92 -253.5t230 -165.5q123 -56 202.5 -96t117.5 -82t38 -105q0 -77 -52.5 -115t-141.5 -38q-84 0 -165.5 29t-151.5 71t-122 81l-193 -324q50 -43 139.5 -93t212 -85.5t269.5 -35.5zM606 -532q83 68 129.5 147t46.5 151q0 64 -33.5 96.5t-85.5 32.5q-54 0 -87.5 -33
t-33.5 -84q0 -43 25 -72.5t66 -40.5q-6 -37 -30.5 -85t-48.5 -70z" />
    <glyph glyph-name="uni0219" unicode="&#x219;" horiz-adv-x="1036" 
d="M467 -32q227 0 351 91t124 262q0 91 -33 146.5t-90 89.5t-129 59q-42 15 -92.5 34.5t-87 43.5t-36.5 53q0 27 27.5 45t74.5 18q91 0 232 -70l118 239q-212 75 -353 75q-131 0 -232 -43.5t-158 -119.5t-57 -176q0 -79 34.5 -130t89.5 -84t117 -60q102 -43 147 -64.5
t45 -68.5q0 -72 -91 -72q-125 0 -266 115l-148 -249q148 -134 413 -134zM520 -532q83 68 129.5 147t46.5 151q0 64 -33.5 96.5t-85.5 32.5q-54 0 -87.5 -33t-33.5 -84q0 -43 25 -72.5t66 -40.5q-6 -37 -30.5 -85t-48.5 -70z" />
    <glyph glyph-name="uni021A" unicode="&#x21a;" horiz-adv-x="1184" 
d="M399 0h386v1311h387v339h-1160v-339h387v-1311zM557 -532q83 68 129.5 147t46.5 151q0 64 -33.5 96.5t-85.5 32.5q-54 0 -87.5 -33t-33.5 -84q0 -43 25 -72.5t66 -40.5q-6 -37 -30.5 -85t-48.5 -70z" />
    <glyph glyph-name="uni021B" unicode="&#x21b;" horiz-adv-x="903" 
d="M557 -32q68 0 139 17t129 48l-91 293q-43 -32 -87 -32q-77 0 -77 98v355h214v277h-214v384h-365v-384h-149v-277h149v-382q0 -187 93 -292t259 -105zM517 -532q83 68 129.5 147t46.5 151q0 64 -33.5 96.5t-85.5 32.5q-54 0 -87.5 -33t-33.5 -84q0 -43 25 -72.5t66 -40.5
q-6 -37 -30.5 -85t-48.5 -70z" />
    <glyph glyph-name="circumflex" unicode="&#x2c6;" horiz-adv-x="888" 
d="M138 1167l306 224l306 -224l138 186l-444 327l-444 -327z" />
    <glyph glyph-name="caron" unicode="&#x2c7;" horiz-adv-x="888" 
d="M444 1147l444 327l-138 186l-306 -224l-306 224l-138 -186z" />
    <glyph glyph-name="breve" unicode="&#x2d8;" horiz-adv-x="928" 
d="M464 1252q130 0 230 46.5t161 129t73 189.5l-258 63q-4 -49 -26.5 -96t-66.5 -77.5t-113 -30.5t-113 30.5t-66 77.5t-27 96l-258 -63q13 -107 74 -189.5t161 -129t229 -46.5z" />
    <glyph glyph-name="dotaccent" unicode="&#x2d9;" horiz-adv-x="426" 
d="M214 1269q88 0 150 62.5t62 150.5t-62 150.5t-150 62.5t-151 -62.5t-63 -150.5t63 -150.5t151 -62.5z" />
    <glyph glyph-name="ring" unicode="&#x2da;" horiz-adv-x="652" 
d="M326 1179q91 0 165 36.5t117.5 101.5t43.5 149t-43.5 148.5t-117.5 101.5t-165 37t-165 -37t-117.5 -101.5t-43.5 -148.5t43.5 -149t117.5 -101.5t165 -36.5zM326 1342q-49 0 -85 36.5t-36 87.5t36 87t85 36t85.5 -36t36.5 -87t-36.5 -87.5t-85.5 -36.5z" />
    <glyph glyph-name="ogonek" unicode="&#x2db;" horiz-adv-x="526" 
d="M252 -547q80 0 154 38.5t120 105.5l-147 110q-38 -58 -96 -58q-36 0 -54.5 23t-18.5 62q0 55 34.5 131t91.5 145h-166q-170 -192 -170 -332q0 -93 71.5 -159t180.5 -66z" />
    <glyph glyph-name="tilde" unicode="&#x2dc;" horiz-adv-x="1159" 
d="M756 1139q55 0 121.5 34.5t126.5 93.5t95 134l-179 158q-17 -56 -60.5 -102t-88.5 -46q-34 0 -82.5 25t-107 57t-121 57t-123.5 25q-102 0 -192.5 -75.5t-144.5 -186.5l181 -159q17 55 55.5 101.5t105.5 46.5q50 0 101.5 -24.5t104.5 -57t105 -57t103 -24.5z" />
    <glyph glyph-name="hungarumlaut" unicode="&#x2dd;" horiz-adv-x="1155" 
d="M688 1166l450 279l-213 235l-368 -357zM133 1166l448 279l-213 235l-368 -357z" />
    <glyph glyph-name="gravecomb" unicode="&#x300;" horiz-adv-x="0" 
d="M397 1091l150 124l-308 463l-239 -182z" />
    <glyph glyph-name="acutecomb" unicode="&#x301;" horiz-adv-x="0" 
d="M150 1091l397 405l-239 182l-308 -463z" />
    <glyph glyph-name="uni0302" unicode="&#x302;" horiz-adv-x="0" 
d="M138 1167l306 224l306 -224l138 186l-444 327l-444 -327z" />
    <glyph glyph-name="tildecomb" unicode="&#x303;" horiz-adv-x="0" 
d="M756 1139q55 0 121.5 34.5t126.5 93.5t95 134l-179 158q-17 -56 -60.5 -102t-88.5 -46q-34 0 -82.5 25t-107 57t-121 57t-123.5 25q-102 0 -192.5 -75.5t-144.5 -186.5l181 -159q17 55 55.5 101.5t105.5 46.5q50 0 101.5 -24.5t104.5 -57t105 -57t103 -24.5z" />
    <glyph glyph-name="uni0304" unicode="&#x304;" horiz-adv-x="0" 
d="M0 1265h816v246h-816v-246z" />
    <glyph glyph-name="uni0306" unicode="&#x306;" horiz-adv-x="0" 
d="M464 1252q130 0 230 46.5t161 129t73 189.5l-258 63q-4 -49 -26.5 -96t-66.5 -77.5t-113 -30.5t-113 30.5t-66 77.5t-27 96l-258 -63q13 -107 74 -189.5t161 -129t229 -46.5z" />
    <glyph glyph-name="uni0307" unicode="&#x307;" horiz-adv-x="0" 
d="M214 1269q88 0 150 62.5t62 150.5t-62 150.5t-150 62.5t-151 -62.5t-63 -150.5t63 -150.5t151 -62.5z" />
    <glyph glyph-name="uni0308" unicode="&#x308;" horiz-adv-x="0" 
d="M661 1209q79 0 134 55t55 134t-55 134t-134 55t-134 -55t-55 -134t55 -134t134 -55zM189 1209q79 0 134 55t55 134t-55 134t-134 55t-134 -55t-55 -134t55 -134t134 -55z" />
    <glyph glyph-name="uni030A" unicode="&#x30a;" horiz-adv-x="0" 
d="M326 1179q91 0 165 36.5t117.5 101.5t43.5 149t-43.5 148.5t-117.5 101.5t-165 37t-165 -37t-117.5 -101.5t-43.5 -148.5t43.5 -149t117.5 -101.5t165 -36.5zM326 1342q-49 0 -85 36.5t-36 87.5t36 87t85 36t85.5 -36t36.5 -87t-36.5 -87.5t-85.5 -36.5z" />
    <glyph glyph-name="uni030B" unicode="&#x30b;" horiz-adv-x="0" 
d="M688 1166l450 279l-213 235l-368 -357zM133 1166l448 279l-213 235l-368 -357z" />
    <glyph glyph-name="uni030C" unicode="&#x30c;" horiz-adv-x="0" 
d="M444 1147l444 327l-138 186l-306 -224l-306 224l-138 -186z" />
    <glyph glyph-name="uni0312" unicode="&#x312;" horiz-adv-x="0" 
d="M410 1309q75 0 123 32.5t48 83.5q0 41 -30.5 71t-84.5 40q8 37 40 83t61 66l-94 43q-106 -67 -165 -144t-59 -148q0 -59 43 -93t118 -34z" />
    <glyph glyph-name="uni0326" unicode="&#x326;" horiz-adv-x="0" 
d="M336 -532q83 68 129.5 147t46.5 151q0 64 -33.5 96.5t-85.5 32.5q-54 0 -87.5 -33t-33.5 -84q0 -43 25 -72.5t66 -40.5q-6 -37 -30.5 -85t-48.5 -70z" />
    <glyph glyph-name="uni0327" unicode="&#x327;" horiz-adv-x="0" 
d="M303 -548q121 0 198.5 66.5t77.5 170.5q0 115 -103 163q-63 36 -139 34l40 124h-148l-77 -234l21 -16q26 15 89 15q55 0 88 -21.5t33 -56.5q0 -32 -24 -52t-64 -20q-87 0 -157 87l-138 -103q132 -157 303 -157z" />
    <glyph glyph-name="uni0328" unicode="&#x328;" horiz-adv-x="0" 
d="M252 -547q80 0 154 38.5t120 105.5l-147 110q-38 -58 -96 -58q-36 0 -54.5 23t-18.5 62q0 55 34.5 131t91.5 145h-166q-170 -192 -170 -332q0 -93 71.5 -159t180.5 -66z" />
    <glyph glyph-name="uni0394" unicode="&#x394;" horiz-adv-x="1493" 
d="M243 0h1008l33 22l-498 1273h-78l-498 -1273zM559 244l188 552l187 -552h-375z" />
    <glyph glyph-name="uni03A9" unicode="&#x3a9;" horiz-adv-x="1334" 
d="M74 0h548v146l-9 12q-61 64 -103.5 174.5t-42.5 219.5q0 125 56.5 202t143.5 77t143.5 -77.5t56.5 -203.5q0 -104 -40.5 -214t-105.5 -178l-9 -12v-146h549v254l-240 -40q95 77 145.5 180t50.5 234q0 159 -71 274.5t-195.5 178t-284.5 62.5q-157 0 -281 -61t-196 -176
t-72 -277q0 -254 197 -415l-240 40v-254z" />
    <glyph glyph-name="uni03BC" unicode="&#x3bc;" horiz-adv-x="1594" 
d="M206 -320h424v313q32 -25 87 -25q84 0 165 39t132 97v-104h365v1024h-365v-577q0 -49 -26.5 -94t-72.5 -73.5t-105 -28.5q-85 0 -131.5 55t-46.5 139v579h-365v-607q0 -168 -15 -292t-30.5 -229t-15.5 -216z" />
    <glyph glyph-name="pi" unicode="&#x3c0;" horiz-adv-x="1377" 
d="M329 0h278v770h184v-455q0 -172 90 -243.5t305 -71.5v277q-68 0 -93 22t-25 80v391h162v254h-1062v-254h161v-770z" />
    <glyph glyph-name="Wgrave" unicode="&#x1e80;" horiz-adv-x="2336" 
d="M485 0h428l255 907l254 -907h428l471 1650h-429l-276 -1118l-304 1118h-288l-304 -1118l-276 1118h-429zM1271 1717l150 124l-308 463l-239 -182z" />
    <glyph glyph-name="wgrave" unicode="&#x1e81;" horiz-adv-x="1979" 
d="M511 0h246l232 517l233 -517h245l553 1024h-418l-246 -543l-242 543h-249l-243 -543l-246 543h-417zM1092 1091l150 124l-308 463l-239 -182z" />
    <glyph glyph-name="Wacute" unicode="&#x1e82;" horiz-adv-x="2336" 
d="M485 0h428l255 907l254 -907h428l471 1650h-429l-276 -1118l-304 1118h-288l-304 -1118l-276 1118h-429zM1105 1717l397 405l-239 182l-308 -463z" />
    <glyph glyph-name="wacute" unicode="&#x1e83;" horiz-adv-x="1979" 
d="M511 0h246l232 517l233 -517h245l553 1024h-418l-246 -543l-242 543h-249l-243 -543l-246 543h-417zM927 1091l397 405l-239 182l-308 -463z" />
    <glyph glyph-name="Wdieresis" unicode="&#x1e84;" horiz-adv-x="2336" 
d="M485 0h428l255 907l254 -907h428l471 1650h-429l-276 -1118l-304 1118h-288l-304 -1118l-276 1118h-429zM1404 1835q79 0 134 55t55 134t-55 134t-134 55t-134 -55t-55 -134t55 -134t134 -55zM932 1835q79 0 134 55t55 134t-55 134t-134 55t-134 -55t-55 -134t55 -134
t134 -55z" />
    <glyph glyph-name="wdieresis" unicode="&#x1e85;" horiz-adv-x="1979" 
d="M511 0h246l232 517l233 -517h245l553 1024h-418l-246 -543l-242 543h-249l-243 -543l-246 543h-417zM1225 1209q79 0 134 55t55 134t-55 134t-134 55t-134 -55t-55 -134t55 -134t134 -55zM753 1209q79 0 134 55t55 134t-55 134t-134 55t-134 -55t-55 -134t55 -134
t134 -55z" />
    <glyph glyph-name="uni1E9E" unicode="&#x1e9e;" horiz-adv-x="1720" 
d="M1123 -24q144 0 259 63.5t182 172t67 243.5q0 98 -33.5 157.5t-82.5 93t-98.5 54t-83 39.5t-33.5 50q0 27 23 54t53 64.5t53 96t23 146.5q0 146 -73 251.5t-204.5 162.5t-307.5 57q-322 0 -489.5 -194.5t-167.5 -565.5v-920h387v959q0 348 245 348q93 0 144 -50.5
t51 -141.5q0 -68 -23 -109t-53 -71t-53 -63t-23 -85q0 -65 37.5 -102t93.5 -58.5t111.5 -40t93 -47t37.5 -79.5q0 -54 -42.5 -84t-118.5 -30q-66 0 -139 22t-173 70l-73 -372q106 -43 215 -67t196 -24z" />
    <glyph glyph-name="Ygrave" unicode="&#x1ef2;" horiz-adv-x="1529" 
d="M572 0h385v742l610 908h-464l-339 -517l-338 517h-465l611 -908v-742zM867 1717l150 124l-308 463l-239 -182z" />
    <glyph glyph-name="ygrave" unicode="&#x1ef3;" horiz-adv-x="1272" 
d="M82 -520h418l811 1544h-419l-238 -511l-281 511h-419l487 -859zM739 1091l150 124l-308 463l-239 -182z" />
    <glyph glyph-name="endash" unicode="&#x2013;" horiz-adv-x="1425" 
d="M168 422h1089v314h-1089v-314z" />
    <glyph glyph-name="emdash" unicode="&#x2014;" horiz-adv-x="2516" 
d="M168 422h2180v314h-2180v-314z" />
    <glyph glyph-name="quoteleft" unicode="&#x2018;" horiz-adv-x="672" 
d="M321 935q96 0 156 58t60 149q0 75 -42.5 128t-116.5 72q8 41 31 93t53 98t56 69l-94 78q-149 -122 -231.5 -258.5t-82.5 -261.5q0 -104 57 -164.5t154 -60.5z" />
    <glyph glyph-name="quoteright" unicode="&#x2019;" horiz-adv-x="671" 
d="M243 936q149 122 231.5 258.5t82.5 261.5q0 104 -57.5 164.5t-154.5 60.5q-95 0 -155 -58t-60 -150q0 -75 42.5 -127.5t116.5 -72.5q-7 -41 -30.5 -93t-53 -97.5t-56.5 -69.5z" />
    <glyph glyph-name="quotesinglbase" unicode="&#x201a;" horiz-adv-x="767" 
d="M242 -325q149 122 231.5 258.5t82.5 261.5q0 104 -57.5 164.5t-154.5 60.5q-96 0 -156 -57.5t-60 -149.5q0 -75 42.5 -128t116.5 -72q-7 -41 -30 -93t-53 -98t-57 -69z" />
    <glyph glyph-name="quotedblleft" unicode="&#x201c;" horiz-adv-x="1190" 
d="M839 935q96 0 156 58t60 149q0 75 -42.5 128t-116.5 72q7 41 30 93t53 98t57 69l-94 78q-149 -122 -231.5 -258.5t-82.5 -261.5q0 -104 57 -164.5t154 -60.5zM319 935q96 0 156 58t60 149q0 75 -42.5 128t-116.5 72q8 41 31 93t52.5 98t56.5 69l-94 78
q-149 -122 -231.5 -258.5t-82.5 -261.5q0 -104 57 -164.5t154 -60.5z" />
    <glyph glyph-name="quotedblright" unicode="&#x201d;" horiz-adv-x="1186" 
d="M766 935q149 122 231 258.5t82 261.5q0 104 -57 164.5t-154 60.5q-96 0 -156 -58t-60 -150q0 -74 42.5 -127t116.5 -73q-7 -40 -30 -92t-53 -98t-57 -69zM245 935q149 122 232 258.5t83 261.5q0 104 -57.5 164.5t-154.5 60.5q-96 0 -155.5 -58t-59.5 -150q0 -74 42 -127
t116 -73q-7 -40 -30 -92t-53 -98t-57 -69z" />
    <glyph glyph-name="quotedblbase" unicode="&#x201e;" horiz-adv-x="1188" 
d="M244 -325q149 122 232 258.5t83 261.5q0 104 -57.5 164.5t-154.5 60.5q-96 0 -156 -57.5t-60 -149.5q0 -75 42.5 -128t116.5 -72q-7 -41 -30 -93t-53 -98t-57 -69zM764 -325q149 122 231.5 258.5t82.5 261.5q0 104 -57 164.5t-154 60.5q-96 0 -156 -57.5t-60 -149.5
q0 -75 42.5 -128t116.5 -72q-7 -41 -30.5 -93t-53 -98t-56.5 -69z" />
    <glyph glyph-name="dagger" unicode="&#x2020;" horiz-adv-x="1003" 
d="M345 0h313v1024h245v280h-245v416h-313v-416h-246v-280h246v-1024z" />
    <glyph glyph-name="daggerdbl" unicode="&#x2021;" horiz-adv-x="1114" 
d="M400 0h314v456h245v280h-245v247h245v279h-245v458h-314v-458h-245v-279h245v-247h-245v-280h245v-456z" />
    <glyph glyph-name="bullet" unicode="&#x2022;" horiz-adv-x="1092" 
d="M544 313q113 0 204 53.5t144.5 144.5t53.5 203t-53.5 203t-144.5 144.5t-204 53.5q-112 0 -203 -53.5t-144.5 -144.5t-53.5 -203t53.5 -203t144.5 -144.5t203 -53.5z" />
    <glyph glyph-name="ellipsis" unicode="&#x2026;" horiz-adv-x="2260" 
d="M416 -32q66 0 119 31.5t84.5 85t31.5 118.5q0 66 -31.5 119t-84.5 84.5t-119 31.5q-65 0 -118.5 -31.5t-85 -84.5t-31.5 -119q0 -65 31.5 -118.5t85 -85t118.5 -31.5zM1129 -32q65 0 118.5 31.5t85 85t31.5 118.5q0 66 -31.5 119t-85 84.5t-118.5 31.5t-118.5 -31.5
t-85 -84.5t-31.5 -119q0 -65 31.5 -118.5t85 -85t118.5 -31.5zM1841 -32q66 0 119 31.5t84.5 85t31.5 118.5q0 66 -31.5 119t-84.5 84.5t-119 31.5q-65 0 -118.5 -31.5t-85 -84.5t-31.5 -119q0 -65 31.5 -118.5t85 -85t118.5 -31.5z" />
    <glyph glyph-name="perthousand" unicode="&#x2030;" horiz-adv-x="2973" 
d="M510 892q127 0 228 50t160 139t59 205t-59 205t-160 139t-228 50q-126 0 -227.5 -50t-161 -139t-59.5 -205t59.5 -205t161 -139t227.5 -50zM398 0h244l960 1650h-244zM509 1109q-73 0 -126 49.5t-53 127.5t53.5 127.5t126.5 49.5q74 0 127 -49.5t53 -127.5t-53.5 -127.5
t-127.5 -49.5zM1484 -30q127 0 228 50t160 139t59 205t-59 205t-160 139t-228 50q-126 0 -227.5 -50t-161 -139t-59.5 -205t59.5 -205t161 -139t227.5 -50zM2463 -30q127 0 228 50t160 139t59 205t-59 205t-160 139t-228 50q-126 0 -227.5 -50t-160.5 -139t-59 -205t59 -205
t160.5 -139t227.5 -50zM1484 187q-73 0 -126.5 49.5t-53.5 127.5t53.5 127.5t126.5 49.5q74 0 127 -49.5t53 -127.5t-53 -127.5t-127 -49.5zM2463 187q-73 0 -126.5 49.5t-53.5 127.5t53.5 127.5t126.5 49.5q74 0 127 -49.5t53 -127.5t-53 -127.5t-127 -49.5z" />
    <glyph glyph-name="guilsinglleft" unicode="&#x2039;" horiz-adv-x="730" 
d="M451 58l190 149l-274 351l274 350l-190 150l-390 -500z" />
    <glyph glyph-name="guilsinglright" unicode="&#x203a;" horiz-adv-x="726" 
d="M275 58l390 500l-390 500l-190 -150l274 -350l-274 -351z" />
    <glyph glyph-name="fraction" unicode="&#x2044;" horiz-adv-x="202" 
d="M-516 0h245l988 1650h-244z" />
    <glyph glyph-name="uni2074" unicode="&#x2074;" horiz-adv-x="627" 
d="M362 1040h161v106h79v151h-79v353h-170l-328 -455v-49h337v-106zM261 1297l101 150v-150h-101z" />
    <glyph glyph-name="Euro" unicode="&#x20ac;" horiz-adv-x="1815" 
d="M1162 -32q158 0 303 40.5t239 110.5l-163 329q-62 -47 -147.5 -74t-171.5 -27q-142 0 -256 51t-188 145h593v221h-682q-3 14 -4 29.5t-1 30.5t1 30t4 28h682v221h-593q77 95 190 146.5t254 51.5q87 0 172 -26.5t147 -74.5l163 329q-94 71 -239 111t-303 40
q-184 0 -353 -73.5t-297.5 -203.5t-193.5 -300h-193v-221h143q-1 -14 -3 -29t-2 -29t2 -31t3 -29h-143v-221h193q66 -169 195.5 -298.5t297.5 -203t351 -73.5z" />
    <glyph glyph-name="trademark" unicode="&#x2122;" horiz-adv-x="1354" 
d="M553 1134h124l22 294l104 -289h75l104 289l22 -294h123l-45 516h-131l-111 -289l-110 289h-131zM288 1134h125v408h119v108h-364v-108h120v-408z" />
    <glyph glyph-name="uni2150" unicode="&#x2150;" horiz-adv-x="2450" 
d="M331 600h295v1050h-471v-289h176v-761zM396 0h245l988 1650h-244zM1353 0h348l572 966v84h-879v-258h443z" />
    <glyph glyph-name="uni2151" unicode="&#x2151;" horiz-adv-x="2503" 
d="M331 600h295v1050h-471v-289h176v-761zM396 0h245l988 1650h-244zM1449 0h356l255 256q42 42 94 104t87.5 146t27.5 191q-8 119 -71 205t-168.5 132.5t-242.5 46.5q-145 0 -246 -50t-153 -133.5t-52 -184.5q0 -109 55.5 -191.5t142 -128.5t180.5 -46q52 0 79 6zM1800 598
q-70 0 -118.5 34.5t-48.5 86.5t47 85.5t119 33.5q71 0 117 -34t46 -85t-45.5 -86t-116.5 -35z" />
    <glyph glyph-name="uni2152" unicode="&#x2152;" horiz-adv-x="3619" 
d="M331 600h295v1050h-471v-289h176v-761zM396 0h245l988 1650h-244zM1690 0h295v1050h-471v-289h176v-761zM2813 -21q157 0 275.5 70t185 194t66.5 287t-66.5 286.5t-185 193.5t-275.5 70t-276 -70t-185.5 -193.5t-66.5 -286.5t66.5 -287t185.5 -194t276 -70zM2813 238
q-102 0 -160 76t-58 216t58 216t160 76q101 0 158.5 -76t57.5 -216t-57.5 -216t-158.5 -76z" />
    <glyph glyph-name="onethird" unicode="&#x2153;" horiz-adv-x="2478" 
d="M331 600h295v1050h-471v-289h176v-761zM396 0h245l988 1650h-244zM1773 -21q124 0 220.5 48t152 130.5t55.5 186.5q0 71 -30 129.5t-96 106.5q77 77 77 179q0 94 -48.5 166t-134.5 113.5t-198 41.5q-133 0 -236.5 -60.5t-143.5 -164.5l230 -115q14 49 54.5 77t92.5 28
q50 0 83.5 -26t33.5 -64t-32 -69.5t-74 -31.5h-60v-190q23 10 53 10q58 0 97 -36t39 -92q0 -53 -36.5 -84t-98.5 -31q-70 0 -111.5 40t-50.5 102l-271 -137q50 -118 167 -187.5t266 -69.5z" />
    <glyph glyph-name="twothirds" unicode="&#x2154;" horiz-adv-x="3015" 
d="M229 600h939v258h-414q200 98 296 215t96 246q0 102 -55.5 184t-157 130t-240.5 48q-166 0 -284.5 -76t-175.5 -225l245 -123q43 92 90.5 128.5t108.5 36.5q67 0 109.5 -34t42.5 -83q0 -82 -145 -219t-455 -332v-154zM933 0h245l988 1650h-244zM2310 -21q124 0 220.5 48
t152 130.5t55.5 186.5q0 71 -30 129.5t-96 106.5q77 77 77 179q0 94 -48.5 166t-134.5 113.5t-198 41.5q-133 0 -236.5 -60.5t-143.5 -164.5l230 -115q14 49 54.5 77t92.5 28q50 0 83.5 -26t33.5 -64t-32 -69.5t-74 -31.5h-60v-190q23 10 53 10q58 0 97 -36t39 -92
q0 -53 -36.5 -84t-98.5 -31q-70 0 -111.5 40t-50.5 102l-271 -137q50 -118 167 -187.5t266 -69.5z" />
    <glyph glyph-name="uni2155" unicode="&#x2155;" horiz-adv-x="2455" 
d="M331 600h295v1050h-471v-289h176v-761zM396 0h245l988 1650h-244zM1749 -19q136 0 239 49t161.5 131.5t58.5 184.5q0 83 -43 154t-128 118q-124 78 -301 83l17 108h377v241h-621l-105 -594q98 14 172 22t114 8q106 -2 164 -39t58 -105q0 -114 -167 -114q-156 0 -191 93
l-234 -112q44 -103 161.5 -165.5t267.5 -62.5z" />
    <glyph glyph-name="uni2156" unicode="&#x2156;" horiz-adv-x="2992" 
d="M229 600h939v258h-414q200 98 296 215t96 246q0 102 -55.5 184t-157 130t-240.5 48q-166 0 -284.5 -76t-175.5 -225l245 -123q43 92 90.5 128.5t108.5 36.5q67 0 109.5 -34t42.5 -83q0 -82 -145 -219t-455 -332v-154zM933 0h245l988 1650h-244zM2286 -19q136 0 239 49
t161.5 131.5t58.5 184.5q0 83 -43 154t-128 118q-124 78 -301 83l17 108h377v241h-621l-105 -594q98 14 172 22t114 8q106 -2 164 -39t58 -105q0 -114 -167 -114q-156 0 -191 93l-234 -112q44 -103 161.5 -165.5t267.5 -62.5z" />
    <glyph glyph-name="uni2157" unicode="&#x2157;" horiz-adv-x="2895" 
d="M647 579q124 0 221 48t152.5 130.5t55.5 186.5q0 71 -30 129.5t-97 106.5q41 40 59 84.5t18 93.5q0 94 -48.5 166.5t-134 114t-197.5 41.5q-134 0 -237.5 -60.5t-143.5 -164.5l230 -115q14 49 55 77t92 28t84.5 -26t33.5 -64t-32 -69.5t-74 -31.5h-60v-190q23 10 53 10
q57 0 96.5 -36t39.5 -92q0 -53 -37 -84t-99 -31q-70 0 -111.5 40t-49.5 102l-272 -137q50 -118 167.5 -187.5t265.5 -69.5zM836 0h245l988 1650h-244zM2189 -19q136 0 239 49t161.5 131.5t58.5 184.5q0 83 -43 154t-128 118q-124 78 -301 83l17 108h377v241h-621l-105 -594
q98 14 172 22t114 8q106 -2 164 -39t58 -105q0 -114 -167 -114q-156 0 -191 93l-234 -112q44 -103 161.5 -165.5t267.5 -62.5z" />
    <glyph glyph-name="uni2158" unicode="&#x2158;" horiz-adv-x="2985" 
d="M775 600h276v184h136v259h-136v607h-291l-565 -784v-82h580v-184zM598 1043l177 262v-262h-177zM926 0h245l988 1650h-244zM2279 -19q136 0 239 49t161.5 131.5t58.5 184.5q0 83 -43 154t-128 118q-124 78 -301 83l17 108h377v241h-621l-105 -594q98 14 172 22t114 8
q106 -2 164 -39t58 -105q0 -114 -167 -114q-156 0 -191 93l-234 -112q44 -103 161.5 -165.5t267.5 -62.5z" />
    <glyph glyph-name="uni2159" unicode="&#x2159;" horiz-adv-x="2466" 
d="M331 600h295v1050h-471v-289h176v-761zM396 0h245l988 1650h-244zM1810 -20q135 0 236 45.5t157 128.5t56 195q0 104 -48.5 185t-132.5 127t-193 46q-55 0 -83 -7l343 350h-356l-211 -209q-136 -133 -194 -257t-58 -222q0 -109 61 -195.5t170.5 -136.5t252.5 -50z
M1796 223q-72 0 -118 32.5t-46 82.5q0 51 47 84t117 33q74 0 120.5 -34t46.5 -83t-48 -82t-119 -33z" />
    <glyph glyph-name="uni215A" unicode="&#x215a;" horiz-adv-x="2894" 
d="M635 581q137 0 240 49t161 132t58 184q0 175 -169 270q-61 40 -139 61t-164 24l15 108h379v241h-621l-107 -595q62 16 111.5 23.5t99.5 7.5q142 0 220.5 -37.5t78.5 -106.5q0 -53 -45 -83.5t-122 -30.5q-71 0 -123 25t-68 68l-234 -112q44 -104 161 -166t268 -62zM825 0
h245l988 1650h-244zM2239 -20q135 0 236 45.5t157 128.5t56 195q0 104 -48.5 185t-132.5 127t-193 46q-55 0 -83 -7l343 350h-356l-211 -209q-136 -133 -194 -257t-58 -222q0 -109 61 -195.5t170.5 -136.5t252.5 -50zM2225 223q-72 0 -118 32.5t-46 82.5q0 51 47 84t117 33
q74 0 120.5 -34t46.5 -83t-48 -82t-119 -33z" />
    <glyph glyph-name="oneeighth" unicode="&#x215b;" horiz-adv-x="2540" 
d="M331 600h295v1050h-471v-289h176v-761zM396 0h245l988 1650h-244zM1826 -21q124 0 222 42.5t155 115t57 163.5q0 87 -51.5 162t-138.5 114q66 37 103.5 97.5t37.5 128.5q0 82 -52.5 144.5t-140 98t-192.5 35.5q-108 0 -195 -37t-138 -100.5t-51 -141.5q0 -68 38.5 -128
t103.5 -97q-87 -38 -138.5 -113.5t-51.5 -162.5q0 -91 56.5 -163.5t154.5 -115t221 -42.5zM1827 681q-43 0 -72 25.5t-29 63.5t29 63t72 25t71.5 -25t28.5 -63t-28 -63.5t-72 -25.5zM1827 234q-49 0 -80 28t-31 73q0 46 31.5 74.5t79.5 28.5t79 -29t31 -74t-30.5 -73
t-79.5 -28z" />
    <glyph glyph-name="threeeighths" unicode="&#x215c;" horiz-adv-x="2979" 
d="M647 579q124 0 221 48t152.5 130.5t55.5 186.5q0 71 -30 129.5t-97 106.5q41 40 59 84.5t18 93.5q0 94 -48.5 166.5t-134 114t-197.5 41.5q-134 0 -237.5 -60.5t-143.5 -164.5l230 -115q14 49 55 77t92 28t84.5 -26t33.5 -64t-32 -69.5t-74 -31.5h-60v-190q23 10 53 10
q57 0 96.5 -36t39.5 -92q0 -53 -37 -84t-99 -31q-70 0 -111.5 40t-49.5 102l-272 -137q50 -118 167.5 -187.5t265.5 -69.5zM836 0h245l988 1650h-244zM2266 -21q124 0 222 42.5t155 115t57 163.5q0 87 -51.5 162t-138.5 114q66 37 103.5 97.5t37.5 128.5q0 82 -52.5 144.5
t-140 98t-192.5 35.5q-108 0 -195 -37t-138 -100.5t-51 -141.5q0 -68 38.5 -128t103.5 -97q-87 -38 -138.5 -113.5t-51.5 -162.5q0 -91 56.5 -163.5t154.5 -115t221 -42.5zM2267 681q-43 0 -72 25.5t-29 63.5t29 63t72 25t71.5 -25t28.5 -63t-28 -63.5t-72 -25.5zM2267 234
q-49 0 -80 28t-31 73q0 46 31.5 74.5t79.5 28.5t79 -29t31 -74t-30.5 -73t-79.5 -28z" />
    <glyph glyph-name="fiveeighths" unicode="&#x215d;" horiz-adv-x="2969" 
d="M635 581q137 0 240 49t161 132t58 184q0 175 -169 270q-61 40 -139 61t-164 24l15 108h379v241h-621l-107 -595q62 16 111.5 23.5t99.5 7.5q142 0 220.5 -37.5t78.5 -106.5q0 -53 -45 -83.5t-122 -30.5q-71 0 -123 25t-68 68l-234 -112q44 -104 161 -166t268 -62zM825 0
h245l988 1650h-244zM2255 -21q124 0 222 42.5t155 115t57 163.5q0 87 -51.5 162t-138.5 114q66 37 103.5 97.5t37.5 128.5q0 82 -52.5 144.5t-140 98t-192.5 35.5q-108 0 -195 -37t-138 -100.5t-51 -141.5q0 -68 38.5 -128t103.5 -97q-87 -38 -138.5 -113.5t-51.5 -162.5
q0 -91 56.5 -163.5t154.5 -115t221 -42.5zM2256 681q-43 0 -72 25.5t-29 63.5t29 63t72 25t71.5 -25t28.5 -63t-28 -63.5t-72 -25.5zM2256 234q-49 0 -80 28t-31 73q0 46 31.5 74.5t79.5 28.5t79 -29t31 -74t-30.5 -73t-79.5 -28z" />
    <glyph glyph-name="seveneighths" unicode="&#x215e;" horiz-adv-x="2949" 
d="M225 600h348l572 966v84h-879v-258h443zM806 0h245l988 1650h-244zM2236 -21q124 0 222 42.5t155 115t57 163.5q0 87 -51.5 162t-138.5 114q66 37 103.5 97.5t37.5 128.5q0 82 -52.5 144.5t-140 98t-192.5 35.5q-108 0 -195 -37t-138 -100.5t-51 -141.5q0 -68 38.5 -128
t103.5 -97q-87 -38 -138.5 -113.5t-51.5 -162.5q0 -91 56.5 -163.5t154.5 -115t221 -42.5zM2237 681q-43 0 -72 25.5t-29 63.5t29 63t72 25t71.5 -25t28.5 -63t-28 -63.5t-72 -25.5zM2237 234q-49 0 -80 28t-31 73q0 46 31.5 74.5t79.5 28.5t79 -29t31 -74t-30.5 -73
t-79.5 -28z" />
    <glyph glyph-name="uni215F" unicode="&#x215f;" horiz-adv-x="1114" 
d="M331 600h295v1050h-471v-289h176v-761zM396 0h245l988 1650h-244z" />
    <glyph glyph-name="uni2189" unicode="&#x2189;" horiz-adv-x="3063" 
d="M748 579q157 0 275.5 70t185 194t66.5 287t-66.5 286.5t-185 193.5t-275.5 70q-156 0 -275 -70t-185.5 -193.5t-66.5 -286.5t66.5 -287t185.5 -194t275 -70zM748 838q-101 0 -159 76t-58 216t58 216t159 76t159 -76t58 -216t-58 -216t-159 -76zM981 0h245l988 1650h-244z
M2358 -21q124 0 220.5 48t152 130.5t55.5 186.5q0 71 -30 129.5t-96 106.5q77 77 77 179q0 94 -48.5 166t-134.5 113.5t-198 41.5q-133 0 -236.5 -60.5t-143.5 -164.5l230 -115q14 49 54.5 77t92.5 28q50 0 83.5 -26t33.5 -64t-32 -69.5t-74 -31.5h-60v-190q23 10 53 10
q58 0 97 -36t39 -92q0 -53 -36.5 -84t-98.5 -31q-70 0 -111.5 40t-50.5 102l-271 -137q50 -118 167 -187.5t266 -69.5z" />
    <glyph glyph-name="partialdiff" unicode="&#x2202;" horiz-adv-x="1365" 
d="M709 -37q174 0 310 77t214.5 230t78.5 381q0 260 -103 481.5t-285.5 400t-421.5 308.5l-159 -266q182 -103 326 -249.5t207 -319.5q-31 33 -100 55t-147 22q-117 0 -220 -42t-181.5 -117.5t-123 -174.5t-44.5 -213q0 -121 50 -225.5t138.5 -182.5t206.5 -121.5t254 -43.5
zM678 282q-93 0 -163.5 62.5t-70.5 165.5q0 63 29 118t81 89t121 34q94 0 163 -64t69 -167q0 -94 -62.5 -166t-166.5 -72z" />
    <glyph glyph-name="emptyset" unicode="&#x2205;" horiz-adv-x="1200" 
d="M209 74l140 140q57 -38 125.5 -59.5t144.5 -21.5q133 0 240 62t170 170t63 244q0 77 -21 145.5t-58 125.5l139 139l-122 125l-140 -140q-57 39 -125.5 60t-144.5 21q-134 0 -241.5 -63.5t-169.5 -171.5t-62 -242q0 -75 20.5 -143t58.5 -125l-141 -141zM377 609
q0 109 68 173t174 64q52 0 97 -16l-320 -320q-19 45 -19 99zM619 372q-52 0 -96 16l320 321q19 -45 19 -100q0 -109 -68 -173t-175 -64z" />
    <glyph glyph-name="product" unicode="&#x220f;" horiz-adv-x="1481" 
d="M371 0h277v1466h185v-1466h277v1466h161v254h-1061v-254h161v-1466z" />
    <glyph glyph-name="summation" unicode="&#x2211;" horiz-adv-x="1481" 
d="M210 0h1061v254h-675l250 606l-250 606h675v254h-1061l358 -860z" />
    <glyph glyph-name="minus" unicode="&#x2212;" horiz-adv-x="1531" 
d="M252 672h1027v316h-1027v-316z" />
    <glyph glyph-name="DivisionSlash" unicode="&#x2215;" horiz-adv-x="1005" 
d="M-66 -240h313l824 1960h-313z" />
    <glyph glyph-name="radical" unicode="&#x221a;" horiz-adv-x="1843" 
d="M493 -32h337l383 1498h420v254h-640l-345 -1463l-161 352h-277z" />
    <glyph glyph-name="infinity" unicode="&#x221e;" horiz-adv-x="2096" 
d="M566 44q137 0 253.5 77.5t229.5 201.5q112 -124 228.5 -201.5t252.5 -77.5q94 0 182 37t158 104t111.5 158.5t41.5 201.5t-41.5 201.5t-112 158.5t-158.5 103.5t-181 36.5q-136 0 -252.5 -77.5t-228.5 -200.5q-113 123 -229.5 200.5t-253.5 77.5q-93 0 -181 -36.5
t-158 -103.5t-111.5 -158.5t-41.5 -201.5t41 -201.5t111.5 -158.5t158.5 -104t181 -37zM615 361q-67 0 -123.5 51t-56.5 133q0 81 56.5 132t123.5 51q70 0 126.5 -53.5t120.5 -129.5q-65 -76 -121.5 -130t-125.5 -54zM1481 361q-69 0 -125.5 54t-121.5 130
q65 76 121.5 129.5t125.5 53.5q68 0 124 -51t56 -132q0 -82 -56 -133t-124 -51z" />
    <glyph glyph-name="integral" unicode="&#x222b;" horiz-adv-x="1038" 
d="M160 -551q189 0 311 138.5t144 373.5l115 1266q10 113 38.5 156.5t89.5 43.5q60 0 101 -26l149 255q-52 44 -129 69t-157 25q-189 0 -311.5 -138t-144.5 -374l-114 -1266q-10 -113 -39 -156.5t-90 -43.5q-60 0 -100 26l-150 -255q52 -43 129 -68.5t158 -25.5z" />
    <glyph glyph-name="approxequal" unicode="&#x2248;" horiz-adv-x="1602" 
d="M1007 883q56 0 122.5 34.5t126.5 93.5t95 134l-180 159q-16 -57 -59.5 -103t-88.5 -46q-34 0 -82.5 25t-107 57t-121 57t-123.5 25q-102 0 -192.5 -75.5t-144.5 -186.5l180 -159q18 55 56.5 102t105.5 47q50 0 101.5 -25t104 -57t104.5 -57t103 -25zM1007 341
q56 0 122.5 34.5t126.5 93.5t95 134l-180 158q-16 -55 -59.5 -101.5t-88.5 -46.5q-34 0 -82.5 25t-107 57t-121 57t-123.5 25q-102 0 -192.5 -75.5t-144.5 -186.5l180 -159q18 55 56.5 101.5t105.5 46.5q50 0 101.5 -24.5t104 -57t104.5 -57t103 -24.5z" />
    <glyph glyph-name="notequal" unicode="&#x2260;" horiz-adv-x="1440" 
d="M159 135h242l170 295h670v316h-486l98 170h388v316h-203l164 283h-242l-164 -283h-583v-316h399l-99 -170h-300v-316h116z" />
    <glyph glyph-name="lessequal" unicode="&#x2264;" horiz-adv-x="1450" 
d="M1240 530v290l-707 269l707 274v291l-1096 -441v-242zM144 28h1096v315h-1096v-315z" />
    <glyph glyph-name="greaterequal" unicode="&#x2265;" horiz-adv-x="1450" 
d="M210 530l1095 441v242l-1095 441v-291l707 -274l-707 -269v-290zM210 28h1095v315h-1095v-315z" />
    <glyph glyph-name="lozenge" unicode="&#x25ca;" horiz-adv-x="1200" 
d="M494 -80h213l420 875l-420 875h-213l-420 -875zM600 330l-223 465l223 465l223 -465z" />
    <glyph glyph-name="ogonekcomb" horiz-adv-x="684" 
 />
    <glyph glyph-name="M.alt" horiz-adv-x="2102" 
d="M210 0h385v839l342 -820h228l342 820v-839h385v1650h-441l-400 -938l-400 938h-441v-1650z" />
    <glyph glyph-name="i.aalt" horiz-adv-x="701" 
d="M168 0h365v1024h-365v-1024zM352 1269q88 0 150 62.5t62 150.5t-62 150.5t-150 62.5t-151 -62.5t-63 -150.5t63 -150.5t151 -62.5z" />
    <glyph glyph-name="a.alt" horiz-adv-x="1255" 
d="M460 -32q151 0 293 72v-40h370v587q0 140 -73.5 245.5t-205 164.5t-305.5 59q-113 0 -219 -26t-177 -73l114 -248q47 26 125 42t136 16q103 0 169 -49t66 -120v-72q-61 35 -142 55t-160 20q-172 0 -273.5 -90.5t-101.5 -230.5q0 -142 104.5 -227t279.5 -85zM600 186
q-70 0 -116.5 33.5t-46.5 82.5q0 47 44.5 77t114.5 30q72 0 121 -32.5t49 -79.5q0 -46 -48.5 -78.5t-117.5 -32.5z" />
    <glyph glyph-name="j.alt" horiz-adv-x="701" 
d="M351 1241q88 0 150 62.5t62 150.5t-62 150.5t-150 62.5t-151 -62.5t-63 -150.5t63 -150.5t151 -62.5zM168 -520h365v1544h-365v-1544z" />
    <glyph glyph-name="t.alt" horiz-adv-x="841" 
d="M220 0h365v747h214v277h-214v384h-365v-384h-149v-277h149v-747z" />
    <glyph glyph-name="u.alt" horiz-adv-x="1428" 
d="M598 -32q84 0 165 39t132 97v-104h365v1024h-365v-577q0 -49 -26.5 -94t-73 -73.5t-105.5 -28.5q-85 0 -131.5 55t-46.5 139v579h-365v-678q0 -107 43.5 -180t113 -116.5t147.5 -62.5t147 -19z" />
    <glyph glyph-name="f_f_j" horiz-adv-x="2033" 
d="M1565 -550q107 0 179 35.5t115 94t61.5 128t18.5 137.5v1179h-698v203q0 106 33.5 155t122.5 49q68 0 137 -33.5t115 -71.5l125 257q-70 59 -197.5 113t-290.5 54q-129 0 -221 -65t-140.5 -180.5t-48.5 -266.5v-214h-356v203q0 106 20.5 153t87.5 47q33 0 61 -9t44 -18
l127 257q-43 32 -119.5 62.5t-176.5 30.5q-130 0 -221.5 -65t-139.5 -180.5t-48 -266.5v-214h-149v-277h149v-747h365v747h356v-747h365v747h333v-832q0 -137 -94 -137q-25 0 -49.5 10t-39.5 20l-112 -293q35 -21 107.5 -43t178.5 -22z" />
    <glyph glyph-name="f_f_t" horiz-adv-x="2329" 
d="M2002 -32q80 0 150.5 21.5t113.5 43.5l-91 293q-15 -11 -38 -21.5t-47 -10.5q-79 0 -79 141v312h214v277h-214v384h-365v-384h-333v203q0 106 20.5 153t87.5 47q32 0 58.5 -7.5t42.5 -15.5l127 254q-41 32 -116 62t-176 30q-130 0 -221.5 -65t-139.5 -180.5t-48 -266.5
v-214h-354v203q0 106 20.5 153t87.5 47q33 0 61 -9t44 -18l127 257q-43 32 -119.5 62.5t-176.5 30.5q-130 0 -221.5 -65t-139.5 -180.5t-48 -266.5v-214h-149v-277h149v-747h365v747h354v-747h365v747h333v-382q0 -69 15.5 -139.5t54.5 -128.5t108.5 -93.5t177.5 -35.5z" />
    <glyph glyph-name="f_j" horiz-adv-x="1311" 
d="M843 -550q107 0 179 35.5t115 94t61.5 128t18.5 137.5v1179h-698v203q0 106 33.5 155t122.5 49q68 0 137 -33.5t115 -71.5l125 257q-70 59 -197.5 113t-290.5 54q-129 0 -221 -65t-140.5 -180.5t-48.5 -266.5v-214h-149v-277h149v-747h365v747h333v-832q0 -137 -94 -137
q-25 0 -49.5 10t-39.5 20l-112 -293q35 -21 107.5 -43t178.5 -22z" />
    <glyph glyph-name="f_t" horiz-adv-x="1543" 
d="M1249 -32q80 0 150.5 21.5t113.5 43.5l-91 293q-16 -11 -38.5 -21.5t-46.5 -10.5q-79 0 -79 141v312h214v277h-214v384h-365v-384h-333v203q0 106 20.5 153t87.5 47q32 0 58.5 -7.5t43.5 -15.5l127 254q-42 32 -117 62t-176 30q-130 0 -221 -65t-139.5 -180.5
t-48.5 -266.5v-214h-149v-277h149v-747h365v747h333v-382q0 -69 15.5 -139.5t54.5 -128.5t108.5 -93.5t177.5 -35.5z" />
    <glyph glyph-name="zero.dnom" horiz-adv-x="1483" 
d="M678 -21q157 0 275.5 70t185 194t66.5 287t-66.5 286.5t-185 193.5t-275.5 70t-276 -70t-185.5 -193.5t-66.5 -286.5t66.5 -287t185.5 -194t276 -70zM678 238q-102 0 -160 76t-58 216t58 216t160 76q101 0 158.5 -76t57.5 -216t-57.5 -216t-158.5 -76z" />
    <glyph glyph-name="one.dnom" horiz-adv-x="1021" 
d="M576 0h295v1050h-471v-289h176v-761z" />
    <glyph glyph-name="two.dnom" horiz-adv-x="1449" 
d="M229 0h939v258h-414q200 98 296 215t96 246q0 102 -55.5 184t-157 130t-240.5 48q-166 0 -284.5 -76t-175.5 -225l245 -123q43 92 90.5 128.5t108.5 36.5q67 0 109.5 -34t42.5 -83q0 -82 -145 -219t-455 -332v-154z" />
    <glyph glyph-name="three.dnom" horiz-adv-x="1364" 
d="M659 -21q124 0 220.5 48t152 130.5t55.5 186.5q0 71 -30 129.5t-96 106.5q77 77 77 179q0 94 -48.5 166t-134.5 113.5t-198 41.5q-133 0 -236.5 -60.5t-143.5 -164.5l230 -115q14 49 54.5 77t92.5 28q50 0 83.5 -26t33.5 -64t-32 -69.5t-74 -31.5h-60v-190q23 10 53 10
q58 0 97 -36t39 -92q0 -53 -36.5 -84t-98.5 -31q-70 0 -111.5 40t-50.5 102l-271 -137q50 -118 167 -187.5t266 -69.5z" />
    <glyph glyph-name="four.dnom" horiz-adv-x="1354" 
d="M688 0h276v184h136v259h-136v607h-292l-565 -784v-82h581v-184zM511 443l177 262v-262h-177z" />
    <glyph glyph-name="five.dnom" horiz-adv-x="1341" 
d="M635 -19q136 0 239 49t161.5 131.5t58.5 184.5q0 83 -43 154t-128 118q-124 78 -301 83l17 108h377v241h-621l-105 -594q98 14 172 22t114 8q106 -2 164 -39t58 -105q0 -114 -167 -114q-156 0 -191 93l-234 -112q44 -103 161.5 -165.5t267.5 -62.5z" />
    <glyph glyph-name="six.dnom" horiz-adv-x="1352" 
d="M696 -20q135 0 236 45.5t157 128.5t56 195q0 104 -48.5 185t-132.5 127t-193 46q-55 0 -83 -7l343 350h-356l-211 -209q-136 -133 -194 -257t-58 -222q0 -109 61 -195.5t170.5 -136.5t252.5 -50zM682 223q-72 0 -118 32.5t-46 82.5q0 51 47 84t117 33q74 0 120.5 -34
t46.5 -83t-48 -82t-119 -33z" />
    <glyph glyph-name="seven.dnom" horiz-adv-x="1336" 
d="M239 0h348l572 966v84h-879v-258h443z" />
    <glyph glyph-name="eight.dnom" horiz-adv-x="1426" 
d="M712 -21q124 0 222 42.5t155 115t57 163.5q0 87 -51.5 162t-138.5 114q66 37 103.5 97.5t37.5 128.5q0 82 -52.5 144.5t-140 98t-192.5 35.5q-108 0 -195 -37t-138 -100.5t-51 -141.5q0 -68 38.5 -128t103.5 -97q-87 -38 -138.5 -113.5t-51.5 -162.5q0 -91 56.5 -163.5
t154.5 -115t221 -42.5zM713 681q-43 0 -72 25.5t-29 63.5t29 63t72 25t71.5 -25t28.5 -63t-28 -63.5t-72 -25.5zM713 234q-49 0 -80 28t-31 73q0 46 31.5 74.5t79.5 28.5t79 -29t31 -74t-30.5 -73t-79.5 -28z" />
    <glyph glyph-name="nine.dnom" horiz-adv-x="1388" 
d="M335 0h356l255 256q42 42 94 104t87.5 146t27.5 191q-8 119 -71 205t-168.5 132.5t-242.5 46.5q-145 0 -246 -50t-153 -133.5t-52 -184.5q0 -109 55.5 -191.5t142 -128.5t180.5 -46q52 0 79 6zM686 598q-70 0 -118.5 34.5t-48.5 86.5t47 85.5t119 33.5q71 0 117 -34
t46 -85t-45.5 -86t-116.5 -35z" />
    <glyph glyph-name="zero.numr" horiz-adv-x="1497" 
d="M748 579q157 0 275.5 70t185 194t66.5 287t-66.5 286.5t-185 193.5t-275.5 70q-156 0 -275 -70t-185.5 -193.5t-66.5 -286.5t66.5 -287t185.5 -194t275 -70zM748 838q-101 0 -159 76t-58 216t58 216t159 76t159 -76t58 -216t-58 -216t-159 -76z" />
    <glyph glyph-name="one.numr" horiz-adv-x="912" 
d="M331 600h295v1050h-471v-289h176v-761z" />
    <glyph glyph-name="two.numr" horiz-adv-x="1449" 
d="M229 600h939v258h-414q200 98 296 215t96 246q0 102 -55.5 184t-157 130t-240.5 48q-166 0 -284.5 -76t-175.5 -225l245 -123q43 92 90.5 128.5t108.5 36.5q67 0 109.5 -34t42.5 -83q0 -82 -145 -219t-455 -332v-154z" />
    <glyph glyph-name="three.numr" horiz-adv-x="1352" 
d="M647 579q124 0 221 48t152.5 130.5t55.5 186.5q0 71 -30 129.5t-97 106.5q41 40 59 84.5t18 93.5q0 94 -48.5 166.5t-134 114t-197.5 41.5q-134 0 -237.5 -60.5t-143.5 -164.5l230 -115q14 49 55 77t92 28t84.5 -26t33.5 -64t-32 -69.5t-74 -31.5h-60v-190q23 10 53 10
q57 0 96.5 -36t39.5 -92q0 -53 -37 -84t-99 -31q-70 0 -111.5 40t-49.5 102l-272 -137q50 -118 167.5 -187.5t265.5 -69.5z" />
    <glyph glyph-name="four.numr" horiz-adv-x="1442" 
d="M775 600h276v184h136v259h-136v607h-291l-565 -784v-82h580v-184zM598 1043l177 262v-262h-177z" />
    <glyph glyph-name="five.numr" horiz-adv-x="1341" 
d="M635 581q137 0 240 49t161 132t58 184q0 175 -169 270q-61 40 -139 61t-164 24l15 108h379v241h-621l-107 -595q62 16 111.5 23.5t99.5 7.5q142 0 220.5 -37.5t78.5 -106.5q0 -53 -45 -83.5t-122 -30.5q-71 0 -123 25t-68 68l-234 -112q44 -104 161 -166t268 -62z" />
    <glyph glyph-name="six.numr" horiz-adv-x="1388" 
d="M714 580q135 0 236 45.5t157 128.5t56 194q0 104 -48 185t-132 127.5t-194 46.5q-55 0 -82 -7l343 350h-356l-254 -252q-104 -102 -157 -220t-53 -216q0 -109 61.5 -195.5t170.5 -136.5t252 -50zM700 823q-72 0 -118 32.5t-46 82.5q0 51 47.5 84t117.5 33q73 0 120 -34
t47 -83t-48 -82t-120 -33z" />
    <glyph glyph-name="seven.numr" horiz-adv-x="1322" 
d="M225 600h348l572 966v84h-879v-258h443z" />
    <glyph glyph-name="eight.numr" horiz-adv-x="1426" 
d="M712 579q120 0 218.5 41t157 113.5t58.5 166.5q0 89 -52 163.5t-138 112.5q66 37 103.5 97.5t37.5 129.5q0 89 -58 151t-146.5 94t-182.5 32q-100 0 -187.5 -35t-141 -98t-53.5 -146q0 -67 37.5 -127t104.5 -98q-84 -37 -137 -111.5t-53 -164.5q0 -93 58 -165.5t156 -114
t218 -41.5zM713 1281q-43 0 -72 25.5t-29 63.5t29 63t72 25t71.5 -25t28.5 -63t-28 -63.5t-72 -25.5zM713 834q-51 0 -81 29t-30 72q0 46 32 74.5t79 28.5q48 0 79 -29t31 -74q0 -43 -29.5 -72t-80.5 -29z" />
    <glyph glyph-name="nine.numr" horiz-adv-x="1388" 
d="M335 600h356l255 256q42 42 94 104t87.5 146t27.5 191q-8 119 -71 205t-168.5 132.5t-242.5 46.5q-145 0 -246 -50t-153 -133.5t-52 -184.5q0 -109 55.5 -191.5t142 -128.5t180.5 -46q52 0 79 6zM686 1198q-70 0 -118.5 34.5t-48.5 86.5t47 85.5t119 33.5q71 0 117 -34
t46 -85t-45.5 -86t-116.5 -35z" />
    </font>
</defs>
</svg>
